<svg xmlns="http://www.w3.org/2000/svg" viewBox="0 0 129.63 249.48"><defs><style>.cls-1,.cls-2{fill:none;stroke:#000;stroke-width:0.6px;}.cls-1{stroke-linecap:round;stroke-linejoin:round;}.cls-2{stroke-miterlimit:10;}</style></defs><title>Asset 2</title><g id="Layer_2" data-name="Layer 2"><g id="Layer_1-2" data-name="Layer 1"><line class="cls-1" x1="88.82" y1="138.75" x2="85.04" y2="142.53"/><rect x="85.04" y="142.53" width="0.21" height="0.21"/><line class="cls-1" x1="98.26" y1="148.19" x2="88.82" y2="138.75"/><rect x="88.82" y="138.75" width="0.21" height="0.21"/><line class="cls-1" x1="98.26" y1="148.19" x2="85.04" y2="142.53"/><rect x="85.04" y="142.53" width="0.21" height="0.21"/><line class="cls-1" x1="86.93" y1="140.64" x2="75.6" y2="133.09"/><rect x="75.6" y="133.09" width="0.21" height="0.21"/><line class="cls-1" x1="75.6" y1="140.64" x2="75.6" y2="110.44"/><rect x="75.6" y="110.44" width="0.21" height="0.21"/><line class="cls-1" x1="75.6" y1="117.99" x2="98.26" y2="102.88"/><rect x="98.26" y="102.88" width="0.21" height="0.21"/><line class="cls-1" x1="75.6" y1="125.54" x2="68.05" y2="125.54"/><rect x="68.05" y="125.54" width="0.21" height="0.21"/><line class="cls-1" x1="17.08" y1="138.75" x2="20.86" y2="142.53"/><rect x="20.86" y="142.53" width="0.21" height="0.21"/><line class="cls-1" x1="7.64" y1="148.19" x2="17.08" y2="138.75"/><rect x="17.08" y="138.75" width="0.21" height="0.21"/><line class="cls-1" x1="7.64" y1="148.19" x2="20.86" y2="142.53"/><rect x="20.86" y="142.53" width="0.21" height="0.21"/><line class="cls-1" x1="18.97" y1="140.64" x2="30.3" y2="133.09"/><rect x="30.3" y="133.09" width="0.21" height="0.21"/><line class="cls-1" x1="30.3" y1="140.64" x2="30.3" y2="110.44"/><rect x="30.3" y="110.44" width="0.21" height="0.21"/><line class="cls-1" x1="30.3" y1="117.99" x2="7.64" y2="102.88"/><rect x="7.64" y="102.88" width="0.21" height="0.21"/><line class="cls-1" x1="30.3" y1="125.54" x2="37.85" y2="125.54"/><rect x="37.85" y="125.54" width="0.21" height="0.21"/><line class="cls-1" x1="7.64" y1="68.9" x2="7.64" y2="72.68"/><rect x="7.64" y="72.68" width="0.21" height="0.21"/><rect x="7.64" y="68.9" width="0.21" height="0.21"/><line class="cls-1" x1="7.64" y1="35.13" x2="7.64" y2="38.91"/><rect x="7.64" y="38.91" width="0.21" height="0.21"/><line class="cls-1" x1="0.3" y1="65.13" x2="7.64" y2="68.9"/><line class="cls-1" x1="15.19" y1="57.79" x2="0.3" y2="65.13"/><rect x="0.3" y="65.13" width="0.21" height="0.21"/><line class="cls-1" x1="0.3" y1="50.23" x2="15.19" y2="57.79"/><rect x="15.19" y="57.79" width="0.21" height="0.21"/><line class="cls-1" x1="15.19" y1="42.68" x2="0.3" y2="50.23"/><rect x="0.3" y="50.23" width="0.21" height="0.21"/><line class="cls-1" x1="7.64" y1="38.91" x2="15.19" y2="42.68"/><rect x="15.19" y="42.68" width="0.21" height="0.21"/><line class="cls-1" x1="98.26" y1="197.07" x2="98.26" y2="200.84"/><rect x="98.26" y="200.84" width="0.21" height="0.21"/><rect x="98.26" y="197.07" width="0.21" height="0.21"/><line class="cls-1" x1="98.26" y1="163.09" x2="98.26" y2="166.86"/><rect x="98.26" y="166.86" width="0.21" height="0.21"/><line class="cls-1" x1="90.71" y1="193.29" x2="98.26" y2="197.07"/><line class="cls-1" x1="105.81" y1="185.74" x2="90.71" y2="193.29"/><rect x="90.71" y="193.29" width="0.21" height="0.21"/><line class="cls-1" x1="90.71" y1="178.19" x2="105.81" y2="185.74"/><rect x="105.81" y="185.74" width="0.21" height="0.21"/><line class="cls-1" x1="105.81" y1="170.64" x2="90.71" y2="178.19"/><rect x="90.71" y="178.19" width="0.21" height="0.21"/><line class="cls-1" x1="98.26" y1="166.86" x2="105.81" y2="170.64"/><rect x="105.81" y="170.64" width="0.21" height="0.21"/><line class="cls-1" x1="7.64" y1="35.13" x2="7.64" y2="20.03"/><rect x="7.64" y="20.03" width="0.21" height="0.21"/><line class="cls-1" x1="7.64" y1="87.78" x2="7.64" y2="72.68"/><rect x="7.64" y="72.68" width="0.21" height="0.21"/><line class="cls-1" x1="52.95" y1="87.78" x2="7.64" y2="87.78"/><rect x="7.64" y="87.78" width="0.21" height="0.21"/><line class="cls-1" x1="7.64" y1="102.88" x2="7.64" y2="87.78"/><rect x="7.64" y="87.78" width="0.21" height="0.21"/><line class="cls-1" x1="98.26" y1="102.88" x2="98.26" y2="20.03"/><rect x="98.26" y="20.03" width="0.21" height="0.21"/><line class="cls-1" x1="52.95" y1="125.54" x2="52.95" y2="87.78"/><rect x="52.95" y="87.78" width="0.21" height="0.21"/><line class="cls-1" x1="52.95" y1="125.54" x2="37.85" y2="125.54"/><rect x="37.85" y="125.54" width="0.21" height="0.21"/><line class="cls-1" x1="68.05" y1="125.54" x2="52.95" y2="125.54"/><rect x="52.95" y="125.54" width="0.21" height="0.21"/><line class="cls-1" x1="98.26" y1="163.09" x2="98.26" y2="148.19"/><rect x="98.26" y="148.19" width="0.21" height="0.21"/><line class="cls-1" x1="7.64" y1="215.95" x2="7.64" y2="148.19"/><rect x="7.64" y="148.19" width="0.21" height="0.21"/><line class="cls-1" x1="52.95" y1="215.95" x2="7.64" y2="215.95"/><rect x="7.64" y="215.95" width="0.21" height="0.21"/><line class="cls-1" x1="98.26" y1="215.95" x2="98.26" y2="200.84"/><rect x="98.26" y="200.84" width="0.21" height="0.21"/><line class="cls-1" x1="98.26" y1="215.95" x2="52.95" y2="215.95"/><rect x="52.95" y="215.95" width="0.21" height="0.21"/><line class="cls-1" x1="52.95" y1="231.05" x2="52.95" y2="215.95"/><rect x="51.06" y="123.65" width="3.99" height="3.99"/><rect x="5.75" y="85.89" width="3.99" height="3.99"/><rect x="52.95" y="215.95" width="0.21" height="0.21"/><rect x="51.06" y="214.06" width="3.99" height="3.99"/><circle class="cls-2" cx="7.64" cy="17.99" r="2.25"/><circle class="cls-2" cx="52.95" cy="233.3" r="2.25"/><line class="cls-2" x1="105.03" y1="39.9" x2="105.03" y2="68.12"/><polyline class="cls-2" points="108.24 64.91 105.03 68.12 101.83 64.91"/><path d="M115.88,49.43c-1,.08-1.1.16-1.27,1l-1,5c-.18.91-.07,1,.93,1.06l-.06.34h-3.2l.07-.34c1-.08,1.08-.16,1.26-1.06l1-5c.16-.89.07-1-.94-1l.07-.34H116Z" transform="translate(0 -2.1)"/><path d="M117.9,56.34c.82,0,1.36.29,1.36,1a1.21,1.21,0,0,1-1.08,1.12,1.13,1.13,0,0,1,1,1.07c0,.86-.81,1.39-1.9,1.39h-1.85l0-.2c.55,0,.63-.08.74-.64l.56-2.92c.09-.5,0-.54-.55-.59l0-.2ZM116.76,60c-.09.52.07.62.58.62a1.13,1.13,0,0,0,1.2-1.15c0-.7-.54-.93-1.14-.93H117Zm.75-1.7c.8,0,1.13-.43,1.13-1s-.44-.75-.83-.75-.39,0-.45.37l-.27,1.38Z" transform="translate(0 -2.1)"/><path d="M122.13,56.54c-.59.05-.64.09-.74.6l-.56,2.93c-.11.53,0,.58.54.62l0,.2h-1.87l0-.2c.57,0,.63-.1.74-.62l.56-2.93c.1-.52,0-.55-.54-.6l0-.2h1.86Z" transform="translate(0 -2.1)"/><path d="M126.07,60.89h-1.7l0-.2c.51-.06.56-.12.53-.42s-.09-.64-.16-1H123.3c-.11.22-.35.63-.51.94s-.11.46.42.52l0,.2h-1.6l.05-.2c.45-.06.54-.1.88-.67l2.15-3.73.23,0c.3,2.06.46,3,.6,3.84.08.49.13.55.64.6Zm-1.6-3.76h0l-1,1.82h1.28Z" transform="translate(0 -2.1)"/><path d="M126.85,59.64c.07.57.29,1.11,1.05,1.11a.81.81,0,0,0,.87-.9,1.18,1.18,0,0,0-.62-1l-.24-.19a1.48,1.48,0,0,1-.76-1.2,1.28,1.28,0,0,1,1.43-1.24,3.64,3.64,0,0,1,1,.19c-.06.28-.09.69-.13,1h-.21c0-.54-.16-1-.79-1a.76.76,0,0,0-.81.83c0,.42.24.65.62.92l.25.19a1.54,1.54,0,0,1,.79,1.24A1.42,1.42,0,0,1,127.82,61a2.33,2.33,0,0,1-1.21-.34c0-.17,0-.66,0-1Z" transform="translate(0 -2.1)"/><path d="M25.31,56.87h-.12a1.83,1.83,0,0,1-1.91-1.18c-.31-.6-.54-1.16-.8-1.76s-.35-.55-.78-.55h-.53l-.34,1.87c-.2,1-.11,1.1.92,1.2l-.07.33H18.5l.07-.33c.95-.09,1.08-.15,1.27-1.19l.92-4.82c.2-1,.07-1-.91-1.12l.08-.33H22.7c1.33,0,2.41.53,2.41,1.88a2.4,2.4,0,0,1-1.9,2.29c.19.48.41,1,.64,1.44.7,1.46,1,1.78,1.57,2ZM21.82,53a2,2,0,0,0,2.2-2,1.42,1.42,0,0,0-1.44-1.57c-.46,0-.63,0-.75.65l-.57,3Z" transform="translate(0 -2.1)"/><path d="M26.58,56.72a1.21,1.21,0,0,1,.92-.38.87.87,0,0,1,.92.85c0,.53-.38.79-.83,1.05a1,1,0,0,1,.83,1c0,.93-1.13,1.64-2,1.64-.5,0-.84-.29-.84-.48s.15-.32.25-.32a.39.39,0,0,1,.19.1,1.06,1.06,0,0,0,.77.37,1,1,0,0,0,1-1.09.78.78,0,0,0-.79-.88,1.32,1.32,0,0,0-.41.07l0-.2c.81-.22,1.27-.54,1.27-1.08a.53.53,0,0,0-.58-.59,1.16,1.16,0,0,0-.88.52l-.15-.16Z" transform="translate(0 -2.1)"/><path d="M89.77,125.85a4.46,4.46,0,0,1-4.23,4.74,3,3,0,0,1-3.11-3.28c0-2.53,1.76-4.86,4.25-4.86C88.6,122.45,89.77,123.79,89.77,125.85Zm-6.21,1.54c0,1.65.6,2.77,2.07,2.77,2,0,3-2.49,3-4.43,0-1.68-.5-2.85-2-2.85C84.76,122.88,83.56,125.26,83.56,127.39Zm2.57,2.5a18,18,0,0,0,3.37,2.17l-.1.27a6.71,6.71,0,0,1-1.38-.21,12.26,12.26,0,0,1-3-1.91Z" transform="translate(0 -2.1)"/><path d="M23.66,125.85a4.46,4.46,0,0,1-4.23,4.74,3,3,0,0,1-3.11-3.28c0-2.53,1.77-4.86,4.25-4.86C22.49,122.45,23.66,123.79,23.66,125.85Zm-6.21,1.54c0,1.65.6,2.77,2.07,2.77,2,0,3-2.49,3-4.43,0-1.68-.5-2.85-2.05-2.85C18.65,122.88,17.45,125.26,17.45,127.39Zm2.57,2.5a18,18,0,0,0,3.37,2.17l-.1.27a6.71,6.71,0,0,1-1.38-.21,12.47,12.47,0,0,1-3-1.91Z" transform="translate(0 -2.1)"/><path d="M115.93,184.93h-.12a1.84,1.84,0,0,1-1.91-1.18c-.31-.6-.54-1.16-.8-1.76s-.35-.55-.78-.55h-.53l-.35,1.87c-.19,1.05-.11,1.1.92,1.2l-.07.33h-3.18l.08-.33c.94-.09,1.08-.15,1.27-1.19l.92-4.82c.19-1,.06-1-.91-1.12l.07-.33h2.77c1.33,0,2.41.52,2.41,1.88a2.4,2.4,0,0,1-1.89,2.29c.19.48.41,1,.63,1.44.71,1.46,1,1.77,1.58,2ZM112.44,181a2,2,0,0,0,2.19-2,1.42,1.42,0,0,0-1.44-1.57c-.45,0-.62,0-.74.65l-.58,3Z" transform="translate(0 -2.1)"/><path d="M117.2,184.78a1.2,1.2,0,0,1,.91-.38.87.87,0,0,1,.93.85c0,.53-.38.79-.84,1a1.05,1.05,0,0,1,.83,1c0,.93-1.12,1.64-2,1.64-.49,0-.84-.29-.84-.48a.36.36,0,0,1,.26-.32.33.33,0,0,1,.18.1,1.12,1.12,0,0,0,.77.37,1,1,0,0,0,1-1.09.77.77,0,0,0-.78-.88,1.32,1.32,0,0,0-.41.07l0-.2c.81-.22,1.28-.55,1.28-1.08a.53.53,0,0,0-.58-.59,1.18,1.18,0,0,0-.89.52l-.14-.16Z" transform="translate(0 -2.1)"/><path d="M10.45,2.44c-.82.11-1,.19-1.66,1.28S5.92,8.46,5,10H4.64c-.28-2.12-.72-5.13-.95-6.54-.15-.91-.3-1-1.07-1l.09-.34H5.63l-.09.34-.32.05c-.46.07-.63.17-.58.6.08.83.45,3.24.75,5.35.87-1.42,2.42-4.06,3-5.11.36-.66.17-.78-.38-.85l-.3,0L7.8,2.1h2.72Z" transform="translate(0 -2.1)"/><path d="M11.37,12.28V13.9H11V12.28H9.48v-.35H11V10.46h.42v1.47h1.48v.35Z" transform="translate(0 -2.1)"/><path d="M56.66,241.52c-.83.11-1,.19-1.67,1.28s-2.87,4.74-3.77,6.3h-.38c-.28-2.13-.72-5.14-1-6.54-.14-.91-.3-1-1.06-1l.08-.34h2.93l-.1.34-.31,0c-.47.07-.64.16-.59.6.08.82.46,3.23.76,5.34.86-1.41,2.42-4,3-5.1.36-.66.17-.78-.38-.86l-.3,0,.1-.34h2.72Z" transform="translate(0 -2.1)"/><path d="M57.19,251.58H55.56l.12-.4H57.3Z" transform="translate(0 -2.1)"/></g></g></svg>