<svg xmlns="http://www.w3.org/2000/svg" viewBox="0 0 201.92 77.26"><defs><style>.cls-1,.cls-2{fill:none;stroke:#000;stroke-width:0.6px;}.cls-1{stroke-linecap:round;stroke-linejoin:round;}.cls-2{stroke-miterlimit:10;}</style></defs><title>Asset 6</title><g id="Layer_2" data-name="Layer 2"><g id="Layer_1-2" data-name="Layer 1"><line class="cls-1" x1="71.02" y1="7.92" x2="74.82" y2="7.92"/><line class="cls-1" x1="67.21" y1="15.54" x2="71.02" y2="7.92"/><line class="cls-1" x1="60.06" y1="0.3" x2="67.21" y2="15.54"/><line class="cls-1" x1="52.44" y1="15.54" x2="60.06" y2="0.3"/><line class="cls-1" x1="44.83" y1="0.3" x2="52.44" y2="15.54"/><line class="cls-1" x1="37.21" y1="7.92" x2="41.02" y2="7.92"/><line class="cls-1" x1="41.02" y1="7.92" x2="44.83" y2="0.3"/><line class="cls-1" x1="109.11" y1="7.92" x2="105.3" y2="7.92"/><line class="cls-1" x1="142.92" y1="7.92" x2="139.11" y2="7.92"/><line class="cls-1" x1="112.44" y1="0.3" x2="109.11" y2="7.92"/><line class="cls-1" x1="120.06" y1="15.54" x2="112.44" y2="0.3"/><line class="cls-1" x1="127.68" y1="0.3" x2="120.06" y2="15.54"/><line class="cls-1" x1="135.3" y1="15.54" x2="127.68" y2="0.3"/><line class="cls-1" x1="139.11" y1="7.92" x2="135.3" y2="15.54"/><line class="cls-1" x1="105.3" y1="30.77" x2="135.3" y2="45.54"/><line class="cls-1" x1="105.3" y1="60.77" x2="135.3" y2="45.54"/><line class="cls-1" x1="105.3" y1="30.77" x2="105.3" y2="60.77"/><line class="cls-1" x1="107.2" y1="38.39" x2="111.01" y2="38.39"/><line class="cls-1" x1="107.2" y1="53.15" x2="111.01" y2="53.15"/><line class="cls-1" x1="109.11" y1="55.06" x2="109.11" y2="51.25"/><line class="cls-1" x1="81.49" y1="68.39" x2="98.63" y2="68.39"/><line class="cls-1" x1="98.63" y1="68.39" x2="90.06" y2="76.96"/><line class="cls-1" x1="90.06" y1="76.96" x2="81.49" y2="68.39"/><line class="cls-1" x1="37.21" y1="7.92" x2="21.97" y2="7.92"/><line class="cls-1" x1="90.06" y1="7.92" x2="74.82" y2="7.92"/><line class="cls-1" x1="105.3" y1="7.92" x2="90.06" y2="7.92"/><rect x="90.06" y="7.92" width="0.48" height="0.48"/><line class="cls-1" x1="158.15" y1="7.92" x2="142.92" y2="7.92"/><line class="cls-1" x1="172.91" y1="7.92" x2="158.15" y2="7.92"/><rect x="158.15" y="7.92" width="0.48" height="0.48"/><line class="cls-1" x1="90.06" y1="38.39" x2="90.06" y2="7.92"/><rect x="90.06" y="7.92" width="0.48" height="0.48"/><line class="cls-1" x1="105.3" y1="38.39" x2="90.06" y2="38.39"/><line class="cls-1" x1="158.15" y1="45.54" x2="158.15" y2="7.92"/><rect x="158.15" y="7.92" width="0.48" height="0.48"/><line class="cls-1" x1="158.15" y1="45.54" x2="135.3" y2="45.54"/><line class="cls-1" x1="105.3" y1="53.15" x2="90.06" y2="53.15"/><line class="cls-1" x1="90.06" y1="68.39" x2="90.06" y2="53.15"/><rect x="156.25" y="6.01" width="4.29" height="4.29"/><rect x="88.16" y="6.01" width="4.29" height="4.29"/><circle class="cls-2" cx="175.16" cy="7.92" r="2.25"/><path d="M189.17,2.44c-.83.11-1,.19-1.67,1.28s-2.87,4.74-3.77,6.3h-.38c-.28-2.12-.72-5.13-.95-6.54-.14-.91-.3-1-1.07-1l.09-.34h2.92l-.09.34-.31.05c-.47.07-.64.17-.59.6.08.83.46,3.24.76,5.35.86-1.42,2.42-4.06,3-5.11.36-.66.17-.78-.38-.85l-.3,0,.1-.34h2.72Z" transform="translate(-0.46 -1.21)"/><path d="M192.53,11.21A2.62,2.62,0,0,1,190.06,14a1.75,1.75,0,0,1-1.81-1.91,2.69,2.69,0,0,1,2.47-2.83A1.75,1.75,0,0,1,192.53,11.21Zm-3.62.92c0,1,.35,1.62,1.2,1.62,1.17,0,1.76-1.45,1.76-2.59,0-1-.29-1.65-1.2-1.65C189.6,9.51,188.91,10.89,188.91,12.13Z" transform="translate(-0.46 -1.21)"/><path d="M198,9.55c-.47,0-.58.17-.64.43s-.18.69-.43,2-.74,2-2,2c-.95,0-1.71-.47-1.42-1.95l.37-1.88c.1-.54,0-.56-.54-.62l0-.2h1.84l0,.2c-.56.06-.63.07-.73.62L194.15,12c-.23,1.17.25,1.6,1,1.6s1.27-.43,1.51-1.64.33-1.78.35-2-.1-.37-.62-.4l0-.2h1.66Z" transform="translate(-0.46 -1.21)"/><path d="M202.38,9.2c-.08.32-.16.83-.23,1.21h-.21a1.67,1.67,0,0,0,0-.38c0-.31-.12-.42-.76-.42h-.42l-.66,3.43c-.1.57,0,.6.59.65l0,.2h-1.93l.05-.2c.6,0,.65-.09.75-.65l.66-3.43h-.42c-.56,0-.68.09-.81.27a3.11,3.11,0,0,0-.31.54l-.22,0a12.26,12.26,0,0,0,.28-1.21h.16c.07.16.15.15.34.15h2.68a.42.42,0,0,0,.37-.15Z" transform="translate(-0.46 -1.21)"/><circle class="cls-2" cx="19.72" cy="8.05" r="2.25"/><path d="M8.29,2.57c-.83.11-1,.19-1.67,1.28s-2.87,4.74-3.77,6.3H2.47C2.19,8,1.75,5,1.52,3.62c-.14-.92-.3-1-1.06-1.05l.08-.33H3.47l-.1.33-.31.05c-.47.07-.64.17-.59.6.08.83.46,3.24.76,5.35.86-1.42,2.42-4.06,3-5.11.36-.66.17-.78-.38-.85l-.3,0,.1-.33H8.36Z" transform="translate(-0.46 -1.21)"/><path d="M9.59,9.68c-.59.05-.64.09-.74.6l-.56,2.93c-.1.53,0,.58.55.62l0,.2H6.94l0-.2c.56-.05.63-.1.73-.62l.57-2.93c.1-.52,0-.55-.55-.6l0-.2H9.63Z" transform="translate(-0.46 -1.21)"/><path d="M14.79,9.68c-.46,0-.58.15-.66.44s-.14.54-.26,1.17l-.53,2.79H13.1L11,10.39l-.35,1.86a10.36,10.36,0,0,0-.19,1.16c0,.32.12.38.62.42l0,.2H9.36l0-.2c.38,0,.56-.11.66-.42a9.11,9.11,0,0,0,.27-1.18l.38-1.94a.44.44,0,0,0-.09-.4A.82.82,0,0,0,10,9.68l0-.2h1l2.12,3.61.35-1.82a10.86,10.86,0,0,0,.19-1.16c0-.31-.08-.4-.61-.43l0-.2h1.63Z" transform="translate(-0.46 -1.21)"/><path d="M60.18,28.25h-.12a1.84,1.84,0,0,1-1.91-1.18c-.31-.6-.54-1.16-.8-1.76s-.35-.56-.78-.56H56l-.35,1.88c-.19,1.05-.1,1.1.93,1.2l-.07.33H53.37l.07-.33c1-.09,1.08-.15,1.27-1.19l.92-4.82c.2-1,.06-1-.91-1.12l.07-.33h2.78c1.33,0,2.41.52,2.41,1.88a2.41,2.41,0,0,1-1.9,2.29c.19.48.41,1,.64,1.44.7,1.46,1,1.77,1.57,1.95Zm-3.49-3.89a2,2,0,0,0,2.19-2,1.41,1.41,0,0,0-1.43-1.57c-.46,0-.63,0-.75.65l-.57,3Z" transform="translate(-0.46 -1.21)"/><path d="M128,28.25h-.12A1.84,1.84,0,0,1,126,27.07c-.31-.6-.54-1.16-.8-1.76s-.35-.55-.78-.55h-.53l-.35,1.87c-.19,1.05-.11,1.1.92,1.2l-.07.33h-3.18l.08-.33c.94-.09,1.08-.15,1.27-1.19l.92-4.82c.19-1,.06-1-.91-1.12l.07-.33h2.77c1.33,0,2.41.52,2.41,1.88a2.4,2.4,0,0,1-1.89,2.29c.19.48.41,1,.63,1.44.71,1.46,1,1.77,1.58,1.95Zm-3.49-3.89a2,2,0,0,0,2.19-2,1.42,1.42,0,0,0-1.44-1.57c-.45,0-.62,0-.74.65l-.58,3Z" transform="translate(-0.46 -1.21)"/><path d="M131.3,57.39c-.82,0-1,.3-1.11.74s-.3,1.19-.73,3.42S128.19,65,126.06,65c-1.64,0-2.93-.82-2.44-3.35l.64-3.24c.16-.91.06-1-.93-1l.08-.34h3.15l-.06.34c-1,.09-1.07.12-1.25,1l-.62,3.2c-.4,2,.43,2.75,1.7,2.75,1.46,0,2.18-.74,2.59-2.82.45-2.29.58-3,.61-3.5s-.18-.62-1.07-.68l.08-.34h2.84Z" transform="translate(-0.46 -1.21)"/></g></g></svg>