<svg xmlns="http://www.w3.org/2000/svg" viewBox="0 0 122.2 67.04"><defs><style>.cls-1,.cls-3{fill:none;stroke:#000;stroke-width:0.6px;}.cls-1{stroke-miterlimit:10;}.cls-2{font-size:12px;font-family:TimesNewRomanPS-ItalicMT, Times New Roman;font-style:italic;}.cls-3{stroke-linecap:round;stroke-linejoin:round;}.cls-4{font-size:11.68px;font-family:TimesNewRomanPSMT, Times New Roman;}</style></defs><title>Asset 8</title><g id="Layer_2" data-name="Layer 2"><g id="Layer_1-2" data-name="Layer 1"><path class="cls-1" d="M61.4,54a15,15,0,1,1,0-30Z" transform="translate(0 -4.49)"/><path class="cls-1" d="M64.4,24a15,15,0,0,1,0,30Z" transform="translate(0 -4.49)"/><text class="cls-2" transform="translate(50.19 37.68)">Σ</text><path d="M71.57,40.34c-.19.18-.31.3-.31.45s.24.4,1,.75c1.32.61,1.67,1,1.67,1.54,0,1-1.69,1.87-2.9,1.87s-2.24-.63-2.24-1.39c0-.51.71-1,2-1.8-.31-.19-.42-.41-.41-.58s.29-.53.83-.86ZM73,43.47c0-.25-.11-.53-.58-.81A11.64,11.64,0,0,0,71.11,42c-.94.53-1.35,1-1.35,1.39,0,.63.8,1.07,1.7,1.07S73,44,73,43.47ZM70.09,39a2.56,2.56,0,0,1,1.19-2.16,2.78,2.78,0,0,1,1.32-.44,1.58,1.58,0,0,1,1,.33A2.53,2.53,0,0,0,75,36.43l.09.28a1.64,1.64,0,0,1-1.12.59,2.17,2.17,0,0,1,.07.55,2.41,2.41,0,0,1-.84,1.86,2.85,2.85,0,0,1-1.81.69A1.29,1.29,0,0,1,70.09,39Zm3-1c0-.74-.3-1.16-.82-1.16-.71,0-1.28.92-1.28,2,0,.72.35,1.1.8,1.1C72.53,39.92,73.1,39.07,73.1,38Z" transform="translate(0 -4.49)"/><line class="cls-3" x1="79.4" y1="34.53" x2="109.4" y2="34.53"/><circle class="cls-1" cx="14.32" cy="4.53" r="2.25"/><path d="M.82,5.74c.51-.8,1-1.25,1.42-1.25s.57.39.84,1.31l.18.63c1-1.43,1.56-1.94,2.1-1.94A.48.48,0,0,1,5.87,5a.9.9,0,0,1-.29.57.31.31,0,0,1-.25.1c-.14,0-.27-.33-.45-.33s-.72.48-1.48,1.54l.39,1.22c.23.72.41,1.08.61,1.08s.41-.14.88-.7l.21.27C5,9.58,4.39,10,4,10s-.59-.39-.88-1.29l-.32-1C1.58,9.4,1.07,10,.53,10A.52.52,0,0,1,0,9.48c0-.35.3-.72.53-.72s.27.32.44.32.6-.37,1.66-1.83L2.3,6.19c-.2-.64-.31-.87-.48-.87s-.36.12-.76.68Z" transform="translate(0 -4.49)"/><path d="M7.57,13.05c-.08.39-.11.57.32.62l.35,0-.05.2H6.06l0-.2.31,0c.45-.06.51-.1.61-.63l.51-2.6c.08-.4,0-.43-.37-.43H6.89l0-.19a5.45,5.45,0,0,0,1.33-.36Z" transform="translate(0 -4.49)"/><circle class="cls-1" cx="14.32" cy="24.53" r="2.25"/><path d="M.82,25.74c.51-.8,1-1.25,1.42-1.25s.57.39.84,1.31l.18.63c1-1.43,1.56-1.94,2.1-1.94a.47.47,0,0,1,.5.52.89.89,0,0,1-.28.57.31.31,0,0,1-.25.1c-.14,0-.27-.33-.45-.33s-.72.48-1.49,1.54l.4,1.22c.23.72.41,1.08.61,1.08s.41-.14.88-.7l.21.27C5,29.58,4.39,30,4,30s-.59-.39-.88-1.29l-.32-1C1.58,29.4,1.07,30,.53,30A.52.52,0,0,1,0,29.48c0-.35.3-.72.53-.72s.27.32.44.32.6-.37,1.66-1.83L2.3,26.19c-.2-.64-.31-.87-.48-.87s-.36.12-.76.68Z" transform="translate(0 -4.49)"/><path d="M6.78,29.84a1.41,1.41,0,0,1,.94-.38,1,1,0,0,1,1.1,1.1c0,.71-.48,1.2-1.28,1.9l-1.08.95H7.73c.38,0,.48,0,.85-.57l.17.08c-.14.31-.33.69-.45,1H5.69v-.15c1.58-1.38,2.51-2.17,2.51-3.09a.67.67,0,0,0-.73-.75,1.32,1.32,0,0,0-1,.63l-.16-.14Z" transform="translate(0 -4.49)"/><circle class="cls-1" cx="14.32" cy="64.27" r="2.25"/><path d="M6.33,70.08c-.13.67-.17,1,.57,1.07l.59,0-.09.33H3.74l.08-.33c.09,0,.43,0,.52,0,.78-.1.88-.18,1.06-1.08l.88-4.46c.13-.68,0-.73-.64-.74l-.47,0,.07-.32a9.34,9.34,0,0,0,2.29-.62Z" transform="translate(0 -4.49)"/><path d="M14.18,46.09a.6.6,0,0,1,.66-.62.77.77,0,0,1,.79.76.62.62,0,0,1-.67.62A.73.73,0,0,1,14.18,46.09Z" transform="translate(0 -4.49)"/><path d="M14.18,48.67a.6.6,0,0,1,.66-.62.77.77,0,0,1,.79.76.62.62,0,0,1-.67.62A.73.73,0,0,1,14.18,48.67Z" transform="translate(0 -4.49)"/><path d="M14.18,51.25a.6.6,0,0,1,.66-.62.77.77,0,0,1,.79.76A.62.62,0,0,1,15,52,.73.73,0,0,1,14.18,51.25Z" transform="translate(0 -4.49)"/><line class="cls-1" x1="46.4" y1="34.53" x2="16.57" y2="4.53"/><line class="cls-1" x1="16.57" y1="24.53" x2="46.4" y2="34.53"/><line class="cls-1" x1="16.57" y1="64.27" x2="46.4" y2="34.28"/><circle class="cls-1" cx="111.65" cy="34.53" r="2.25"/><path d="M117.3,35.57c.38-.55,1-1.18,1.48-1.18s.58.76.65,1.81.13,2.08.18,2.85c.54-.8,1.74-2.51,1.72-3.38a1.6,1.6,0,0,0-.17-.59.3.3,0,0,1,0-.38.8.8,0,0,1,.55-.31c.28,0,.45.26.45.66a3,3,0,0,1-.42,1.37,37.93,37.93,0,0,1-4.36,6.11l-1.24.32-.11-.27A10.9,10.9,0,0,0,118.82,40c0-1-.16-2.69-.27-3.78-.07-.73-.19-1-.31-1s-.45.28-.74.63Z" transform="translate(0 -4.49)"/><text class="cls-4" transform="translate(23.58 10.3)">ω</text><text class="cls-4" transform="translate(31.28 14.19) scale(0.58)">1</text><text class="cls-4" transform="translate(22.91 24.41)">ω</text><text class="cls-4" transform="translate(30.6 28.3) scale(0.58)">2</text><text class="cls-4" transform="translate(31.48 59.4)">b</text></g></g></svg>