<svg xmlns="http://www.w3.org/2000/svg" viewBox="0 0 123.28 98.8"><defs><style>.cls-1,.cls-2{fill:none;stroke:#000;stroke-width:0.6px;}.cls-1{stroke-linecap:round;stroke-linejoin:round;}.cls-2{stroke-miterlimit:10;}</style></defs><title>Asset 1</title><g id="Layer_2" data-name="Layer 2"><g id="Layer_1-2" data-name="Layer 1"><line class="cls-1" x1="40.09" y1="22.4" x2="36.35" y2="22.4"/><rect x="36.35" y="22.4" width="0.1" height="0.1"/><rect x="40.09" y="22.4" width="0.1" height="0.1"/><line class="cls-1" x1="73.82" y1="22.4" x2="70.09" y2="22.4"/><rect x="70.09" y="22.4" width="0.1" height="0.1"/><line class="cls-1" x1="43.82" y1="14.93" x2="40.09" y2="22.4"/><line class="cls-1" x1="51.3" y1="29.98" x2="43.82" y2="14.93"/><rect x="43.82" y="14.93" width="0.1" height="0.1"/><line class="cls-1" x1="58.87" y1="14.93" x2="51.3" y2="29.98"/><rect x="51.3" y="29.98" width="0.1" height="0.1"/><line class="cls-1" x1="66.35" y1="29.98" x2="58.87" y2="14.93"/><rect x="58.87" y="14.93" width="0.1" height="0.1"/><line class="cls-1" x1="70.09" y1="22.4" x2="66.35" y2="29.98"/><rect x="66.35" y="29.98" width="0.1" height="0.1"/><line class="cls-1" x1="88.87" y1="71.28" x2="88.87" y2="75.02"/><rect x="88.87" y="75.02" width="0.1" height="0.1"/><rect x="88.87" y="71.28" width="0.1" height="0.1"/><line class="cls-1" x1="88.87" y1="37.45" x2="88.87" y2="41.19"/><rect x="88.87" y="41.19" width="0.1" height="0.1"/><line class="cls-1" x1="81.4" y1="67.45" x2="88.87" y2="71.28"/><line class="cls-1" x1="96.44" y1="59.98" x2="81.4" y2="67.45"/><rect x="81.4" y="67.45" width="0.1" height="0.1"/><line class="cls-1" x1="81.4" y1="52.5" x2="96.44" y2="59.98"/><rect x="96.44" y="59.98" width="0.1" height="0.1"/><line class="cls-1" x1="96.44" y1="44.93" x2="81.4" y2="52.5"/><rect x="81.4" y="52.5" width="0.1" height="0.1"/><line class="cls-1" x1="88.87" y1="41.19" x2="96.44" y2="44.93"/><rect x="96.44" y="44.93" width="0.1" height="0.1"/><line class="cls-1" x1="80.44" y1="90.07" x2="97.31" y2="90.07"/><rect x="97.31" y="90.07" width="0.1" height="0.1"/><line class="cls-1" x1="97.31" y1="90.07" x2="88.87" y2="98.5"/><rect x="88.87" y="98.5" width="0.1" height="0.1"/><line class="cls-1" x1="88.87" y1="98.5" x2="80.44" y2="90.07"/><rect x="80.44" y="90.07" width="0.1" height="0.1"/><line class="cls-1" x1="36.35" y1="22.4" x2="21.3" y2="22.4"/><rect x="21.3" y="22.4" width="0.1" height="0.1"/><line class="cls-1" x1="88.87" y1="22.4" x2="73.82" y2="22.4"/><rect x="73.82" y="22.4" width="0.1" height="0.1"/><line class="cls-1" x1="103.92" y1="22.4" x2="88.87" y2="22.4"/><rect x="88.87" y="22.4" width="0.1" height="0.1"/><line class="cls-1" x1="88.87" y1="37.45" x2="88.87" y2="22.4"/><rect x="88.87" y="22.4" width="0.1" height="0.1"/><line class="cls-1" x1="88.87" y1="90.07" x2="88.87" y2="75.02"/><rect x="88.87" y="75.02" width="0.1" height="0.1"/><path d="M56.67,10h-.12a1.81,1.81,0,0,1-1.9-1.17c-.31-.6-.54-1.16-.81-1.76s-.34-.56-.78-.56h-.52l-.35,1.88c-.19,1.05-.11,1.1.92,1.19L53,9.9H49.86l.07-.34c1-.08,1.08-.14,1.28-1.18l.92-4.82c.19-1,.06-1-.91-1.12l.07-.34h2.77c1.33,0,2.41.53,2.41,1.89a2.41,2.41,0,0,1-1.89,2.29c.19.48.4,1,.63,1.44.71,1.46,1,1.77,1.57,2ZM53.18,6.1a2,2,0,0,0,2.2-2,1.42,1.42,0,0,0-1.44-1.57c-.46,0-.62,0-.74.65l-.58,3Z" transform="translate(-0.46 -2.1)"/><path d="M58.63,13.05c-.08.39-.11.57.33.62l.34,0,0,.2H57.12l0-.2.31,0c.45-.06.51-.1.61-.63l.51-2.6c.08-.4,0-.43-.37-.43H58l0-.19a5.52,5.52,0,0,0,1.34-.36Z" transform="translate(-0.46 -2.1)"/><path d="M106.76,59.2h-.12A1.82,1.82,0,0,1,104.73,58c-.31-.6-.54-1.16-.8-1.76s-.35-.55-.78-.55h-.53l-.35,1.87c-.19,1.06-.1,1.1.93,1.2l-.07.34H100l.07-.34c1-.08,1.08-.14,1.27-1.19l.92-4.82c.2-1,.06-1-.91-1.11l.07-.34h2.77c1.34,0,2.41.53,2.41,1.88a2.39,2.39,0,0,1-1.89,2.29c.19.48.41,1,.64,1.44.7,1.47,1,1.78,1.57,2Zm-3.49-3.89a2,2,0,0,0,2.19-2A1.42,1.42,0,0,0,104,51.7c-.45,0-.62,0-.74.65l-.57,3Z" transform="translate(-0.46 -2.1)"/><path d="M107.93,59.05a1.41,1.41,0,0,1,.94-.38A1,1,0,0,1,110,59.78c0,.7-.47,1.2-1.28,1.9l-1.07.94h1.26c.39,0,.49,0,.86-.56l.17.08c-.15.3-.33.69-.45,1h-2.62l0-.15c1.58-1.38,2.51-2.17,2.51-3.08a.67.67,0,0,0-.73-.75,1.33,1.33,0,0,0-1,.63l-.15-.15Z" transform="translate(-0.46 -2.1)"/><circle class="cls-2" cx="19.15" cy="22.5" r="2.25"/><circle class="cls-2" cx="106.17" cy="22.5" r="2.25"/><path d="M120.16,17.82c-.83.11-1,.2-1.67,1.29s-2.86,4.73-3.76,6.29h-.39c-.27-2.12-.71-5.13-.94-6.53-.15-.92-.3-1-1.07-1.05l.08-.33h2.93l-.1.33-.31.05c-.47.07-.63.17-.59.6.09.83.46,3.24.76,5.35.86-1.42,2.42-4.05,3-5.11.36-.66.17-.78-.39-.85l-.29,0,.09-.33h2.72Z" transform="translate(-0.46 -2.1)"/><path d="M121.47,24.93c-.59.05-.65.09-.74.6l-.56,2.93c-.11.53,0,.58.54.62l0,.2h-1.87l0-.2c.57,0,.63-.1.74-.62l.56-2.93c.1-.51,0-.55-.54-.6l0-.19h1.86Z" transform="translate(-0.46 -2.1)"/><path d="M123,28.43c-.08.39-.11.58.32.63l.35,0,0,.2h-2.13l0-.2.31,0c.45,0,.5-.1.61-.63l.51-2.6c.08-.39,0-.42-.37-.43h-.27l0-.19a5,5,0,0,0,1.33-.36Z" transform="translate(-0.46 -2.1)"/><path d="M8.29,17.82c-.83.11-1,.19-1.67,1.29S3.75,23.84,2.85,25.4H2.47c-.28-2.12-.72-5.13-1-6.53-.14-.92-.3-1-1.06-1.05l.08-.33H3.47l-.1.33-.31.05c-.47.07-.64.17-.59.6.08.83.46,3.24.76,5.35.86-1.42,2.42-4.05,3-5.11.36-.66.17-.78-.38-.85l-.3,0,.1-.33H8.36Z" transform="translate(-0.46 -2.1)"/><path d="M9.59,24.93C9,25,9,25,8.85,25.53l-.56,2.93c-.1.53,0,.58.55.62l0,.2H6.94l0-.2c.56,0,.63-.1.73-.62l.57-2.93c.1-.51,0-.55-.55-.6l0-.19H9.63Z" transform="translate(-0.46 -2.1)"/><path d="M14.79,24.93c-.46,0-.58.15-.66.44s-.14.54-.26,1.18l-.53,2.78H13.1L11,25.64l-.35,1.86a10.36,10.36,0,0,0-.19,1.16c0,.32.12.38.62.42l0,.2H9.36l0-.2c.38,0,.56-.11.66-.42a10.55,10.55,0,0,0,.28-1.18l.37-1.94a.44.44,0,0,0-.09-.4.82.82,0,0,0-.58-.21l0-.19h1l2.12,3.6.35-1.82a11.27,11.27,0,0,0,.19-1.15c0-.32-.08-.41-.61-.44l0-.19h1.63Z" transform="translate(-0.46 -2.1)"/></g></g></svg>