<svg xmlns="http://www.w3.org/2000/svg" viewBox="0 0 197.11 157.26"><defs><style>.cls-1,.cls-2{fill:none;stroke:#000;stroke-width:0.6px;}.cls-1{stroke-linecap:round;stroke-linejoin:round;}.cls-2{stroke-miterlimit:10;}</style></defs><title>Asset 5</title><g id="Layer_2" data-name="Layer 2"><g id="Layer_1-2" data-name="Layer 1"><line class="cls-1" x1="66.2" y1="88.39" x2="70.01" y2="88.39"/><line class="cls-1" x1="62.39" y1="95.53" x2="66.2" y2="88.39"/><line class="cls-1" x1="54.77" y1="80.77" x2="62.39" y2="95.53"/><line class="cls-1" x1="47.16" y1="95.53" x2="54.77" y2="80.77"/><line class="cls-1" x1="39.54" y1="80.77" x2="47.16" y2="95.53"/><line class="cls-1" x1="31.92" y1="88.39" x2="35.73" y2="88.39"/><line class="cls-1" x1="35.73" y1="88.39" x2="39.54" y2="80.77"/><line class="cls-1" x1="103.82" y1="88.39" x2="100.01" y2="88.39"/><line class="cls-1" x1="137.63" y1="88.39" x2="133.82" y2="88.39"/><line class="cls-1" x1="107.63" y1="80.77" x2="103.82" y2="88.39"/><line class="cls-1" x1="115.25" y1="95.53" x2="107.63" y2="80.77"/><line class="cls-1" x1="122.39" y1="80.77" x2="115.25" y2="95.53"/><line class="cls-1" x1="130.01" y1="95.53" x2="122.39" y2="80.77"/><line class="cls-1" x1="133.82" y1="88.39" x2="130.01" y2="95.53"/><line class="cls-1" x1="100.01" y1="110.77" x2="130.01" y2="126.01"/><rect x="130.01" y="126.01" width="0.48" height="0.48"/><line class="cls-1" x1="100.01" y1="140.77" x2="130.01" y2="126.01"/><rect x="130.01" y="126.01" width="0.48" height="0.48"/><line class="cls-1" x1="100.01" y1="110.77" x2="100.01" y2="140.77"/><line class="cls-1" x1="101.91" y1="118.39" x2="105.72" y2="118.39"/><line class="cls-1" x1="101.91" y1="133.63" x2="105.72" y2="133.63"/><line class="cls-1" x1="103.82" y1="135.53" x2="103.82" y2="131.72"/><rect x="115.25" y="118.39" width="0.48" height="0.48"/><line class="cls-1" x1="35.73" y1="47.92" x2="31.92" y2="47.92"/><line class="cls-1" x1="39.54" y1="40.3" x2="35.73" y2="47.92"/><line class="cls-1" x1="47.16" y1="55.54" x2="39.54" y2="40.3"/><line class="cls-1" x1="54.77" y1="40.3" x2="47.16" y2="55.54"/><line class="cls-1" x1="62.39" y1="55.54" x2="54.77" y2="40.3"/><line class="cls-1" x1="70.01" y1="47.92" x2="66.2" y2="47.92"/><line class="cls-1" x1="66.2" y1="47.92" x2="62.39" y2="55.54"/><line class="cls-1" x1="35.73" y1="7.92" x2="31.92" y2="7.92"/><line class="cls-1" x1="70.01" y1="7.92" x2="66.2" y2="7.92"/><line class="cls-1" x1="39.54" y1="0.3" x2="35.73" y2="7.92"/><line class="cls-1" x1="47.16" y1="15.54" x2="39.54" y2="0.3"/><line class="cls-1" x1="54.77" y1="0.3" x2="47.16" y2="15.54"/><line class="cls-1" x1="62.39" y1="15.54" x2="54.77" y2="0.3"/><line class="cls-1" x1="66.2" y1="7.92" x2="62.39" y2="15.54"/><line class="cls-1" x1="76.2" y1="148.39" x2="93.34" y2="148.39"/><line class="cls-1" x1="93.34" y1="148.39" x2="84.77" y2="156.96"/><line class="cls-1" x1="84.77" y1="156.96" x2="76.2" y2="148.39"/><rect x="76.2" y="148.39" width="0.48" height="0.48"/><line class="cls-1" x1="31.92" y1="7.92" x2="17.16" y2="7.92"/><line class="cls-1" x1="84.77" y1="7.92" x2="70.01" y2="7.92"/><line class="cls-1" x1="31.92" y1="47.92" x2="17.16" y2="47.92"/><line class="cls-1" x1="84.77" y1="47.92" x2="84.77" y2="7.92"/><line class="cls-1" x1="84.77" y1="47.92" x2="70.01" y2="47.92"/><line class="cls-1" x1="31.92" y1="88.39" x2="17.16" y2="88.39"/><line class="cls-1" x1="84.77" y1="88.39" x2="84.77" y2="47.92"/><rect x="84.77" y="47.92" width="0.48" height="0.48"/><line class="cls-1" x1="84.77" y1="88.39" x2="70.01" y2="88.39"/><line class="cls-1" x1="100.01" y1="88.39" x2="84.77" y2="88.39"/><rect x="84.77" y="88.39" width="0.48" height="0.48"/><line class="cls-1" x1="152.86" y1="88.39" x2="137.63" y2="88.39"/><line class="cls-1" x1="168.1" y1="88.39" x2="152.86" y2="88.39"/><rect x="152.86" y="88.39" width="0.48" height="0.48"/><line class="cls-1" x1="84.77" y1="118.39" x2="84.77" y2="88.39"/><rect x="84.77" y="88.39" width="0.48" height="0.48"/><line class="cls-1" x1="100.01" y1="118.39" x2="84.77" y2="118.39"/><line class="cls-1" x1="152.86" y1="126.01" x2="152.86" y2="88.39"/><rect x="152.86" y="88.39" width="0.48" height="0.48"/><line class="cls-1" x1="152.86" y1="126.01" x2="130.01" y2="126.01"/><line class="cls-1" x1="100.01" y1="133.63" x2="84.77" y2="133.63"/><rect x="84.77" y="133.63" width="0.48" height="0.48"/><line class="cls-1" x1="84.77" y1="148.39" x2="84.77" y2="133.63"/><rect x="84.77" y="133.63" width="0.48" height="0.48"/><rect x="150.96" y="86.49" width="4.29" height="4.29"/><rect x="82.87" y="86.49" width="4.29" height="4.29"/><rect x="82.87" y="46.01" width="4.29" height="4.29"/><circle class="cls-2" cx="170.35" cy="88.39" r="2.25"/><path d="M184.35,82.81c-.82.11-1,.19-1.66,1.28s-2.87,4.74-3.77,6.3h-.38c-.28-2.13-.72-5.14-.95-6.54-.15-.91-.3-1-1.07-1l.09-.34h2.92l-.09.34-.32,0c-.46.07-.63.16-.58.6.08.82.45,3.23.75,5.34.87-1.41,2.42-4,3-5.1.36-.66.17-.78-.38-.86l-.3,0,.09-.34h2.73Z" transform="translate(-0.46 -1.1)"/><path d="M187.71,91.58a2.63,2.63,0,0,1-2.46,2.79,1.75,1.75,0,0,1-1.81-1.92,2.69,2.69,0,0,1,2.47-2.83A1.75,1.75,0,0,1,187.71,91.58Zm-3.62.92c0,1,.36,1.62,1.21,1.62,1.17,0,1.76-1.46,1.76-2.6,0-1-.3-1.64-1.2-1.64C184.78,89.88,184.09,91.26,184.09,92.5Z" transform="translate(-0.46 -1.1)"/><path d="M193.22,89.92c-.48,0-.58.17-.64.43s-.18.69-.43,2-.74,2-2,2c-.95,0-1.7-.48-1.41-2l.37-1.89c.09-.53,0-.56-.54-.61l0-.2h1.84l0,.2c-.56,0-.62.07-.72.61l-.37,1.87c-.23,1.16.25,1.6,1,1.6s1.28-.44,1.51-1.64.34-1.78.36-2-.1-.37-.63-.4l.05-.2h1.66Z" transform="translate(-0.46 -1.1)"/><path d="M197.56,89.57c-.07.32-.16.83-.22,1.21h-.22a2.42,2.42,0,0,0,0-.38c0-.31-.12-.42-.76-.42h-.43l-.65,3.43c-.11.56,0,.6.58.65l0,.19h-1.92l.05-.19c.59,0,.64-.09.75-.65l.65-3.43h-.42c-.55,0-.67.09-.8.27a2.34,2.34,0,0,0-.31.54l-.23,0a10.05,10.05,0,0,0,.29-1.21H194c.07.16.15.15.34.15H197a.39.39,0,0,0,.36-.15Z" transform="translate(-0.46 -1.1)"/><path d="M53.16,26.65H53a1.83,1.83,0,0,1-1.91-1.18c-.31-.6-.53-1.16-.8-1.76s-.35-.55-.78-.55H49L48.68,25c-.2,1-.11,1.1.92,1.2l-.07.33H46.35l.07-.33c.95-.09,1.08-.15,1.27-1.19l.93-4.82c.19-1,.06-1-.91-1.12l.07-.33h2.77c1.33,0,2.41.52,2.41,1.88a2.41,2.41,0,0,1-1.9,2.29c.19.48.41,1,.64,1.44.71,1.46,1,1.77,1.57,2Zm-3.49-3.89a2,2,0,0,0,2.2-2,1.42,1.42,0,0,0-1.44-1.57c-.46,0-.63,0-.75.65l-.57,3Z" transform="translate(-0.46 -1.1)"/><path d="M55.12,29.71c-.08.4-.11.58.32.63l.35,0,0,.2H53.61l0-.2.31,0c.45-.05.51-.1.61-.63l.51-2.6c.08-.4,0-.42-.37-.43h-.27l0-.19a5,5,0,0,0,1.33-.36Z" transform="translate(-0.46 -1.1)"/><path d="M53.16,67.63H53a1.84,1.84,0,0,1-1.91-1.17c-.31-.6-.53-1.17-.8-1.77-.2-.45-.35-.55-.78-.55H49L48.68,66c-.2,1.06-.11,1.11.92,1.2l-.07.34H46.35l.07-.34c.95-.08,1.08-.14,1.27-1.19l.93-4.82c.19-1,.06-1-.91-1.11l.07-.34h2.77c1.33,0,2.41.53,2.41,1.88a2.41,2.41,0,0,1-1.9,2.3c.19.48.41,1,.64,1.44.71,1.46,1,1.77,1.57,1.95Zm-3.49-3.88a2,2,0,0,0,2.2-2,1.41,1.41,0,0,0-1.44-1.57c-.46,0-.63,0-.75.64l-.57,3Z" transform="translate(-0.46 -1.1)"/><path d="M54.33,67.48a1.4,1.4,0,0,1,.94-.37,1,1,0,0,1,1.1,1.1c0,.71-.48,1.2-1.28,1.9L54,71.05h1.27c.38,0,.49,0,.85-.56l.17.08-.45,1H53.24V71.4c1.58-1.39,2.52-2.18,2.52-3.09a.68.68,0,0,0-.74-.75,1.3,1.3,0,0,0-1,.63L53.89,68Z" transform="translate(-0.46 -1.1)"/><path d="M53.16,107.58H53a1.81,1.81,0,0,1-1.9-1.18c-.32-.6-.54-1.16-.81-1.76s-.35-.55-.78-.55H49L48.68,106c-.2,1.05-.11,1.1.92,1.2l-.07.33H46.35l.07-.33c.95-.09,1.08-.15,1.27-1.19l.93-4.82c.19-1,.06-1-.91-1.12l.07-.33h2.77c1.33,0,2.41.53,2.41,1.88a2.4,2.4,0,0,1-1.9,2.29c.2.48.41,1,.64,1.44.71,1.46,1,1.77,1.57,2Zm-3.49-3.89a2,2,0,0,0,2.2-2,1.42,1.42,0,0,0-1.44-1.57c-.46,0-.63,0-.75.65l-.57,3Z" transform="translate(-0.46 -1.1)"/><path d="M54.43,107.43a1.21,1.21,0,0,1,.92-.38.88.88,0,0,1,.93.85c0,.53-.39.79-.84,1a1,1,0,0,1,.83,1c0,.93-1.13,1.64-2,1.64-.5,0-.84-.29-.84-.48s.15-.32.25-.32.11,0,.19.1a1.1,1.1,0,0,0,.77.37,1,1,0,0,0,1-1.09.78.78,0,0,0-.79-.88,1.38,1.38,0,0,0-.41.07l0-.2c.81-.22,1.28-.54,1.28-1.08a.54.54,0,0,0-.58-.59,1.16,1.16,0,0,0-.89.52l-.15-.16Z" transform="translate(-0.46 -1.1)"/><path d="M120.64,107.58h-.12a1.84,1.84,0,0,1-1.91-1.18c-.31-.6-.54-1.16-.8-1.76s-.35-.55-.78-.55h-.53l-.35,1.87c-.19,1.05-.1,1.1.93,1.2l-.07.33h-3.18l.07-.33c.95-.09,1.08-.15,1.27-1.19l.92-4.82c.2-1,.06-1-.91-1.12l.08-.33H118c1.33,0,2.41.52,2.41,1.88a2.41,2.41,0,0,1-1.9,2.29c.19.48.41,1,.64,1.44.7,1.46,1,1.77,1.57,2Zm-3.49-3.89a2,2,0,0,0,2.2-2,1.42,1.42,0,0,0-1.44-1.57c-.46,0-.63,0-.75.65l-.57,3Z" transform="translate(-0.46 -1.1)"/><path d="M123.89,107h.92c-.06.23-.13.68-.18,1.06h-.22a3.13,3.13,0,0,0-.06-.48c0-.22-.17-.32-.55-.32H123c-.23,0-.28,0-.32.27l-.3,1.58h.83c.58,0,.61-.07.82-.56h.21L124,110h-.21c0-.57,0-.62-.59-.62h-.82l-.26,1.28c-.1.57-.07.62.6.67l0,.2h-1.9l0-.2c.56-.05.6-.09.72-.68l.54-2.78c.12-.6.06-.63-.53-.69l0-.19Z" transform="translate(-0.46 -1.1)"/><circle class="cls-2" cx="14.91" cy="7.92" r="2.25"/><path d="M8.29,2.44c-.83.11-1,.19-1.67,1.28S3.75,8.46,2.85,10H2.47c-.28-2.12-.72-5.13-1-6.54-.14-.91-.3-1-1.06-1L.54,2.1H3.47l-.1.34-.31.05c-.47.07-.64.17-.59.6.08.83.46,3.24.76,5.35.86-1.42,2.42-4.06,3-5.11.36-.66.17-.78-.38-.85l-.3,0,.1-.34H8.36Z" transform="translate(-0.46 -1.1)"/><path d="M8.75,13.05c-.07.39-.1.57.33.62l.34,0,0,.2H7.24l0-.2.3,0c.46-.06.51-.1.62-.63l.51-2.6c.08-.4,0-.43-.37-.43H8.08l0-.19a5.45,5.45,0,0,0,1.33-.36Z" transform="translate(-0.46 -1.1)"/><circle class="cls-2" cx="14.91" cy="47.92" r="2.25"/><path d="M8.29,42.44c-.83.11-1,.19-1.67,1.28S3.75,48.46,2.85,50H2.47c-.28-2.12-.72-5.14-1-6.54-.14-.91-.3-1-1.06-1l.08-.34H3.47l-.1.34-.31.05c-.47.07-.64.16-.59.6.08.82.46,3.23.76,5.35.86-1.42,2.42-4.06,3-5.11.36-.66.17-.78-.38-.86l-.3,0,.1-.34H8.36Z" transform="translate(-0.46 -1.1)"/><path d="M8,49.83a1.4,1.4,0,0,1,.94-.37A1,1,0,0,1,10,50.56c0,.71-.47,1.2-1.27,1.9l-1.08.95H8.91c.39,0,.49,0,.86-.57l.17.08c-.15.3-.33.69-.45,1H6.87l0-.14c1.58-1.39,2.51-2.18,2.51-3.09a.67.67,0,0,0-.73-.75,1.33,1.33,0,0,0-1,.63l-.15-.15Z" transform="translate(-0.46 -1.1)"/><circle class="cls-2" cx="14.91" cy="88.39" r="2.25"/><path d="M8.29,82.91c-.83.11-1,.2-1.67,1.29s-2.87,4.73-3.77,6.29H2.47c-.28-2.12-.72-5.13-1-6.53-.14-.92-.3-1-1.06-1l.08-.33H3.47l-.1.33-.31,0c-.47.07-.64.17-.59.6.08.83.46,3.24.76,5.35.86-1.41,2.42-4,3-5.11.36-.66.17-.78-.38-.85l-.3,0,.1-.33H8.36Z" transform="translate(-0.46 -1.1)"/><path d="M8.07,90.31A1.2,1.2,0,0,1,9,89.93a.87.87,0,0,1,.93.85c0,.53-.38.79-.83,1a1,1,0,0,1,.83,1c0,.93-1.13,1.64-2,1.64-.5,0-.84-.29-.84-.48s.15-.32.25-.32a.39.39,0,0,1,.19.1,1.1,1.1,0,0,0,.77.37,1,1,0,0,0,1-1.09.78.78,0,0,0-.79-.88,1.32,1.32,0,0,0-.41.07l0-.2c.82-.22,1.28-.54,1.28-1.08a.53.53,0,0,0-.58-.59,1.16,1.16,0,0,0-.88.52l-.15-.16Z" transform="translate(-0.46 -1.1)"/><path d="M128.16,137.65c-.81,0-1,.3-1.1.74s-.3,1.19-.73,3.42-1.27,3.49-3.41,3.48c-1.63,0-2.92-.82-2.43-3.35l.63-3.24c.17-.91.06-1-.92-1l.07-.34h3.16l-.06.34c-1,.09-1.07.12-1.25,1l-.63,3.21c-.39,2,.44,2.74,1.71,2.74,1.46,0,2.18-.74,2.59-2.82.44-2.29.57-3,.61-3.5s-.18-.62-1.08-.68l.08-.34h2.85Z" transform="translate(-0.46 -1.1)"/></g></g></svg>