<svg xmlns="http://www.w3.org/2000/svg" viewBox="0 0 973.26 332.4"><defs><style>.cls-1,.cls-2,.cls-4{fill:none;stroke:#000;stroke-width:0.6px;}.cls-1{stroke-linecap:round;}.cls-1,.cls-2{stroke-linejoin:round;}.cls-2{stroke-dasharray:1 1;}.cls-3{fill-rule:evenodd;}.cls-4{stroke-miterlimit:10;}</style></defs><title>Asset 1</title><g id="Layer_2" data-name="Layer 2"><g id="Layer_1-2" data-name="Layer 1"><line class="cls-1" x1="211.35" y1="68.13" x2="207.54" y2="68.13"/><rect x="207.54" y="68.13" width="0.22" height="0.22"/><rect x="211.35" y="68.13" width="0.22" height="0.22"/><line class="cls-1" x1="245.15" y1="68.13" x2="241.35" y2="68.13"/><rect x="241.35" y="68.13" width="0.22" height="0.22"/><line class="cls-1" x1="215.15" y1="60.52" x2="211.35" y2="68.13"/><line class="cls-1" x1="222.54" y1="75.74" x2="215.15" y2="60.52"/><rect x="215.15" y="60.52" width="0.22" height="0.22"/><line class="cls-1" x1="230.15" y1="60.52" x2="222.54" y2="75.74"/><rect x="222.54" y="75.74" width="0.22" height="0.22"/><line class="cls-1" x1="237.54" y1="75.74" x2="230.15" y2="60.52"/><rect x="230.15" y="60.52" width="0.22" height="0.22"/><line class="cls-1" x1="241.35" y1="68.13" x2="237.54" y2="75.74"/><rect x="237.54" y="75.74" width="0.22" height="0.22"/><line class="cls-1" x1="211.35" y1="105.74" x2="207.54" y2="105.74"/><rect x="207.54" y="105.74" width="0.22" height="0.22"/><line class="cls-1" x1="215.15" y1="98.36" x2="211.35" y2="105.74"/><rect x="211.35" y="105.74" width="0.22" height="0.22"/><line class="cls-1" x1="222.54" y1="113.36" x2="215.15" y2="98.36"/><rect x="215.15" y="98.36" width="0.22" height="0.22"/><line class="cls-1" x1="230.15" y1="98.36" x2="222.54" y2="113.36"/><rect x="222.54" y="113.36" width="0.22" height="0.22"/><line class="cls-1" x1="237.54" y1="113.36" x2="230.15" y2="98.36"/><rect x="230.15" y="98.36" width="0.22" height="0.22"/><line class="cls-1" x1="245.15" y1="105.74" x2="241.35" y2="105.74"/><rect x="241.35" y="105.74" width="0.22" height="0.22"/><line class="cls-1" x1="241.35" y1="105.74" x2="237.54" y2="113.36"/><rect x="237.54" y="113.36" width="0.22" height="0.22"/><line class="cls-1" x1="211.35" y1="143.58" x2="207.54" y2="143.58"/><rect x="207.54" y="143.58" width="0.22" height="0.22"/><line class="cls-1" x1="215.15" y1="135.97" x2="211.35" y2="143.58"/><rect x="211.35" y="143.58" width="0.22" height="0.22"/><line class="cls-1" x1="222.54" y1="150.97" x2="215.15" y2="135.97"/><rect x="215.15" y="135.97" width="0.22" height="0.22"/><line class="cls-1" x1="230.15" y1="135.97" x2="222.54" y2="150.97"/><rect x="222.54" y="150.97" width="0.22" height="0.22"/><line class="cls-1" x1="237.54" y1="150.97" x2="230.15" y2="135.97"/><rect x="230.15" y="135.97" width="0.22" height="0.22"/><line class="cls-1" x1="245.15" y1="143.58" x2="241.35" y2="143.58"/><rect x="241.35" y="143.58" width="0.22" height="0.22"/><line class="cls-1" x1="241.35" y1="143.58" x2="237.54" y2="150.97"/><rect x="237.54" y="150.97" width="0.22" height="0.22"/><line class="cls-1" x1="316.79" y1="53.13" x2="312.99" y2="53.13"/><rect x="312.99" y="53.13" width="0.22" height="0.22"/><rect x="316.79" y="53.13" width="0.22" height="0.22"/><rect x="327.98" y="60.52" width="0.22" height="0.22"/><line class="cls-1" x1="350.6" y1="53.13" x2="346.79" y2="53.13"/><rect x="346.79" y="53.13" width="0.22" height="0.22"/><line class="cls-1" x1="320.6" y1="45.52" x2="316.79" y2="53.13"/><line class="cls-1" x1="327.98" y1="60.52" x2="320.6" y2="45.52"/><rect x="320.6" y="45.52" width="0.22" height="0.22"/><line class="cls-1" x1="335.6" y1="45.52" x2="327.98" y2="60.52"/><line class="cls-1" x1="342.98" y1="60.52" x2="335.6" y2="45.52"/><rect x="335.6" y="45.52" width="0.22" height="0.22"/><line class="cls-1" x1="346.79" y1="53.13" x2="342.98" y2="60.52"/><rect x="342.98" y="60.52" width="0.22" height="0.22"/><line class="cls-1" x1="211.35" y1="233.8" x2="207.54" y2="233.8"/><rect x="207.54" y="233.8" width="0.22" height="0.22"/><line class="cls-1" x1="215.15" y1="226.41" x2="211.35" y2="233.8"/><rect x="211.35" y="233.8" width="0.22" height="0.22"/><line class="cls-1" x1="222.54" y1="241.41" x2="215.15" y2="226.41"/><rect x="215.15" y="226.41" width="0.22" height="0.22"/><line class="cls-1" x1="230.15" y1="226.41" x2="222.54" y2="241.41"/><rect x="222.54" y="241.41" width="0.22" height="0.22"/><line class="cls-1" x1="237.54" y1="241.41" x2="230.15" y2="226.41"/><rect x="230.15" y="226.41" width="0.22" height="0.22"/><line class="cls-1" x1="245.15" y1="233.8" x2="241.35" y2="233.8"/><rect x="241.35" y="233.8" width="0.22" height="0.22"/><line class="cls-1" x1="241.35" y1="233.8" x2="237.54" y2="241.41"/><rect x="237.54" y="241.41" width="0.22" height="0.22"/><line class="cls-1" x1="211.35" y1="271.41" x2="207.54" y2="271.41"/><rect x="207.54" y="271.41" width="0.22" height="0.22"/><line class="cls-1" x1="215.15" y1="264.02" x2="211.35" y2="271.41"/><rect x="211.35" y="271.41" width="0.22" height="0.22"/><line class="cls-1" x1="222.54" y1="279.02" x2="215.15" y2="264.02"/><rect x="215.15" y="264.02" width="0.22" height="0.22"/><line class="cls-1" x1="230.15" y1="264.02" x2="222.54" y2="279.02"/><rect x="222.54" y="279.02" width="0.22" height="0.22"/><line class="cls-1" x1="237.54" y1="279.02" x2="230.15" y2="264.02"/><rect x="230.15" y="264.02" width="0.22" height="0.22"/><line class="cls-1" x1="245.15" y1="271.41" x2="241.35" y2="271.41"/><rect x="241.35" y="271.41" width="0.22" height="0.22"/><line class="cls-1" x1="241.35" y1="271.41" x2="237.54" y2="279.02"/><rect x="237.54" y="279.02" width="0.22" height="0.22"/><line class="cls-1" x1="211.35" y1="309.24" x2="207.54" y2="309.24"/><rect x="207.54" y="309.24" width="0.22" height="0.22"/><line class="cls-1" x1="215.15" y1="301.63" x2="211.35" y2="309.24"/><rect x="211.35" y="309.24" width="0.22" height="0.22"/><line class="cls-1" x1="222.54" y1="316.63" x2="215.15" y2="301.63"/><rect x="215.15" y="301.63" width="0.22" height="0.22"/><line class="cls-1" x1="230.15" y1="301.63" x2="222.54" y2="316.63"/><rect x="222.54" y="316.63" width="0.22" height="0.22"/><line class="cls-1" x1="237.54" y1="316.63" x2="230.15" y2="301.63"/><rect x="230.15" y="301.63" width="0.22" height="0.22"/><line class="cls-1" x1="245.15" y1="309.24" x2="241.35" y2="309.24"/><rect x="241.35" y="309.24" width="0.22" height="0.22"/><line class="cls-1" x1="241.35" y1="309.24" x2="237.54" y2="316.63"/><rect x="237.54" y="316.63" width="0.22" height="0.22"/><line class="cls-1" x1="316.79" y1="218.8" x2="312.99" y2="218.8"/><rect x="312.99" y="218.8" width="0.22" height="0.22"/><line class="cls-1" x1="320.6" y1="211.19" x2="316.79" y2="218.8"/><rect x="316.79" y="218.8" width="0.22" height="0.22"/><line class="cls-1" x1="327.98" y1="226.41" x2="320.6" y2="211.19"/><rect x="320.6" y="211.19" width="0.22" height="0.22"/><line class="cls-1" x1="335.6" y1="211.19" x2="327.98" y2="226.41"/><rect x="327.98" y="226.41" width="0.22" height="0.22"/><line class="cls-1" x1="342.98" y1="226.41" x2="335.6" y2="211.19"/><rect x="335.6" y="211.19" width="0.22" height="0.22"/><line class="cls-1" x1="350.6" y1="218.8" x2="346.79" y2="218.8"/><rect x="346.79" y="218.8" width="0.22" height="0.22"/><line class="cls-1" x1="346.79" y1="218.8" x2="342.98" y2="226.41"/><rect x="342.98" y="226.41" width="0.22" height="0.22"/><line class="cls-1" x1="645.95" y1="158.58" x2="642.15" y2="158.58"/><rect x="642.15" y="158.58" width="0.22" height="0.22"/><rect x="645.95" y="158.58" width="0.22" height="0.22"/><line class="cls-1" x1="679.76" y1="158.58" x2="675.95" y2="158.58"/><rect x="675.95" y="158.58" width="0.22" height="0.22"/><line class="cls-1" x1="649.54" y1="150.97" x2="645.95" y2="158.58"/><line class="cls-1" x1="657.15" y1="165.97" x2="649.54" y2="150.97"/><rect x="649.54" y="150.97" width="0.22" height="0.22"/><line class="cls-1" x1="664.76" y1="150.97" x2="657.15" y2="165.97"/><rect x="657.15" y="165.97" width="0.22" height="0.22"/><line class="cls-1" x1="672.15" y1="165.97" x2="664.76" y2="150.97"/><rect x="664.76" y="150.97" width="0.22" height="0.22"/><line class="cls-1" x1="675.95" y1="158.58" x2="672.15" y2="165.97"/><rect x="672.15" y="165.97" width="0.22" height="0.22"/><line class="cls-1" x1="645.95" y1="196.19" x2="642.15" y2="196.19"/><rect x="642.15" y="196.19" width="0.22" height="0.22"/><line class="cls-1" x1="649.54" y1="188.58" x2="645.95" y2="196.19"/><rect x="645.95" y="196.19" width="0.22" height="0.22"/><line class="cls-1" x1="657.15" y1="203.8" x2="649.54" y2="188.58"/><rect x="649.54" y="188.58" width="0.22" height="0.22"/><line class="cls-1" x1="664.76" y1="188.58" x2="657.15" y2="203.8"/><rect x="657.15" y="203.8" width="0.22" height="0.22"/><line class="cls-1" x1="672.15" y1="203.8" x2="664.76" y2="188.58"/><rect x="664.76" y="188.58" width="0.22" height="0.22"/><line class="cls-1" x1="679.76" y1="196.19" x2="675.95" y2="196.19"/><rect x="675.95" y="196.19" width="0.22" height="0.22"/><line class="cls-1" x1="675.95" y1="196.19" x2="672.15" y2="203.8"/><rect x="672.15" y="203.8" width="0.22" height="0.22"/><line class="cls-1" x1="645.95" y1="233.8" x2="642.15" y2="233.8"/><rect x="642.15" y="233.8" width="0.22" height="0.22"/><line class="cls-1" x1="649.54" y1="226.41" x2="645.95" y2="233.8"/><rect x="645.95" y="233.8" width="0.22" height="0.22"/><line class="cls-1" x1="657.15" y1="241.41" x2="649.54" y2="226.41"/><rect x="649.54" y="226.41" width="0.22" height="0.22"/><line class="cls-1" x1="664.76" y1="226.41" x2="657.15" y2="241.41"/><rect x="657.15" y="241.41" width="0.22" height="0.22"/><line class="cls-1" x1="672.15" y1="241.41" x2="664.76" y2="226.41"/><rect x="664.76" y="226.41" width="0.22" height="0.22"/><line class="cls-1" x1="679.76" y1="233.8" x2="675.95" y2="233.8"/><rect x="675.95" y="233.8" width="0.22" height="0.22"/><line class="cls-1" x1="675.95" y1="233.8" x2="672.15" y2="241.41"/><rect x="672.15" y="241.41" width="0.22" height="0.22"/><line class="cls-1" x1="751.4" y1="143.58" x2="747.59" y2="143.58"/><rect x="747.59" y="143.58" width="0.22" height="0.22"/><rect x="751.4" y="143.58" width="0.22" height="0.22"/><line class="cls-1" x1="785.2" y1="143.58" x2="781.4" y2="143.58"/><rect x="781.4" y="143.58" width="0.22" height="0.22"/><line class="cls-1" x1="754.98" y1="135.97" x2="751.4" y2="143.58"/><line class="cls-1" x1="762.59" y1="150.97" x2="754.98" y2="135.97"/><rect x="754.98" y="135.97" width="0.22" height="0.22"/><line class="cls-1" x1="770.2" y1="135.97" x2="762.59" y2="150.97"/><rect x="762.59" y="150.97" width="0.22" height="0.22"/><line class="cls-1" x1="777.59" y1="150.97" x2="770.2" y2="135.97"/><rect x="770.2" y="135.97" width="0.22" height="0.22"/><line class="cls-1" x1="781.4" y1="143.58" x2="777.59" y2="150.97"/><rect x="777.59" y="150.97" width="0.22" height="0.22"/><line class="cls-2" x1="486.26" y1="113.36" x2="463.65" y2="113.36"/><rect x="463.65" y="113.36" width="0.22" height="0.22"/><line class="cls-1" x1="476.86" y1="111.56" x2="473.05" y2="115.15"/><rect x="473.05" y="115.15" width="0.22" height="0.22"/><line class="cls-1" x1="486.26" y1="98.36" x2="456.04" y2="98.36"/><rect x="456.04" y="98.36" width="0.22" height="0.22"/><line class="cls-1" x1="493.65" y1="105.74" x2="486.26" y2="98.36"/><rect x="486.26" y="98.36" width="0.22" height="0.22"/><line class="cls-1" x1="493.65" y1="120.97" x2="493.65" y2="105.74"/><rect x="493.65" y="105.74" width="0.22" height="0.22"/><line class="cls-1" x1="486.26" y1="128.35" x2="493.65" y2="120.97"/><rect x="493.65" y="120.97" width="0.22" height="0.22"/><line class="cls-1" x1="456.04" y1="128.35" x2="486.26" y2="128.35"/><rect x="486.26" y="128.35" width="0.22" height="0.22"/><line class="cls-1" x1="479.99" y1="109.1" x2="476.86" y2="111.56"/><rect x="476.86" y="111.56" width="0.22" height="0.22"/><line class="cls-1" x1="486.26" y1="108.21" x2="483.35" y2="108.21"/><rect x="483.35" y="108.21" width="0.22" height="0.22"/><line class="cls-1" x1="483.35" y1="108.21" x2="479.99" y2="109.1"/><rect x="479.99" y="109.1" width="0.22" height="0.22"/><line class="cls-1" x1="456.04" y1="98.36" x2="456.04" y2="128.35"/><rect x="456.04" y="128.35" width="0.22" height="0.22"/><line class="cls-1" x1="469.7" y1="117.61" x2="473.05" y2="115.15"/><rect x="473.05" y="115.15" width="0.22" height="0.22"/><line class="cls-1" x1="463.65" y1="118.5" x2="466.34" y2="118.5"/><rect x="466.34" y="118.5" width="0.22" height="0.22"/><line class="cls-1" x1="466.34" y1="118.5" x2="469.7" y2="117.61"/><rect x="469.7" y="117.61" width="0.22" height="0.22"/><line class="cls-2" x1="486.26" y1="279.02" x2="463.65" y2="279.02"/><rect x="463.65" y="279.02" width="0.22" height="0.22"/><line class="cls-1" x1="476.86" y1="277.23" x2="473.05" y2="280.81"/><rect x="473.05" y="280.81" width="0.22" height="0.22"/><line class="cls-1" x1="486.26" y1="264.02" x2="456.04" y2="264.02"/><rect x="456.04" y="264.02" width="0.22" height="0.22"/><line class="cls-1" x1="493.65" y1="271.41" x2="486.26" y2="264.02"/><rect x="486.26" y="264.02" width="0.22" height="0.22"/><line class="cls-1" x1="493.65" y1="286.63" x2="493.65" y2="271.41"/><rect x="493.65" y="271.41" width="0.22" height="0.22"/><line class="cls-1" x1="486.26" y1="294.02" x2="493.65" y2="286.63"/><rect x="493.65" y="286.63" width="0.22" height="0.22"/><line class="cls-1" x1="456.04" y1="294.02" x2="486.26" y2="294.02"/><rect x="486.26" y="294.02" width="0.22" height="0.22"/><line class="cls-1" x1="479.99" y1="274.77" x2="476.86" y2="277.23"/><rect x="476.86" y="277.23" width="0.22" height="0.22"/><line class="cls-1" x1="486.26" y1="273.87" x2="483.35" y2="273.87"/><rect x="483.35" y="273.87" width="0.22" height="0.22"/><line class="cls-1" x1="483.35" y1="273.87" x2="479.99" y2="274.77"/><rect x="479.99" y="274.77" width="0.22" height="0.22"/><line class="cls-1" x1="456.04" y1="264.02" x2="456.04" y2="294.02"/><rect x="456.04" y="294.02" width="0.22" height="0.22"/><line class="cls-1" x1="469.7" y1="283.27" x2="473.05" y2="280.81"/><rect x="473.05" y="280.81" width="0.22" height="0.22"/><line class="cls-1" x1="463.65" y1="284.17" x2="466.34" y2="284.17"/><rect x="466.34" y="284.17" width="0.22" height="0.22"/><line class="cls-1" x1="466.34" y1="284.17" x2="469.7" y2="283.27"/><rect x="469.7" y="283.27" width="0.22" height="0.22"/><line class="cls-2" x1="920.87" y1="203.8" x2="898.26" y2="203.8"/><rect x="898.26" y="203.8" width="0.22" height="0.22"/><line class="cls-1" x1="911.47" y1="201.78" x2="907.66" y2="205.59"/><rect x="907.66" y="205.59" width="0.22" height="0.22"/><line class="cls-1" x1="920.87" y1="188.58" x2="890.65" y2="188.58"/><rect x="890.65" y="188.58" width="0.22" height="0.22"/><line class="cls-1" x1="928.26" y1="196.19" x2="920.87" y2="188.58"/><rect x="920.87" y="188.58" width="0.22" height="0.22"/><line class="cls-1" x1="928.26" y1="211.19" x2="928.26" y2="196.19"/><rect x="928.26" y="196.19" width="0.22" height="0.22"/><line class="cls-1" x1="920.87" y1="218.8" x2="928.26" y2="211.19"/><rect x="928.26" y="211.19" width="0.22" height="0.22"/><line class="cls-1" x1="890.65" y1="218.8" x2="920.87" y2="218.8"/><rect x="920.87" y="218.8" width="0.22" height="0.22"/><line class="cls-1" x1="914.6" y1="199.55" x2="911.47" y2="201.78"/><rect x="911.47" y="201.78" width="0.22" height="0.22"/><line class="cls-1" x1="920.87" y1="198.65" x2="917.96" y2="198.65"/><rect x="917.96" y="198.65" width="0.22" height="0.22"/><line class="cls-1" x1="917.96" y1="198.65" x2="914.6" y2="199.55"/><rect x="914.6" y="199.55" width="0.22" height="0.22"/><line class="cls-1" x1="890.65" y1="188.58" x2="890.65" y2="218.8"/><rect x="890.65" y="218.8" width="0.22" height="0.22"/><line class="cls-1" x1="904.3" y1="208.05" x2="907.66" y2="205.59"/><rect x="907.66" y="205.59" width="0.22" height="0.22"/><line class="cls-1" x1="898.26" y1="208.95" x2="900.94" y2="208.95"/><rect x="900.94" y="208.95" width="0.22" height="0.22"/><line class="cls-1" x1="900.94" y1="208.95" x2="904.3" y2="208.05"/><rect x="904.3" y="208.05" width="0.22" height="0.22"/><line class="cls-1" x1="320.6" y1="98.36" x2="350.6" y2="113.36"/><rect x="350.6" y="113.36" width="0.22" height="0.22"/><line class="cls-1" x1="320.6" y1="128.35" x2="350.6" y2="113.36"/><rect x="350.6" y="113.36" width="0.22" height="0.22"/><line class="cls-1" x1="320.6" y1="98.36" x2="320.6" y2="128.35"/><rect x="320.6" y="128.35" width="0.22" height="0.22"/><line class="cls-1" x1="322.39" y1="105.74" x2="326.19" y2="105.74"/><rect x="326.19" y="105.74" width="0.22" height="0.22"/><line class="cls-1" x1="322.39" y1="120.97" x2="326.19" y2="120.97"/><rect x="326.19" y="120.97" width="0.22" height="0.22"/><line class="cls-1" x1="324.18" y1="122.76" x2="324.18" y2="118.95"/><rect x="324.18" y="118.95" width="0.22" height="0.22"/><rect x="335.6" y="105.74" width="0.22" height="0.22"/><rect x="335.6" y="120.97" width="0.22" height="0.22"/><line class="cls-1" x1="320.6" y1="264.02" x2="350.6" y2="279.02"/><rect x="350.6" y="279.02" width="0.22" height="0.22"/><line class="cls-1" x1="320.6" y1="294.02" x2="350.6" y2="279.02"/><rect x="350.6" y="279.02" width="0.22" height="0.22"/><line class="cls-1" x1="320.6" y1="264.02" x2="320.6" y2="294.02"/><rect x="320.6" y="294.02" width="0.22" height="0.22"/><line class="cls-1" x1="322.39" y1="271.41" x2="326.19" y2="271.41"/><rect x="326.19" y="271.41" width="0.22" height="0.22"/><line class="cls-1" x1="322.39" y1="286.63" x2="326.19" y2="286.63"/><rect x="326.19" y="286.63" width="0.22" height="0.22"/><line class="cls-1" x1="324.18" y1="288.42" x2="324.18" y2="284.62"/><rect x="324.18" y="284.62" width="0.22" height="0.22"/><rect x="335.6" y="271.41" width="0.22" height="0.22"/><rect x="335.6" y="286.63" width="0.22" height="0.22"/><line class="cls-1" x1="754.98" y1="188.58" x2="785.2" y2="203.8"/><rect x="785.2" y="203.8" width="0.22" height="0.22"/><line class="cls-1" x1="754.98" y1="218.8" x2="785.2" y2="203.8"/><rect x="785.2" y="203.8" width="0.22" height="0.22"/><line class="cls-1" x1="754.98" y1="188.58" x2="754.98" y2="218.8"/><rect x="754.98" y="218.8" width="0.22" height="0.22"/><line class="cls-1" x1="757" y1="196.19" x2="760.8" y2="196.19"/><rect x="760.8" y="196.19" width="0.22" height="0.22"/><line class="cls-1" x1="757" y1="211.19" x2="760.8" y2="211.19"/><rect x="760.8" y="211.19" width="0.22" height="0.22"/><line class="cls-1" x1="758.79" y1="213.2" x2="758.79" y2="209.4"/><rect x="758.79" y="209.4" width="0.22" height="0.22"/><rect x="770.2" y="196.19" width="0.22" height="0.22"/><rect x="770.2" y="211.19" width="0.22" height="0.22"/><line class="cls-1" x1="147.32" y1="90.74" x2="173.74" y2="105.74"/><rect x="173.74" y="105.74" width="0.22" height="0.22"/><line class="cls-1" x1="147.32" y1="120.97" x2="173.74" y2="105.74"/><rect x="173.74" y="105.74" width="0.22" height="0.22"/><line class="cls-1" x1="147.32" y1="90.74" x2="147.32" y2="120.97"/><rect x="147.32" y="120.97" width="0.22" height="0.22"/><line class="cls-1" x1="147.32" y1="90.74" x2="147.32" y2="120.97"/><rect x="147.32" y="120.97" width="0.22" height="0.22"/><rect x="162.32" y="99.25" width="0.22" height="0.22"/><rect x="162.32" y="112.46" width="0.22" height="0.22"/><ellipse class="cls-1" cx="179.22" cy="105.74" rx="5.48" ry="5.6"/><line class="cls-1" x1="102.1" y1="256.41" x2="128.51" y2="271.41"/><rect x="128.51" y="271.41" width="0.22" height="0.22"/><line class="cls-1" x1="102.1" y1="286.63" x2="128.51" y2="271.41"/><rect x="128.51" y="271.41" width="0.22" height="0.22"/><line class="cls-1" x1="102.1" y1="256.41" x2="102.1" y2="286.63"/><rect x="102.1" y="286.63" width="0.22" height="0.22"/><line class="cls-1" x1="102.1" y1="256.41" x2="102.1" y2="286.63"/><rect x="102.1" y="286.63" width="0.22" height="0.22"/><rect x="117.1" y="264.92" width="0.22" height="0.22"/><rect x="117.1" y="278.13" width="0.22" height="0.22"/><ellipse class="cls-1" cx="134" cy="271.41" rx="5.48" ry="5.6"/><line class="cls-1" x1="147.32" y1="218.8" x2="173.74" y2="233.8"/><rect x="173.74" y="233.8" width="0.22" height="0.22"/><line class="cls-1" x1="147.32" y1="248.8" x2="173.74" y2="233.8"/><rect x="173.74" y="233.8" width="0.22" height="0.22"/><line class="cls-1" x1="147.32" y1="218.8" x2="147.32" y2="248.8"/><rect x="147.32" y="248.8" width="0.22" height="0.22"/><line class="cls-1" x1="147.32" y1="218.8" x2="147.32" y2="248.8"/><rect x="147.32" y="248.8" width="0.22" height="0.22"/><rect x="162.32" y="227.31" width="0.22" height="0.22"/><ellipse class="cls-1" cx="179.22" cy="233.69" rx="5.48" ry="5.6"/><line class="cls-1" x1="576.71" y1="143.58" x2="603.12" y2="158.58"/><rect x="603.12" y="158.58" width="0.22" height="0.22"/><line class="cls-1" x1="576.71" y1="173.58" x2="603.12" y2="158.58"/><rect x="603.12" y="158.58" width="0.22" height="0.22"/><line class="cls-1" x1="576.71" y1="143.58" x2="576.71" y2="173.58"/><rect x="576.71" y="173.58" width="0.22" height="0.22"/><line class="cls-1" x1="576.71" y1="143.58" x2="576.71" y2="173.58"/><rect x="576.71" y="173.58" width="0.22" height="0.22"/><rect x="591.7" y="151.86" width="0.22" height="0.22"/><rect x="591.7" y="165.07" width="0.22" height="0.22"/><ellipse class="cls-1" cx="608.61" cy="158.47" rx="5.48" ry="5.6"/><line class="cls-1" x1="576.71" y1="218.8" x2="603.12" y2="233.8"/><rect x="603.12" y="233.8" width="0.22" height="0.22"/><line class="cls-1" x1="576.71" y1="248.8" x2="603.12" y2="233.8"/><rect x="603.12" y="233.8" width="0.22" height="0.22"/><line class="cls-1" x1="576.71" y1="218.8" x2="576.71" y2="248.8"/><rect x="576.71" y="248.8" width="0.22" height="0.22"/><line class="cls-1" x1="576.71" y1="218.8" x2="576.71" y2="248.8"/><rect x="576.71" y="248.8" width="0.22" height="0.22"/><rect x="591.7" y="227.31" width="0.22" height="0.22"/><ellipse class="cls-1" cx="608.61" cy="233.69" rx="5.48" ry="5.6"/><line class="cls-1" x1="395.82" y1="98.36" x2="422.23" y2="113.36"/><rect x="422.23" y="113.36" width="0.22" height="0.22"/><line class="cls-1" x1="395.82" y1="128.35" x2="422.23" y2="113.36"/><rect x="422.23" y="113.36" width="0.22" height="0.22"/><line class="cls-1" x1="395.82" y1="98.36" x2="395.82" y2="128.35"/><rect x="395.82" y="128.35" width="0.22" height="0.22"/><line class="cls-1" x1="395.82" y1="98.36" x2="395.82" y2="128.35"/><rect x="395.82" y="128.35" width="0.22" height="0.22"/><rect x="410.82" y="106.86" width="0.22" height="0.22"/><rect x="410.82" y="119.85" width="0.22" height="0.22"/><ellipse class="cls-1" cx="427.72" cy="113.24" rx="5.48" ry="5.6"/><line class="cls-1" x1="395.82" y1="264.02" x2="422.23" y2="279.02"/><rect x="422.23" y="279.02" width="0.22" height="0.22"/><line class="cls-1" x1="395.82" y1="294.02" x2="422.23" y2="279.02"/><rect x="422.23" y="279.02" width="0.22" height="0.22"/><line class="cls-1" x1="395.82" y1="264.02" x2="395.82" y2="294.02"/><rect x="395.82" y="294.02" width="0.22" height="0.22"/><line class="cls-1" x1="395.82" y1="264.02" x2="395.82" y2="294.02"/><rect x="395.82" y="294.02" width="0.22" height="0.22"/><rect x="410.82" y="272.53" width="0.22" height="0.22"/><rect x="410.82" y="285.51" width="0.22" height="0.22"/><ellipse class="cls-1" cx="427.72" cy="278.91" rx="5.48" ry="5.6"/><line class="cls-1" x1="830.43" y1="188.58" x2="856.84" y2="203.8"/><rect x="856.84" y="203.8" width="0.22" height="0.22"/><line class="cls-1" x1="830.43" y1="218.8" x2="856.84" y2="203.8"/><rect x="856.84" y="203.8" width="0.22" height="0.22"/><line class="cls-1" x1="830.43" y1="188.58" x2="830.43" y2="218.8"/><rect x="830.43" y="218.8" width="0.22" height="0.22"/><line class="cls-1" x1="830.43" y1="188.58" x2="830.43" y2="218.8"/><rect x="830.43" y="218.8" width="0.22" height="0.22"/><rect x="845.42" y="197.08" width="0.22" height="0.22"/><rect x="845.42" y="210.29" width="0.22" height="0.22"/><ellipse class="cls-1" cx="862.33" cy="203.58" rx="5.48" ry="5.6"/><line class="cls-1" x1="102.1" y1="53.13" x2="128.51" y2="68.13"/><rect x="128.51" y="68.13" width="0.22" height="0.22"/><line class="cls-1" x1="102.1" y1="83.13" x2="128.51" y2="68.13"/><rect x="128.51" y="68.13" width="0.22" height="0.22"/><line class="cls-1" x1="102.1" y1="53.13" x2="102.1" y2="83.13"/><rect x="102.1" y="83.13" width="0.22" height="0.22"/><line class="cls-1" x1="102.1" y1="53.13" x2="102.1" y2="83.13"/><rect x="102.1" y="83.13" width="0.22" height="0.22"/><rect x="117.1" y="61.64" width="0.22" height="0.22"/><rect x="117.1" y="74.85" width="0.22" height="0.22"/><ellipse class="cls-1" cx="134" cy="68.02" rx="5.48" ry="5.6"/><line class="cls-1" x1="102.1" y1="128.35" x2="128.51" y2="143.58"/><rect x="128.51" y="143.58" width="0.22" height="0.22"/><line class="cls-1" x1="102.1" y1="158.58" x2="128.51" y2="143.58"/><rect x="128.51" y="143.58" width="0.22" height="0.22"/><line class="cls-1" x1="102.1" y1="128.35" x2="102.1" y2="158.58"/><rect x="102.1" y="158.58" width="0.22" height="0.22"/><line class="cls-1" x1="102.1" y1="128.35" x2="102.1" y2="158.58"/><rect x="102.1" y="158.58" width="0.22" height="0.22"/><rect x="117.1" y="136.86" width="0.22" height="0.22"/><rect x="117.1" y="150.07" width="0.22" height="0.22"/><ellipse class="cls-1" cx="134" cy="143.35" rx="5.48" ry="5.6"/><line class="cls-1" x1="297.99" y1="112.46" x2="297.99" y2="129.25"/><rect x="297.99" y="129.25" width="0.22" height="0.22"/><line class="cls-1" x1="297.99" y1="129.25" x2="289.48" y2="120.97"/><rect x="289.48" y="120.97" width="0.22" height="0.22"/><line class="cls-1" x1="289.48" y1="120.97" x2="297.99" y2="112.46"/><rect x="297.99" y="112.46" width="0.22" height="0.22"/><line class="cls-1" x1="297.99" y1="278.13" x2="297.99" y2="295.14"/><rect x="297.99" y="295.14" width="0.22" height="0.22"/><line class="cls-1" x1="297.99" y1="295.14" x2="289.48" y2="286.63"/><rect x="289.48" y="286.63" width="0.22" height="0.22"/><line class="cls-1" x1="289.48" y1="286.63" x2="297.99" y2="278.13"/><rect x="297.99" y="278.13" width="0.22" height="0.22"/><line class="cls-1" x1="732.59" y1="202.68" x2="732.59" y2="219.69"/><rect x="732.59" y="219.69" width="0.22" height="0.22"/><line class="cls-1" x1="732.59" y1="219.69" x2="724.09" y2="211.19"/><rect x="724.09" y="211.19" width="0.22" height="0.22"/><line class="cls-1" x1="724.09" y1="211.19" x2="732.59" y2="202.68"/><rect x="732.59" y="202.68" width="0.22" height="0.22"/><line class="cls-1" x1="79.49" y1="15.52" x2="79.49" y2="0.3"/><rect x="79.49" y="0.3" width="0.22" height="0.22"/><line class="cls-1" x1="79.49" y1="15.52" x2="19.26" y2="15.52"/><rect x="19.26" y="15.52" width="0.22" height="0.22"/><line class="cls-1" x1="64.49" y1="30.52" x2="64.49" y2="0.3"/><rect x="64.49" y="0.3" width="0.22" height="0.22"/><line class="cls-1" x1="64.49" y1="30.52" x2="19.26" y2="30.52"/><rect x="19.26" y="30.52" width="0.22" height="0.22"/><line class="cls-1" x1="49.26" y1="45.52" x2="49.26" y2="0.3"/><rect x="49.26" y="0.3" width="0.22" height="0.22"/><line class="cls-1" x1="49.26" y1="45.52" x2="19.26" y2="45.52"/><rect x="19.26" y="45.52" width="0.22" height="0.22"/><line class="cls-1" x1="523.87" y1="45.52" x2="523.87" y2="40.3"/><rect x="523.87" y="40.3" width="0.22" height="0.22"/><line class="cls-1" x1="523.87" y1="45.52" x2="493.87" y2="45.52"/><rect x="493.87" y="45.52" width="0.22" height="0.22"/><line class="cls-1" x1="312.99" y1="53.13" x2="297.99" y2="53.13"/><rect x="297.99" y="53.13" width="0.22" height="0.22"/><line class="cls-1" x1="373.21" y1="53.13" x2="350.6" y2="53.13"/><rect x="350.6" y="53.13" width="0.22" height="0.22"/><line class="cls-1" x1="79.49" y1="68.13" x2="79.49" y2="15.52"/><rect x="79.49" y="15.52" width="0.22" height="0.22"/><line class="cls-1" x1="102.1" y1="68.13" x2="79.49" y2="68.13"/><rect x="79.49" y="68.13" width="0.22" height="0.22"/><line class="cls-1" x1="207.54" y1="68.13" x2="139.71" y2="68.13"/><rect x="139.71" y="68.13" width="0.22" height="0.22"/><line class="cls-1" x1="267.76" y1="68.13" x2="245.15" y2="68.13"/><rect x="245.15" y="68.13" width="0.22" height="0.22"/><line class="cls-1" x1="64.49" y1="105.74" x2="64.49" y2="30.52"/><rect x="64.49" y="30.52" width="0.22" height="0.22"/><line class="cls-1" x1="147.32" y1="105.74" x2="64.49" y2="105.74"/><rect x="64.49" y="105.74" width="0.22" height="0.22"/><line class="cls-1" x1="207.54" y1="105.74" x2="184.93" y2="105.74"/><rect x="184.93" y="105.74" width="0.22" height="0.22"/><line class="cls-1" x1="267.76" y1="105.74" x2="267.76" y2="68.13"/><rect x="267.76" y="68.13" width="0.22" height="0.22"/><line class="cls-1" x1="267.76" y1="105.74" x2="245.15" y2="105.74"/><rect x="245.15" y="105.74" width="0.22" height="0.22"/><line class="cls-1" x1="297.99" y1="105.74" x2="297.99" y2="53.13"/><rect x="297.99" y="53.13" width="0.22" height="0.22"/><line class="cls-1" x1="297.99" y1="105.74" x2="267.76" y2="105.74"/><rect x="267.76" y="105.74" width="0.22" height="0.22"/><line class="cls-1" x1="320.6" y1="105.74" x2="297.99" y2="105.74"/><rect x="297.99" y="105.74" width="0.22" height="0.22"/><line class="cls-1" x1="373.21" y1="113.36" x2="373.21" y2="53.13"/><rect x="373.21" y="53.13" width="0.22" height="0.22"/><line class="cls-1" x1="373.21" y1="113.36" x2="350.6" y2="113.36"/><rect x="350.6" y="113.36" width="0.22" height="0.22"/><line class="cls-1" x1="395.82" y1="113.36" x2="373.21" y2="113.36"/><rect x="373.21" y="113.36" width="0.22" height="0.22"/><line class="cls-1" x1="456.04" y1="113.36" x2="433.43" y2="113.36"/><rect x="433.43" y="113.36" width="0.22" height="0.22"/><line class="cls-1" x1="554.09" y1="113.36" x2="554.09" y2="40.3"/><rect x="554.09" y="40.3" width="0.22" height="0.22"/><line class="cls-1" x1="554.09" y1="113.36" x2="493.65" y2="113.36"/><rect x="493.65" y="113.36" width="0.22" height="0.22"/><line class="cls-1" x1="320.6" y1="120.97" x2="297.99" y2="120.97"/><rect x="297.99" y="120.97" width="0.22" height="0.22"/><line class="cls-1" x1="49.26" y1="143.58" x2="49.26" y2="45.52"/><rect x="49.26" y="45.52" width="0.22" height="0.22"/><line class="cls-1" x1="102.1" y1="143.58" x2="49.26" y2="143.58"/><rect x="49.26" y="143.58" width="0.22" height="0.22"/><line class="cls-1" x1="207.54" y1="143.58" x2="139.71" y2="143.58"/><rect x="139.71" y="143.58" width="0.22" height="0.22"/><line class="cls-1" x1="267.76" y1="143.58" x2="267.76" y2="105.74"/><rect x="267.76" y="105.74" width="0.22" height="0.22"/><line class="cls-1" x1="267.76" y1="143.58" x2="245.15" y2="143.58"/><rect x="245.15" y="143.58" width="0.22" height="0.22"/><line class="cls-1" x1="747.59" y1="143.58" x2="732.59" y2="143.58"/><rect x="732.59" y="143.58" width="0.22" height="0.22"/><line class="cls-1" x1="807.81" y1="143.58" x2="785.2" y2="143.58"/><rect x="785.2" y="143.58" width="0.22" height="0.22"/><line class="cls-1" x1="554.09" y1="158.58" x2="554.09" y2="113.36"/><rect x="554.09" y="113.36" width="0.22" height="0.22"/><line class="cls-1" x1="576.71" y1="158.58" x2="554.09" y2="158.58"/><rect x="554.09" y="158.58" width="0.22" height="0.22"/><line class="cls-1" x1="642.15" y1="158.58" x2="614.32" y2="158.58"/><rect x="614.32" y="158.58" width="0.22" height="0.22"/><line class="cls-1" x1="702.37" y1="158.58" x2="679.76" y2="158.58"/><rect x="679.76" y="158.58" width="0.22" height="0.22"/><line class="cls-1" x1="539.09" y1="196.19" x2="539.09" y2="40.3"/><rect x="539.09" y="40.3" width="0.22" height="0.22"/><line class="cls-1" x1="642.15" y1="196.19" x2="539.09" y2="196.19"/><rect x="539.09" y="196.19" width="0.22" height="0.22"/><line class="cls-1" x1="702.37" y1="196.19" x2="702.37" y2="158.58"/><rect x="702.37" y="158.58" width="0.22" height="0.22"/><line class="cls-1" x1="702.37" y1="196.19" x2="679.76" y2="196.19"/><rect x="679.76" y="196.19" width="0.22" height="0.22"/><line class="cls-1" x1="732.59" y1="196.19" x2="732.59" y2="143.58"/><rect x="732.59" y="143.58" width="0.22" height="0.22"/><line class="cls-1" x1="732.59" y1="196.19" x2="702.37" y2="196.19"/><rect x="702.37" y="196.19" width="0.22" height="0.22"/><line class="cls-1" x1="754.98" y1="196.19" x2="732.59" y2="196.19"/><rect x="732.59" y="196.19" width="0.22" height="0.22"/><line class="cls-1" x1="807.81" y1="203.8" x2="807.81" y2="143.58"/><rect x="807.81" y="143.58" width="0.22" height="0.22"/><line class="cls-1" x1="807.81" y1="203.8" x2="785.2" y2="203.8"/><rect x="785.2" y="203.8" width="0.22" height="0.22"/><line class="cls-1" x1="830.43" y1="203.8" x2="807.81" y2="203.8"/><rect x="807.81" y="203.8" width="0.22" height="0.22"/><line class="cls-1" x1="890.65" y1="203.8" x2="868.04" y2="203.8"/><rect x="868.04" y="203.8" width="0.22" height="0.22"/><line class="cls-1" x1="958.48" y1="203.8" x2="928.26" y2="203.8"/><rect x="928.26" y="203.8" width="0.22" height="0.22"/><line class="cls-1" x1="754.98" y1="211.19" x2="732.59" y2="211.19"/><rect x="732.59" y="211.19" width="0.22" height="0.22"/><line class="cls-1" x1="312.99" y1="218.8" x2="297.99" y2="218.8"/><rect x="297.99" y="218.8" width="0.22" height="0.22"/><line class="cls-1" x1="373.21" y1="218.8" x2="350.6" y2="218.8"/><rect x="350.6" y="218.8" width="0.22" height="0.22"/><line class="cls-1" x1="79.49" y1="233.8" x2="79.49" y2="68.13"/><rect x="79.49" y="68.13" width="0.22" height="0.22"/><line class="cls-1" x1="147.32" y1="233.8" x2="79.49" y2="233.8"/><rect x="79.49" y="233.8" width="0.22" height="0.22"/><line class="cls-1" x1="207.54" y1="233.8" x2="184.93" y2="233.8"/><rect x="184.93" y="233.8" width="0.22" height="0.22"/><line class="cls-1" x1="267.76" y1="233.8" x2="245.15" y2="233.8"/><rect x="245.15" y="233.8" width="0.22" height="0.22"/><line class="cls-1" x1="523.87" y1="233.8" x2="523.87" y2="45.52"/><rect x="523.87" y="45.52" width="0.22" height="0.22"/><line class="cls-1" x1="576.71" y1="233.8" x2="523.87" y2="233.8"/><rect x="523.87" y="233.8" width="0.22" height="0.22"/><line class="cls-1" x1="642.15" y1="233.8" x2="614.32" y2="233.8"/><rect x="614.32" y="233.8" width="0.22" height="0.22"/><line class="cls-1" x1="702.37" y1="233.8" x2="702.37" y2="196.19"/><rect x="702.37" y="196.19" width="0.22" height="0.22"/><line class="cls-1" x1="702.37" y1="233.8" x2="679.76" y2="233.8"/><rect x="679.76" y="233.8" width="0.22" height="0.22"/><line class="cls-1" x1="64.49" y1="271.41" x2="64.49" y2="105.74"/><rect x="64.49" y="105.74" width="0.22" height="0.22"/><line class="cls-1" x1="102.1" y1="271.41" x2="64.49" y2="271.41"/><rect x="64.49" y="271.41" width="0.22" height="0.22"/><line class="cls-1" x1="207.54" y1="271.41" x2="139.71" y2="271.41"/><rect x="139.71" y="271.41" width="0.22" height="0.22"/><line class="cls-1" x1="267.76" y1="271.41" x2="267.76" y2="233.8"/><rect x="267.76" y="233.8" width="0.22" height="0.22"/><line class="cls-1" x1="267.76" y1="271.41" x2="245.15" y2="271.41"/><rect x="245.15" y="271.41" width="0.22" height="0.22"/><line class="cls-1" x1="297.99" y1="271.41" x2="297.99" y2="218.8"/><rect x="297.99" y="218.8" width="0.22" height="0.22"/><line class="cls-1" x1="297.99" y1="271.41" x2="267.76" y2="271.41"/><rect x="267.76" y="271.41" width="0.22" height="0.22"/><line class="cls-1" x1="320.6" y1="271.41" x2="297.99" y2="271.41"/><rect x="297.99" y="271.41" width="0.22" height="0.22"/><line class="cls-1" x1="373.21" y1="279.02" x2="373.21" y2="218.8"/><rect x="373.21" y="218.8" width="0.22" height="0.22"/><line class="cls-1" x1="373.21" y1="279.02" x2="350.6" y2="279.02"/><rect x="350.6" y="279.02" width="0.22" height="0.22"/><line class="cls-1" x1="395.82" y1="279.02" x2="373.21" y2="279.02"/><rect x="373.21" y="279.02" width="0.22" height="0.22"/><line class="cls-1" x1="456.04" y1="279.02" x2="433.43" y2="279.02"/><rect x="433.43" y="279.02" width="0.22" height="0.22"/><line class="cls-1" x1="539.09" y1="279.02" x2="539.09" y2="196.19"/><rect x="539.09" y="196.19" width="0.22" height="0.22"/><line class="cls-1" x1="539.09" y1="279.02" x2="493.65" y2="279.02"/><rect x="493.65" y="279.02" width="0.22" height="0.22"/><line class="cls-1" x1="320.6" y1="286.63" x2="297.99" y2="286.63"/><rect x="297.99" y="286.63" width="0.22" height="0.22"/><line class="cls-1" x1="49.26" y1="309.24" x2="49.26" y2="143.58"/><rect x="49.26" y="143.58" width="0.22" height="0.22"/><line class="cls-1" x1="207.54" y1="309.24" x2="49.26" y2="309.24"/><rect x="49.26" y="309.24" width="0.22" height="0.22"/><line class="cls-1" x1="267.76" y1="309.24" x2="267.76" y2="271.41"/><rect x="267.76" y="271.41" width="0.22" height="0.22"/><line class="cls-1" x1="267.76" y1="309.24" x2="245.15" y2="309.24"/><rect x="245.15" y="309.24" width="0.22" height="0.22"/><line class="cls-1" x1="49.26" y1="316.85" x2="49.26" y2="309.24"/><rect x="49.26" y="309.24" width="0.22" height="0.22"/><line class="cls-1" x1="64.49" y1="316.85" x2="64.49" y2="271.41"/><rect x="64.49" y="271.41" width="0.22" height="0.22"/><line class="cls-1" x1="79.49" y1="316.85" x2="79.49" y2="233.8"/><rect x="79.49" y="233.8" width="0.22" height="0.22"/><line class="cls-1" x1="523.87" y1="286.85" x2="523.87" y2="233.8"/><rect x="523.87" y="233.8" width="0.22" height="0.22"/><line class="cls-1" x1="539.09" y1="286.85" x2="539.09" y2="279.02"/><rect x="539.09" y="279.02" width="0.22" height="0.22"/><line class="cls-1" x1="554.09" y1="286.85" x2="554.09" y2="158.58"/><rect x="554.09" y="158.58" width="0.22" height="0.22"/><path class="cls-3" d="M806,202h3.81v3.8H806ZM730.8,194.4h3.81v3.8H730.8Zm-30.22,0h3.81v3.8h-3.81ZM552.3,156.79h3.81v3.8H552.3Zm0-45.23h3.81v3.81H552.3Zm-15,165.67h3.81V281H537.3Zm0-82.83h3.81v3.8H537.3ZM522.08,232h3.81v3.8h-3.81Zm0-188.28h3.81v3.81h-3.81ZM371.42,277.23h3.8V281h-3.8Zm0-165.67h3.8v3.81h-3.8ZM296.2,269.62H300v3.8h-3.8Zm0-165.67H300v3.81h-3.8ZM266,269.62h3.81v3.8H266ZM266,104h3.81v3.81H266ZM77.7,232h3.8v3.8H77.7Zm0-165.67h3.8v3.81H77.7Zm0-52.61h3.8v3.81H77.7Zm-15,255.89h3.8v3.8H62.7ZM62.7,104h3.8v3.81H62.7Zm0-75.22h3.8v3.81H62.7ZM47.47,307.45h3.81v3.81H47.47Zm0-165.66h3.81v3.8H47.47Zm0-98.06h3.81v3.81H47.47Z" transform="translate(0)"/><circle class="cls-4" cx="960.51" cy="203.69" r="2.25"/><path d="M973.18,199.11a1.69,1.69,0,0,0-1.43.83c-.39.48-1.34,1.81-2.18,3a1.23,1.23,0,0,0-.28.63l-.3,1.5c-.19,1-.14,1.08.94,1.17l-.06.33h-3.22l.09-.33c1-.09,1.07-.14,1.27-1.17l.3-1.57a1.34,1.34,0,0,0-.08-.72c-.23-.72-.63-1.89-1-2.83-.26-.69-.33-.77-1.12-.84l.08-.33H969l-.08.33-.35,0c-.46.07-.51.16-.38.56.23.65.71,2.16,1,3,.54-.77,1.57-2.24,2-2.95.27-.42.15-.54-.3-.59l-.39,0,.09-.33h2.61Z" transform="translate(0)"/><circle class="cls-4" cx="17.01" cy="15.52" r="2.25"/><path d="M8.42,8.8a2,2,0,0,0-1.68.84c-.32.35-.85,1-1.91,2.31l1.34,2.93c.4.9.56.93,1.47,1l-.07.34H4.49l.07-.34.32-.05c.46-.06.54-.15.37-.56s-.45-1.08-1.11-2.58c-.79,1-1.47,1.89-2,2.58-.25.37-.15.49.34.57l.34,0-.09.34H0l.07-.34a1.76,1.76,0,0,0,1.5-.76c.41-.44,1.3-1.55,2.34-2.87L2.81,9.76c-.35-.8-.52-.88-1.36-1l.09-.34H4.45l-.07.34-.33,0c-.4.08-.51.14-.38.47.21.54.52,1.27,1,2.2.56-.68,1.11-1.39,1.64-2.13.25-.37.2-.46-.2-.52L5.71,8.8l.07-.34H8.49Z" transform="translate(0)"/><path d="M8.83,20.34c-.81,0-1.07-.68-1.07-1.45,0-1.23.64-3.08,1.9-3.08.83,0,1.06.74,1.05,1.46C10.71,18.46,10.11,20.34,8.83,20.34Zm.79-4.28c-.84,0-1.28,2-1.28,3,0,.58.09,1,.54,1,.83,0,1.25-2.1,1.25-3C10.14,16.55,10.08,16.06,9.62,16.06Z" transform="translate(0)"/><circle class="cls-4" cx="17.02" cy="30.52" r="2.25"/><path d="M8.42,23.8a2,2,0,0,0-1.68.84c-.32.35-.85,1-1.91,2.31l1.34,2.93c.4.9.56.93,1.47,1l-.07.34H4.49l.07-.34.32-.05c.46-.06.54-.15.37-.56s-.45-1.08-1.11-2.58c-.79,1-1.47,1.89-2,2.58-.25.37-.15.49.34.57l.34,0-.09.34H0l.07-.34a1.76,1.76,0,0,0,1.5-.76c.41-.44,1.3-1.56,2.34-2.87l-1.1-2.53c-.35-.8-.52-.88-1.36-1l.09-.34H4.45l-.07.34-.33,0c-.4.08-.51.13-.38.47.21.54.52,1.27,1,2.2.56-.68,1.11-1.4,1.64-2.13.25-.37.2-.46-.2-.53l-.35-.05.07-.34H8.49Z" transform="translate(0)"/><path d="M9.29,34.41c-.07.39-.1.57.33.62l.34,0,0,.19H7.78l0-.19.3,0c.46-.05.51-.1.62-.62l.51-2.6c.08-.4,0-.43-.37-.44H8.62l0-.19A5.59,5.59,0,0,0,10,30.81Z" transform="translate(0)"/><circle class="cls-4" cx="17.02" cy="45.52" r="2.25"/><path d="M6.13,40a7.66,7.66,0,0,0,1.47-.3,1.16,1.16,0,0,1,.36-.1c.1,0,.12.12.06.37-.41,1.62-.74,3.13-1.06,4.6a3.94,3.94,0,0,1,2.62-1.75c.7,0,.86.79.86,1.31a4.53,4.53,0,0,1-1.88,3.58,3.4,3.4,0,0,1-1.79.66A1,1,0,0,1,6,48.07c-.25-.26-.45-.73-.21-1.93.34-1.66.74-3.4,1.11-5.23.09-.47,0-.5-.35-.54l-.47,0Zm3.31,4.31c0-.43-.12-.79-.48-.79s-1,.35-1.74,1.31a2.89,2.89,0,0,0-.58,1.42c-.2,1.16.17,1.57.69,1.57C8.59,47.85,9.44,45.63,9.44,44.34Z" transform="translate(0)"/><circle class="cls-4" cx="491.4" cy="45.52" r="2.25"/><path d="M481.47,40.07a7.37,7.37,0,0,0,1.46-.3,1,1,0,0,1,.36-.1c.11,0,.12.12.06.37-.4,1.62-.73,3.13-1.05,4.6a3.94,3.94,0,0,1,2.61-1.75c.71,0,.87.79.87,1.31a4.51,4.51,0,0,1-1.89,3.58,3.35,3.35,0,0,1-1.78.66,1,1,0,0,1-.8-.33c-.25-.26-.44-.73-.2-1.93.34-1.66.73-3.4,1.1-5.23.1-.48,0-.5-.34-.54l-.47,0Zm3.31,4.31c0-.43-.12-.79-.48-.79s-1,.35-1.74,1.31a3,3,0,0,0-.59,1.42c-.19,1.16.17,1.57.7,1.57C483.93,47.89,484.78,45.67,484.78,44.38Z" transform="translate(0)"/><path d="M211.51,87.76h-.12a1.83,1.83,0,0,1-1.91-1.18c-.31-.6-.54-1.16-.8-1.76s-.35-.55-.78-.55h-.53L207,86.14c-.2,1.06-.11,1.1.92,1.2l-.07.34H204.7l.07-.34c.95-.08,1.08-.14,1.27-1.19l.93-4.82c.19-1,.06-1-.92-1.11l.08-.34h2.77c1.33,0,2.41.53,2.41,1.88a2.4,2.4,0,0,1-1.9,2.29c.19.48.41,1,.64,1.44.71,1.47,1,1.78,1.57,2ZM208,83.87a2,2,0,0,0,2.2-2,1.42,1.42,0,0,0-1.44-1.57c-.46,0-.63,0-.75.65l-.57,3Z" transform="translate(0)"/><path d="M214.77,87.13h.91c-.06.24-.13.68-.18,1.07h-.22a4.79,4.79,0,0,0-.05-.49c0-.22-.18-.32-.56-.32h-.77c-.23,0-.27,0-.32.27l-.3,1.59h.83c.58,0,.61-.08.82-.57h.21l-.29,1.47h-.2c0-.58,0-.63-.6-.63h-.82L213,90.8c-.11.58-.07.63.59.68l0,.19h-1.9l.05-.19c.56,0,.6-.09.72-.68l.54-2.78c.12-.61.06-.64-.53-.7l.05-.19Z" transform="translate(0)"/><path d="M217.75,88.43h-.7l4.44-9h.69Z" transform="translate(0)"/><path d="M228.37,86.68a1.66,1.66,0,0,1-1.56,1.16,1.81,1.81,0,0,1-1.34-.68,2.8,2.8,0,0,1-.61-2,3.54,3.54,0,0,1,.36-1.7,2.75,2.75,0,0,1,1-1,3.13,3.13,0,0,1,1.58-.35v.22a1.52,1.52,0,0,0-1.35.71,3.63,3.63,0,0,0-.48,2,3.67,3.67,0,0,0,.31,1.82.89.89,0,0,0,.74.49.91.91,0,0,0,.54-.17,1.07,1.07,0,0,0,.37-.36,6.86,6.86,0,0,0,.32-.78,3.7,3.7,0,0,1-.37-1.63c0-.88.18-1.31.53-1.31s.54.4.54,1.21a4.36,4.36,0,0,1-.39,1.73c.28.88.68,1.31,1.21,1.31a.92.92,0,0,0,.76-.46,3.27,3.27,0,0,0,.32-1.73,4.94,4.94,0,0,0-.21-1.64,2,2,0,0,0-.62-.88,1.67,1.67,0,0,0-1-.34v-.22a3,3,0,0,1,1.57.36,2.64,2.64,0,0,1,1,1,3.5,3.5,0,0,1,.36,1.69,2.85,2.85,0,0,1-.59,2,1.78,1.78,0,0,1-1.37.68A1.6,1.6,0,0,1,228.37,86.68Z" transform="translate(0)"/><path d="M233.72,91.76c-.81,0-1.07-.68-1.07-1.45,0-1.23.64-3.08,1.9-3.08.83,0,1.06.74,1,1.46C235.6,89.88,235,91.76,233.72,91.76Zm.79-4.28c-.84,0-1.28,2-1.28,3,0,.58.09,1,.54,1,.83,0,1.25-2.1,1.25-3C235,88,235,87.48,234.51,87.48Z" transform="translate(0)"/><path d="M235.45,92.26c.3-.11.71-.31.71-.66a.4.4,0,0,0-.32-.34.13.13,0,0,1-.09-.12.4.4,0,0,1,.41-.37.53.53,0,0,1,.46.58c0,.62-.55,1-1.11,1.13Z" transform="translate(0)"/><path d="M239.94,91.76c-.81,0-1.07-.68-1.07-1.45,0-1.23.64-3.08,1.9-3.08.83,0,1.06.74,1,1.46C241.82,89.88,241.22,91.76,239.94,91.76Zm.79-4.28c-.85,0-1.28,2-1.28,3,0,.58.09,1,.54,1,.82,0,1.25-2.1,1.25-3C241.25,88,241.18,87.48,240.73,87.48Z" transform="translate(0)"/><path d="M241.67,92.26c.3-.11.71-.31.71-.66a.4.4,0,0,0-.32-.34.13.13,0,0,1-.09-.12.4.4,0,0,1,.41-.37.53.53,0,0,1,.46.58c0,.62-.55,1-1.11,1.13Z" transform="translate(0)"/><path d="M246.16,91.76c-.81,0-1.07-.68-1.07-1.45,0-1.23.64-3.08,1.89-3.08.84,0,1.07.74,1.06,1.46C248,89.88,247.44,91.76,246.16,91.76Zm.79-4.28c-.85,0-1.28,2-1.28,3,0,.58.09,1,.54,1,.82,0,1.25-2.1,1.25-3C247.47,88,247.4,87.48,247,87.48Z" transform="translate(0)"/><path d="M211.51,125.25h-.12a1.84,1.84,0,0,1-1.91-1.17c-.31-.6-.54-1.17-.8-1.77s-.35-.55-.78-.55h-.53l-.34,1.87c-.2,1.06-.11,1.11.92,1.2l-.07.34H204.7l.07-.34c.95-.08,1.08-.14,1.27-1.19l.93-4.82c.19-1,.06-1-.92-1.11l.08-.34h2.77c1.33,0,2.41.53,2.41,1.89a2.41,2.41,0,0,1-1.9,2.29c.19.48.41,1,.64,1.44.71,1.46,1,1.77,1.57,2ZM208,121.37a2,2,0,0,0,2.2-2,1.41,1.41,0,0,0-1.44-1.57c-.46,0-.63,0-.75.64l-.57,3Z" transform="translate(0)"/><path d="M214.77,124.62h.91c-.06.24-.13.69-.18,1.07h-.22c0-.13,0-.31-.05-.49s-.18-.31-.56-.31h-.77c-.23,0-.27,0-.32.26l-.3,1.59h.83c.58,0,.61-.08.82-.57h.21l-.29,1.47h-.2c0-.57,0-.63-.6-.63h-.82L213,128.3c-.11.57-.07.62.59.67l0,.19h-1.9l.05-.19c.56-.05.6-.09.72-.68l.54-2.78c.12-.61.06-.64-.53-.69l.05-.2Z" transform="translate(0)"/><path d="M217.75,125.92h-.7l4.44-9h.69Z" transform="translate(0)"/><path d="M228.37,124.17a1.65,1.65,0,0,1-1.56,1.16,1.8,1.8,0,0,1-1.34-.67,2.83,2.83,0,0,1-.61-2,3.49,3.49,0,0,1,.36-1.7,2.78,2.78,0,0,1,1-1,3.13,3.13,0,0,1,1.58-.35v.22a1.54,1.54,0,0,0-1.35.71,4.94,4.94,0,0,0-.17,3.85.9.9,0,0,0,.74.5,1,1,0,0,0,.54-.17,1.27,1.27,0,0,0,.37-.36,8.36,8.36,0,0,0,.32-.79,3.67,3.67,0,0,1-.37-1.63c0-.87.18-1.31.53-1.31s.54.4.54,1.21a4.36,4.36,0,0,1-.39,1.73c.28.88.68,1.32,1.21,1.32a1,1,0,0,0,.76-.46,3.34,3.34,0,0,0,.32-1.74,4.87,4.87,0,0,0-.21-1.63,2,2,0,0,0-.62-.89,1.74,1.74,0,0,0-1-.34v-.22a3,3,0,0,1,1.57.36,2.6,2.6,0,0,1,1,1,3.43,3.43,0,0,1,.36,1.68,2.9,2.9,0,0,1-.59,2,1.76,1.76,0,0,1-1.37.67A1.58,1.58,0,0,1,228.37,124.17Z" transform="translate(0)"/><path d="M233.72,129.25c-.81,0-1.07-.67-1.07-1.45,0-1.23.64-3.07,1.9-3.07.83,0,1.06.73,1,1.46C235.6,127.37,235,129.25,233.72,129.25Zm.79-4.28c-.84,0-1.28,2-1.28,3,0,.57.09,1,.54,1,.83,0,1.25-2.1,1.25-3C235,125.47,235,125,234.51,125Z" transform="translate(0)"/><path d="M235.45,129.76c.3-.11.71-.32.71-.67,0-.19-.17-.28-.32-.34a.12.12,0,0,1-.09-.12.4.4,0,0,1,.41-.37.54.54,0,0,1,.46.58c0,.62-.55,1-1.11,1.13Z" transform="translate(0)"/><path d="M239.94,129.25c-.81,0-1.07-.67-1.07-1.45,0-1.23.64-3.07,1.9-3.07.83,0,1.06.73,1,1.46C241.82,127.37,241.22,129.25,239.94,129.25Zm.79-4.28c-.85,0-1.28,2-1.28,3,0,.57.09,1,.54,1,.82,0,1.25-2.1,1.25-3C241.25,125.47,241.18,125,240.73,125Z" transform="translate(0)"/><path d="M241.67,129.76c.3-.11.71-.32.71-.67,0-.19-.17-.28-.32-.34a.12.12,0,0,1-.09-.12.4.4,0,0,1,.41-.37.54.54,0,0,1,.46.58c0,.62-.55,1-1.11,1.13Z" transform="translate(0)"/><path d="M246.62,128.32c-.08.39-.1.57.33.62l.34,0,0,.19h-2.13l0-.19.31,0c.46-.06.51-.11.62-.63l.51-2.6c.07-.4,0-.43-.37-.43h-.28l0-.19a5.52,5.52,0,0,0,1.34-.36Z" transform="translate(0)"/><path d="M211.51,162.75h-.12a1.84,1.84,0,0,1-1.91-1.18c-.31-.6-.54-1.16-.8-1.76s-.35-.55-.78-.55h-.53l-.34,1.87c-.2,1.05-.11,1.1.92,1.2l-.07.33H204.7l.07-.33c.95-.09,1.08-.15,1.27-1.19l.93-4.82c.19-1,.06-1-.92-1.12l.08-.33h2.77c1.33,0,2.41.52,2.41,1.88a2.41,2.41,0,0,1-1.9,2.29c.19.48.41,1,.64,1.44.71,1.46,1,1.77,1.57,2ZM208,158.86a2,2,0,0,0,2.2-2,1.42,1.42,0,0,0-1.44-1.57c-.46,0-.63,0-.75.65l-.57,3Z" transform="translate(0)"/><path d="M214.77,162.11h.91c-.06.24-.13.69-.18,1.07h-.22c0-.13,0-.31-.05-.49s-.18-.31-.56-.31h-.77c-.23,0-.27,0-.32.27l-.3,1.58h.83c.58,0,.61-.07.82-.56h.21l-.29,1.46h-.2c0-.57,0-.62-.6-.62h-.82l-.25,1.28c-.11.57-.07.62.59.67l0,.2h-1.9l.05-.2c.56-.05.6-.09.72-.68l.54-2.78c.12-.61.06-.63-.53-.69l.05-.2Z" transform="translate(0)"/><path d="M217.75,163.42h-.7l4.44-9h.69Z" transform="translate(0)"/><path d="M228.37,161.67a1.66,1.66,0,0,1-1.56,1.16,1.81,1.81,0,0,1-1.34-.68,2.8,2.8,0,0,1-.61-2,3.54,3.54,0,0,1,.36-1.7,2.67,2.67,0,0,1,1-1,3,3,0,0,1,1.58-.35v.21a1.53,1.53,0,0,0-1.35.72,3.59,3.59,0,0,0-.48,2,3.72,3.72,0,0,0,.31,1.83.89.89,0,0,0,.74.49,1,1,0,0,0,.54-.17,1.07,1.07,0,0,0,.37-.36c.07-.13.17-.39.32-.78a3.71,3.71,0,0,1-.37-1.64c0-.87.18-1.3.53-1.3s.54.4.54,1.2a4.37,4.37,0,0,1-.39,1.74c.28.87.68,1.31,1.21,1.31a.92.92,0,0,0,.76-.46,3.34,3.34,0,0,0,.32-1.74,4.91,4.91,0,0,0-.21-1.63,1.93,1.93,0,0,0-.62-.88,1.68,1.68,0,0,0-1-.35v-.21a3.09,3.09,0,0,1,1.57.35,2.67,2.67,0,0,1,1,1,3.46,3.46,0,0,1,.36,1.68,2.88,2.88,0,0,1-.59,2,1.78,1.78,0,0,1-1.37.68A1.6,1.6,0,0,1,228.37,161.67Z" transform="translate(0)"/><path d="M233.72,166.74c-.81,0-1.07-.67-1.07-1.44,0-1.24.64-3.08,1.9-3.08.83,0,1.06.73,1,1.46C235.6,164.86,235,166.74,233.72,166.74Zm.79-4.28c-.84,0-1.28,2-1.28,3,0,.57.09,1,.54,1,.83,0,1.25-2.11,1.25-3C235,163,235,162.46,234.51,162.46Z" transform="translate(0)"/><path d="M235.45,167.25c.3-.11.71-.31.71-.66s-.17-.29-.32-.34-.09-.06-.09-.12a.39.39,0,0,1,.41-.37.53.53,0,0,1,.46.58c0,.61-.55,1-1.11,1.13Z" transform="translate(0)"/><path d="M239.94,166.74c-.81,0-1.07-.67-1.07-1.44,0-1.24.64-3.08,1.9-3.08.83,0,1.06.73,1,1.46C241.82,164.86,241.22,166.74,239.94,166.74Zm.79-4.28c-.85,0-1.28,2-1.28,3,0,.57.09,1,.54,1,.82,0,1.25-2.11,1.25-3C241.25,163,241.18,162.46,240.73,162.46Z" transform="translate(0)"/><path d="M241.67,167.25c.3-.11.71-.31.71-.66s-.17-.29-.32-.34-.09-.06-.09-.12a.39.39,0,0,1,.41-.37.53.53,0,0,1,.46.58c0,.61-.55,1-1.11,1.13Z" transform="translate(0)"/><path d="M245.84,162.6a1.41,1.41,0,0,1,.93-.38,1,1,0,0,1,1.1,1.1c0,.71-.47,1.21-1.28,1.9l-1.07.95h1.26c.39,0,.49,0,.85-.57l.18.09c-.15.3-.33.68-.46,1h-2.61l0-.15c1.57-1.38,2.51-2.17,2.51-3.09a.67.67,0,0,0-.73-.75,1.34,1.34,0,0,0-1,.63l-.15-.14Z" transform="translate(0)"/><path d="M211.62,252.7h-.12a1.82,1.82,0,0,1-1.9-1.18c-.32-.6-.54-1.16-.81-1.76s-.35-.56-.78-.56h-.52l-.35,1.88c-.19,1-.11,1.1.92,1.2l-.07.33h-3.18l.07-.33c1-.09,1.08-.15,1.27-1.19l.93-4.82c.19-1,.06-1-.91-1.12l.07-.33H209c1.33,0,2.41.52,2.41,1.88a2.41,2.41,0,0,1-1.9,2.29c.2.48.41,1,.64,1.44.71,1.46,1,1.77,1.57,1.95Zm-3.49-3.89a2,2,0,0,0,2.2-2,1.42,1.42,0,0,0-1.44-1.57c-.46,0-.62,0-.74.65l-.58,3Z" transform="translate(0)"/><path d="M214.88,252.06h.91c0,.24-.13.69-.18,1.07h-.22a3.25,3.25,0,0,0,0-.49c-.05-.21-.18-.31-.55-.31H214c-.23,0-.27,0-.31.27l-.3,1.58h.82c.58,0,.61-.07.83-.56h.2l-.29,1.46h-.2c0-.57,0-.63-.6-.63h-.81l-.26,1.29c-.11.57-.07.62.59.67l0,.2h-1.9l0-.2c.56-.05.61-.09.73-.68l.53-2.78c.12-.61.07-.63-.53-.69l0-.2Z" transform="translate(0)"/><path d="M217.86,253.37h-.7l4.44-9h.7Z" transform="translate(0)"/><path d="M228.49,251.62a1.66,1.66,0,0,1-1.56,1.16,1.81,1.81,0,0,1-1.35-.68,2.8,2.8,0,0,1-.61-1.95,3.4,3.4,0,0,1,.37-1.7,2.58,2.58,0,0,1,.95-1,3,3,0,0,1,1.58-.35v.21a1.53,1.53,0,0,0-1.35.72,3.59,3.59,0,0,0-.48,2,3.69,3.69,0,0,0,.32,1.83.86.86,0,0,0,.74.49,1.17,1.17,0,0,0,.9-.53,6.6,6.6,0,0,0,.32-.78,3.86,3.86,0,0,1-.37-1.64c0-.87.18-1.3.54-1.3s.53.4.53,1.2a4.37,4.37,0,0,1-.39,1.74c.28.87.69,1.31,1.21,1.31a.91.91,0,0,0,.76-.46,3.34,3.34,0,0,0,.32-1.74,4.91,4.91,0,0,0-.21-1.63,1.93,1.93,0,0,0-.62-.88,1.68,1.68,0,0,0-1-.35v-.21a3,3,0,0,1,1.58.35,2.72,2.72,0,0,1,1,1,3.46,3.46,0,0,1,.36,1.68,2.93,2.93,0,0,1-.58,2,1.81,1.81,0,0,1-1.38.68A1.58,1.58,0,0,1,228.49,251.62Z" transform="translate(0)"/><path d="M233.83,256.69c-.81,0-1.06-.67-1.06-1.45,0-1.23.63-3.07,1.89-3.07.83,0,1.06.73,1.05,1.46C235.71,254.81,235.11,256.69,233.83,256.69Zm.79-4.28c-.84,0-1.28,2-1.28,3,0,.57.1,1,.54,1,.83,0,1.25-2.11,1.25-3C235.14,252.91,235.08,252.41,234.62,252.41Z" transform="translate(0)"/><path d="M235.56,257.2c.3-.11.71-.31.71-.66s-.17-.29-.32-.34-.09-.06-.09-.12a.39.39,0,0,1,.41-.37.53.53,0,0,1,.46.58c0,.61-.54,1-1.1,1.13Z" transform="translate(0)"/><path d="M240.51,255.76c-.07.39-.1.57.33.62l.35,0-.05.2H239l.05-.2.3,0c.46-.06.51-.1.62-.63l.51-2.6c.08-.4,0-.42-.37-.43h-.27l0-.19a5.45,5.45,0,0,0,1.33-.36Z" transform="translate(0)"/><path d="M241.78,257.2c.3-.11.71-.31.71-.66s-.17-.29-.32-.34-.09-.06-.09-.12a.39.39,0,0,1,.41-.37.53.53,0,0,1,.46.58c0,.61-.55,1-1.1,1.13Z" transform="translate(0)"/><path d="M246.27,256.69c-.81,0-1.07-.67-1.07-1.45,0-1.23.64-3.07,1.9-3.07.83,0,1.06.73,1.05,1.46C248.15,254.81,247.55,256.69,246.27,256.69Zm.79-4.28c-.84,0-1.28,2-1.28,3,0,.57.09,1,.54,1,.83,0,1.25-2.11,1.25-3C247.58,252.91,247.52,252.41,247.06,252.41Z" transform="translate(0)"/><path d="M211.62,290.19h-.12a1.81,1.81,0,0,1-1.9-1.18c-.32-.6-.54-1.16-.81-1.76s-.35-.55-.78-.55h-.52l-.35,1.87c-.19,1.05-.11,1.1.92,1.2l-.07.33h-3.18l.07-.33c1-.09,1.08-.15,1.27-1.19l.93-4.82c.19-1,.06-1-.91-1.12l.07-.33H209c1.33,0,2.41.53,2.41,1.88a2.4,2.4,0,0,1-1.9,2.29c.2.48.41,1,.64,1.44.71,1.46,1,1.78,1.57,2Zm-3.49-3.89a2,2,0,0,0,2.2-2,1.42,1.42,0,0,0-1.44-1.57c-.46,0-.62,0-.74.65l-.58,3Z" transform="translate(0)"/><path d="M214.88,289.56h.91c0,.24-.13.68-.18,1.07h-.22a3,3,0,0,0,0-.49c-.05-.22-.18-.32-.55-.32H214c-.23,0-.27,0-.31.27l-.3,1.59h.82c.58,0,.61-.08.83-.57h.2l-.29,1.47h-.2c0-.58,0-.63-.6-.63h-.81l-.26,1.28c-.11.58-.07.63.59.68l0,.19h-1.9l0-.19c.56-.05.61-.1.73-.68l.53-2.78c.12-.61.07-.64-.53-.7l0-.19Z" transform="translate(0)"/><path d="M217.86,290.86h-.7l4.44-9h.7Z" transform="translate(0)"/><path d="M228.49,289.11a1.66,1.66,0,0,1-1.56,1.16,1.81,1.81,0,0,1-1.35-.68,2.8,2.8,0,0,1-.61-1.95,3.43,3.43,0,0,1,.37-1.7,2.58,2.58,0,0,1,.95-1,3.13,3.13,0,0,1,1.58-.35v.22a1.52,1.52,0,0,0-1.35.71,3.63,3.63,0,0,0-.48,2,3.67,3.67,0,0,0,.32,1.82.86.86,0,0,0,.74.49.9.9,0,0,0,.53-.17,1,1,0,0,0,.37-.36,5.91,5.91,0,0,0,.32-.78,3.85,3.85,0,0,1-.37-1.63c0-.88.18-1.31.54-1.31s.53.4.53,1.21a4.36,4.36,0,0,1-.39,1.73c.28.87.69,1.31,1.21,1.31a.91.91,0,0,0,.76-.46,3.27,3.27,0,0,0,.32-1.73,4.94,4.94,0,0,0-.21-1.64,2,2,0,0,0-.62-.88,1.67,1.67,0,0,0-1-.34v-.22a3,3,0,0,1,1.58.36,2.62,2.62,0,0,1,1,1,3.5,3.5,0,0,1,.36,1.69,2.9,2.9,0,0,1-.58,2,1.81,1.81,0,0,1-1.38.68A1.58,1.58,0,0,1,228.49,289.11Z" transform="translate(0)"/><path d="M233.83,294.18c-.81,0-1.06-.67-1.06-1.44,0-1.23.63-3.08,1.89-3.08.83,0,1.06.74,1.05,1.46C235.71,292.3,235.11,294.18,233.83,294.18Zm.79-4.27c-.84,0-1.28,2-1.28,3,0,.58.1,1,.54,1,.83,0,1.25-2.1,1.25-3C235.14,290.4,235.08,289.91,234.62,289.91Z" transform="translate(0)"/><path d="M235.56,294.69c.3-.11.71-.31.71-.66,0-.2-.17-.29-.32-.34a.13.13,0,0,1-.09-.12.4.4,0,0,1,.41-.37.53.53,0,0,1,.46.58c0,.61-.54,1-1.1,1.13Z" transform="translate(0)"/><path d="M240.51,293.25c-.07.4-.1.58.33.63l.35,0-.05.19H239l.05-.19.3,0c.46-.05.51-.1.62-.63l.51-2.59c.08-.4,0-.43-.37-.44h-.27l0-.18a5.47,5.47,0,0,0,1.33-.37Z" transform="translate(0)"/><path d="M241.78,294.69c.3-.11.71-.31.71-.66,0-.2-.17-.29-.32-.34a.13.13,0,0,1-.09-.12.4.4,0,0,1,.41-.37.53.53,0,0,1,.46.58c0,.61-.55,1-1.1,1.13Z" transform="translate(0)"/><path d="M246.73,293.25c-.07.4-.1.58.33.63l.34,0,0,.19h-2.14l.05-.19.3,0c.46-.05.51-.1.62-.63l.51-2.59c.08-.4,0-.43-.37-.44h-.27l0-.18a5.59,5.59,0,0,0,1.33-.37Z" transform="translate(0)"/><path d="M211.62,327.68h-.12a1.82,1.82,0,0,1-1.9-1.17c-.32-.6-.54-1.17-.81-1.77s-.35-.55-.78-.55h-.52l-.35,1.87c-.19,1.06-.11,1.11.92,1.2l-.07.34h-3.18l.07-.34c1-.08,1.08-.14,1.27-1.19l.93-4.82c.19-1,.06-1-.91-1.11l.07-.34H209c1.33,0,2.41.53,2.41,1.88a2.41,2.41,0,0,1-1.9,2.3c.2.47.41,1,.64,1.43.71,1.47,1,1.78,1.57,2Zm-3.49-3.88a2,2,0,0,0,2.2-2,1.41,1.41,0,0,0-1.44-1.57c-.46,0-.62,0-.74.64l-.58,3Z" transform="translate(0)"/><path d="M214.88,327.05h.91c0,.24-.13.69-.18,1.07h-.22a3.25,3.25,0,0,0,0-.49c-.05-.22-.18-.31-.55-.31H214c-.23,0-.27,0-.31.26l-.3,1.59h.82c.58,0,.61-.08.83-.57h.2l-.29,1.47h-.2c0-.57,0-.63-.6-.63h-.81l-.26,1.29c-.11.57-.07.62.59.67l0,.19h-1.9l0-.19c.56,0,.61-.09.73-.68l.53-2.78c.12-.61.07-.64-.53-.69l0-.2Z" transform="translate(0)"/><path d="M217.86,328.35h-.7l4.44-9h.7Z" transform="translate(0)"/><path d="M228.49,326.6a1.66,1.66,0,0,1-1.56,1.16,1.78,1.78,0,0,1-1.35-.68,2.79,2.79,0,0,1-.61-1.94,3.44,3.44,0,0,1,.37-1.71,2.65,2.65,0,0,1,.95-1,3.13,3.13,0,0,1,1.58-.35v.22a1.54,1.54,0,0,0-1.35.71,4.88,4.88,0,0,0-.16,3.85.88.88,0,0,0,.74.5,1,1,0,0,0,.53-.17,1.16,1.16,0,0,0,.37-.36,6.25,6.25,0,0,0,.32-.79,3.81,3.81,0,0,1-.37-1.63c0-.87.18-1.31.54-1.31s.53.4.53,1.21a4.36,4.36,0,0,1-.39,1.73c.28.88.69,1.32,1.21,1.32a.93.93,0,0,0,.76-.46,3.34,3.34,0,0,0,.32-1.74,4.87,4.87,0,0,0-.21-1.63,2,2,0,0,0-.62-.89,1.67,1.67,0,0,0-1-.34v-.22a3,3,0,0,1,1.58.36,2.65,2.65,0,0,1,1,1,3.43,3.43,0,0,1,.36,1.68,2.9,2.9,0,0,1-.58,2,1.78,1.78,0,0,1-1.38.68A1.58,1.58,0,0,1,228.49,326.6Z" transform="translate(0)"/><path d="M233.83,331.68c-.81,0-1.06-.67-1.06-1.45,0-1.23.63-3.07,1.89-3.07.83,0,1.06.73,1.05,1.46C235.71,329.8,235.11,331.68,233.83,331.68Zm.79-4.28c-.84,0-1.28,2-1.28,3,0,.57.1,1,.54,1,.83,0,1.25-2.1,1.25-3C235.14,327.9,235.08,327.4,234.62,327.4Z" transform="translate(0)"/><path d="M235.56,332.19c.3-.11.71-.32.71-.67,0-.19-.17-.28-.32-.34a.12.12,0,0,1-.09-.12.4.4,0,0,1,.41-.37.53.53,0,0,1,.46.58,1.26,1.26,0,0,1-1.1,1.13Z" transform="translate(0)"/><path d="M240.51,330.75c-.07.39-.1.57.33.62l.35,0-.05.19H239l.05-.19.3,0c.46-.06.51-.11.62-.63l.51-2.6c.08-.4,0-.43-.37-.44h-.27l0-.19a5.45,5.45,0,0,0,1.33-.36Z" transform="translate(0)"/><path d="M241.78,332.19c.3-.11.71-.32.71-.67,0-.19-.17-.28-.32-.34a.12.12,0,0,1-.09-.12.4.4,0,0,1,.41-.37.53.53,0,0,1,.46.58,1.27,1.27,0,0,1-1.1,1.13Z" transform="translate(0)"/><path d="M246,327.53a1.4,1.4,0,0,1,.94-.37,1,1,0,0,1,1.09,1.1c0,.71-.47,1.2-1.27,1.9l-1.08.94h1.26c.39,0,.49,0,.86-.56l.17.08c-.15.3-.33.69-.45,1h-2.62l0-.14c1.58-1.39,2.51-2.18,2.51-3.09a.67.67,0,0,0-.73-.75,1.33,1.33,0,0,0-1,.63l-.15-.15Z" transform="translate(0)"/><path d="M646.12,177.9H646a1.84,1.84,0,0,1-1.91-1.18c-.31-.6-.54-1.16-.8-1.76s-.35-.55-.78-.55H642l-.35,1.87c-.19,1.05-.1,1.1.93,1.2l-.07.33h-3.18l.07-.33c1-.09,1.08-.15,1.27-1.19l.92-4.82c.2-1,.06-1-.91-1.12l.07-.33h2.77c1.34,0,2.42.52,2.42,1.88a2.41,2.41,0,0,1-1.9,2.29c.19.48.41,1,.64,1.44.7,1.46,1,1.77,1.57,2ZM642.63,174a2,2,0,0,0,2.19-2,1.42,1.42,0,0,0-1.44-1.57c-.45,0-.62,0-.74.65l-.57,3Z" transform="translate(0)"/><path d="M649.37,177.26h.92c-.06.24-.13.69-.18,1.07h-.22a3.41,3.41,0,0,0-.06-.49c0-.21-.17-.31-.55-.31h-.77c-.23,0-.28,0-.32.27l-.3,1.58h.83c.58,0,.6-.07.82-.56h.21l-.29,1.46h-.21c0-.57,0-.62-.59-.62h-.82l-.26,1.28c-.1.57-.07.62.6.67l0,.2h-1.9l0-.2c.57-.05.61-.09.73-.68l.54-2.78c.12-.6.06-.63-.53-.69l.05-.2Z" transform="translate(0)"/><path d="M652.35,178.57h-.69l4.44-9h.69Z" transform="translate(0)"/><path d="M663,176.82a1.66,1.66,0,0,1-1.56,1.16,1.8,1.8,0,0,1-1.34-.68,2.8,2.8,0,0,1-.61-2,3.54,3.54,0,0,1,.36-1.7,2.67,2.67,0,0,1,1-1,3,3,0,0,1,1.58-.35v.21a1.53,1.53,0,0,0-1.35.72,3.6,3.6,0,0,0-.48,2,3.7,3.7,0,0,0,.31,1.82.89.89,0,0,0,.74.49,1,1,0,0,0,.54-.17,1.16,1.16,0,0,0,.37-.36c.07-.13.17-.39.32-.78a3.71,3.71,0,0,1-.37-1.64c0-.87.18-1.3.53-1.3s.53.4.53,1.2a4.35,4.35,0,0,1-.38,1.74c.28.87.68,1.31,1.2,1.31a.9.9,0,0,0,.76-.46,3.24,3.24,0,0,0,.32-1.74,5.24,5.24,0,0,0-.2-1.63,1.93,1.93,0,0,0-.62-.88,1.71,1.71,0,0,0-1-.35v-.21a3.11,3.11,0,0,1,1.58.35,2.75,2.75,0,0,1,1,1,3.48,3.48,0,0,1,.36,1.68,2.93,2.93,0,0,1-.59,2,1.78,1.78,0,0,1-1.37.68A1.6,1.6,0,0,1,663,176.82Z" transform="translate(0)"/><path d="M668.79,181c-.08.39-.1.58.33.62l.34,0-.05.2h-2.13l0-.2.31,0c.45-.05.51-.1.62-.63l.51-2.6c.07-.4,0-.42-.37-.43h-.28l0-.19a5.14,5.14,0,0,0,1.33-.36Z" transform="translate(0)"/><path d="M670.06,182.4c.3-.11.7-.31.7-.66s-.16-.29-.31-.34-.09-.06-.09-.12a.39.39,0,0,1,.4-.37.54.54,0,0,1,.47.58c0,.61-.55,1-1.11,1.13Z" transform="translate(0)"/><path d="M674.55,181.89c-.81,0-1.07-.67-1.07-1.44,0-1.23.64-3.08,1.89-3.08.83,0,1.07.73,1.06,1.46C676.43,180,675.83,181.89,674.55,181.89Zm.79-4.28c-.85,0-1.28,2-1.28,3,0,.57.09,1,.54,1,.82,0,1.25-2.11,1.25-3C675.86,178.11,675.79,177.61,675.34,177.61Z" transform="translate(0)"/><path d="M676.28,182.4c.3-.11.7-.31.7-.66s-.16-.29-.31-.34-.09-.06-.09-.12a.39.39,0,0,1,.4-.37.54.54,0,0,1,.47.58c0,.61-.55,1-1.11,1.13Z" transform="translate(0)"/><path d="M680.77,181.89c-.81,0-1.07-.67-1.07-1.44,0-1.23.63-3.08,1.89-3.08.83,0,1.07.73,1.06,1.46C682.65,180,682.05,181.89,680.77,181.89Zm.79-4.28c-.85,0-1.28,2-1.28,3,0,.57.09,1,.54,1,.82,0,1.25-2.11,1.25-3C682.08,178.11,682,177.61,681.56,177.61Z" transform="translate(0)"/><path d="M646.12,215.39H646a1.82,1.82,0,0,1-1.91-1.18c-.31-.6-.54-1.16-.8-1.76s-.35-.55-.78-.55H642l-.35,1.87c-.19,1.06-.1,1.1.93,1.2l-.07.33h-3.18l.07-.33c1-.08,1.08-.14,1.27-1.19l.92-4.82c.2-1,.06-1-.91-1.12l.07-.33h2.77c1.34,0,2.42.53,2.42,1.88a2.4,2.4,0,0,1-1.9,2.29c.19.48.41,1,.64,1.44.7,1.47,1,1.78,1.57,2Zm-3.49-3.89a2,2,0,0,0,2.19-2,1.42,1.42,0,0,0-1.44-1.57c-.45,0-.62,0-.74.65l-.57,3Z" transform="translate(0)"/><path d="M649.37,214.76h.92c-.06.24-.13.68-.18,1.07h-.22a3.11,3.11,0,0,0-.06-.49c0-.22-.17-.32-.55-.32h-.77c-.23,0-.28,0-.32.27l-.3,1.59h.83c.58,0,.6-.08.82-.57h.21l-.29,1.47h-.21c0-.58,0-.63-.59-.63h-.82l-.26,1.28c-.1.58-.07.63.6.68l0,.19h-1.9l0-.19c.57-.05.61-.1.73-.68l.54-2.78c.12-.61.06-.64-.53-.7l.05-.19Z" transform="translate(0)"/><path d="M652.35,216.06h-.69l4.44-9h.69Z" transform="translate(0)"/><path d="M663,214.31a1.66,1.66,0,0,1-1.56,1.16,1.8,1.8,0,0,1-1.34-.68,2.8,2.8,0,0,1-.61-1.95,3.54,3.54,0,0,1,.36-1.7,2.75,2.75,0,0,1,1-1,3.11,3.11,0,0,1,1.58-.35V210a1.52,1.52,0,0,0-1.35.71,3.63,3.63,0,0,0-.48,2,3.67,3.67,0,0,0,.31,1.82.89.89,0,0,0,.74.49.91.91,0,0,0,.54-.17,1.16,1.16,0,0,0,.37-.36,6.86,6.86,0,0,0,.32-.78,3.7,3.7,0,0,1-.37-1.63c0-.88.18-1.31.53-1.31s.53.4.53,1.21a4.34,4.34,0,0,1-.38,1.73c.28.88.68,1.31,1.2,1.31a.9.9,0,0,0,.76-.46,3.18,3.18,0,0,0,.32-1.73,5.27,5.27,0,0,0-.2-1.64,2,2,0,0,0-.62-.88,1.7,1.7,0,0,0-1-.34v-.22a3,3,0,0,1,1.58.36,2.72,2.72,0,0,1,1,1,3.5,3.5,0,0,1,.36,1.69,2.9,2.9,0,0,1-.59,2,1.78,1.78,0,0,1-1.37.68A1.6,1.6,0,0,1,663,214.31Z" transform="translate(0)"/><path d="M668.79,218.46c-.08.39-.1.57.33.62l.34,0-.05.19h-2.13l0-.19.31,0c.45-.05.51-.1.62-.62l.51-2.6c.07-.4,0-.43-.37-.44h-.28l0-.19a5.59,5.59,0,0,0,1.33-.37Z" transform="translate(0)"/><path d="M670.06,219.89c.3-.11.7-.31.7-.66,0-.19-.16-.29-.31-.34a.12.12,0,0,1-.09-.12.4.4,0,0,1,.4-.37.54.54,0,0,1,.47.58,1.28,1.28,0,0,1-1.11,1.13Z" transform="translate(0)"/><path d="M674.55,219.39c-.81,0-1.07-.68-1.07-1.45,0-1.23.64-3.08,1.89-3.08.83,0,1.07.74,1.06,1.46C676.43,217.51,675.83,219.39,674.55,219.39Zm.79-4.28c-.85,0-1.28,2-1.28,3,0,.58.09,1,.54,1,.82,0,1.25-2.1,1.25-3C675.86,215.6,675.79,215.11,675.34,215.11Z" transform="translate(0)"/><path d="M676.28,219.89c.3-.11.7-.31.7-.66,0-.19-.16-.29-.31-.34a.12.12,0,0,1-.09-.12.4.4,0,0,1,.4-.37.54.54,0,0,1,.47.58,1.28,1.28,0,0,1-1.11,1.13Z" transform="translate(0)"/><path d="M681.23,218.46c-.08.39-.11.57.33.62l.34,0,0,.19h-2.13l0-.19.31,0c.45-.05.51-.1.61-.62l.51-2.6c.08-.4,0-.43-.37-.44h-.27l0-.19a5.54,5.54,0,0,0,1.34-.37Z" transform="translate(0)"/><path d="M646.12,252.88H646a1.83,1.83,0,0,1-1.91-1.17c-.31-.6-.54-1.17-.8-1.77-.21-.45-.35-.55-.78-.55H642l-.35,1.87c-.19,1.06-.11,1.11.93,1.2l-.08.34h-3.17l.07-.34c1-.08,1.08-.14,1.27-1.19l.92-4.82c.19-1,.06-1-.91-1.11l.07-.34h2.77c1.33,0,2.41.53,2.41,1.88a2.4,2.4,0,0,1-1.89,2.3c.19.48.41,1,.64,1.44.7,1.46,1,1.77,1.57,1.95ZM642.63,249a2,2,0,0,0,2.19-2,1.41,1.41,0,0,0-1.44-1.57c-.45,0-.62,0-.74.64l-.58,3Z" transform="translate(0)"/><path d="M649.37,252.25h.92a9.07,9.07,0,0,0-.18,1.07h-.22a3.41,3.41,0,0,0-.06-.49c-.05-.21-.17-.31-.55-.31h-.78c-.23,0-.27,0-.31.26l-.3,1.59h.82c.58,0,.61-.08.83-.57h.21l-.29,1.47h-.21c0-.57,0-.63-.59-.63h-.82l-.26,1.29c-.1.57-.07.62.6.67l0,.19h-1.9l0-.19c.57-.05.61-.09.73-.68l.54-2.78c.12-.61.06-.64-.53-.69l.05-.2Z" transform="translate(0)"/><path d="M652.35,253.55h-.69l4.44-9h.69Z" transform="translate(0)"/><path d="M663,251.8a1.66,1.66,0,0,1-1.56,1.16,1.76,1.76,0,0,1-1.34-.68,2.79,2.79,0,0,1-.62-1.94,3.55,3.55,0,0,1,.37-1.71,2.75,2.75,0,0,1,1-1,3.11,3.11,0,0,1,1.58-.35v.22a1.54,1.54,0,0,0-1.35.71,4.94,4.94,0,0,0-.17,3.85.9.9,0,0,0,.74.5,1,1,0,0,0,.54-.17,1.22,1.22,0,0,0,.36-.36,7.6,7.6,0,0,0,.33-.79,3.67,3.67,0,0,1-.37-1.63c0-.87.18-1.31.53-1.31s.53.4.53,1.21a4.52,4.52,0,0,1-.38,1.73q.42,1.32,1.2,1.32a.92.92,0,0,0,.76-.46,3.24,3.24,0,0,0,.32-1.74,4.87,4.87,0,0,0-.21-1.63,1.87,1.87,0,0,0-.61-.89,1.7,1.7,0,0,0-1-.34v-.22a3,3,0,0,1,1.58.36,2.75,2.75,0,0,1,1,1,3.43,3.43,0,0,1,.36,1.68,2.9,2.9,0,0,1-.59,2,1.74,1.74,0,0,1-1.37.68A1.6,1.6,0,0,1,663,251.8Z" transform="translate(0)"/><path d="M668.79,256c-.08.39-.11.57.33.62l.34,0-.05.19h-2.13l0-.19.31,0c.45-.06.51-.11.62-.63l.5-2.6c.08-.4,0-.43-.37-.44h-.27l0-.19a5.52,5.52,0,0,0,1.34-.36Z" transform="translate(0)"/><path d="M670.06,257.39c.3-.11.7-.32.7-.67,0-.19-.16-.28-.31-.34a.11.11,0,0,1-.09-.12.39.39,0,0,1,.4-.37.54.54,0,0,1,.47.58c0,.62-.55,1-1.11,1.13Z" transform="translate(0)"/><path d="M674.55,256.88c-.81,0-1.07-.67-1.07-1.45,0-1.23.63-3.07,1.89-3.07.83,0,1.06.73,1.06,1.46C676.43,255,675.83,256.88,674.55,256.88Zm.79-4.28c-.85,0-1.28,2-1.28,3,0,.57.09,1,.54,1,.82,0,1.25-2.1,1.25-3C675.85,253.1,675.79,252.6,675.34,252.6Z" transform="translate(0)"/><path d="M676.28,257.39c.3-.11.7-.32.7-.67,0-.19-.16-.28-.31-.34a.11.11,0,0,1-.09-.12.38.38,0,0,1,.4-.37.54.54,0,0,1,.47.58c0,.62-.55,1-1.11,1.13Z" transform="translate(0)"/><path d="M680.45,252.73a1.38,1.38,0,0,1,.93-.37,1,1,0,0,1,1.1,1.1c0,.71-.48,1.2-1.28,1.9l-1.08.94h1.27c.38,0,.49,0,.85-.56l.18.08c-.15.3-.33.69-.46,1h-2.61v-.14c1.58-1.39,2.52-2.18,2.52-3.09a.68.68,0,0,0-.74-.75,1.3,1.3,0,0,0-1,.63l-.16-.15Z" transform="translate(0)"/><path d="M333.16,71.22H333A1.82,1.82,0,0,1,331.13,70c-.31-.6-.54-1.16-.8-1.76s-.35-.55-.78-.55H329l-.35,1.87c-.19,1.05-.1,1.1.93,1.2l-.08.33h-3.17l.07-.33c.95-.09,1.08-.15,1.27-1.19l.92-4.82c.2-1,.06-1-.91-1.12l.07-.33h2.77c1.34,0,2.41.53,2.41,1.88a2.39,2.39,0,0,1-1.89,2.29c.19.48.41,1,.64,1.44.7,1.46,1,1.78,1.57,2Zm-3.49-3.89a2,2,0,0,0,2.19-2,1.42,1.42,0,0,0-1.44-1.57c-.45,0-.62,0-.74.65l-.58,3Z" transform="translate(0)"/><path d="M336.41,70.59h.92a10.66,10.66,0,0,0-.18,1.07h-.22a3.11,3.11,0,0,0-.06-.49c-.05-.22-.17-.32-.55-.32h-.77c-.23,0-.28,0-.32.27l-.3,1.58h.83c.58,0,.6-.07.82-.56h.21l-.29,1.47h-.21c0-.58,0-.63-.59-.63h-.82l-.26,1.28c-.1.58-.07.62.6.67l0,.2h-1.91l.05-.2c.57-.05.61-.09.73-.67l.54-2.79c.12-.6.06-.63-.53-.69l.05-.19Z" transform="translate(0)"/><path d="M333.33,237.11h-.12a1.83,1.83,0,0,1-1.91-1.18c-.31-.6-.54-1.16-.8-1.76s-.35-.55-.78-.55h-.53l-.35,1.87c-.19,1-.11,1.1.92,1.2l-.07.33h-3.18l.08-.33c.94-.09,1.08-.15,1.27-1.19l.92-4.82c.19-1,.06-1-.91-1.12l.07-.33h2.77c1.33,0,2.41.52,2.41,1.88a2.41,2.41,0,0,1-1.89,2.29c.19.48.41,1,.63,1.44.71,1.46,1,1.77,1.57,1.95Zm-3.49-3.89a2,2,0,0,0,2.19-2,1.42,1.42,0,0,0-1.44-1.57c-.45,0-.62,0-.74.65l-.58,3Z" transform="translate(0)"/><path d="M336.58,236.48h.92a10.54,10.54,0,0,0-.19,1.06h-.21a3.13,3.13,0,0,0-.06-.48c-.05-.22-.17-.32-.55-.32h-.78c-.23,0-.27,0-.31.27l-.3,1.58h.82c.58,0,.61-.07.83-.56H337l-.3,1.46h-.2c0-.57,0-.62-.59-.62h-.82l-.26,1.28c-.1.57-.07.62.59.67l0,.2h-1.9l.05-.2c.57,0,.61-.09.73-.68l.54-2.78c.11-.61.06-.63-.54-.69l0-.19Z" transform="translate(0)"/><path d="M767.77,161.89h-.12a1.83,1.83,0,0,1-1.91-1.18c-.31-.6-.54-1.16-.8-1.76s-.35-.55-.78-.55h-.53l-.35,1.87c-.19,1-.11,1.1.92,1.2l-.07.33H761l.08-.33c.94-.09,1.08-.15,1.27-1.19l.92-4.82c.19-1,.06-1-.91-1.12l.07-.33h2.77c1.33,0,2.41.52,2.41,1.88a2.41,2.41,0,0,1-1.89,2.29c.19.48.41,1,.63,1.44.71,1.46,1,1.77,1.57,1.95ZM764.28,158a2,2,0,0,0,2.19-2,1.42,1.42,0,0,0-1.44-1.57c-.45,0-.62,0-.74.65l-.58,3Z" transform="translate(0)"/><path d="M771,161.26h.92a10.54,10.54,0,0,0-.19,1.06h-.21a3.13,3.13,0,0,0-.06-.48c-.05-.22-.17-.32-.55-.32h-.78c-.23,0-.27,0-.31.27l-.3,1.58h.82c.58,0,.61-.07.83-.56h.21l-.3,1.46h-.2c0-.57,0-.62-.59-.62h-.82l-.26,1.28c-.1.57-.07.62.59.67l0,.2h-1.9l0-.2c.57,0,.61-.09.73-.68l.54-2.78c.11-.61.06-.63-.54-.69l.05-.19Z" transform="translate(0)"/></g></g></svg>