<svg xmlns="http://www.w3.org/2000/svg" viewBox="0 0 973.29 395.44"><defs><style>.cls-1,.cls-2,.cls-4{fill:none;stroke:#000;stroke-width:0.6px;}.cls-1{stroke-linecap:round;}.cls-1,.cls-2{stroke-linejoin:round;}.cls-2{stroke-dasharray:1 1;}.cls-3{fill-rule:evenodd;}.cls-4{stroke-miterlimit:10;}</style></defs><title>Asset 3</title><g id="Layer_2" data-name="Layer 2"><g id="Layer_1-2" data-name="Layer 1"><line class="cls-1" x1="211.38" y1="68.13" x2="207.57" y2="68.13"/><rect x="207.57" y="68.13" width="0.22" height="0.22"/><rect x="211.38" y="68.13" width="0.22" height="0.22"/><line class="cls-1" x1="245.18" y1="68.13" x2="241.37" y2="68.13"/><rect x="241.37" y="68.13" width="0.22" height="0.22"/><line class="cls-1" x1="215.18" y1="60.52" x2="211.38" y2="68.13"/><line class="cls-1" x1="222.57" y1="75.74" x2="215.18" y2="60.52"/><rect x="215.18" y="60.52" width="0.22" height="0.22"/><line class="cls-1" x1="230.18" y1="60.52" x2="222.57" y2="75.74"/><rect x="222.57" y="75.74" width="0.22" height="0.22"/><line class="cls-1" x1="237.57" y1="75.74" x2="230.18" y2="60.52"/><rect x="230.18" y="60.52" width="0.22" height="0.22"/><line class="cls-1" x1="241.37" y1="68.13" x2="237.57" y2="75.74"/><rect x="237.57" y="75.74" width="0.22" height="0.22"/><line class="cls-1" x1="211.38" y1="105.74" x2="207.57" y2="105.74"/><rect x="207.57" y="105.74" width="0.22" height="0.22"/><line class="cls-1" x1="215.18" y1="98.36" x2="211.38" y2="105.74"/><rect x="211.38" y="105.74" width="0.22" height="0.22"/><line class="cls-1" x1="222.57" y1="113.36" x2="215.18" y2="98.36"/><rect x="215.18" y="98.36" width="0.22" height="0.22"/><line class="cls-1" x1="230.18" y1="98.36" x2="222.57" y2="113.36"/><rect x="222.57" y="113.36" width="0.22" height="0.22"/><line class="cls-1" x1="237.57" y1="113.36" x2="230.18" y2="98.36"/><rect x="230.18" y="98.36" width="0.22" height="0.22"/><line class="cls-1" x1="245.18" y1="105.74" x2="241.37" y2="105.74"/><rect x="241.37" y="105.74" width="0.22" height="0.22"/><line class="cls-1" x1="241.37" y1="105.74" x2="237.57" y2="113.36"/><rect x="237.57" y="113.36" width="0.22" height="0.22"/><line class="cls-1" x1="211.38" y1="143.58" x2="207.57" y2="143.58"/><rect x="207.57" y="143.58" width="0.22" height="0.22"/><line class="cls-1" x1="215.18" y1="135.97" x2="211.38" y2="143.58"/><rect x="211.38" y="143.58" width="0.22" height="0.22"/><line class="cls-1" x1="222.57" y1="150.97" x2="215.18" y2="135.97"/><rect x="215.18" y="135.97" width="0.22" height="0.22"/><line class="cls-1" x1="230.18" y1="135.97" x2="222.57" y2="150.97"/><rect x="222.57" y="150.97" width="0.22" height="0.22"/><line class="cls-1" x1="237.57" y1="150.97" x2="230.18" y2="135.97"/><rect x="230.18" y="135.97" width="0.22" height="0.22"/><line class="cls-1" x1="245.18" y1="143.58" x2="241.37" y2="143.58"/><rect x="241.37" y="143.58" width="0.22" height="0.22"/><line class="cls-1" x1="241.37" y1="143.58" x2="237.57" y2="150.97"/><rect x="237.57" y="150.97" width="0.22" height="0.22"/><line class="cls-1" x1="316.82" y1="53.13" x2="313.01" y2="53.13"/><rect x="313.01" y="53.13" width="0.22" height="0.22"/><rect x="316.82" y="53.13" width="0.22" height="0.22"/><rect x="328.01" y="60.52" width="0.22" height="0.22"/><line class="cls-1" x1="350.62" y1="53.13" x2="346.82" y2="53.13"/><rect x="346.82" y="53.13" width="0.22" height="0.22"/><line class="cls-1" x1="320.63" y1="45.52" x2="316.82" y2="53.13"/><line class="cls-1" x1="328.01" y1="60.52" x2="320.63" y2="45.52"/><rect x="320.63" y="45.52" width="0.22" height="0.22"/><line class="cls-1" x1="335.62" y1="45.52" x2="328.01" y2="60.52"/><line class="cls-1" x1="343.01" y1="60.52" x2="335.62" y2="45.52"/><rect x="335.62" y="45.52" width="0.22" height="0.22"/><line class="cls-1" x1="346.82" y1="53.13" x2="343.01" y2="60.52"/><rect x="343.01" y="60.52" width="0.22" height="0.22"/><line class="cls-1" x1="211.38" y1="233.8" x2="207.57" y2="233.8"/><rect x="207.57" y="233.8" width="0.22" height="0.22"/><line class="cls-1" x1="215.18" y1="226.41" x2="211.38" y2="233.8"/><rect x="211.38" y="233.8" width="0.22" height="0.22"/><line class="cls-1" x1="222.57" y1="241.41" x2="215.18" y2="226.41"/><rect x="215.18" y="226.41" width="0.22" height="0.22"/><line class="cls-1" x1="230.18" y1="226.41" x2="222.57" y2="241.41"/><rect x="222.57" y="241.41" width="0.22" height="0.22"/><line class="cls-1" x1="237.57" y1="241.41" x2="230.18" y2="226.41"/><rect x="230.18" y="226.41" width="0.22" height="0.22"/><line class="cls-1" x1="245.18" y1="233.8" x2="241.37" y2="233.8"/><rect x="241.37" y="233.8" width="0.22" height="0.22"/><line class="cls-1" x1="241.37" y1="233.8" x2="237.57" y2="241.41"/><rect x="237.57" y="241.41" width="0.22" height="0.22"/><line class="cls-1" x1="211.38" y1="271.41" x2="207.57" y2="271.41"/><rect x="207.57" y="271.41" width="0.22" height="0.22"/><line class="cls-1" x1="215.18" y1="264.02" x2="211.38" y2="271.41"/><rect x="211.38" y="271.41" width="0.22" height="0.22"/><line class="cls-1" x1="222.57" y1="279.02" x2="215.18" y2="264.02"/><rect x="215.18" y="264.02" width="0.22" height="0.22"/><line class="cls-1" x1="230.18" y1="264.02" x2="222.57" y2="279.02"/><rect x="222.57" y="279.02" width="0.22" height="0.22"/><line class="cls-1" x1="237.57" y1="279.02" x2="230.18" y2="264.02"/><rect x="230.18" y="264.02" width="0.22" height="0.22"/><line class="cls-1" x1="245.18" y1="271.41" x2="241.37" y2="271.41"/><rect x="241.37" y="271.41" width="0.22" height="0.22"/><line class="cls-1" x1="241.37" y1="271.41" x2="237.57" y2="279.02"/><rect x="237.57" y="279.02" width="0.22" height="0.22"/><line class="cls-1" x1="211.38" y1="309.24" x2="207.57" y2="309.24"/><rect x="207.57" y="309.24" width="0.22" height="0.22"/><line class="cls-1" x1="215.18" y1="301.63" x2="211.38" y2="309.24"/><rect x="211.38" y="309.24" width="0.22" height="0.22"/><line class="cls-1" x1="222.57" y1="316.63" x2="215.18" y2="301.63"/><rect x="215.18" y="301.63" width="0.22" height="0.22"/><line class="cls-1" x1="230.18" y1="301.63" x2="222.57" y2="316.63"/><rect x="222.57" y="316.63" width="0.22" height="0.22"/><line class="cls-1" x1="237.57" y1="316.63" x2="230.18" y2="301.63"/><rect x="230.18" y="301.63" width="0.22" height="0.22"/><line class="cls-1" x1="245.18" y1="309.24" x2="241.37" y2="309.24"/><rect x="241.37" y="309.24" width="0.22" height="0.22"/><line class="cls-1" x1="241.37" y1="309.24" x2="237.57" y2="316.63"/><rect x="237.57" y="316.63" width="0.22" height="0.22"/><line class="cls-1" x1="316.82" y1="218.8" x2="313.01" y2="218.8"/><rect x="313.01" y="218.8" width="0.22" height="0.22"/><line class="cls-1" x1="320.63" y1="211.19" x2="316.82" y2="218.8"/><rect x="316.82" y="218.8" width="0.22" height="0.22"/><line class="cls-1" x1="328.01" y1="226.41" x2="320.63" y2="211.19"/><rect x="320.63" y="211.19" width="0.22" height="0.22"/><line class="cls-1" x1="335.62" y1="211.19" x2="328.01" y2="226.41"/><rect x="328.01" y="226.41" width="0.22" height="0.22"/><line class="cls-1" x1="343.01" y1="226.41" x2="335.62" y2="211.19"/><rect x="335.62" y="211.19" width="0.22" height="0.22"/><line class="cls-1" x1="350.62" y1="218.8" x2="346.82" y2="218.8"/><rect x="346.82" y="218.8" width="0.22" height="0.22"/><line class="cls-1" x1="346.82" y1="218.8" x2="343.01" y2="226.41"/><rect x="343.01" y="226.41" width="0.22" height="0.22"/><line class="cls-1" x1="645.98" y1="158.58" x2="642.18" y2="158.58"/><rect x="642.18" y="158.58" width="0.22" height="0.22"/><rect x="645.98" y="158.58" width="0.22" height="0.22"/><line class="cls-1" x1="679.79" y1="158.58" x2="675.98" y2="158.58"/><rect x="675.98" y="158.58" width="0.22" height="0.22"/><line class="cls-1" x1="649.57" y1="150.97" x2="645.98" y2="158.58"/><line class="cls-1" x1="657.18" y1="165.97" x2="649.57" y2="150.97"/><rect x="649.57" y="150.97" width="0.22" height="0.22"/><line class="cls-1" x1="664.79" y1="150.97" x2="657.18" y2="165.97"/><rect x="657.18" y="165.97" width="0.22" height="0.22"/><line class="cls-1" x1="672.18" y1="165.97" x2="664.79" y2="150.97"/><rect x="664.79" y="150.97" width="0.22" height="0.22"/><line class="cls-1" x1="675.98" y1="158.58" x2="672.18" y2="165.97"/><rect x="672.18" y="165.97" width="0.22" height="0.22"/><line class="cls-1" x1="645.98" y1="196.19" x2="642.18" y2="196.19"/><rect x="642.18" y="196.19" width="0.22" height="0.22"/><line class="cls-1" x1="649.57" y1="188.58" x2="645.98" y2="196.19"/><rect x="645.98" y="196.19" width="0.22" height="0.22"/><line class="cls-1" x1="657.18" y1="203.8" x2="649.57" y2="188.58"/><rect x="649.57" y="188.58" width="0.22" height="0.22"/><line class="cls-1" x1="664.79" y1="188.58" x2="657.18" y2="203.8"/><rect x="657.18" y="203.8" width="0.22" height="0.22"/><line class="cls-1" x1="672.18" y1="203.8" x2="664.79" y2="188.58"/><rect x="664.79" y="188.58" width="0.22" height="0.22"/><line class="cls-1" x1="679.79" y1="196.19" x2="675.98" y2="196.19"/><rect x="675.98" y="196.19" width="0.22" height="0.22"/><line class="cls-1" x1="675.98" y1="196.19" x2="672.18" y2="203.8"/><rect x="672.18" y="203.8" width="0.22" height="0.22"/><line class="cls-1" x1="645.98" y1="233.8" x2="642.18" y2="233.8"/><rect x="642.18" y="233.8" width="0.22" height="0.22"/><line class="cls-1" x1="649.57" y1="226.41" x2="645.98" y2="233.8"/><rect x="645.98" y="233.8" width="0.22" height="0.22"/><line class="cls-1" x1="657.18" y1="241.41" x2="649.57" y2="226.41"/><rect x="649.57" y="226.41" width="0.22" height="0.22"/><line class="cls-1" x1="664.79" y1="226.41" x2="657.18" y2="241.41"/><rect x="657.18" y="241.41" width="0.22" height="0.22"/><line class="cls-1" x1="672.18" y1="241.41" x2="664.79" y2="226.41"/><rect x="664.79" y="226.41" width="0.22" height="0.22"/><line class="cls-1" x1="679.79" y1="233.8" x2="675.98" y2="233.8"/><rect x="675.98" y="233.8" width="0.22" height="0.22"/><line class="cls-1" x1="675.98" y1="233.8" x2="672.18" y2="241.41"/><rect x="672.18" y="241.41" width="0.22" height="0.22"/><line class="cls-1" x1="751.43" y1="143.58" x2="747.62" y2="143.58"/><rect x="747.62" y="143.58" width="0.22" height="0.22"/><rect x="751.43" y="143.58" width="0.22" height="0.22"/><line class="cls-1" x1="785.23" y1="143.58" x2="781.43" y2="143.58"/><rect x="781.43" y="143.58" width="0.22" height="0.22"/><line class="cls-1" x1="755.01" y1="135.97" x2="751.43" y2="143.58"/><line class="cls-1" x1="762.62" y1="150.97" x2="755.01" y2="135.97"/><rect x="755.01" y="135.97" width="0.22" height="0.22"/><line class="cls-1" x1="770.23" y1="135.97" x2="762.62" y2="150.97"/><rect x="762.62" y="150.97" width="0.22" height="0.22"/><line class="cls-1" x1="777.62" y1="150.97" x2="770.23" y2="135.97"/><rect x="770.23" y="135.97" width="0.22" height="0.22"/><line class="cls-1" x1="781.43" y1="143.58" x2="777.62" y2="150.97"/><rect x="777.62" y="150.97" width="0.22" height="0.22"/><line class="cls-2" x1="486.29" y1="113.36" x2="463.68" y2="113.36"/><rect x="463.68" y="113.36" width="0.22" height="0.22"/><line class="cls-1" x1="476.89" y1="111.56" x2="473.08" y2="115.15"/><rect x="473.08" y="115.15" width="0.22" height="0.22"/><line class="cls-1" x1="486.29" y1="98.36" x2="456.07" y2="98.36"/><rect x="456.07" y="98.36" width="0.22" height="0.22"/><line class="cls-1" x1="493.68" y1="105.74" x2="486.29" y2="98.36"/><rect x="486.29" y="98.36" width="0.22" height="0.22"/><line class="cls-1" x1="493.68" y1="120.97" x2="493.68" y2="105.74"/><rect x="493.68" y="105.74" width="0.22" height="0.22"/><line class="cls-1" x1="486.29" y1="128.35" x2="493.68" y2="120.97"/><rect x="493.68" y="120.97" width="0.22" height="0.22"/><line class="cls-1" x1="456.07" y1="128.35" x2="486.29" y2="128.35"/><rect x="486.29" y="128.35" width="0.22" height="0.22"/><line class="cls-1" x1="480.02" y1="109.1" x2="476.89" y2="111.56"/><rect x="476.89" y="111.56" width="0.22" height="0.22"/><line class="cls-1" x1="486.29" y1="108.21" x2="483.38" y2="108.21"/><rect x="483.38" y="108.21" width="0.22" height="0.22"/><line class="cls-1" x1="483.38" y1="108.21" x2="480.02" y2="109.1"/><rect x="480.02" y="109.1" width="0.22" height="0.22"/><line class="cls-1" x1="456.07" y1="98.36" x2="456.07" y2="128.35"/><rect x="456.07" y="128.35" width="0.22" height="0.22"/><line class="cls-1" x1="469.72" y1="117.61" x2="473.08" y2="115.15"/><rect x="473.08" y="115.15" width="0.22" height="0.22"/><line class="cls-1" x1="463.68" y1="118.5" x2="466.37" y2="118.5"/><rect x="466.37" y="118.5" width="0.22" height="0.22"/><line class="cls-1" x1="466.37" y1="118.5" x2="469.72" y2="117.61"/><rect x="469.72" y="117.61" width="0.22" height="0.22"/><line class="cls-2" x1="486.29" y1="279.02" x2="463.68" y2="279.02"/><rect x="463.68" y="279.02" width="0.22" height="0.22"/><line class="cls-1" x1="476.89" y1="277.23" x2="473.08" y2="280.81"/><rect x="473.08" y="280.81" width="0.22" height="0.22"/><line class="cls-1" x1="486.29" y1="264.02" x2="456.07" y2="264.02"/><rect x="456.07" y="264.02" width="0.22" height="0.22"/><line class="cls-1" x1="493.68" y1="271.41" x2="486.29" y2="264.02"/><rect x="486.29" y="264.02" width="0.22" height="0.22"/><line class="cls-1" x1="493.68" y1="286.63" x2="493.68" y2="271.41"/><rect x="493.68" y="271.41" width="0.22" height="0.22"/><line class="cls-1" x1="486.29" y1="294.02" x2="493.68" y2="286.63"/><rect x="493.68" y="286.63" width="0.22" height="0.22"/><line class="cls-1" x1="456.07" y1="294.02" x2="486.29" y2="294.02"/><rect x="486.29" y="294.02" width="0.22" height="0.22"/><line class="cls-1" x1="480.02" y1="274.77" x2="476.89" y2="277.23"/><rect x="476.89" y="277.23" width="0.22" height="0.22"/><line class="cls-1" x1="486.29" y1="273.87" x2="483.38" y2="273.87"/><rect x="483.38" y="273.87" width="0.22" height="0.22"/><line class="cls-1" x1="483.38" y1="273.87" x2="480.02" y2="274.77"/><rect x="480.02" y="274.77" width="0.22" height="0.22"/><line class="cls-1" x1="456.07" y1="264.02" x2="456.07" y2="294.02"/><rect x="456.07" y="294.02" width="0.22" height="0.22"/><line class="cls-1" x1="469.72" y1="283.27" x2="473.08" y2="280.81"/><rect x="473.08" y="280.81" width="0.22" height="0.22"/><line class="cls-1" x1="463.68" y1="284.17" x2="466.37" y2="284.17"/><rect x="466.37" y="284.17" width="0.22" height="0.22"/><line class="cls-1" x1="466.37" y1="284.17" x2="469.72" y2="283.27"/><rect x="469.72" y="283.27" width="0.22" height="0.22"/><line class="cls-2" x1="920.9" y1="203.8" x2="898.29" y2="203.8"/><rect x="898.29" y="203.8" width="0.22" height="0.22"/><line class="cls-1" x1="911.5" y1="201.78" x2="907.69" y2="205.59"/><rect x="907.69" y="205.59" width="0.22" height="0.22"/><line class="cls-1" x1="920.9" y1="188.58" x2="890.68" y2="188.58"/><rect x="890.68" y="188.58" width="0.22" height="0.22"/><line class="cls-1" x1="928.29" y1="196.19" x2="920.9" y2="188.58"/><rect x="920.9" y="188.58" width="0.22" height="0.22"/><line class="cls-1" x1="928.29" y1="211.19" x2="928.29" y2="196.19"/><rect x="928.29" y="196.19" width="0.22" height="0.22"/><line class="cls-1" x1="920.9" y1="218.8" x2="928.29" y2="211.19"/><rect x="928.29" y="211.19" width="0.22" height="0.22"/><line class="cls-1" x1="890.68" y1="218.8" x2="920.9" y2="218.8"/><rect x="920.9" y="218.8" width="0.22" height="0.22"/><line class="cls-1" x1="914.63" y1="199.55" x2="911.5" y2="201.78"/><rect x="911.5" y="201.78" width="0.22" height="0.22"/><line class="cls-1" x1="920.9" y1="198.65" x2="917.99" y2="198.65"/><rect x="917.99" y="198.65" width="0.22" height="0.22"/><line class="cls-1" x1="917.99" y1="198.65" x2="914.63" y2="199.55"/><rect x="914.63" y="199.55" width="0.22" height="0.22"/><line class="cls-1" x1="890.68" y1="188.58" x2="890.68" y2="218.8"/><rect x="890.68" y="218.8" width="0.22" height="0.22"/><line class="cls-1" x1="904.33" y1="208.05" x2="907.69" y2="205.59"/><rect x="907.69" y="205.59" width="0.22" height="0.22"/><line class="cls-1" x1="898.29" y1="208.95" x2="900.97" y2="208.95"/><rect x="900.97" y="208.95" width="0.22" height="0.22"/><line class="cls-1" x1="900.97" y1="208.95" x2="904.33" y2="208.05"/><rect x="904.33" y="208.05" width="0.22" height="0.22"/><line class="cls-1" x1="320.63" y1="98.36" x2="350.62" y2="113.36"/><rect x="350.62" y="113.36" width="0.22" height="0.22"/><line class="cls-1" x1="320.63" y1="128.35" x2="350.62" y2="113.36"/><rect x="350.62" y="113.36" width="0.22" height="0.22"/><line class="cls-1" x1="320.63" y1="98.36" x2="320.63" y2="128.35"/><rect x="320.63" y="128.35" width="0.22" height="0.22"/><line class="cls-1" x1="322.42" y1="105.74" x2="326.22" y2="105.74"/><rect x="326.22" y="105.74" width="0.22" height="0.22"/><line class="cls-1" x1="322.42" y1="120.97" x2="326.22" y2="120.97"/><rect x="326.22" y="120.97" width="0.22" height="0.22"/><line class="cls-1" x1="324.21" y1="122.76" x2="324.21" y2="118.95"/><rect x="324.21" y="118.95" width="0.22" height="0.22"/><rect x="335.62" y="105.74" width="0.22" height="0.22"/><rect x="335.62" y="120.97" width="0.22" height="0.22"/><line class="cls-1" x1="320.63" y1="264.02" x2="350.62" y2="279.02"/><rect x="350.62" y="279.02" width="0.22" height="0.22"/><line class="cls-1" x1="320.63" y1="294.02" x2="350.62" y2="279.02"/><rect x="350.62" y="279.02" width="0.22" height="0.22"/><line class="cls-1" x1="320.63" y1="264.02" x2="320.63" y2="294.02"/><rect x="320.63" y="294.02" width="0.22" height="0.22"/><line class="cls-1" x1="322.42" y1="271.41" x2="326.22" y2="271.41"/><rect x="326.22" y="271.41" width="0.22" height="0.22"/><line class="cls-1" x1="322.42" y1="286.63" x2="326.22" y2="286.63"/><rect x="326.22" y="286.63" width="0.22" height="0.22"/><line class="cls-1" x1="324.21" y1="288.42" x2="324.21" y2="284.62"/><rect x="324.21" y="284.62" width="0.22" height="0.22"/><rect x="335.62" y="271.41" width="0.22" height="0.22"/><rect x="335.62" y="286.63" width="0.22" height="0.22"/><line class="cls-1" x1="755.01" y1="188.58" x2="785.23" y2="203.8"/><rect x="785.23" y="203.8" width="0.22" height="0.22"/><line class="cls-1" x1="755.01" y1="218.8" x2="785.23" y2="203.8"/><rect x="785.23" y="203.8" width="0.22" height="0.22"/><line class="cls-1" x1="755.01" y1="188.58" x2="755.01" y2="218.8"/><rect x="755.01" y="218.8" width="0.22" height="0.22"/><line class="cls-1" x1="757.02" y1="196.19" x2="760.83" y2="196.19"/><rect x="760.83" y="196.19" width="0.22" height="0.22"/><line class="cls-1" x1="757.02" y1="211.19" x2="760.83" y2="211.19"/><rect x="760.83" y="211.19" width="0.22" height="0.22"/><line class="cls-1" x1="758.81" y1="213.2" x2="758.81" y2="209.4"/><rect x="758.81" y="209.4" width="0.22" height="0.22"/><rect x="770.23" y="196.19" width="0.22" height="0.22"/><rect x="770.23" y="211.19" width="0.22" height="0.22"/><line class="cls-1" x1="147.35" y1="90.74" x2="173.77" y2="105.74"/><rect x="173.77" y="105.74" width="0.22" height="0.22"/><line class="cls-1" x1="147.35" y1="120.97" x2="173.77" y2="105.74"/><rect x="173.77" y="105.74" width="0.22" height="0.22"/><line class="cls-1" x1="147.35" y1="90.74" x2="147.35" y2="120.97"/><rect x="147.35" y="120.97" width="0.22" height="0.22"/><line class="cls-1" x1="147.35" y1="90.74" x2="147.35" y2="120.97"/><rect x="147.35" y="120.97" width="0.22" height="0.22"/><rect x="162.35" y="99.25" width="0.22" height="0.22"/><rect x="162.35" y="112.46" width="0.22" height="0.22"/><ellipse class="cls-1" cx="179.25" cy="105.74" rx="5.48" ry="5.6"/><line class="cls-1" x1="102.13" y1="256.41" x2="128.54" y2="271.41"/><rect x="128.54" y="271.41" width="0.22" height="0.22"/><line class="cls-1" x1="102.13" y1="286.63" x2="128.54" y2="271.41"/><rect x="128.54" y="271.41" width="0.22" height="0.22"/><line class="cls-1" x1="102.13" y1="256.41" x2="102.13" y2="286.63"/><rect x="102.13" y="286.63" width="0.22" height="0.22"/><line class="cls-1" x1="102.13" y1="256.41" x2="102.13" y2="286.63"/><rect x="102.13" y="286.63" width="0.22" height="0.22"/><rect x="117.13" y="264.92" width="0.22" height="0.22"/><rect x="117.13" y="278.13" width="0.22" height="0.22"/><ellipse class="cls-1" cx="134.03" cy="271.41" rx="5.48" ry="5.6"/><line class="cls-1" x1="147.35" y1="218.8" x2="173.77" y2="233.8"/><rect x="173.77" y="233.8" width="0.22" height="0.22"/><line class="cls-1" x1="147.35" y1="248.8" x2="173.77" y2="233.8"/><rect x="173.77" y="233.8" width="0.22" height="0.22"/><line class="cls-1" x1="147.35" y1="218.8" x2="147.35" y2="248.8"/><rect x="147.35" y="248.8" width="0.22" height="0.22"/><line class="cls-1" x1="147.35" y1="218.8" x2="147.35" y2="248.8"/><rect x="147.35" y="248.8" width="0.22" height="0.22"/><rect x="162.35" y="227.31" width="0.22" height="0.22"/><ellipse class="cls-1" cx="179.25" cy="233.69" rx="5.48" ry="5.6"/><line class="cls-1" x1="576.73" y1="143.58" x2="603.15" y2="158.58"/><rect x="603.15" y="158.58" width="0.22" height="0.22"/><line class="cls-1" x1="576.73" y1="173.58" x2="603.15" y2="158.58"/><rect x="603.15" y="158.58" width="0.22" height="0.22"/><line class="cls-1" x1="576.73" y1="143.58" x2="576.73" y2="173.58"/><rect x="576.73" y="173.58" width="0.22" height="0.22"/><line class="cls-1" x1="576.73" y1="143.58" x2="576.73" y2="173.58"/><rect x="576.73" y="173.58" width="0.22" height="0.22"/><rect x="591.73" y="151.86" width="0.22" height="0.22"/><rect x="591.73" y="165.07" width="0.22" height="0.22"/><ellipse class="cls-1" cx="608.64" cy="158.47" rx="5.48" ry="5.6"/><line class="cls-1" x1="576.73" y1="218.8" x2="603.15" y2="233.8"/><rect x="603.15" y="233.8" width="0.22" height="0.22"/><line class="cls-1" x1="576.73" y1="248.8" x2="603.15" y2="233.8"/><rect x="603.15" y="233.8" width="0.22" height="0.22"/><line class="cls-1" x1="576.73" y1="218.8" x2="576.73" y2="248.8"/><rect x="576.73" y="248.8" width="0.22" height="0.22"/><line class="cls-1" x1="576.73" y1="218.8" x2="576.73" y2="248.8"/><rect x="576.73" y="248.8" width="0.22" height="0.22"/><rect x="591.73" y="227.31" width="0.22" height="0.22"/><ellipse class="cls-1" cx="608.64" cy="233.69" rx="5.48" ry="5.6"/><line class="cls-1" x1="395.85" y1="98.36" x2="422.26" y2="113.36"/><rect x="422.26" y="113.36" width="0.22" height="0.22"/><line class="cls-1" x1="395.85" y1="128.35" x2="422.26" y2="113.36"/><rect x="422.26" y="113.36" width="0.22" height="0.22"/><line class="cls-1" x1="395.85" y1="98.36" x2="395.85" y2="128.35"/><rect x="395.85" y="128.35" width="0.22" height="0.22"/><line class="cls-1" x1="395.85" y1="98.36" x2="395.85" y2="128.35"/><rect x="395.85" y="128.35" width="0.22" height="0.22"/><rect x="410.85" y="106.86" width="0.22" height="0.22"/><rect x="410.85" y="119.85" width="0.22" height="0.22"/><ellipse class="cls-1" cx="427.75" cy="113.24" rx="5.48" ry="5.6"/><line class="cls-1" x1="395.85" y1="264.02" x2="422.26" y2="279.02"/><rect x="422.26" y="279.02" width="0.22" height="0.22"/><line class="cls-1" x1="395.85" y1="294.02" x2="422.26" y2="279.02"/><rect x="422.26" y="279.02" width="0.22" height="0.22"/><line class="cls-1" x1="395.85" y1="264.02" x2="395.85" y2="294.02"/><rect x="395.85" y="294.02" width="0.22" height="0.22"/><line class="cls-1" x1="395.85" y1="264.02" x2="395.85" y2="294.02"/><rect x="395.85" y="294.02" width="0.22" height="0.22"/><rect x="410.85" y="272.53" width="0.22" height="0.22"/><rect x="410.85" y="285.51" width="0.22" height="0.22"/><ellipse class="cls-1" cx="427.75" cy="278.91" rx="5.48" ry="5.6"/><line class="cls-1" x1="830.45" y1="188.58" x2="856.87" y2="203.8"/><rect x="856.87" y="203.8" width="0.22" height="0.22"/><line class="cls-1" x1="830.45" y1="218.8" x2="856.87" y2="203.8"/><rect x="856.87" y="203.8" width="0.22" height="0.22"/><line class="cls-1" x1="830.45" y1="188.58" x2="830.45" y2="218.8"/><rect x="830.45" y="218.8" width="0.22" height="0.22"/><line class="cls-1" x1="830.45" y1="188.58" x2="830.45" y2="218.8"/><rect x="830.45" y="218.8" width="0.22" height="0.22"/><rect x="845.45" y="197.08" width="0.22" height="0.22"/><rect x="845.45" y="210.29" width="0.22" height="0.22"/><ellipse class="cls-1" cx="862.36" cy="203.58" rx="5.48" ry="5.6"/><line class="cls-1" x1="102.13" y1="53.13" x2="128.54" y2="68.13"/><rect x="128.54" y="68.13" width="0.22" height="0.22"/><line class="cls-1" x1="102.13" y1="83.13" x2="128.54" y2="68.13"/><rect x="128.54" y="68.13" width="0.22" height="0.22"/><line class="cls-1" x1="102.13" y1="53.13" x2="102.13" y2="83.13"/><rect x="102.13" y="83.13" width="0.22" height="0.22"/><line class="cls-1" x1="102.13" y1="53.13" x2="102.13" y2="83.13"/><rect x="102.13" y="83.13" width="0.22" height="0.22"/><rect x="117.13" y="61.64" width="0.22" height="0.22"/><rect x="117.13" y="74.85" width="0.22" height="0.22"/><ellipse class="cls-1" cx="134.03" cy="68.02" rx="5.48" ry="5.6"/><line class="cls-1" x1="102.13" y1="128.35" x2="128.54" y2="143.58"/><rect x="128.54" y="143.58" width="0.22" height="0.22"/><line class="cls-1" x1="102.13" y1="158.58" x2="128.54" y2="143.58"/><rect x="128.54" y="143.58" width="0.22" height="0.22"/><line class="cls-1" x1="102.13" y1="128.35" x2="102.13" y2="158.58"/><rect x="102.13" y="158.58" width="0.22" height="0.22"/><line class="cls-1" x1="102.13" y1="128.35" x2="102.13" y2="158.58"/><rect x="102.13" y="158.58" width="0.22" height="0.22"/><rect x="117.13" y="136.86" width="0.22" height="0.22"/><rect x="117.13" y="150.07" width="0.22" height="0.22"/><ellipse class="cls-1" cx="134.03" cy="143.35" rx="5.48" ry="5.6"/><line class="cls-1" x1="298.01" y1="112.46" x2="298.01" y2="129.25"/><rect x="298.01" y="129.25" width="0.22" height="0.22"/><line class="cls-1" x1="298.01" y1="129.25" x2="289.51" y2="120.97"/><rect x="289.51" y="120.97" width="0.22" height="0.22"/><line class="cls-1" x1="289.51" y1="120.97" x2="298.01" y2="112.46"/><rect x="298.01" y="112.46" width="0.22" height="0.22"/><line class="cls-1" x1="298.01" y1="278.13" x2="298.01" y2="295.14"/><rect x="298.01" y="295.14" width="0.22" height="0.22"/><line class="cls-1" x1="298.01" y1="295.14" x2="289.51" y2="286.63"/><rect x="289.51" y="286.63" width="0.22" height="0.22"/><line class="cls-1" x1="289.51" y1="286.63" x2="298.01" y2="278.13"/><rect x="298.01" y="278.13" width="0.22" height="0.22"/><line class="cls-1" x1="732.62" y1="202.68" x2="732.62" y2="219.69"/><rect x="732.62" y="219.69" width="0.22" height="0.22"/><line class="cls-1" x1="732.62" y1="219.69" x2="724.11" y2="211.19"/><rect x="724.11" y="211.19" width="0.22" height="0.22"/><line class="cls-1" x1="724.11" y1="211.19" x2="732.62" y2="202.68"/><rect x="732.62" y="202.68" width="0.22" height="0.22"/><line class="cls-1" x1="79.52" y1="15.52" x2="79.52" y2="0.3"/><rect x="79.52" y="0.3" width="0.22" height="0.22"/><line class="cls-1" x1="79.52" y1="15.52" x2="19.29" y2="15.52"/><rect x="19.29" y="15.52" width="0.22" height="0.22"/><line class="cls-1" x1="64.52" y1="30.52" x2="64.52" y2="0.3"/><rect x="64.52" y="0.3" width="0.22" height="0.22"/><line class="cls-1" x1="64.52" y1="30.52" x2="19.29" y2="30.52"/><rect x="19.29" y="30.52" width="0.22" height="0.22"/><line class="cls-1" x1="49.29" y1="45.52" x2="49.29" y2="0.3"/><rect x="49.29" y="0.3" width="0.22" height="0.22"/><line class="cls-1" x1="49.29" y1="45.52" x2="19.29" y2="45.52"/><rect x="19.29" y="45.52" width="0.22" height="0.22"/><line class="cls-1" x1="523.9" y1="45.52" x2="523.9" y2="40.3"/><rect x="523.9" y="40.3" width="0.22" height="0.22"/><line class="cls-1" x1="523.9" y1="45.52" x2="493.9" y2="45.52"/><rect x="493.9" y="45.52" width="0.22" height="0.22"/><line class="cls-1" x1="313.01" y1="53.13" x2="298.01" y2="53.13"/><rect x="298.01" y="53.13" width="0.22" height="0.22"/><line class="cls-1" x1="373.24" y1="53.13" x2="350.62" y2="53.13"/><rect x="350.62" y="53.13" width="0.22" height="0.22"/><line class="cls-1" x1="79.52" y1="68.13" x2="79.52" y2="15.52"/><rect x="79.52" y="15.52" width="0.22" height="0.22"/><line class="cls-1" x1="102.13" y1="68.13" x2="79.52" y2="68.13"/><rect x="79.52" y="68.13" width="0.22" height="0.22"/><line class="cls-1" x1="207.57" y1="68.13" x2="139.74" y2="68.13"/><rect x="139.74" y="68.13" width="0.22" height="0.22"/><line class="cls-1" x1="267.79" y1="68.13" x2="245.18" y2="68.13"/><rect x="245.18" y="68.13" width="0.22" height="0.22"/><line class="cls-1" x1="64.52" y1="105.74" x2="64.52" y2="30.52"/><rect x="64.52" y="30.52" width="0.22" height="0.22"/><line class="cls-1" x1="147.35" y1="105.74" x2="64.52" y2="105.74"/><rect x="64.52" y="105.74" width="0.22" height="0.22"/><line class="cls-1" x1="207.57" y1="105.74" x2="184.96" y2="105.74"/><rect x="184.96" y="105.74" width="0.22" height="0.22"/><line class="cls-1" x1="267.79" y1="105.74" x2="267.79" y2="68.13"/><rect x="267.79" y="68.13" width="0.22" height="0.22"/><line class="cls-1" x1="267.79" y1="105.74" x2="245.18" y2="105.74"/><rect x="245.18" y="105.74" width="0.22" height="0.22"/><line class="cls-1" x1="298.01" y1="105.74" x2="298.01" y2="53.13"/><rect x="298.01" y="53.13" width="0.22" height="0.22"/><line class="cls-1" x1="298.01" y1="105.74" x2="267.79" y2="105.74"/><rect x="267.79" y="105.74" width="0.22" height="0.22"/><line class="cls-1" x1="320.63" y1="105.74" x2="298.01" y2="105.74"/><rect x="298.01" y="105.74" width="0.22" height="0.22"/><line class="cls-1" x1="373.24" y1="113.36" x2="373.24" y2="53.13"/><rect x="373.24" y="53.13" width="0.22" height="0.22"/><line class="cls-1" x1="373.24" y1="113.36" x2="350.62" y2="113.36"/><rect x="350.62" y="113.36" width="0.22" height="0.22"/><line class="cls-1" x1="395.85" y1="113.36" x2="373.24" y2="113.36"/><rect x="373.24" y="113.36" width="0.22" height="0.22"/><line class="cls-1" x1="456.07" y1="113.36" x2="433.46" y2="113.36"/><rect x="433.46" y="113.36" width="0.22" height="0.22"/><line class="cls-1" x1="554.12" y1="113.36" x2="554.12" y2="40.3"/><rect x="554.12" y="40.3" width="0.22" height="0.22"/><line class="cls-1" x1="554.12" y1="113.36" x2="493.68" y2="113.36"/><rect x="493.68" y="113.36" width="0.22" height="0.22"/><line class="cls-1" x1="320.63" y1="120.97" x2="298.01" y2="120.97"/><rect x="298.01" y="120.97" width="0.22" height="0.22"/><line class="cls-1" x1="49.29" y1="143.58" x2="49.29" y2="45.52"/><rect x="49.29" y="45.52" width="0.22" height="0.22"/><line class="cls-1" x1="102.13" y1="143.58" x2="49.29" y2="143.58"/><rect x="49.29" y="143.58" width="0.22" height="0.22"/><line class="cls-1" x1="207.57" y1="143.58" x2="139.74" y2="143.58"/><rect x="139.74" y="143.58" width="0.22" height="0.22"/><line class="cls-1" x1="267.79" y1="143.58" x2="267.79" y2="105.74"/><rect x="267.79" y="105.74" width="0.22" height="0.22"/><line class="cls-1" x1="267.79" y1="143.58" x2="245.18" y2="143.58"/><rect x="245.18" y="143.58" width="0.22" height="0.22"/><line class="cls-1" x1="747.62" y1="143.58" x2="732.62" y2="143.58"/><rect x="732.62" y="143.58" width="0.22" height="0.22"/><line class="cls-1" x1="807.84" y1="143.58" x2="785.23" y2="143.58"/><rect x="785.23" y="143.58" width="0.22" height="0.22"/><line class="cls-1" x1="554.12" y1="158.58" x2="554.12" y2="113.36"/><rect x="554.12" y="113.36" width="0.22" height="0.22"/><line class="cls-1" x1="576.73" y1="158.58" x2="554.12" y2="158.58"/><rect x="554.12" y="158.58" width="0.22" height="0.22"/><line class="cls-1" x1="642.18" y1="158.58" x2="614.34" y2="158.58"/><rect x="614.34" y="158.58" width="0.22" height="0.22"/><line class="cls-1" x1="702.4" y1="158.58" x2="679.79" y2="158.58"/><rect x="679.79" y="158.58" width="0.22" height="0.22"/><line class="cls-1" x1="539.12" y1="196.19" x2="539.12" y2="40.3"/><rect x="539.12" y="40.3" width="0.22" height="0.22"/><line class="cls-1" x1="642.18" y1="196.19" x2="539.12" y2="196.19"/><rect x="539.12" y="196.19" width="0.22" height="0.22"/><line class="cls-1" x1="702.4" y1="196.19" x2="702.4" y2="158.58"/><rect x="702.4" y="158.58" width="0.22" height="0.22"/><line class="cls-1" x1="702.4" y1="196.19" x2="679.79" y2="196.19"/><rect x="679.79" y="196.19" width="0.22" height="0.22"/><line class="cls-1" x1="732.62" y1="196.19" x2="732.62" y2="143.58"/><rect x="732.62" y="143.58" width="0.22" height="0.22"/><line class="cls-1" x1="732.62" y1="196.19" x2="702.4" y2="196.19"/><rect x="702.4" y="196.19" width="0.22" height="0.22"/><line class="cls-1" x1="755.01" y1="196.19" x2="732.62" y2="196.19"/><rect x="732.62" y="196.19" width="0.22" height="0.22"/><line class="cls-1" x1="807.84" y1="203.8" x2="807.84" y2="143.58"/><rect x="807.84" y="143.58" width="0.22" height="0.22"/><line class="cls-1" x1="807.84" y1="203.8" x2="785.23" y2="203.8"/><rect x="785.23" y="203.8" width="0.22" height="0.22"/><line class="cls-1" x1="830.45" y1="203.8" x2="807.84" y2="203.8"/><rect x="807.84" y="203.8" width="0.22" height="0.22"/><line class="cls-1" x1="890.68" y1="203.8" x2="868.06" y2="203.8"/><rect x="868.06" y="203.8" width="0.22" height="0.22"/><line class="cls-1" x1="958.51" y1="203.8" x2="928.29" y2="203.8"/><rect x="928.29" y="203.8" width="0.22" height="0.22"/><line class="cls-1" x1="755.01" y1="211.19" x2="732.62" y2="211.19"/><rect x="732.62" y="211.19" width="0.22" height="0.22"/><line class="cls-1" x1="313.01" y1="218.8" x2="298.01" y2="218.8"/><rect x="298.01" y="218.8" width="0.22" height="0.22"/><line class="cls-1" x1="373.24" y1="218.8" x2="350.62" y2="218.8"/><rect x="350.62" y="218.8" width="0.22" height="0.22"/><line class="cls-1" x1="79.52" y1="233.8" x2="79.52" y2="68.13"/><rect x="79.52" y="68.13" width="0.22" height="0.22"/><line class="cls-1" x1="147.35" y1="233.8" x2="79.52" y2="233.8"/><rect x="79.52" y="233.8" width="0.22" height="0.22"/><line class="cls-1" x1="207.57" y1="233.8" x2="184.96" y2="233.8"/><rect x="184.96" y="233.8" width="0.22" height="0.22"/><line class="cls-1" x1="267.79" y1="233.8" x2="245.18" y2="233.8"/><rect x="245.18" y="233.8" width="0.22" height="0.22"/><line class="cls-1" x1="523.9" y1="233.8" x2="523.9" y2="45.52"/><rect x="523.9" y="45.52" width="0.22" height="0.22"/><line class="cls-1" x1="576.73" y1="233.8" x2="523.9" y2="233.8"/><rect x="523.9" y="233.8" width="0.22" height="0.22"/><line class="cls-1" x1="642.18" y1="233.8" x2="614.34" y2="233.8"/><rect x="614.34" y="233.8" width="0.22" height="0.22"/><line class="cls-1" x1="702.4" y1="233.8" x2="702.4" y2="196.19"/><rect x="702.4" y="196.19" width="0.22" height="0.22"/><line class="cls-1" x1="702.4" y1="233.8" x2="679.79" y2="233.8"/><rect x="679.79" y="233.8" width="0.22" height="0.22"/><line class="cls-1" x1="64.52" y1="271.41" x2="64.52" y2="105.74"/><rect x="64.52" y="105.74" width="0.22" height="0.22"/><line class="cls-1" x1="102.13" y1="271.41" x2="64.52" y2="271.41"/><rect x="64.52" y="271.41" width="0.22" height="0.22"/><line class="cls-1" x1="207.57" y1="271.41" x2="139.74" y2="271.41"/><rect x="139.74" y="271.41" width="0.22" height="0.22"/><line class="cls-1" x1="267.79" y1="271.41" x2="267.79" y2="233.8"/><rect x="267.79" y="233.8" width="0.22" height="0.22"/><line class="cls-1" x1="267.79" y1="271.41" x2="245.18" y2="271.41"/><rect x="245.18" y="271.41" width="0.22" height="0.22"/><line class="cls-1" x1="298.01" y1="271.41" x2="298.01" y2="218.8"/><rect x="298.01" y="218.8" width="0.22" height="0.22"/><line class="cls-1" x1="298.01" y1="271.41" x2="267.79" y2="271.41"/><rect x="267.79" y="271.41" width="0.22" height="0.22"/><line class="cls-1" x1="320.63" y1="271.41" x2="298.01" y2="271.41"/><rect x="298.01" y="271.41" width="0.22" height="0.22"/><line class="cls-1" x1="373.24" y1="279.02" x2="373.24" y2="218.8"/><rect x="373.24" y="218.8" width="0.22" height="0.22"/><line class="cls-1" x1="373.24" y1="279.02" x2="350.62" y2="279.02"/><rect x="350.62" y="279.02" width="0.22" height="0.22"/><line class="cls-1" x1="395.85" y1="279.02" x2="373.24" y2="279.02"/><rect x="373.24" y="279.02" width="0.22" height="0.22"/><line class="cls-1" x1="456.07" y1="279.02" x2="433.46" y2="279.02"/><rect x="433.46" y="279.02" width="0.22" height="0.22"/><line class="cls-1" x1="539.12" y1="279.02" x2="539.12" y2="196.19"/><rect x="539.12" y="196.19" width="0.22" height="0.22"/><line class="cls-1" x1="539.12" y1="279.02" x2="493.68" y2="279.02"/><rect x="493.68" y="279.02" width="0.22" height="0.22"/><line class="cls-1" x1="320.63" y1="286.63" x2="298.01" y2="286.63"/><rect x="298.01" y="286.63" width="0.22" height="0.22"/><line class="cls-1" x1="49.29" y1="309.24" x2="49.29" y2="143.58"/><rect x="49.29" y="143.58" width="0.22" height="0.22"/><line class="cls-1" x1="207.57" y1="309.24" x2="49.29" y2="309.24"/><rect x="49.29" y="309.24" width="0.22" height="0.22"/><line class="cls-1" x1="267.79" y1="309.24" x2="267.79" y2="271.41"/><rect x="267.79" y="271.41" width="0.22" height="0.22"/><line class="cls-1" x1="267.79" y1="309.24" x2="245.18" y2="309.24"/><rect x="245.18" y="309.24" width="0.22" height="0.22"/><line class="cls-1" x1="49.29" y1="316.85" x2="49.29" y2="309.24"/><rect x="49.29" y="309.24" width="0.22" height="0.22"/><line class="cls-1" x1="64.52" y1="316.85" x2="64.52" y2="271.41"/><rect x="64.52" y="271.41" width="0.22" height="0.22"/><line class="cls-1" x1="79.52" y1="316.85" x2="79.52" y2="233.8"/><rect x="79.52" y="233.8" width="0.22" height="0.22"/><line class="cls-1" x1="523.9" y1="286.85" x2="523.9" y2="233.8"/><rect x="523.9" y="233.8" width="0.22" height="0.22"/><line class="cls-1" x1="539.12" y1="286.85" x2="539.12" y2="279.02"/><rect x="539.12" y="279.02" width="0.22" height="0.22"/><line class="cls-1" x1="554.12" y1="286.85" x2="554.12" y2="158.58"/><rect x="554.12" y="158.58" width="0.22" height="0.22"/><path class="cls-3" d="M806.05,202h3.81v3.8h-3.81Zm-75.22-7.61h3.81v3.8h-3.81Zm-30.22,0h3.8v3.8h-3.8ZM552.33,156.79h3.81v3.8h-3.81Zm0-45.23h3.81v3.81h-3.81Zm-15,165.67h3.81V281h-3.81Zm0-82.83h3.81v3.8h-3.81ZM522.11,232h3.8v3.8h-3.8Zm0-188.28h3.8v3.81h-3.8ZM371.44,277.23h3.81V281h-3.81Zm0-165.67h3.81v3.81h-3.81ZM296.22,269.62H300v3.8h-3.81Zm0-165.67H300v3.81h-3.81ZM266,269.62h3.81v3.8H266ZM266,104h3.81v3.81H266ZM77.72,232h3.81v3.8H77.72Zm0-165.67h3.81v3.81H77.72Zm0-52.61h3.81v3.81H77.72Zm-15,255.89h3.81v3.8H62.72Zm0-165.67h3.81v3.81H62.72Zm0-75.22h3.81v3.81H62.72ZM47.5,307.45h3.81v3.81H47.5Zm0-165.66h3.81v3.8H47.5Zm0-98.06h3.81v3.81H47.5Z"/><circle class="cls-4" cx="960.53" cy="203.69" r="2.25"/><path d="M973.21,199.11a1.68,1.68,0,0,0-1.43.83c-.4.48-1.34,1.81-2.18,3a1.23,1.23,0,0,0-.28.63l-.3,1.5c-.19,1-.14,1.08.94,1.17l-.06.33h-3.22l.09-.33c1-.09,1.06-.14,1.27-1.17l.3-1.57a1.35,1.35,0,0,0-.09-.72c-.23-.72-.62-1.89-1-2.83-.26-.69-.33-.77-1.13-.84l.09-.33H969l-.08.33-.35,0c-.47.07-.51.16-.38.56.22.65.7,2.16,1,3,.54-.77,1.58-2.24,2.06-2.95.27-.42.15-.54-.31-.59l-.38,0,.08-.33h2.62Z"/><circle class="cls-4" cx="17.04" cy="15.52" r="2.25"/><path d="M8.45,8.8a2,2,0,0,0-1.68.84c-.33.35-.85,1-1.91,2.31l1.33,2.93c.41.9.57.93,1.48,1l-.07.34H4.51l.08-.34.32-.05c.46-.06.54-.15.37-.56s-.45-1.08-1.11-2.58c-.8,1-1.47,1.89-2,2.58-.25.37-.16.49.34.57l.33,0-.08.34H0l.07-.34a1.76,1.76,0,0,0,1.5-.76c.41-.44,1.29-1.55,2.34-2.87L2.84,9.76c-.35-.8-.52-.88-1.36-1l.08-.34H4.48l-.07.34-.33,0c-.41.08-.51.14-.38.47.2.54.51,1.27,1,2.2.56-.68,1.11-1.39,1.64-2.13.25-.37.2-.46-.2-.52L5.74,8.8l.07-.34H8.52Z"/><path d="M8.86,20.34c-.81,0-1.07-.68-1.07-1.45,0-1.23.64-3.08,1.89-3.08.84,0,1.07.74,1.06,1.46C10.74,18.46,10.14,20.34,8.86,20.34Zm.79-4.28c-.85,0-1.28,2-1.28,3,0,.58.09,1,.54,1,.82,0,1.25-2.1,1.25-3C10.17,16.55,10.1,16.06,9.65,16.06Z"/><circle class="cls-4" cx="17.04" cy="30.52" r="2.25"/><path d="M8.45,23.8a2,2,0,0,0-1.68.84c-.33.35-.85,1-1.91,2.31l1.33,2.93c.41.9.57.93,1.48,1l-.07.34H4.51l.08-.34.32-.05c.46-.06.54-.15.37-.56s-.45-1.08-1.11-2.58c-.8,1-1.47,1.89-2,2.58-.25.37-.16.49.34.57l.33,0-.08.34H0l.07-.34a1.76,1.76,0,0,0,1.5-.76c.41-.44,1.29-1.56,2.34-2.87l-1.1-2.53c-.35-.8-.52-.88-1.36-1l.08-.34H4.48l-.07.34-.33,0c-.41.08-.51.13-.38.47.2.54.51,1.27,1,2.2.56-.68,1.11-1.4,1.64-2.13.25-.37.2-.46-.2-.53l-.35-.05.07-.34H8.52Z"/><path d="M9.32,34.41c-.08.39-.1.57.33.62l.34,0-.05.19H7.81l0-.19.31,0c.46-.05.51-.1.62-.62l.51-2.6c.07-.4,0-.43-.37-.44H8.64l0-.19A5.54,5.54,0,0,0,10,30.81Z"/><circle class="cls-4" cx="17.04" cy="45.52" r="2.25"/><path d="M8.27,46.8c-.13.68-.18,1,.57,1.07l.58.05-.08.33H5.68l.07-.33c.1,0,.44,0,.53,0,.78-.09.88-.18,1.06-1.08l.87-4.46c.13-.68.06-.73-.63-.74H7.11l.07-.33a9.46,9.46,0,0,0,2.29-.62Z"/><circle class="cls-4" cx="491.43" cy="45.52" r="2.25"/><path d="M483.43,46.84c-.13.67-.18,1,.56,1.07l.59.05-.08.33h-3.66l.07-.33.53,0c.78-.09.87-.18,1.05-1.08l.88-4.46c.13-.68.06-.73-.64-.74h-.46l.07-.33a9.59,9.59,0,0,0,2.29-.62Z"/><path d="M211.54,87.76h-.12a1.82,1.82,0,0,1-1.91-1.18c-.31-.6-.54-1.16-.8-1.76s-.35-.55-.78-.55h-.53l-.35,1.87c-.19,1.06-.11,1.1.93,1.2l-.08.34h-3.17l.07-.34c.95-.08,1.08-.14,1.27-1.19l.92-4.82c.2-1,.06-1-.91-1.11l.07-.34h2.77c1.34,0,2.41.53,2.41,1.88a2.39,2.39,0,0,1-1.89,2.29c.19.48.41,1,.64,1.44.7,1.47,1,1.78,1.57,2Zm-3.49-3.89a2,2,0,0,0,2.19-2,1.42,1.42,0,0,0-1.44-1.57c-.45,0-.62,0-.74.65l-.57,3Z"/><path d="M214.79,87.13h.92a8.72,8.72,0,0,0-.18,1.07h-.22a3.11,3.11,0,0,0-.06-.49c-.05-.22-.17-.32-.55-.32h-.77c-.24,0-.28,0-.32.27l-.3,1.59h.83c.58,0,.6-.08.82-.57h.21l-.29,1.47h-.21c0-.58,0-.63-.59-.63h-.82L213,90.8c-.1.58-.07.63.6.68l0,.19h-1.91l0-.19c.57,0,.61-.09.73-.68L213,88c.12-.61.06-.64-.53-.7l.05-.19Z"/><path d="M217.77,88.43h-.69l4.44-9h.69Z"/><path d="M228.4,86.68a1.66,1.66,0,0,1-1.56,1.16,1.8,1.8,0,0,1-1.34-.68,2.8,2.8,0,0,1-.61-2,3.54,3.54,0,0,1,.36-1.7,2.75,2.75,0,0,1,1-1,3.11,3.11,0,0,1,1.58-.35v.22a1.52,1.52,0,0,0-1.35.71,3.63,3.63,0,0,0-.48,2,3.67,3.67,0,0,0,.31,1.82.89.89,0,0,0,.74.49.93.93,0,0,0,.54-.17,1,1,0,0,0,.36-.36,5,5,0,0,0,.33-.78,3.7,3.7,0,0,1-.37-1.63c0-.88.18-1.31.53-1.31s.53.4.53,1.21a4.34,4.34,0,0,1-.38,1.73c.28.88.68,1.31,1.2,1.31a.9.9,0,0,0,.76-.46,3.18,3.18,0,0,0,.32-1.73,4.94,4.94,0,0,0-.21-1.64,1.89,1.89,0,0,0-.61-.88,1.7,1.7,0,0,0-1-.34v-.22a3,3,0,0,1,1.58.36,2.72,2.72,0,0,1,1,1,3.5,3.5,0,0,1,.36,1.69,2.9,2.9,0,0,1-.59,2,1.78,1.78,0,0,1-1.37.68A1.6,1.6,0,0,1,228.4,86.68Z"/><path d="M233.75,91.76c-.81,0-1.07-.68-1.07-1.45,0-1.23.64-3.08,1.89-3.08.83,0,1.07.74,1.06,1.46C235.63,89.88,235,91.76,233.75,91.76Zm.79-4.28c-.85,0-1.28,2-1.28,3,0,.58.09,1,.54,1,.82,0,1.25-2.1,1.25-3C235.06,88,235,87.48,234.54,87.48Z"/><path d="M235.48,92.26c.3-.11.7-.31.7-.66,0-.19-.16-.29-.31-.34a.12.12,0,0,1-.09-.12.4.4,0,0,1,.4-.37.54.54,0,0,1,.47.58c0,.62-.55,1-1.11,1.13Z"/><path d="M240,91.76c-.81,0-1.07-.68-1.07-1.45,0-1.23.63-3.08,1.89-3.08.83,0,1.07.74,1.06,1.46C241.85,89.88,241.25,91.76,240,91.76Zm.79-4.28c-.85,0-1.28,2-1.28,3,0,.58.09,1,.54,1,.82,0,1.25-2.1,1.25-3C241.28,88,241.21,87.48,240.76,87.48Z"/><path d="M241.7,92.26c.3-.11.7-.31.7-.66,0-.19-.16-.29-.31-.34a.12.12,0,0,1-.09-.12.39.39,0,0,1,.4-.37.54.54,0,0,1,.47.58c0,.62-.55,1-1.11,1.13Z"/><path d="M246.19,91.76c-.81,0-1.07-.68-1.07-1.45,0-1.23.63-3.08,1.89-3.08.83,0,1.06.74,1.06,1.46C248.07,89.88,247.47,91.76,246.19,91.76Zm.79-4.28c-.85,0-1.28,2-1.28,3,0,.58.09,1,.54,1,.82,0,1.25-2.1,1.25-3C247.49,88,247.43,87.48,247,87.48Z"/><path d="M211.54,125.25h-.12a1.83,1.83,0,0,1-1.91-1.17c-.31-.6-.54-1.17-.8-1.77s-.35-.55-.78-.55h-.53l-.35,1.87c-.19,1.06-.11,1.11.93,1.2l-.08.34h-3.17l.07-.34c.95-.08,1.08-.14,1.27-1.19l.92-4.82c.2-1,.06-1-.91-1.11l.07-.34h2.77c1.34,0,2.41.53,2.41,1.89a2.4,2.4,0,0,1-1.89,2.29c.19.48.41,1,.64,1.44.7,1.46,1,1.77,1.57,2Zm-3.49-3.88a2,2,0,0,0,2.19-2,1.41,1.41,0,0,0-1.44-1.57c-.45,0-.62,0-.74.64l-.57,3Z"/><path d="M214.79,124.62h.92a9.07,9.07,0,0,0-.18,1.07h-.22a3.41,3.41,0,0,0-.06-.49c-.05-.21-.17-.31-.55-.31h-.77c-.24,0-.28,0-.32.26l-.3,1.59h.83c.58,0,.6-.08.82-.57h.21l-.29,1.47h-.21c0-.57,0-.63-.59-.63h-.82L213,128.3c-.1.57-.07.62.6.67l0,.19h-1.91l0-.19c.57-.05.61-.09.73-.68l.54-2.78c.12-.61.06-.64-.53-.69l.05-.2Z"/><path d="M217.77,125.92h-.69l4.44-9h.69Z"/><path d="M228.4,124.17a1.65,1.65,0,0,1-1.56,1.16,1.78,1.78,0,0,1-1.34-.67,2.83,2.83,0,0,1-.61-2,3.49,3.49,0,0,1,.36-1.7,2.78,2.78,0,0,1,1-1,3.11,3.11,0,0,1,1.58-.35v.22a1.54,1.54,0,0,0-1.35.71,4.94,4.94,0,0,0-.17,3.85.9.9,0,0,0,.74.5,1,1,0,0,0,.54-.17,1.22,1.22,0,0,0,.36-.36,5.84,5.84,0,0,0,.33-.79,3.67,3.67,0,0,1-.37-1.63c0-.87.18-1.31.53-1.31s.53.4.53,1.21a4.34,4.34,0,0,1-.38,1.73q.42,1.32,1.2,1.32a.92.92,0,0,0,.76-.46,3.24,3.24,0,0,0,.32-1.74,4.87,4.87,0,0,0-.21-1.63,1.92,1.92,0,0,0-.61-.89,1.77,1.77,0,0,0-1-.34v-.22a3,3,0,0,1,1.58.36,2.67,2.67,0,0,1,1,1,3.43,3.43,0,0,1,.36,1.68,3,3,0,0,1-.59,2,1.76,1.76,0,0,1-1.37.67A1.58,1.58,0,0,1,228.4,124.17Z"/><path d="M233.75,129.25c-.81,0-1.07-.67-1.07-1.45,0-1.23.64-3.07,1.89-3.07.83,0,1.07.73,1.06,1.46C235.63,127.37,235,129.25,233.75,129.25Zm.79-4.28c-.85,0-1.28,2-1.28,3,0,.57.09,1,.54,1,.82,0,1.25-2.1,1.25-3C235.06,125.47,235,125,234.54,125Z"/><path d="M235.48,129.76c.3-.11.7-.32.7-.67,0-.19-.16-.28-.31-.34a.11.11,0,0,1-.09-.12.4.4,0,0,1,.4-.37.55.55,0,0,1,.47.58c0,.62-.55,1-1.11,1.13Z"/><path d="M240,129.25c-.81,0-1.07-.67-1.07-1.45,0-1.23.63-3.07,1.89-3.07.83,0,1.07.73,1.06,1.46C241.85,127.37,241.25,129.25,240,129.25Zm.79-4.28c-.85,0-1.28,2-1.28,3,0,.57.09,1,.54,1,.82,0,1.25-2.1,1.25-3C241.28,125.47,241.21,125,240.76,125Z"/><path d="M241.7,129.76c.3-.11.7-.32.7-.67,0-.19-.16-.28-.31-.34a.11.11,0,0,1-.09-.12.39.39,0,0,1,.4-.37.55.55,0,0,1,.47.58c0,.62-.55,1-1.11,1.13Z"/><path d="M246.65,128.32c-.08.39-.11.57.33.62l.34,0,0,.19h-2.13l0-.19.31,0c.45-.06.51-.11.61-.63l.51-2.6c.08-.4,0-.43-.37-.43H246l0-.19a5.52,5.52,0,0,0,1.34-.36Z"/><path d="M211.54,162.75h-.12a1.84,1.84,0,0,1-1.91-1.18c-.31-.6-.54-1.16-.8-1.76s-.35-.55-.78-.55h-.53l-.35,1.87c-.19,1.05-.11,1.1.93,1.2l-.08.33h-3.17l.07-.33c.95-.09,1.08-.15,1.27-1.19l.92-4.82c.2-1,.06-1-.91-1.12l.07-.33h2.77c1.34,0,2.41.52,2.41,1.88a2.4,2.4,0,0,1-1.89,2.29c.19.48.41,1,.64,1.44.7,1.46,1,1.77,1.57,2Zm-3.49-3.89a2,2,0,0,0,2.19-2,1.42,1.42,0,0,0-1.44-1.57c-.45,0-.62,0-.74.65l-.57,3Z"/><path d="M214.79,162.11h.92a9.07,9.07,0,0,0-.18,1.07h-.22a3.41,3.41,0,0,0-.06-.49c-.05-.21-.17-.31-.55-.31h-.77c-.24,0-.28,0-.32.27l-.3,1.58h.83c.58,0,.6-.07.82-.56h.21l-.29,1.46h-.21c0-.57,0-.62-.59-.62h-.82l-.26,1.28c-.1.57-.07.62.6.67l0,.2h-1.91l0-.2c.57-.05.61-.09.73-.68L213,163c.12-.61.06-.63-.53-.69l.05-.2Z"/><path d="M217.77,163.42h-.69l4.44-9h.69Z"/><path d="M228.4,161.67a1.66,1.66,0,0,1-1.56,1.16,1.8,1.8,0,0,1-1.34-.68,2.8,2.8,0,0,1-.61-2,3.54,3.54,0,0,1,.36-1.7,2.67,2.67,0,0,1,1-1,3,3,0,0,1,1.58-.35v.21a1.53,1.53,0,0,0-1.35.72,3.59,3.59,0,0,0-.48,2,3.72,3.72,0,0,0,.31,1.83.89.89,0,0,0,.74.49,1,1,0,0,0,.54-.17,1,1,0,0,0,.36-.36,6.14,6.14,0,0,0,.33-.78,3.71,3.71,0,0,1-.37-1.64c0-.87.18-1.3.53-1.3s.53.4.53,1.2a4.35,4.35,0,0,1-.38,1.74c.28.87.68,1.31,1.2,1.31a.9.9,0,0,0,.76-.46,3.24,3.24,0,0,0,.32-1.74,4.91,4.91,0,0,0-.21-1.63,1.84,1.84,0,0,0-.61-.88,1.71,1.71,0,0,0-1-.35v-.21a3.11,3.11,0,0,1,1.58.35,2.75,2.75,0,0,1,1,1,3.46,3.46,0,0,1,.36,1.68,2.93,2.93,0,0,1-.59,2,1.78,1.78,0,0,1-1.37.68A1.6,1.6,0,0,1,228.4,161.67Z"/><path d="M233.75,166.74c-.81,0-1.07-.67-1.07-1.44,0-1.24.64-3.08,1.89-3.08.83,0,1.07.73,1.06,1.46C235.63,164.86,235,166.74,233.75,166.74Zm.79-4.28c-.85,0-1.28,2-1.28,3,0,.57.09,1,.54,1,.82,0,1.25-2.11,1.25-3C235.06,163,235,162.46,234.54,162.46Z"/><path d="M235.48,167.25c.3-.11.7-.31.7-.66s-.16-.29-.31-.34-.09-.06-.09-.12a.39.39,0,0,1,.4-.37.54.54,0,0,1,.47.58c0,.61-.55,1-1.11,1.13Z"/><path d="M240,166.74c-.81,0-1.07-.67-1.07-1.44,0-1.24.63-3.08,1.89-3.08.83,0,1.07.73,1.06,1.46C241.85,164.86,241.25,166.74,240,166.74Zm.79-4.28c-.85,0-1.28,2-1.28,3,0,.57.09,1,.54,1,.82,0,1.25-2.11,1.25-3C241.28,163,241.21,162.46,240.76,162.46Z"/><path d="M241.7,167.25c.3-.11.7-.31.7-.66s-.16-.29-.31-.34-.09-.06-.09-.12a.38.38,0,0,1,.4-.37.54.54,0,0,1,.47.58c0,.61-.55,1-1.11,1.13Z"/><path d="M245.87,162.6a1.39,1.39,0,0,1,.93-.38,1,1,0,0,1,1.1,1.1c0,.71-.48,1.21-1.28,1.9l-1.08.95h1.27c.38,0,.49,0,.85-.57l.18.09c-.15.3-.33.68-.46,1h-2.61v-.15c1.58-1.38,2.52-2.17,2.52-3.09a.67.67,0,0,0-.73-.75,1.32,1.32,0,0,0-1,.63l-.15-.14Z"/><path d="M211.65,252.7h-.12a1.84,1.84,0,0,1-1.91-1.18c-.31-.6-.54-1.16-.8-1.76s-.35-.56-.78-.56h-.53l-.34,1.88c-.2,1-.11,1.1.92,1.2l-.07.33h-3.18l.07-.33c1-.09,1.08-.15,1.27-1.19l.93-4.82c.19-1,.06-1-.92-1.12l.08-.33H209c1.33,0,2.41.52,2.41,1.88a2.41,2.41,0,0,1-1.9,2.29c.19.48.41,1,.64,1.44.71,1.46,1,1.77,1.57,1.95Zm-3.49-3.89a2,2,0,0,0,2.2-2,1.42,1.42,0,0,0-1.44-1.57c-.46,0-.63,0-.75.65l-.57,3Z"/><path d="M214.9,252.06h.92c-.06.24-.13.69-.18,1.07h-.22c0-.13,0-.31,0-.49s-.18-.31-.56-.31H214c-.23,0-.27,0-.32.27l-.3,1.58h.83c.58,0,.61-.07.82-.56h.21l-.29,1.46h-.2c0-.57,0-.63-.6-.63h-.82l-.25,1.29c-.11.57-.07.62.59.67l0,.2h-1.9l0-.2c.56-.05.6-.09.72-.68l.54-2.78c.12-.61.06-.63-.53-.69l0-.2Z"/><path d="M217.89,253.37h-.7l4.44-9h.69Z"/><path d="M228.51,251.62a1.66,1.66,0,0,1-1.56,1.16,1.81,1.81,0,0,1-1.34-.68,2.8,2.8,0,0,1-.61-1.95,3.51,3.51,0,0,1,.36-1.7,2.67,2.67,0,0,1,1-1,3,3,0,0,1,1.58-.35v.21a1.53,1.53,0,0,0-1.35.72,3.59,3.59,0,0,0-.48,2,3.72,3.72,0,0,0,.31,1.83.89.89,0,0,0,.74.49,1,1,0,0,0,.54-.17,1.07,1.07,0,0,0,.37-.36c.07-.13.17-.39.32-.78a3.71,3.71,0,0,1-.37-1.64c0-.87.18-1.3.53-1.3s.54.4.54,1.2a4.37,4.37,0,0,1-.39,1.74c.28.87.68,1.31,1.21,1.31a.92.92,0,0,0,.76-.46,3.36,3.36,0,0,0,.31-1.74,5,5,0,0,0-.2-1.63,1.93,1.93,0,0,0-.62-.88,1.68,1.68,0,0,0-1-.35v-.21a3,3,0,0,1,1.57.35,2.67,2.67,0,0,1,1,1,3.46,3.46,0,0,1,.36,1.68,2.88,2.88,0,0,1-.59,2,1.78,1.78,0,0,1-1.37.68A1.6,1.6,0,0,1,228.51,251.62Z"/><path d="M233.86,256.69c-.81,0-1.07-.67-1.07-1.45,0-1.23.64-3.07,1.9-3.07.83,0,1.06.73,1.05,1.46C235.74,254.81,235.14,256.69,233.86,256.69Zm.79-4.28c-.84,0-1.28,2-1.28,3,0,.57.09,1,.54,1,.83,0,1.25-2.11,1.25-3C235.17,252.91,235.11,252.41,234.65,252.41Z"/><path d="M235.59,257.2c.3-.11.71-.31.71-.66s-.17-.29-.32-.34-.09-.06-.09-.12a.39.39,0,0,1,.41-.37.53.53,0,0,1,.46.58c0,.61-.55,1-1.11,1.13Z"/><path d="M240.54,255.76c-.08.39-.1.57.33.62l.34,0-.05.2H239l0-.2.31,0c.46-.06.51-.1.62-.63l.51-2.6c.07-.4,0-.42-.37-.43h-.28l0-.19a5.57,5.57,0,0,0,1.33-.36Z"/><path d="M241.81,257.2c.3-.11.71-.31.71-.66s-.17-.29-.32-.34-.09-.06-.09-.12a.39.39,0,0,1,.41-.37.53.53,0,0,1,.46.58c0,.61-.55,1-1.11,1.13Z"/><path d="M246.3,256.69c-.81,0-1.07-.67-1.07-1.45,0-1.23.64-3.07,1.89-3.07.84,0,1.07.73,1.06,1.46C248.18,254.81,247.58,256.69,246.3,256.69Zm.79-4.28c-.85,0-1.28,2-1.28,3,0,.57.09,1,.54,1,.82,0,1.25-2.11,1.25-3C247.61,252.91,247.54,252.41,247.09,252.41Z"/><path d="M211.65,290.19h-.12a1.83,1.83,0,0,1-1.91-1.18c-.31-.6-.54-1.16-.8-1.76s-.35-.55-.78-.55h-.53l-.34,1.87c-.2,1.05-.11,1.1.92,1.2l-.07.33h-3.18l.07-.33c1-.09,1.08-.15,1.27-1.19l.93-4.82c.19-1,.06-1-.92-1.12l.08-.33H209c1.33,0,2.41.53,2.41,1.88a2.4,2.4,0,0,1-1.9,2.29c.19.48.41,1,.64,1.44.71,1.46,1,1.78,1.57,2Zm-3.49-3.89a2,2,0,0,0,2.2-2,1.42,1.42,0,0,0-1.44-1.57c-.46,0-.63,0-.75.65l-.57,3Z"/><path d="M214.9,289.56h.92c-.06.24-.13.68-.18,1.07h-.22a4.79,4.79,0,0,0,0-.49c-.05-.22-.18-.32-.56-.32H214c-.23,0-.27,0-.32.27l-.3,1.59h.83c.58,0,.61-.08.82-.57h.21l-.29,1.47h-.2c0-.58,0-.63-.6-.63h-.82l-.25,1.28c-.11.58-.07.63.59.68l0,.19h-1.9l0-.19c.56-.05.6-.1.72-.68l.54-2.78c.12-.61.06-.64-.53-.7l0-.19Z"/><path d="M217.89,290.86h-.7l4.44-9h.69Z"/><path d="M228.51,289.11a1.66,1.66,0,0,1-1.56,1.16,1.81,1.81,0,0,1-1.34-.68,2.8,2.8,0,0,1-.61-1.95,3.54,3.54,0,0,1,.36-1.7,2.67,2.67,0,0,1,1-1,3.13,3.13,0,0,1,1.58-.35v.22a1.52,1.52,0,0,0-1.35.71,3.63,3.63,0,0,0-.48,2,3.7,3.7,0,0,0,.31,1.82.89.89,0,0,0,.74.49.91.91,0,0,0,.54-.17,1.07,1.07,0,0,0,.37-.36,7.81,7.81,0,0,0,.32-.78,3.7,3.7,0,0,1-.37-1.63c0-.88.18-1.31.53-1.31s.54.4.54,1.21a4.36,4.36,0,0,1-.39,1.73c.28.87.68,1.31,1.21,1.31a.92.92,0,0,0,.76-.46,3.3,3.3,0,0,0,.31-1.73,5,5,0,0,0-.2-1.64,2,2,0,0,0-.62-.88,1.67,1.67,0,0,0-1-.34v-.22a3,3,0,0,1,1.57.36,2.57,2.57,0,0,1,1,1,3.5,3.5,0,0,1,.36,1.69,2.85,2.85,0,0,1-.59,2,1.78,1.78,0,0,1-1.37.68A1.6,1.6,0,0,1,228.51,289.11Z"/><path d="M233.86,294.18c-.81,0-1.07-.67-1.07-1.44,0-1.23.64-3.08,1.9-3.08.83,0,1.06.74,1.05,1.46C235.74,292.3,235.14,294.18,233.86,294.18Zm.79-4.27c-.84,0-1.28,2-1.28,3,0,.58.09,1,.54,1,.83,0,1.25-2.1,1.25-3C235.17,290.4,235.11,289.91,234.65,289.91Z"/><path d="M235.59,294.69c.3-.11.71-.31.71-.66,0-.2-.17-.29-.32-.34a.13.13,0,0,1-.09-.12.4.4,0,0,1,.41-.37.53.53,0,0,1,.46.58c0,.61-.55,1-1.11,1.13Z"/><path d="M240.54,293.25c-.08.4-.1.58.33.63l.34,0-.05.19H239l0-.19.31,0c.46-.05.51-.1.62-.63l.51-2.59c.07-.4,0-.43-.37-.44h-.28l0-.18a5.59,5.59,0,0,0,1.33-.37Z"/><path d="M241.81,294.69c.3-.11.71-.31.71-.66,0-.2-.17-.29-.32-.34a.13.13,0,0,1-.09-.12.4.4,0,0,1,.41-.37.53.53,0,0,1,.46.58c0,.61-.55,1-1.11,1.13Z"/><path d="M246.76,293.25c-.08.4-.1.58.33.63l.34,0-.05.19h-2.13l0-.19.31,0c.46-.05.51-.1.62-.63l.51-2.59c.07-.4,0-.43-.37-.44h-.28l0-.18a5.54,5.54,0,0,0,1.34-.37Z"/><path d="M211.65,327.68h-.12a1.84,1.84,0,0,1-1.91-1.17c-.31-.6-.54-1.17-.8-1.77s-.35-.55-.78-.55h-.53l-.34,1.87c-.2,1.06-.11,1.11.92,1.2l-.07.34h-3.18l.07-.34c1-.08,1.08-.14,1.27-1.19l.93-4.82c.19-1,.06-1-.92-1.11l.08-.34H209c1.33,0,2.41.53,2.41,1.88a2.41,2.41,0,0,1-1.9,2.3c.19.47.41,1,.64,1.43.71,1.47,1,1.78,1.57,2Zm-3.49-3.88a2,2,0,0,0,2.2-2,1.41,1.41,0,0,0-1.44-1.57c-.46,0-.63,0-.75.64l-.57,3Z"/><path d="M214.9,327.05h.92c-.06.24-.13.69-.18,1.07h-.22c0-.13,0-.31,0-.49s-.18-.31-.56-.31H214c-.23,0-.27,0-.32.26l-.3,1.59h.83c.58,0,.61-.08.82-.57h.21l-.29,1.47h-.2c0-.57,0-.63-.6-.63h-.82l-.25,1.29c-.11.57-.07.62.59.67l0,.19h-1.9l0-.19c.56,0,.6-.09.72-.68l.54-2.78c.12-.61.06-.64-.53-.69l0-.2Z"/><path d="M217.89,328.35h-.7l4.44-9h.69Z"/><path d="M228.51,326.6a1.66,1.66,0,0,1-1.56,1.16,1.78,1.78,0,0,1-1.34-.68,2.79,2.79,0,0,1-.61-1.94,3.56,3.56,0,0,1,.36-1.71,2.75,2.75,0,0,1,1-1,3.13,3.13,0,0,1,1.58-.35v.22a1.54,1.54,0,0,0-1.35.71,4.94,4.94,0,0,0-.17,3.85.9.9,0,0,0,.74.5,1,1,0,0,0,.54-.17,1.27,1.27,0,0,0,.37-.36,8.36,8.36,0,0,0,.32-.79,3.67,3.67,0,0,1-.37-1.63c0-.87.18-1.31.53-1.31s.54.4.54,1.21a4.36,4.36,0,0,1-.39,1.73c.28.88.68,1.32,1.21,1.32a1,1,0,0,0,.76-.46,3.36,3.36,0,0,0,.31-1.74,4.91,4.91,0,0,0-.2-1.63,2,2,0,0,0-.62-.89,1.67,1.67,0,0,0-1-.34v-.22a3,3,0,0,1,1.57.36,2.6,2.6,0,0,1,1,1,3.43,3.43,0,0,1,.36,1.68,2.85,2.85,0,0,1-.59,2,1.74,1.74,0,0,1-1.37.68A1.6,1.6,0,0,1,228.51,326.6Z"/><path d="M233.86,331.68c-.81,0-1.07-.67-1.07-1.45,0-1.23.64-3.07,1.9-3.07.83,0,1.06.73,1.05,1.46C235.74,329.8,235.14,331.68,233.86,331.68Zm.79-4.28c-.84,0-1.28,2-1.28,3,0,.57.09,1,.54,1,.83,0,1.25-2.1,1.25-3C235.17,327.9,235.11,327.4,234.65,327.4Z"/><path d="M235.59,332.19c.3-.11.71-.32.71-.67,0-.19-.17-.28-.32-.34a.12.12,0,0,1-.09-.12.4.4,0,0,1,.41-.37.53.53,0,0,1,.46.58c0,.62-.55,1-1.11,1.13Z"/><path d="M240.54,330.75c-.08.39-.1.57.33.62l.34,0-.05.19H239l0-.19.31,0c.46-.06.51-.11.62-.63l.51-2.6c.07-.4,0-.43-.37-.44h-.28l0-.19a5.57,5.57,0,0,0,1.33-.36Z"/><path d="M241.81,332.19c.3-.11.71-.32.71-.67,0-.19-.17-.28-.32-.34a.12.12,0,0,1-.09-.12.4.4,0,0,1,.41-.37.53.53,0,0,1,.46.58c0,.62-.55,1-1.11,1.13Z"/><path d="M246,327.53a1.4,1.4,0,0,1,.93-.37,1,1,0,0,1,1.1,1.1c0,.71-.47,1.2-1.28,1.9l-1.07.94h1.26c.39,0,.49,0,.85-.56l.18.08c-.15.3-.33.69-.46,1h-2.61l0-.14c1.57-1.39,2.51-2.18,2.51-3.09a.67.67,0,0,0-.73-.75,1.32,1.32,0,0,0-1,.63l-.15-.15Z"/><path d="M646.15,177.9H646a1.84,1.84,0,0,1-1.91-1.18c-.31-.6-.54-1.16-.8-1.76s-.35-.55-.78-.55H642l-.35,1.87c-.19,1.05-.11,1.1.92,1.2l-.07.33h-3.18l.08-.33c.94-.09,1.08-.15,1.27-1.19l.92-4.82c.19-1,.06-1-.91-1.12l.07-.33h2.77c1.33,0,2.41.52,2.41,1.88a2.41,2.41,0,0,1-1.89,2.29c.19.48.41,1,.63,1.44.71,1.46,1,1.77,1.58,2ZM642.66,174a2,2,0,0,0,2.19-2,1.42,1.42,0,0,0-1.44-1.57c-.45,0-.62,0-.74.65l-.58,3Z"/><path d="M649.4,177.26h.92c-.06.24-.14.69-.19,1.07h-.21a3.41,3.41,0,0,0-.06-.49c-.05-.21-.17-.31-.55-.31h-.78c-.23,0-.27,0-.31.27l-.3,1.58h.82c.58,0,.61-.07.83-.56h.21l-.3,1.46h-.2c0-.57,0-.62-.59-.62h-.82l-.26,1.28c-.1.57-.07.62.6.67l-.05.2h-1.9l0-.2c.57-.05.61-.09.73-.68l.54-2.78c.12-.6.06-.63-.53-.69l0-.2Z"/><path d="M652.38,178.57h-.69l4.43-9h.7Z"/><path d="M663,176.82a1.66,1.66,0,0,1-1.56,1.16,1.78,1.78,0,0,1-1.34-.68,2.8,2.8,0,0,1-.62-2,3.54,3.54,0,0,1,.37-1.7,2.53,2.53,0,0,1,1-1,3,3,0,0,1,1.57-.35v.21a1.53,1.53,0,0,0-1.34.72,3.6,3.6,0,0,0-.48,2,3.7,3.7,0,0,0,.31,1.82.89.89,0,0,0,.74.49,1.13,1.13,0,0,0,.9-.53,6.6,6.6,0,0,0,.32-.78,3.85,3.85,0,0,1-.36-1.64c0-.87.17-1.3.53-1.3s.53.4.53,1.2a4.52,4.52,0,0,1-.38,1.74c.28.87.68,1.31,1.2,1.31a.9.9,0,0,0,.76-.46,3.34,3.34,0,0,0,.32-1.74,4.91,4.91,0,0,0-.21-1.63,1.86,1.86,0,0,0-.62-.88,1.66,1.66,0,0,0-1-.35v-.21a3.13,3.13,0,0,1,1.58.35,2.72,2.72,0,0,1,.95,1,3.37,3.37,0,0,1,.37,1.68,2.93,2.93,0,0,1-.59,2,1.78,1.78,0,0,1-1.38.68A1.58,1.58,0,0,1,663,176.82Z"/><path d="M668.82,181c-.08.39-.11.58.33.62l.34,0,0,.2h-2.13l0-.2.31,0c.45-.05.51-.1.61-.63l.51-2.6c.08-.4,0-.42-.37-.43h-.27l0-.19a5.21,5.21,0,0,0,1.34-.36Z"/><path d="M670.09,182.4c.3-.11.7-.31.7-.66s-.17-.29-.31-.34-.09-.06-.09-.12a.38.38,0,0,1,.4-.37.53.53,0,0,1,.46.58c0,.61-.54,1-1.1,1.13Z"/><path d="M674.58,181.89c-.82,0-1.07-.67-1.07-1.44,0-1.23.63-3.08,1.89-3.08.83,0,1.06.73,1.06,1.46C676.46,180,675.85,181.89,674.58,181.89Zm.79-4.28c-.85,0-1.28,2-1.28,3,0,.57.09,1,.53,1,.83,0,1.26-2.11,1.26-3C675.88,178.11,675.82,177.61,675.37,177.61Z"/><path d="M676.31,182.4c.3-.11.7-.31.7-.66s-.17-.29-.31-.34-.09-.06-.09-.12a.38.38,0,0,1,.4-.37.53.53,0,0,1,.46.58c0,.61-.54,1-1.1,1.13Z"/><path d="M680.8,181.89c-.82,0-1.07-.67-1.07-1.44,0-1.23.63-3.08,1.89-3.08.83,0,1.06.73,1,1.46C682.67,180,682.07,181.89,680.8,181.89Zm.79-4.28c-.85,0-1.28,2-1.28,3,0,.57.09,1,.53,1,.83,0,1.25-2.11,1.25-3C682.1,178.11,682,177.61,681.59,177.61Z"/><path d="M646.15,215.39H646a1.82,1.82,0,0,1-1.91-1.18c-.31-.6-.54-1.16-.8-1.76s-.35-.55-.78-.55H642l-.35,1.87c-.19,1.06-.11,1.1.92,1.2l-.07.33h-3.18l.08-.33c.94-.08,1.08-.14,1.27-1.19l.92-4.82c.19-1,.06-1-.91-1.12l.07-.33h2.77c1.33,0,2.41.53,2.41,1.88a2.4,2.4,0,0,1-1.89,2.29c.19.48.41,1,.63,1.44.71,1.47,1,1.78,1.58,2Zm-3.49-3.89a2,2,0,0,0,2.19-2,1.42,1.42,0,0,0-1.44-1.57c-.45,0-.62,0-.74.65l-.58,3Z"/><path d="M649.4,214.76h.92a10.81,10.81,0,0,0-.19,1.07h-.21a3.11,3.11,0,0,0-.06-.49c-.05-.22-.17-.32-.55-.32h-.78c-.23,0-.27,0-.31.27l-.3,1.59h.82c.58,0,.61-.08.83-.57h.21l-.3,1.47h-.2c0-.58,0-.63-.59-.63h-.82l-.26,1.28c-.1.58-.07.63.6.68l-.05.19h-1.9l0-.19c.57-.05.61-.1.73-.68l.54-2.78c.12-.61.06-.64-.53-.7l0-.19Z"/><path d="M652.38,216.06h-.69l4.43-9h.7Z"/><path d="M663,214.31a1.66,1.66,0,0,1-1.56,1.16,1.78,1.78,0,0,1-1.34-.68,2.8,2.8,0,0,1-.62-1.95,3.54,3.54,0,0,1,.37-1.7,2.6,2.6,0,0,1,1-1,3.09,3.09,0,0,1,1.57-.35V210a1.52,1.52,0,0,0-1.34.71,3.63,3.63,0,0,0-.48,2,3.67,3.67,0,0,0,.31,1.82.89.89,0,0,0,.74.49,1,1,0,0,0,.54-.17,1,1,0,0,0,.36-.36,5.35,5.35,0,0,0,.32-.78,3.84,3.84,0,0,1-.36-1.63c0-.88.17-1.31.53-1.31s.53.4.53,1.21a4.52,4.52,0,0,1-.38,1.73c.28.88.68,1.31,1.2,1.31a.9.9,0,0,0,.76-.46,3.27,3.27,0,0,0,.32-1.73,4.94,4.94,0,0,0-.21-1.64,1.91,1.91,0,0,0-.62-.88,1.65,1.65,0,0,0-1-.34v-.22a3,3,0,0,1,1.58.36,2.69,2.69,0,0,1,.95,1,3.39,3.39,0,0,1,.37,1.69,2.9,2.9,0,0,1-.59,2,1.78,1.78,0,0,1-1.38.68A1.58,1.58,0,0,1,663,214.31Z"/><path d="M668.82,218.46c-.08.39-.11.57.33.62l.34,0,0,.19h-2.13l0-.19.31,0c.45-.05.51-.1.61-.62l.51-2.6c.08-.4,0-.43-.37-.44h-.27l0-.19a5.67,5.67,0,0,0,1.34-.37Z"/><path d="M670.09,219.89c.3-.11.7-.31.7-.66,0-.19-.17-.29-.31-.34a.12.12,0,0,1-.09-.12.38.38,0,0,1,.4-.37.53.53,0,0,1,.46.58,1.27,1.27,0,0,1-1.1,1.13Z"/><path d="M674.58,219.39c-.82,0-1.07-.68-1.07-1.45,0-1.23.63-3.08,1.89-3.08.83,0,1.06.74,1.06,1.46C676.46,217.51,675.85,219.39,674.58,219.39Zm.79-4.28c-.85,0-1.28,2-1.28,3,0,.58.09,1,.53,1,.83,0,1.26-2.1,1.26-3C675.88,215.6,675.82,215.11,675.37,215.11Z"/><path d="M676.31,219.89c.3-.11.7-.31.7-.66,0-.19-.17-.29-.31-.34a.12.12,0,0,1-.09-.12.38.38,0,0,1,.4-.37.53.53,0,0,1,.46.58,1.27,1.27,0,0,1-1.1,1.13Z"/><path d="M681.26,218.46c-.08.39-.11.57.33.62l.34,0,0,.19h-2.13l0-.19.31,0c.45-.05.51-.1.61-.62l.51-2.6c.08-.4,0-.43-.37-.44h-.27l0-.19a5.67,5.67,0,0,0,1.34-.37Z"/><path d="M646.15,252.88H646a1.82,1.82,0,0,1-1.91-1.17c-.31-.6-.54-1.17-.8-1.77-.21-.45-.35-.55-.78-.55H642l-.35,1.87c-.19,1.06-.11,1.11.92,1.2l-.07.34h-3.18l.08-.34c.94-.08,1.07-.14,1.27-1.19l.92-4.82c.19-1,.06-1-.91-1.11l.07-.34h2.77c1.33,0,2.41.53,2.41,1.88a2.41,2.41,0,0,1-1.89,2.3c.19.48.4,1,.63,1.44.71,1.46,1,1.77,1.57,1.95ZM642.66,249a2,2,0,0,0,2.19-2,1.41,1.41,0,0,0-1.44-1.57c-.45,0-.62,0-.74.64l-.58,3Z"/><path d="M649.4,252.25h.91c0,.24-.13.69-.18,1.07h-.21a3.41,3.41,0,0,0-.06-.49c-.05-.21-.17-.31-.55-.31h-.78c-.23,0-.27,0-.31.26l-.3,1.59h.82c.58,0,.61-.08.83-.57h.21l-.3,1.47h-.2c0-.57,0-.63-.59-.63h-.82l-.26,1.29c-.1.57-.07.62.59.67l0,.19h-1.9l0-.19c.57-.05.61-.09.73-.68l.54-2.78c.11-.61.06-.64-.54-.69l.05-.2Z"/><path d="M652.38,253.55h-.69l4.43-9h.7Z"/><path d="M663,251.8a1.66,1.66,0,0,1-1.56,1.16,1.78,1.78,0,0,1-1.35-.68,2.84,2.84,0,0,1-.61-1.94,3.44,3.44,0,0,1,.37-1.71,2.67,2.67,0,0,1,1-1,3.09,3.09,0,0,1,1.57-.35v.22a1.53,1.53,0,0,0-1.34.71,3.56,3.56,0,0,0-.49,2,3.62,3.62,0,0,0,.32,1.82.89.89,0,0,0,.74.5,1,1,0,0,0,.54-.17,1.22,1.22,0,0,0,.36-.36,6.25,6.25,0,0,0,.32-.79,3.81,3.81,0,0,1-.37-1.63c0-.87.18-1.31.54-1.31s.53.4.53,1.21a4.36,4.36,0,0,1-.39,1.73c.29.88.69,1.32,1.21,1.32a.93.93,0,0,0,.76-.46,3.34,3.34,0,0,0,.32-1.74,4.87,4.87,0,0,0-.21-1.63,1.89,1.89,0,0,0-.62-.89,1.65,1.65,0,0,0-1-.34v-.22a3,3,0,0,1,1.58.36,2.65,2.65,0,0,1,.95,1,3.43,3.43,0,0,1,.37,1.68,2.9,2.9,0,0,1-.59,2,1.76,1.76,0,0,1-1.38.68A1.58,1.58,0,0,1,663,251.8Z"/><path d="M668.82,256c-.08.39-.11.57.33.62l.34,0,0,.19h-2.13l0-.19.31,0c.45-.06.51-.11.61-.63l.51-2.6c.08-.4,0-.43-.37-.44h-.27l0-.19a5.65,5.65,0,0,0,1.34-.36Z"/><path d="M670.09,257.39c.3-.11.7-.32.7-.67,0-.19-.17-.28-.31-.34a.11.11,0,0,1-.09-.12.38.38,0,0,1,.4-.37.53.53,0,0,1,.46.58,1.26,1.26,0,0,1-1.1,1.13Z"/><path d="M674.57,256.88c-.81,0-1.06-.67-1.06-1.45,0-1.23.63-3.07,1.89-3.07.83,0,1.06.73,1.05,1.46C676.45,255,675.85,256.88,674.57,256.88Zm.79-4.28c-.84,0-1.27,2-1.27,3,0,.57.09,1,.53,1,.83,0,1.25-2.1,1.25-3C675.88,253.1,675.82,252.6,675.36,252.6Z"/><path d="M676.3,257.39c.31-.11.71-.32.71-.67,0-.19-.17-.28-.31-.34a.11.11,0,0,1-.09-.12.38.38,0,0,1,.4-.37.53.53,0,0,1,.46.58,1.26,1.26,0,0,1-1.1,1.13Z"/><path d="M680.47,252.73a1.4,1.4,0,0,1,.94-.37,1,1,0,0,1,1.1,1.1c0,.71-.48,1.2-1.28,1.9l-1.08.94h1.27c.38,0,.49,0,.85-.56l.17.08-.45,1h-2.61v-.14c1.58-1.39,2.52-2.18,2.52-3.09a.68.68,0,0,0-.74-.75,1.3,1.3,0,0,0-1,.63l-.16-.15Z"/><path d="M333.19,71.22h-.12A1.82,1.82,0,0,1,331.16,70c-.31-.6-.54-1.16-.8-1.76s-.35-.55-.78-.55h-.53l-.35,1.87c-.19,1.05-.11,1.1.92,1.2l-.07.33h-3.18l.08-.33c.94-.09,1.08-.15,1.27-1.19l.92-4.82c.19-1,.06-1-.91-1.12l.07-.33h2.77c1.33,0,2.41.53,2.41,1.88a2.4,2.4,0,0,1-1.89,2.29c.19.48.41,1,.63,1.44.71,1.46,1,1.78,1.57,2Zm-3.49-3.89a2,2,0,0,0,2.19-2,1.42,1.42,0,0,0-1.44-1.57c-.45,0-.62,0-.74.65l-.58,3Z"/><path d="M336.44,70.59h.92a10.3,10.3,0,0,0-.19,1.07H337a3.11,3.11,0,0,0-.06-.49c0-.22-.17-.32-.55-.32h-.78c-.23,0-.27,0-.31.27L335,72.7h.82c.58,0,.61-.07.83-.56h.21l-.3,1.47h-.2c0-.58,0-.63-.59-.63h-.82l-.26,1.28c-.1.58-.07.62.59.67l0,.2h-1.9l.05-.2c.57-.05.61-.09.73-.67l.54-2.79c.11-.6.06-.63-.54-.69l.05-.19Z"/><path d="M333.35,237.11h-.12a1.82,1.82,0,0,1-1.9-1.18c-.32-.6-.54-1.16-.81-1.76s-.34-.55-.78-.55h-.52l-.35,1.87c-.19,1-.11,1.1.92,1.2l-.07.33h-3.18l.07-.33c.95-.09,1.08-.15,1.27-1.19l.93-4.82c.19-1,.06-1-.91-1.12l.07-.33h2.77c1.33,0,2.41.52,2.41,1.88a2.41,2.41,0,0,1-1.89,2.29c.19.48.4,1,.63,1.44.71,1.46,1,1.77,1.57,1.95Zm-3.49-3.89a2,2,0,0,0,2.2-2,1.42,1.42,0,0,0-1.44-1.57c-.46,0-.62,0-.74.65l-.58,3Z"/><path d="M336.61,236.48h.91c0,.23-.13.68-.18,1.06h-.22a3,3,0,0,0-.05-.48c-.05-.22-.18-.32-.55-.32h-.78c-.23,0-.27,0-.31.27l-.3,1.58H336c.58,0,.61-.07.83-.56h.2l-.29,1.46h-.2c0-.57,0-.62-.6-.62h-.81l-.26,1.28c-.11.57-.07.62.59.67l0,.2h-1.9l0-.2c.56,0,.61-.09.73-.68l.53-2.78c.12-.61.07-.63-.53-.69l.05-.19Z"/><path d="M767.79,161.89h-.12a1.82,1.82,0,0,1-1.9-1.18c-.32-.6-.54-1.16-.81-1.76s-.34-.55-.78-.55h-.52l-.35,1.87c-.19,1-.11,1.1.92,1.2l-.07.33H761l.07-.33c1-.09,1.08-.15,1.27-1.19l.93-4.82c.19-1,.06-1-.91-1.12l.07-.33h2.77c1.33,0,2.41.52,2.41,1.88a2.41,2.41,0,0,1-1.9,2.29c.2.48.41,1,.64,1.44.71,1.46,1,1.77,1.57,1.95ZM764.3,158a2,2,0,0,0,2.2-2,1.42,1.42,0,0,0-1.44-1.57c-.46,0-.62,0-.74.65l-.58,3Z"/><path d="M771.05,161.26H772c-.05.23-.13.68-.18,1.06h-.22a3,3,0,0,0,0-.48c0-.22-.18-.32-.55-.32h-.78c-.23,0-.27,0-.31.27l-.3,1.58h.82c.58,0,.61-.07.83-.56h.2l-.29,1.46h-.2c0-.57,0-.62-.6-.62h-.81l-.26,1.28c-.11.57-.07.62.59.67l0,.2h-1.9l.05-.2c.56,0,.61-.09.72-.68l.54-2.78c.12-.61.07-.63-.53-.69l0-.19Z"/><line class="cls-1" x1="0.3" y1="365.14" x2="26.72" y2="380.14"/><rect x="26.72" y="380.14" width="0.22" height="0.22"/><line class="cls-1" x1="0.3" y1="395.14" x2="26.72" y2="380.14"/><rect x="26.72" y="380.14" width="0.22" height="0.22"/><line class="cls-1" x1="0.3" y1="365.14" x2="0.3" y2="395.14"/><rect x="0.3" y="395.14" width="0.22" height="0.22"/><line class="cls-1" x1="0.3" y1="365.14" x2="0.3" y2="395.14"/><rect x="0.3" y="395.14" width="0.22" height="0.22"/><rect x="15.3" y="386.63" width="0.22" height="0.22"/><ellipse class="cls-1" cx="32.2" cy="380.03" rx="5.48" ry="5.6"/><path d="M2.87,361.09a2.71,2.71,0,0,1-1.72,1.19c-.31,0-.44-.31-.21-1.27.19-.79.53-2.07.75-3.05q.08-.33,0-.33a2.06,2.06,0,0,0-.79.54l-.16-.31a3.42,3.42,0,0,1,1.76-1.13c.3,0,.32.41.1,1.29s-.52,2.08-.73,2.93c-.08.32-.08.46,0,.46s.44-.17.86-.62Zm.34-6.28a.66.66,0,0,1-.64.69A.51.51,0,0,1,2,355a.7.7,0,0,1,.67-.71A.5.5,0,0,1,3.21,354.81Z"/><path d="M9.34,361.06a2.79,2.79,0,0,1-1.72,1.22c-.32,0-.49-.29-.26-1.27s.42-1.7.6-2.46.14-1-.16-1-1.32.67-2.13,1.92a2.82,2.82,0,0,0-.41,1c-.12.47-.28,1.12-.37,1.61a6.33,6.33,0,0,0-.85.24L4,362.2c.34-1.31.68-2.77,1-4.1.09-.38,0-.48,0-.48s-.44.26-.74.55L4,357.86a2.62,2.62,0,0,1,1.58-1.13c.34,0,.44.42.19,1.46l-.17.71c1.07-1.39,2.15-2.17,2.87-2.17.39,0,.76.27.38,1.88L8.26,361c-.08.32-.08.47,0,.47a2,2,0,0,0,.89-.65Z"/><path d="M10,357.89c.46-.63,1.08-1.16,1.45-1.16s.47.37.52,1.34c.07,1.18.08,2.34.11,3.07.54-.66,1.93-2.25,1.93-3.1a1.24,1.24,0,0,0-.19-.58.23.23,0,0,1,0-.25.88.88,0,0,1,.7-.48c.29,0,.44.27.45.68a3.15,3.15,0,0,1-.72,1.73c-.67,1-1.87,2.31-2.58,3.14h-.34c-.05-1.22-.11-2.89-.18-3.92-.05-.62-.12-.74-.24-.74s-.3.1-.69.56Z"/><path d="M17.11,362.28c-.57,0-1.35-.33-1.35-1.79a4,4,0,0,1,1.43-3.14,2.94,2.94,0,0,1,1.61-.62,1,1,0,0,1,1.07,1c0,1.2-1.76,1.76-3.1,2a4.46,4.46,0,0,0,0,.5c0,.7.19,1.37.94,1.37a2.61,2.61,0,0,0,1.77-.95l.18.3A3.36,3.36,0,0,1,17.11,362.28Zm-.3-3c1.74-.31,2.15-.86,2.16-1.41a.58.58,0,0,0-.62-.64C18,357.24,17.16,357.51,16.81,359.29Z"/><path d="M20.63,357.87a2.9,2.9,0,0,1,1.58-1.14c.41,0,.38.63.15,1.67l-.07.32c.64-1.1,1.47-2,1.95-2a.55.55,0,0,1,.55.54,1.15,1.15,0,0,1-.47.77c-.1.07-.2.07-.26,0s-.25-.35-.39-.35-.87.85-1.14,1.34a11.6,11.6,0,0,0-.88,3,8.11,8.11,0,0,0-.88.24l-.08-.08c.29-1.11.71-2.93.88-3.8.13-.68.09-.78,0-.78a1.79,1.79,0,0,0-.78.55Z"/><path d="M28.49,357.29c-.24,0-.85.07-1.21.07-.54,2.5-.71,3.27-.77,3.63s0,.48.12.48.63-.32,1.08-.76l.16.3A3.07,3.07,0,0,1,26,362.28c-.42,0-.62-.32-.31-1.74l.69-3.18h-1v-.1l.35-.39h.72l.28-1.28a7.57,7.57,0,0,0,.95-.66l.1.06c-.14.48-.33,1.26-.47,1.88h1.34Z"/><path d="M30.28,362.28c-.58,0-1.36-.33-1.36-1.79a4,4,0,0,1,1.43-3.14,2.94,2.94,0,0,1,1.62-.62,1,1,0,0,1,1.07,1c0,1.2-1.77,1.76-3.11,2,0,.14,0,.38,0,.5,0,.7.19,1.37.93,1.37a2.65,2.65,0,0,0,1.78-.95l.18.3A3.36,3.36,0,0,1,30.28,362.28Zm-.3-3c1.74-.31,2.15-.86,2.16-1.41a.58.58,0,0,0-.63-.64C31.15,357.24,30.33,357.51,30,359.29Z"/><path d="M33.79,357.87a2.88,2.88,0,0,1,1.59-1.14c.41,0,.37.63.14,1.67l-.07.32c.65-1.1,1.47-2,1.95-2a.56.56,0,0,1,.56.54,1.19,1.19,0,0,1-.47.77c-.11.07-.21.07-.27,0s-.25-.35-.39-.35-.86.85-1.14,1.34a11.6,11.6,0,0,0-.88,3,7.94,7.94,0,0,0-.87.24l-.09-.08c.29-1.11.71-2.93.88-3.8.13-.68.1-.78,0-.78a1.79,1.79,0,0,0-.78.55Z"/><line class="cls-2" x1="117.24" y1="380.14" x2="94.63" y2="380.14"/><rect x="94.63" y="380.14" width="0.22" height="0.22"/><line class="cls-1" x1="107.83" y1="378.35" x2="104.03" y2="381.93"/><rect x="104.03" y="381.93" width="0.22" height="0.22"/><line class="cls-1" x1="117.24" y1="365.14" x2="87.01" y2="365.14"/><rect x="87.01" y="365.14" width="0.22" height="0.22"/><line class="cls-1" x1="124.63" y1="372.53" x2="117.24" y2="365.14"/><rect x="117.24" y="365.14" width="0.22" height="0.22"/><line class="cls-1" x1="124.63" y1="387.75" x2="124.63" y2="372.53"/><rect x="124.63" y="372.53" width="0.22" height="0.22"/><line class="cls-1" x1="117.24" y1="395.14" x2="124.63" y2="387.75"/><rect x="124.63" y="387.75" width="0.22" height="0.22"/><line class="cls-1" x1="87.01" y1="395.14" x2="117.24" y2="395.14"/><rect x="117.24" y="395.14" width="0.22" height="0.22"/><line class="cls-1" x1="110.97" y1="375.88" x2="107.83" y2="378.35"/><rect x="107.83" y="378.35" width="0.22" height="0.22"/><line class="cls-1" x1="117.24" y1="374.99" x2="114.33" y2="374.99"/><rect x="114.33" y="374.99" width="0.22" height="0.22"/><line class="cls-1" x1="114.33" y1="374.99" x2="110.97" y2="375.88"/><rect x="110.97" y="375.88" width="0.22" height="0.22"/><line class="cls-1" x1="87.01" y1="365.14" x2="87.01" y2="395.14"/><rect x="87.01" y="395.14" width="0.22" height="0.22"/><line class="cls-1" x1="100.67" y1="384.39" x2="104.03" y2="381.93"/><rect x="104.03" y="381.93" width="0.22" height="0.22"/><line class="cls-1" x1="94.63" y1="385.29" x2="97.31" y2="385.29"/><rect x="97.31" y="385.29" width="0.22" height="0.22"/><line class="cls-1" x1="97.31" y1="385.29" x2="100.67" y2="384.39"/><rect x="100.67" y="384.39" width="0.22" height="0.22"/><rect x="124.63" y="380.14" width="0.22" height="0.22"/><path d="M73.48,357.29c-.24,0-.85.07-1.21.07-.54,2.5-.71,3.27-.77,3.63s0,.48.12.48.64-.32,1.08-.76l.16.3A3,3,0,0,1,71,362.28c-.42,0-.62-.32-.31-1.74l.7-3.18h-1v-.1l.35-.39h.72l.27-1.28a6.91,6.91,0,0,0,.95-.66l.11.06c-.15.48-.34,1.26-.47,1.88h1.33Z"/><path d="M78.89,361.06a2.83,2.83,0,0,1-1.66,1.22c-.34,0-.48-.27-.27-1.37l.17-.82a6.66,6.66,0,0,1-1.44,1.62,2.19,2.19,0,0,1-1.24.57c-.41,0-.76-.51-.76-1.49A4.39,4.39,0,0,1,75,357.68a3.5,3.5,0,0,1,2.29-.95,8.56,8.56,0,0,1,1.39.2c-.21.76-.63,2.6-.86,4-.06.34,0,.47.06.47s.39-.16.82-.6Zm-2.17-1a4,4,0,0,0,.7-1.44,8.91,8.91,0,0,0,.26-1.17,2.29,2.29,0,0,0-.91-.19c-1.42,0-2.08,1.82-2.08,3.38,0,.48.14.79.38.79S76,361.06,76.72,360.06Z"/><path d="M85.2,361.06a2.75,2.75,0,0,1-1.71,1.22c-.32,0-.49-.29-.26-1.27s.42-1.7.6-2.46.14-1-.16-1-1.32.67-2.14,1.92a3,3,0,0,0-.4,1c-.12.47-.28,1.12-.37,1.61a7,7,0,0,0-.86.24l-.08-.08c.34-1.31.68-2.77,1-4.1.09-.38,0-.48-.06-.48s-.43.26-.73.55l-.17-.31a2.64,2.64,0,0,1,1.57-1.13c.35,0,.45.42.2,1.46l-.17.71c1.07-1.39,2.15-2.17,2.87-2.17.39,0,.76.27.38,1.88L84.13,361c-.08.32-.08.47,0,.47a2,2,0,0,0,.89-.65Z"/><path d="M86.91,353.91a7.21,7.21,0,0,0,1.48-.3,1.05,1.05,0,0,1,.33-.1c.1,0,.12.12.06.4-.33,1.54-.77,3.44-1.1,5,1-1.33,2.17-2.16,2.91-2.16.41,0,.79.19.42,1.71-.16.75-.39,1.75-.58,2.51-.09.32-.08.46,0,.46s.4-.15.83-.6l.18.28a2.71,2.71,0,0,1-1.72,1.19c-.33,0-.44-.37-.24-1.22s.47-1.9.66-2.7.07-.86-.17-.86c-.44,0-1.34.57-2.14,1.89a3,3,0,0,0-.44,1c-.1.48-.26,1.19-.35,1.65a8.56,8.56,0,0,0-.87.23l-.08-.08c.51-2.32,1.14-5.24,1.56-7.39.09-.49,0-.5-.34-.54l-.49,0Z"/><path d="M100.4,361.06a2.84,2.84,0,0,1-1.67,1.22c-.34,0-.48-.27-.26-1.37l.16-.82a6.66,6.66,0,0,1-1.44,1.62,2.16,2.16,0,0,1-1.23.57c-.42,0-.77-.51-.77-1.49a4.43,4.43,0,0,1,1.33-3.11,3.52,3.52,0,0,1,2.29-.95,8.2,8.2,0,0,1,1.39.2c-.21.76-.63,2.6-.86,4-.06.34,0,.47.06.47s.4-.16.83-.6Zm-2.17-1a4.19,4.19,0,0,0,.69-1.44,11.32,11.32,0,0,0,.27-1.17,2.35,2.35,0,0,0-.92-.19c-1.41,0-2.07,1.82-2.07,3.38,0,.48.13.79.37.79S97.47,361.06,98.23,360.06Z"/><path d="M105,361a3.39,3.39,0,0,1-2.43,1.32c-.8,0-1.35-.63-1.35-1.77a4,4,0,0,1,1.22-2.88,3.17,3.17,0,0,1,1.91-.9c.53,0,.92.27.93.55a.66.66,0,0,1-.4.62.2.2,0,0,1-.28-.07,1.15,1.15,0,0,0-.91-.51c-.91,0-1.46,1.51-1.46,2.92,0,.88.33,1.32.88,1.32a2.81,2.81,0,0,0,1.71-.91Z"/><path d="M109.05,357.29c-.24,0-.85.07-1.21.07-.54,2.5-.71,3.27-.77,3.63s0,.48.12.48.64-.32,1.08-.76l.16.3a3.07,3.07,0,0,1-1.84,1.27c-.42,0-.62-.32-.31-1.74l.69-3.18h-1v-.1l.34-.39h.72l.28-1.28a7.57,7.57,0,0,0,1-.66l.1.06c-.14.48-.33,1.26-.46,1.88h1.33Z"/><path d="M111.69,361.09a2.7,2.7,0,0,1-1.71,1.19c-.32,0-.45-.31-.22-1.27.19-.79.53-2.07.76-3.05,0-.22,0-.33,0-.33a2.06,2.06,0,0,0-.79.54l-.16-.31a3.45,3.45,0,0,1,1.76-1.13c.3,0,.32.41.1,1.29s-.51,2.08-.73,2.93c-.08.32-.08.46,0,.46s.44-.17.86-.62Zm.34-6.28a.66.66,0,0,1-.64.69.51.51,0,0,1-.53-.53.7.7,0,0,1,.67-.71A.5.5,0,0,1,112,354.81Z"/><path d="M112.42,357.89c.46-.63,1.08-1.16,1.45-1.16s.47.37.52,1.34c.07,1.18.08,2.34.11,3.07.54-.66,1.93-2.25,1.93-3.1a1.24,1.24,0,0,0-.19-.58.23.23,0,0,1,0-.25.88.88,0,0,1,.7-.48c.29,0,.44.27.45.68a3.19,3.19,0,0,1-.71,1.73c-.68,1-1.88,2.31-2.58,3.14h-.35c0-1.22-.11-2.89-.18-3.92-.05-.62-.12-.74-.24-.74s-.3.1-.69.56Z"/><path d="M123,361.06a2.84,2.84,0,0,1-1.67,1.22c-.33,0-.48-.27-.26-1.37l.17-.82a6.88,6.88,0,0,1-1.44,1.62,2.22,2.22,0,0,1-1.24.57c-.42,0-.77-.51-.77-1.49a4.4,4.4,0,0,1,1.34-3.11,3.48,3.48,0,0,1,2.29-.95,8.56,8.56,0,0,1,1.39.2c-.22.76-.64,2.6-.86,4-.07.34,0,.47.05.47s.4-.16.83-.6Zm-2.17-1a4.39,4.39,0,0,0,.7-1.44,10.91,10.91,0,0,0,.26-1.17,2.29,2.29,0,0,0-.91-.19c-1.42,0-2.08,1.82-2.08,3.38,0,.48.13.79.37.79S120.11,361.06,120.87,360.06Z"/><path d="M127,357.29c-.24,0-.85.07-1.21.07-.54,2.5-.71,3.27-.77,3.63s0,.48.12.48.64-.32,1.08-.76l.16.3a3,3,0,0,1-1.84,1.27c-.41,0-.62-.32-.31-1.74l.7-3.18h-1v-.1l.35-.39h.72l.27-1.28a6.91,6.91,0,0,0,1-.66l.11.06c-.15.48-.34,1.26-.47,1.88h1.33Z"/><path d="M129.65,361.09a2.7,2.7,0,0,1-1.71,1.19c-.31,0-.45-.31-.22-1.27.19-.79.53-2.07.76-3.05.05-.22,0-.33,0-.33a2.06,2.06,0,0,0-.79.54l-.16-.31a3.43,3.43,0,0,1,1.77-1.13c.3,0,.31.41.09,1.29s-.51,2.08-.73,2.93c-.08.32-.08.46,0,.46a1.77,1.77,0,0,0,.87-.62Zm.34-6.28a.66.66,0,0,1-.64.69.5.5,0,0,1-.52-.53.7.7,0,0,1,.67-.71A.49.49,0,0,1,130,354.81Z"/><path d="M135.38,358.6a3.86,3.86,0,0,1-1.68,3.2,2.83,2.83,0,0,1-1.48.48c-1.14,0-1.61-.91-1.61-1.87a3.66,3.66,0,0,1,1.94-3.36,3,3,0,0,1,1.23-.32C134.79,356.73,135.38,357.39,135.38,358.6Zm-3.75,1.68c0,.9.34,1.5,1,1.5,1.14,0,1.74-1.84,1.74-3.13,0-1-.43-1.42-1-1.42C132.16,357.23,131.63,359,131.63,360.28Z"/><path d="M141.77,361.06a2.77,2.77,0,0,1-1.71,1.22c-.33,0-.49-.29-.27-1.27s.42-1.7.6-2.46.15-1-.15-1-1.32.67-2.14,1.92a3.25,3.25,0,0,0-.41,1c-.12.47-.27,1.12-.37,1.61a6.78,6.78,0,0,0-.85.24l-.08-.08c.33-1.31.68-2.77,1-4.1.08-.38,0-.48-.06-.48s-.43.26-.73.55l-.17-.31a2.61,2.61,0,0,1,1.57-1.13c.35,0,.45.42.19,1.46l-.16.71c1.06-1.39,2.14-2.17,2.86-2.17.4,0,.77.27.39,1.88-.16.66-.39,1.58-.57,2.34-.07.32-.07.47,0,.47a2,2,0,0,0,.89-.65Z"/></g></g></svg>