<svg xmlns="http://www.w3.org/2000/svg" xmlns:xlink="http://www.w3.org/1999/xlink" viewBox="0 0 429.83 420.2"><defs><style>.cls-1,.cls-16,.cls-17,.cls-5,.cls-6,.cls-7,.cls-8{fill:none;}.cls-2{font-size:12px;font-family:TimesNewRomanPSMT, Times New Roman;}.cls-2,.cls-32{fill:#231f20;}.cls-3{fill:#fff;}.cls-4{clip-path:url(#clip-path);}.cls-5{stroke:#ec2024;}.cls-5,.cls-6,.cls-7,.cls-8{stroke-linecap:square;}.cls-5,.cls-6,.cls-7{stroke-linejoin:round;stroke-width:1.5px;}.cls-6{stroke:#0b8040;}.cls-7{stroke:#3953a3;}.cls-8{stroke:#000;stroke-width:0.8px;}.cls-9{clip-path:url(#clip-path-4);}.cls-10{clip-path:url(#clip-path-7);}.cls-11{clip-path:url(#clip-path-10);}.cls-12{clip-path:url(#clip-path-13);}.cls-13{clip-path:url(#clip-path-16);}.cls-14{clip-path:url(#clip-path-19);}.cls-15{clip-path:url(#clip-path-22);}.cls-16,.cls-17{stroke:#231f20;stroke-miterlimit:10;stroke-width:0.28px;}.cls-17{stroke-dasharray:1.42 1.42;}.cls-18{clip-path:url(#clip-path-25);}.cls-19{clip-path:url(#clip-path-28);}.cls-20{clip-path:url(#clip-path-31);}.cls-21{clip-path:url(#clip-path-34);}.cls-22{clip-path:url(#clip-path-37);}.cls-23{clip-path:url(#clip-path-40);}.cls-24{clip-path:url(#clip-path-43);}.cls-25{clip-path:url(#clip-path-46);}.cls-26{clip-path:url(#clip-path-49);}.cls-27{clip-path:url(#clip-path-52);}.cls-28{clip-path:url(#clip-path-55);}.cls-29{clip-path:url(#clip-path-58);}.cls-30{clip-path:url(#clip-path-61);}.cls-31{clip-path:url(#clip-path-64);}</style><clipPath id="clip-path" transform="translate(0.02)"><rect class="cls-1" x="1.02" y="54.33" width="428.03" height="56.69"/></clipPath><clipPath id="clip-path-4" transform="translate(0.02)"><rect class="cls-1" x="12.52" y="161.02" width="103.08" height="45.92"/></clipPath><clipPath id="clip-path-7" transform="translate(0.02)"><rect class="cls-1" x="131.15" y="161.02" width="27.15" height="45.92"/></clipPath><clipPath id="clip-path-10" transform="translate(0.02)"><rect class="cls-1" x="165.02" y="161.02" width="27.4" height="45.92"/></clipPath><clipPath id="clip-path-13" transform="translate(0.02)"><rect class="cls-1" x="198.8" y="161.02" width="23.63" height="45.92"/></clipPath><clipPath id="clip-path-16" transform="translate(0.02)"><rect class="cls-1" x="228.47" y="161.02" width="31.18" height="45.92"/></clipPath><clipPath id="clip-path-19" transform="translate(0.02)"><rect class="cls-1" x="265.48" y="161.02" width="14.58" height="45.92"/></clipPath><clipPath id="clip-path-22" transform="translate(0.02)"><rect class="cls-1" x="295.21" y="161.02" width="119.68" height="45.92"/></clipPath><clipPath id="clip-path-25" transform="translate(0.02)"><rect class="cls-1" x="84.17" y="256.94" width="31.43" height="45.92"/></clipPath><clipPath id="clip-path-28" transform="translate(0.02)"><rect class="cls-1" x="131.15" y="256.94" width="27.15" height="45.92"/></clipPath><clipPath id="clip-path-31" transform="translate(0.02)"><rect class="cls-1" x="165.02" y="256.94" width="27.4" height="45.92"/></clipPath><clipPath id="clip-path-34" transform="translate(0.02)"><rect class="cls-1" x="198.8" y="256.94" width="23.63" height="45.92"/></clipPath><clipPath id="clip-path-37" transform="translate(0.02)"><rect class="cls-1" x="228.47" y="256.94" width="31.18" height="45.92"/></clipPath><clipPath id="clip-path-40" transform="translate(0.02)"><rect class="cls-1" x="265.48" y="256.94" width="14.58" height="45.92"/></clipPath><clipPath id="clip-path-43" transform="translate(0.02)"><rect class="cls-1" x="383.46" y="256.94" width="31.43" height="45.92"/></clipPath><clipPath id="clip-path-46" transform="translate(0.02)"><rect class="cls-1" x="101.02" y="373.88" width="27.15" height="45.92"/></clipPath><clipPath id="clip-path-49" transform="translate(0.02)"><rect class="cls-1" x="138.17" y="373.88" width="23.63" height="45.92"/></clipPath><clipPath id="clip-path-52" transform="translate(0.02)"><rect class="cls-1" x="171.81" y="373.88" width="14.58" height="45.92"/></clipPath><clipPath id="clip-path-55" transform="translate(0.02)"><rect class="cls-1" x="247.62" y="373.88" width="31.43" height="45.92"/></clipPath><clipPath id="clip-path-58" transform="translate(0.02)"><rect class="cls-1" x="289.04" y="373.88" width="27.4" height="45.92"/></clipPath><clipPath id="clip-path-61" transform="translate(0.02)"><rect class="cls-1" x="326.45" y="373.88" width="31.18" height="45.92"/></clipPath><clipPath id="clip-path-64" transform="translate(0.02)"><rect class="cls-1" x="367.62" y="373.88" width="31.43" height="45.92"/></clipPath></defs><title>Asset 1</title><g id="Layer_2" data-name="Layer 2"><g id="Layer_1-2" data-name="Layer 1"><text class="cls-2" transform="translate(186.39 151.02)">Step 1: split</text><text class="cls-2" transform="translate(186.73 246.94)">Step 2: trim</text><text class="cls-2" transform="translate(182.73 342.86)">Step 3: group</text><g id="figure_1" data-name="figure 1"><g id="patch_1" data-name="patch 1"><path class="cls-3" d="M1,111h428V54.33H1Z" transform="translate(0.02)"/></g><g id="axes_1" data-name="axes 1"><g id="patch_2" data-name="patch 2"><path class="cls-3" d="M1,111h428V54.33H1Z" transform="translate(0.02)"/></g><g id="line2d_1" data-name="line2d 1"><g class="cls-4"><path class="cls-5" d="M1,91.53l1.24.38.31-.31.31.12.31-.09.31.14.31-.06.63.15,1.24-.16.93,0,.31-.13.31-.36.93.44.94.23.93-.13.31.42.62-.92.93.67.31-.27.31.14.31-.22.62.17.31-.07.32.09.31-.07.62.14.62-.09.31,0,.62-.44.31.21.31-.07.93.33.62-.35.32.07.62-.27,1.24.16.62-.25.62.14h.31l.31-.21.62.06.94.08.62-.14.31-.12,1.86.37.31-.19.31.16.62-.22.94.19.62-.19.31.17.62-.08.62,0,.62-.14.62,0,.62.21,1.56-.26.93.15.93.25.62-.18h.31l.31-.22.31.21.31-.28.31-.1.32.15.31.38.31-.44.31.44.93-.18.62.06.31.13.31.31.31-.25.31,0,.62-.07.63.54.93.13.62-.14.93-.32,1.24.2.62,0,.31-.26.94-.07,1.86.26.93-.68.62.36.62.09L55.69,91,56,91l.31-.33.62-1.23.31,0,.62.72.31.42.31.21.31-.09L60,91.4l.62,0,.31.09.31-.08.31,0,1.55-.69.31-.29.31.13.63-.18.93.22.62,0,.31.12,1.55-.12.62.06,1.25.13.62-.06,3.1,0,.31-.11,1.25.29.93,0,1.55.13.31-.08.31-.19.31.11.62-.18,1.56.29.62,0,1.24,0,1.55.22,2.8.2L88,91.15,89.86,91l.62,0h.62L93.89,91l.31.08.94-.06.62.1.62-.09h.93l4.66-.06,3.11,0,.93-.08.31.15.31-.15h.93l1.24-.12h1.25l.31.24.31-.16h1.24l.31.12,1.55-.11.31.16,1.25,0,.31-.1.93,0h.93l.62,0,.62-.13.31.12.31-.07.63.08h1.24l.62-.08,1.24.17.62-.1.94.08.31,0,.31.09.93-.09h1.55L129,91l1.25,0,.93.05.93.33.62.8.93,1.58.31,1,.31.36.31.62.32.23.31.09.31.25.62-1.4.62-.79.62.28.31.39.62.35.93.68.31,0,.94.33.31-.3.31-.07.31.33.93.11,1.24.3.93.34.94-.11.93-.69.31-.3.31-.07.31.47.31,0,.31.23.31-.67h.31l.31-.87.31.56.31,1.74.32,1,.31.34.31-1.12.31-1.78.31-.54.62-1.71.31-.09.31,0,.31,1.52.31.52.31-.35.62-2.37.62-.76.63.31.62-.46H156l.93-.61.62,0,1.55-.45,2.18.34.31-.15.62,0,2.48,0,1.25-.19.31.18.62-.06.62,0,.62,0,2.8-.1,1.86,0,.62,0,.31.06.93-.12.94,0,.62-.09.62.08.31-.08.31.15.62-.06,1.55-.06.32.12,3.72-.11.31.12,1.56-.08,1.24.06,1.24,0,1.55.07,3.11-.1.93.06h1.87l1.24.17.62,0L198,91l.31.29h.31l.62.56.31,1,.31.44.32,1.34.31.38.62,3.42.31,2.67.31,1.56.31.55.31-.19.31-.4.31-1.19.62-3.44.62-1,.31-.5.63,1.69h.31l.31.26L206,98l.31-.18.31-.62.62.48.31.41.62.24.31-.24.93-2.43.31-.35.63.63.31,1.33.31.58.31.84.93-2.73.31-1.36.31.43.62,2.23h.31l.62-2.57.31-1L216,92.33h.62l.31,0,.31-.27.31-.08.62-.64.93-.35.31.06.31.19.31,0,.32.16.62-.2.62,0,.62-.11.31.05.62.77,1.55-1.14.63-.21.62.35,2.48-.18.62.06.31-.12h.62l1.25-.11.93.2.62-.23.31,0,.31-.14.62.12.31-.11,2.18.13.31-.09.62.18.31-.06.31.09.93-.17,3.73,0,.31.14.31-.09.31,0,.62-.09.62.07.31-.12.63.05,3.72,0,.62-.06.94.26.62-.1h2.79l.62.13,2.49-.11,1.24.08,1.24-.08.94.07.31-.1.93.19,1.24,0,.62.13.31.12.31.35.31.71.94,1,.62,1.57.62,3.85.62,5.32.31,3.08.31,2,.31-1.08.31-2.09.31-5L269.7,98l.31-1.59.31,0,.32,2.26L271,99.7l.62.27.31-.38.31-.71.31-1.8.62-.28.62,2.14.31-.1.31-.65.31-1.53.31-.34.63-1,.62,1.43.62.27.31-.75.31-1.33.31-.49.31-.22.31.44L280,91.92l.63-.54.31,0,.31-.51.31-.18.31,0,.31-.17.31.1.93.59.62,0,.62-.09,1.56-.39.31.38.31.11.93-.34.31,0,.31-.17.62,0,.93,0h.63l.62.08,6.83-.05.62.15.93,0,.93,0L302,91l1.55-.1.93.06,5.28.07,1.56-.06.31.09.62,0h.93l9.32-.11h.62l.62.06.62-.08.93.07.63.06.31-.11,4,.14.94-.19.31.07.62-.06,1.55.16.31.08,1.24-.18.31.13.94-.14.31.35.31-.45.31.19,1.55-.06,1.55.14.94-.11.93,0,4.66-.06.31.09.93-.11.31.13h.62l.62,0,.31-.07.62.08,1.25-.12.31.12.93-.07,2.48.09,3.73,0h.93l.63,0,.93,0,.62-.12.93,0,2.49.19,1.55-.18,1.86.12.31,0,.93-.11.63.12.93-.14,1.24,0,.93.11h.93l.94,0L380,91l.31.06.31-.08.63,0,.93,0,3.72,0,.63.06.31-.12,1.55.14L389,91l1.24.06.31.16,1.56-.17.62.13.93-.2.93.11.93-.11h.63l.31,0,.62.15L398,91l.31,0,.31-.11.31.09.31,0,.31.07.31-.09.62.06h.63l.62.06L402,91l.62,0,1.24,0,1.24,0,.62-.07L407,91l1.55-.08.62,0h.62l1.56.12L412,91l1.24,0,1.24-.12.31.07.62-.08.94-.08,2.17.2,1.24-.14.31.13.62-.07.94.14.31-.16,1.55,0,.62.11.62,0,.93,0,.31-.11h.94l.93.06.31.08.93-.14h0" transform="translate(0.02)"/></g></g><g id="line2d_2" data-name="line2d 2"><g class="cls-4"><path class="cls-6" d="M1,100.88l.31-.21.62.48.31-.2.31.15.31-.64.62.15.63-.29.62.21.62-.41.31,0,.62.38.31-.12.31.18,1.24-.06.62.1.32,0,.31.2.62.06.31,0,.62-.21.93.19.62,0h.31l.62-.21,2.49.18.31-.27.31,0,.62.32.31.06.62-.22.31-.33.31-.13.63.64H20l.31-.47.31.49.31.23.31-.5.62,1,.31.08.93-1.33.31.11.62.66.32-.09,1.24-1,.93.53.31.23.31,0,.62.46.62.15.62-.37.63-.58,1.24.17.31-.13.31-.32.62-.14.31,0,.62.45.31.24.31.06.31-.21.63-.78.31-.13,1.24.64.31.06.62-.33.31-.3.31-.12.31.18.62-.53.31.19.94,1.26.62-.29.62-.89.31-.1.31.13.93,1.43.62-1.33.31-.16.31.3.63.88.31.22.31-.06.62-.58.93-1.73.31.09.62,1.5.31.93.31.51.31-.17.62-1.35.32-.34L51,100l.31.32.31,0,.62-1.54.31-.31.31.2.62.61.31.25.31.46.32-.08.62-1,.31-.13.31.26.62.83.31-.12.62-2.53.31-.3.93,2.95.31,0,.31-.27.32-.07,1.86.36.62-.25.62-.75.62-1.09.31-.14.31.09,1.56,1,1.55.11.93-1,.31-.11.93.12.94-.2.31.13.62.58.31.21.31,0,.31-.2.93-1,.62-.2H75l.62-.19,1.86.27.93-.57.93-.14.94.31.93,0,.93-.51.31,0,.93.38,2.49.09.62.45.31.15.62-.26.93.08.93-.75,2.8.19.31.1.62-.25.31-.12.93.34.94-.06.93.34,1.55-.23.62-.12.62.19,1.56.48.62.08,1.55-.28.62.17,2.49-.1.31.21.62-.08.62-.45h.31l.62.33.31.06.93-.12.32.08.31.28.31,0,.93-.64.31-.1.93.56.93-.27.62.16.94-.07.62.11.62,0h.31l.31.25.62.11.62-.23.93-.18.94.11.93-.16.62,0,1.24,0,.93-.25.94.41.62.33.31.1.62-.13.62-.49.31,0,2.17.51.63-.3.31-.16,1.86,1,.93,1.71.62,1.23.31.16.31-.76,1.25-4.49.62-2.35.31-.4.62,1.25.31.59.31.06.31-.28.93.68.31.06.94-.43h.31l.31-.21.31.15L142,96.5l.62-.11.62-.2.93.14.63,0,.62-.31.93-1.18.31-.11.31.47.31,1,.31.3.31-.83.62-2.06.31-1,.31.8.63,3.88.31.34.62-1.8.31-.37.31,0,.31.3.31-.44.31-.07.62,4.75.31-.39.62-4.33.31-.5.31.64.63,2.09.31.58.31.08.31-.26.62-1.1.31-.27h.93l1.86.28.32-.11.93.86,1.55-.45.31-.17.62.33,1.24-.22.63.19.93-.26.31.12.93-.34.31-.15,1.24.27.31.27.63.1.62-.49.31-.16.93.39.62-.12.93-.24.62.06.62-.23.32.08.31.24.93.15.93.1.93-.33.31,0,.62-.11.31,0,.94.51.93-.7.31,0,.62.37.62-.1.93-.22.31.07.62.29,1.25,0,.62.19.62-.22.93-.22h.31l1.24.32,1.56-.3,1.86.18.31.14,2.18-.24.31-.06.31.08.31.28.31.11.62-.09.31.13.93,1,.31.37.31.6.31,1.39.63,3.58.31-.09.62-2.5.31.19.31-1.8.93-8.75.31-1.37.31.24.31,1.67.31,1.06.31-.27.62-1.43.63-.39L206,92l.62.56.31.59.62,2.32.31.64.31.32.31-.17,1.24-3.64.32.73.62,3.64.31.75.31-.9,1.24-6.46.31.71.62,6.69.31,1.13.62-2,.31-.67.63.14.62.23.31.28h.62l.31-.31.93-1.65.93,0,.31.63.62,1.57.32-.14.62-1.11,1.24-.58h.31l.31.35.31,1.47.31.86.31-.5.31-.76.31-.25,1.25-.33.62.63.31-.13.93-.72.62-.12,1.24.94h.31l.63-.36.93-.12.31.21.31.42.31.22.31-.21.31-.45.31-.24.31,0,.62.45.31-.08.31-.24h1.56l.62-.21.31.2h.62l1.24-.06,1.56,0,.62.11.93-.18.62.17.31.14h.31l1.86-.48.32-.09,2.17.37.93-.15.93-.38.62.1.94.27.93-.14.31.09.62,0,.31,0,.62-.2.62-.06.94.26H256l.93-.08.31.12.31,0,.62.18h.31l1.24-.45.94.1.62.18.31.1,1.24-.16,1.55.85.31.42.63,1.69.31.82.62,3.19.31-1.49.31-.78.31.61.31,1.31.31,1.8.31-.35.31-3.2.93-16.22.31,1.34.62,4,.32.57.62-3.1.31-.15.31,1.49.31.78.31.29.62,3.28.62,3.63.31.34.31-1.15.31-1.79.31-.74.31-.17.32,1,.62,3.78.31-.1.62-2.27.31-.52.31,0,.31.89.31,2.18.31,1.27.31-.58.62-3,.31-.21.31.4.32.67.31.37.62,0,.93-1.36.31,0,.31.55.31.31h.93l.62-.07.63-.56.31-.57.31-.1.93,2.31.93-.51.62-.9.62-.22.31,0,.62-.3.32.27.62.85.31-.06.31-.26.31-.11.31.16.31,0,.62-.26.62.13.31.06.93-.32.63.47h.31l.93-.32.62-.45.31,0,.62.4.62-.1.62-.25.62-.11.32.1.31.35.31.17,1.24.17,1.55-.75.93.12.63-.09,1.55.4.31.13.62-.09.31,0,.62-.3h.62l.94.44.31.07,1.24-.59h.31l.62.19.62,0,.62.1.62-.24.31.1.32.25.62,0,.62-.15.62.07.62-.22.62-.06.62.42.31.19H320l.63-.65L321,96l.62.36.31.06.93-.29.93.45.62-.45.31-.1.93.58.32-.11.31-.42.31-.19.31.08.62.45.62-.14.62.29.62-.22.31-.11,1.25.19.62-.15.31-.18.62,0,.62.21.62.39.31,0,.62-.39.31-.19,1.25-.09h.31l.31-.17.31.13.31.28.62.2.31,0,1.24-.27.62.14,1.87-.1.62,0,1.86-.14.62,0,.63,0,.93-.19.62.32.62-.14.62-.15.93.38.62-.36,1.87.13.31.18,1.55-.2.62.17,1.87-.25.93.13.31-.18.31,0,.62.16,1.24-.06.62.1.31-.14,1.56.07.62-.12,1.55.32,1.24-.14,1.25-.35.93.23.62.36.62,0h.31l.62-.46.62-.08.63.4.93-.51,1.86.59,1.24-.34.63,0,.62,0,.31.06.62,0,1.86,0,.31-.13,5.9.21,1.25.07.62-.37.31,0,.31.31.31.14.31,0,.93-.42.31,0,.31.43.31.18.94-.76.31.12.62.54.31.13.62-.47.31-.3.62.17.62.23.31.13,1.56,0,.31,0,1.24-.49.62,0,1.24.53.94-.08.62-.22.93.24.31-.14,2.48-.15.31-.12.94.38.31-.12,1.55-.06.62,0,.93.12.93-.06,1.87.12.93-.34.93.3.62,0,.31.15.63-.23h.62l.31-.07.62.34.62-.32.62-.16.62.15.62,0,.62.15.32.24.31.09.31-.07.62-.36,1.24-.06.31-.15.62.13.31.2h.62l.31.26h.32l.62-.4.31,0,1.24.3.62-.19h0" transform="translate(0.02)"/></g></g><g id="line2d_3" data-name="line2d 3"><g class="cls-4"><path class="cls-7" d="M1,92.27l.62-.34.31.2.62-.32.31.1,1.56-.14.62.38.62.1.31.1.62-.43.31.19.31-.1.31.28.62-.11L8.78,92l.32.11.31,0,.31.09.62.42.31-.46.62.14.31.35.31-.26.31.42.31-.49.31.15.62-.28.63.16.62.16.93-.24.62.3.93-.2.31.16.31,0,.31-.16.31-.65.31-.38.63,1,.31.33.31.13.31.58.31-.25.31-1,.31-1.51.31-.68.31.26.93,2.36.62.84.31.19.63.07,1.24.55.62.19.31.16.62,0,1.86-1,.63-.21,1.24-1.33.62,0,1.24.48.31,0,.62.4.31,0,.63-.46.62-.62.31,0,.31.36.62,1.34.31.34.31-.18.31-.4.93-1.67.31-.18,1.25.35.62,1.13.31.34h.31l.31-.2L42.33,92l.31-.19.31.08.62.63.63.44.31.44.31.22.31,0,.93-1.14.93-.11,1.55.14.94.49.31,0,.62-.77.62-.85.31.22.31.43L52.27,93l.31-.21L53.2,92l.31-.25.31-.08.31.16.32.57L55.07,94l.31-.05.93-1.42.31,0,.62,1.06.31.23.31-.43.62-1.56.31-.35.31.17,1.56,3L61,95l.31.11.93-.17.31-.39.93-1.72.62-.38.32.32.62.94.31.24h.31l.93.47.62.63.31.1L67.8,95l.62-.69.31-.41.31-.19h.32l1.24.49.62-.23.31-.27.31-.07.31.07.31.24.31.07.62-.2.62-.29.32-.1.31,0,.62.41,1.24.32.31,0,.62-.31.62-.2.62-.62.62-.26.94.31.31,0,.62-.24.31.2.62.67.31.14.62-.35.31-.26.31,0,.62.42.63.58.31.19.62-.21.31-.27.31-.12.93,0,.93-.74,1.87.54.31,0,.31-.24L92,93.11l.93.31.62.15.62-.09,2.18.23.31-.06.62-.27.93.79.31.08,1.25-.38,2.17.31.93.11,1.55-.32h1.25l.31-.25.31-.06.93.38h.31l.62-.42h.62l.62.17h.32l.93-.27.62.16.31.15.62-.25.31-.21.31.05.93.81.31,0L115,94l.62-.15.93.08.93-.14.62.19.62-.2.62-.33.63.09.31.25.93.14.62-.17.62-.36.31.07.93.59.62.07.63-.2.31-.22.62,0,.62-.29.31.06.62.44.31.06.31-.07L129,94l.63-.17.62-.42h.31l.62.69.31.52.31.29.93,2.06.62,1.64.62.2.62-2.13L134.9,95l1.24-10.11.31-2.13.31-1.2.31.13.31,1.07L138.62,92l.31.8.31-.08.63-1.64.31-.87L140.8,89l.62-1.21.31.18.93,1.48.62-.05.62.68.62.59.32-.09.31-.37.31-.62.62-1.88.93-4.16.31-.41.31.34.31,1,.31.25.31-.46.62-4,.31.21.32,2.89.93,14.21.31,1.55.31-.91L152,92l.31-1.21.31,1,.93,8.11.31.86.31-.71.63-3.38.31-1.14.31-.49.31-.07.62.62.31-.06.93-2.12.31-.19.31.1.31.3.31,0,.62-.15,1.25,1.34L161,95l.31,0,.62-1.2.31-.28,1.24.4,1.24,1.19.32-.16.93-1.1.31,0,.62.63.93.1.62-.16.62-.58.31-.45.31-.14.63.49.62.73.31.09.93-.26,1.55-.79,2.49.69,1.24-.33h.31l.31.13.62-.1.93.22.63-.32.31,0,.62.51.31.07.62-.5.62.15.62.31.62-.1.93-.1,1.56.18.62-.31.62.11.62.18h.31l.62-.49.94.18.62,0,1.55-.48.62.22.31.21,1.55.26.94-.71.31,0,.93.87.31.2.62.19.93,1.09.31.62.31,1.33.31,2,.63,5.63.31,1.91.31-.36.62-6.05,2.17-30.23.31-2.69.31.63.31,4.2.63,12.23.31,3.75.31,1,.31-1.22L207,85.1l.31.33.31,1.57.62,4.64.31,1.29.31-.9.31-2.65.62-7.87.32-1.53.31.16.62,3.25.93,9.9.31,1.72.31-.4.31-1.62.31-1,.31,1.42.93,9.27.31.06.31-.89.63-3.48.62-3,.31-.76.31-.18.31.23.31.07.31-.58.93-3.18.31,0,.62,2.14.31,1.08.32.43.31,0,.31-.42.31-.21.62-.14.62-.53.31.36.31.8.31.36h.31l.62-1.35.31-.2.31.1.63.65.31.37.31.19.31-.2.93-1.11h.31l.62,1,.31.62.31.23.62-.43.63.24.31.11.31,0,.62-.54.31-.12.31.11.62.62.31.2h.31l.62-.7.31.08.94.87h.31l.31-.21.31-.37.31-.09.62.28.31.23.62,0,.93-.64.31-.2.31,0,1.25.52.31-.16,1.24.11.62,0,.93-.3.31-.18h.31l.94.48.62.07,1.24-.24.31-.1.31,0,.31.16.31-.14.93-.8.31.17.63.54.62.18.62-.12,1.24-.63.31,0,.31.12.93.89.62,0,.94-.7.31,0,.62.26.93.34.31-.13.62-.4,1.24.1h.63l.62.12.31-.1,1.55.37.62-.3.31.12.31.38.62,2.41.32,1.49.31.34.31.81.62,3.35.62,5.33.31,1.13.31-1.47.31-4.73,1.55-36.1.62-11.91.32,1.36.31,7.54.62,19.67.31,5.57.31,1.7.31-2.32.62-6.88.31-.51.31,2.59.62,7.32.31,1,.31-1,.63-4.6.31-.06.31,2.33.93,11.4.31,1.74.31.08.31-1.33.31-2,.31-1.21.93-1.86.94-1,.31-.89.62-2.29.31-.36.31.73.62,2.69.31.82.31.32.31-.28.31-.61.62-1.76.31-.65.31-.35.32,0,.31.36.31.57.62,1.75.31.46.31,0,.93-1.73.62-.28.93.59h.31l.32-.15,1.24.18.62.35.31-.07.62-.43.62-.14.62.09.62.47.31,0,.94-.82.31.24.62.92.31.08.31-.18.93-1.07.31.14.62.53.31.14.31,0,1.87-.6.62,0,.31.07,1.24-.42h.31l.62-.22.63.08.93.44h1.24l.62.28.62-.14,1.56-.25.62.28.62.19.93-.51,1.24-.07.93.63.63-.22.31-.19.93,0,.31-.06.62.32.62.29.62-.12L320,94l.31-.13,1.25.19.31-.1.62.15.93-.27.31-.09,1.24.48.31-.12.31-.27.63-.12.93.33.93.16h.31L329,94l.31.06.31.25.31,0,1.25-.64.62.27.31.18,1.86-.26,1.24.6.31,0,.94-.4.31-.05.31.07.31-.54.31.14.31-.11.31.15h.31l.62.41.93.06.63-.11,3.72,0,.31.12,2.18-.34.62.09.31.19h.93l1.55,0,.63-.16.31,0,.31.08L352,94l.62-.35.31,0,.31.22.31.37.31.15.62-.21.31-.14.62.08.94.17,1.55-.28.62.17.93-.06.31.1,2.8-.21,1.55.25.62.18.62-.25,1.87,0,.31,0,.31.08.31-.09.93,0,1.24,0,.31.07.32-.5h.31l.31-.2.31.19.62.17.31.09.93-.09,1.24.36.94-.17.62-.17.62.08.31.27.31.06.93-.28.31-.13.62,0,.62,0,.31,0,.63.24.62-.12.93-.28,1.55.36,1.24,0,.94-.19.31-.18.62.35.31.21.62-.22.31-.23.31,0,.93.43.93-.5.32.09.62.4.62.09.93-.58.31,0,.93.46,1.24-.3.63.19,1.55-.27.62.23.62,0,1.55-.41,1.25.51.93-.4,1.24.24.62.09.62-.1.62,0,.32.05.93-.32h.62l.93.4.93-.34,1.56.37,1.86-.24.93.16.93-.29.31.09,1.25-.28,1.24.39.31,0,.93.19.62,0,.31-.12,1.87.08h.62l.93-.52.62.3.31.35.62.06,1.25-.59.93.51.31,0,.93-.26.62.14h0" transform="translate(0.02)"/></g></g><g id="patch_3" data-name="patch 3"><path class="cls-8" d="M1,111V54.33" transform="translate(0.02)"/></g><g id="patch_4" data-name="patch 4"><path class="cls-8" d="M429.05,111V54.33" transform="translate(0.02)"/></g><g id="patch_5" data-name="patch 5"><path class="cls-8" d="M1,111h428" transform="translate(0.02)"/></g><g id="patch_6" data-name="patch 6"><path class="cls-8" d="M1,54.33h428" transform="translate(0.02)"/></g></g></g><g id="figure_1-2" data-name="figure 1"><g id="patch_1-2" data-name="patch 1"><path class="cls-3" d="M12.52,206.94H115.6V161H12.52Z" transform="translate(0.02)"/></g><g id="axes_1-2" data-name="axes 1"><g id="patch_2-2" data-name="patch 2"><path class="cls-3" d="M12.52,206.94H115.6V161H12.52Z" transform="translate(0.02)"/></g><g id="line2d_1-2" data-name="line2d 1"><g class="cls-9"><path class="cls-5" d="M12.52,191.15l1,.31.25-.25.25.1.25-.07.26.11.25,0,.5.12,1-.13h.76l.25-.11.25-.29.76.36.75.18.76-.1.25.34.5-.75.76.55.25-.22.25.11.26-.18.5.14.25-.06.25.07.26,0,.5.11.5-.07.26,0,.5-.36.25.17.25-.06.76.27.5-.28.26.05.5-.22,1,.13.5-.2.51.11h.25l.25-.17.51,0,.75.07.51-.12.25-.09,1.51.3.25-.16.25.13.51-.18.75.16.51-.16.25.14.5-.06.51,0,.5-.11.51,0,.5.17,1.26-.21.76.12.75.2.51-.14h.25l.25-.18.25.17.26-.23.25-.08.25.12.25.31.25-.36.26.36.75-.15.51,0,.25.11.25.25.25-.2.25,0,.51-.06.5.44.76.1.5-.11.76-.26,1,.16h.5l.25-.21.76-.06,1.51.21.76-.55.5.29.5.07,1.52-.31.25,0,.25-.27.51-1,.25,0,.5.57.25.35.26.17.25-.08,1,.58.5,0,.25.08.25-.07.26,0,1.26-.56.25-.23.25.1.5-.15.76.18.5,0,.26.1,1.26-.1.5.06,1,.1.5-.05,2.52,0,.25-.09,1,.23.76,0,1.26.1.25-.06.25-.15.26.08.5-.14,1.26.23h1.51l1.26.18,2.27.16,1-.18,1.51-.09.5,0h.51l2.27-.12.25.07.76,0,.5.08.5-.07h.76l3.78-.05H97l.76-.06.25.12.25-.12H99l1-.1h1l.25.2.26-.13h1l.26.1,1.26-.09.25.13,1,0,.25-.08.76,0H107l.51,0,.5-.1.25.09.25,0,.51.06h1l.5-.06,1,.13.5-.08.76.07.25,0,.25.07.76-.07h1.26l.25,0h0" transform="translate(0.02)"/></g></g><g id="line2d_2-2" data-name="line2d 2"><g class="cls-9"><path class="cls-6" d="M12.52,198.73l.25-.18.51.39.25-.16.25.13.25-.53.51.13.5-.24.5.17.51-.33.25,0,.5.31.26-.1.25.14,1,0,.5.08.25,0,.25.17.51,0,.25,0,.5-.17.76.16.5,0h.26l.5-.17,2,.15.25-.21.25,0,.5.25.26.06.5-.19.25-.26.25-.1.51.51h.5l.26-.38.25.4.25.19.25-.41.51.79.25.07.75-1.08.26.09.5.54.25-.08,1-.79.76.44.25.18.25,0,.5.37.51.12.5-.3.51-.47,1,.14.26-.1.25-.26.5-.12.25,0,.51.37.25.18.25,0,.25-.17.51-.62.25-.11,1,.52.25,0,.5-.26.26-.25.25-.09.25.14.51-.42.25.15.75,1,.51-.23.5-.73.25-.08.26.11.75,1.16.51-1.08.25-.13.25.25.5.7.26.19.25-.06.5-.46.76-1.4.25.07.5,1.21.26.75.25.42.25-.14.5-1.09.26-.28,1.26.22.25.26.25,0,.5-1.24.26-.26.25.17.5.49.25.21.26.37.25-.07.5-.85.25-.1.26.21.5.67.25-.1.51-2.05.25-.24.76,2.39.25,0,.25-.22.25-.06,1.51.3.51-.21.5-.61.51-.87.25-.12.25.07,1.26.79L66,197l.76-.86L67,196l.75.1.76-.16.25.11.51.46.25.17h.25l.25-.16.76-.78.5-.17H72.5l.51-.15,1.51.21.76-.46.75-.11.76.25.75,0,.76-.41.25,0,.76.3,2,.08.51.36.25.13.5-.22.76.07.76-.61,2.26.15.26.09.5-.21.25-.1.76.28.76-.05.75.28,1.26-.19.51-.1.5.16,1.26.38.5.07,1.26-.23.51.14,2-.08.26.17.5-.06.5-.37H99l.5.27.25.05.76-.1.25.07.25.22h.25l.76-.52.25-.08.76.45.75-.22.51.13.76-.05.5.09.5,0h.26l.25.21.5.08.51-.18.75-.15.76.09.75-.13.51,0,1,0,.75-.2.76.33.5.27.25.07.51-.1.5-.4.25,0,.76.23h0" transform="translate(0.02)"/></g></g><g id="line2d_3-2" data-name="line2d 3"><g class="cls-9"><path class="cls-7" d="M12.52,191.76l.5-.28.26.16.5-.26.25.08,1.26-.11.51.31.5.08.25.08.51-.35.25.15.25-.08.25.23.51-.09.5-.19.25.09.25,0,.26.07.5.34.25-.37.51.11.25.29.25-.22.25.35.25-.4.26.13.5-.24.5.13.51.13.75-.19.51.25.75-.16.26.13h.25l.25-.13.25-.52.25-.31.51.77.25.27.25.1.26.48.25-.21.25-.8.25-1.23.25-.55.26.21.75,1.92.51.67.25.15.5.06,1,.45.5.15.26.13.5,0,1.51-.78.51-.17,1-1.08.51,0,1,.4.25,0,.5.32.25,0,.51-.37.5-.51.25,0,.26.29.5,1.08.25.28.25-.15.26-.33.75-1.35.26-.14,1,.28.51.92.25.27H45l.25-.16.76-.92.25-.15.25.07.51.5.5.36.25.36.26.18.25,0,.75-.92.76-.1,1.26.12.76.39.25,0,.5-.63.51-.68.25.18.25.34.5.87.26-.16.5-.69.25-.2.25-.06.26.13.25.46.5,1.34.25,0,.76-1.15h.25l.51.86.25.19.25-.35.51-1.26.25-.29.25.14,1.26,2.39.25.25.25.09.76-.13.25-.33.76-1.38.5-.31.25.25.51.77.25.19h.25l.76.38.5.51.25.08.26-.1.5-.56.25-.33.25-.16H68l1,.4.51-.19.25-.22.25-.05.25.05.26.2.25.06.5-.17.51-.23.25-.08.25,0,.5.33,1,.26.26,0,.5-.25.5-.17.51-.49.5-.22.76.26.25,0,.5-.19.26.16.5.54.25.11.51-.28.25-.21.25,0,.5.34.51.47.25.16.5-.17.26-.22.25-.1.75,0,.76-.6,1.51.44.25,0,.26-.19,1-.17.76.24.5.13.51-.08,1.76.19.26,0,.5-.22.76.64.25.07,1-.31,1.76.25.76.09,1.26-.26h1l.26-.2.25,0,.75.31H99l.5-.34h.5l.51.14h.25l.76-.22.5.13.25.12.51-.2.25-.17.25,0,.76.66.25,0,.76-.21.5-.12.76.06L107,193l.51.15.5-.16.5-.27.51.08.25.2.76.11.5-.14.5-.29.26.06.75.48.51.05.5-.16.25-.18.51,0,.5-.24.25.05.51.36.25,0,.25-.06h0" transform="translate(0.02)"/></g></g><g id="patch_3-2" data-name="patch 3"><path class="cls-8" d="M12.52,206.94V161" transform="translate(0.02)"/></g><g id="patch_4-2" data-name="patch 4"><path class="cls-8" d="M115.6,206.94V161" transform="translate(0.02)"/></g><g id="patch_5-2" data-name="patch 5"><path class="cls-8" d="M12.52,206.94H115.6" transform="translate(0.02)"/></g><g id="patch_6-2" data-name="patch 6"><path class="cls-8" d="M12.52,161H115.6" transform="translate(0.02)"/></g></g></g><g id="figure_1-3" data-name="figure 1"><g id="patch_1-3" data-name="patch 1"><path class="cls-3" d="M131.15,206.94H158.3V161H131.15Z" transform="translate(0.02)"/></g><g id="axes_1-3" data-name="axes 1"><g id="patch_2-3" data-name="patch 2"><path class="cls-3" d="M131.15,206.94H158.3V161H131.15Z" transform="translate(0.02)"/></g><g id="line2d_1-3" data-name="line2d 1"><g class="cls-10"><path class="cls-5" d="M131.15,190.74h.25l.26,0,.25,0,.26.06.25-.05.25,0h.26l.25,0h.25l.26.09.25.07.26.11.25.27.25.38.26.37.25.3.25.61.26.77.25.29.26.51.25.18.25.08.26.2.25-.68.25-.46.26-.28.25-.35.26.11.25.11.25.32.26.11.25.18.25.17.26.17.25.2.26,0,.25.12.25.07.26.08.25-.25.26-.05.25.26.25.06.26.07.25,0,.25,0,.26.07.25.1.26,0,.25.09.25.13.26,0h.5l.26-.08.25-.15.26-.19.25-.22.25-.24.26-.05.25.37.25,0,.26.19.25-.55h.26l.25-.71.25.46.26,1.4.25.81.25.28.26-.91.25-1.44.26-.43.25-.78.25-.61.26-.08.25,0,.25,1.23.26.43.25-.29.26-1.1L152,192l.25-.36.26-.25.25.13.25.11.26-.17.25-.2h.26l.25-.17.25-.16.26-.17.25,0,.25,0,.26-.09.25-.11.26-.14.25,0h.25l.26,0,.25,0,.25,0,.26.13.25.07.26,0,.25.08.25-.13" transform="translate(0.02)"/></g></g><g id="line2d_2-3" data-name="line2d 2"><g class="cls-10"><path class="cls-6" d="M131.15,195.79l.25.15h.26l.25,0,.26-.08.25-.16.25-.13.26.15.25.08.25.21.26.17.25.11.26.08.25.41.25.49.26.48.25.56.25.44.26.13.25-.61.26-.86.25-1.1.25-.87.26-.82.25-1.14.25-.76.26-.33.25.6.26.42.25.48.25,0,.26-.23.25.2.25.25.26.1.25,0,.26-.13.25-.13.25-.09h.26l.25-.17.26.12.25.4.25.54.26.34h.25l.25-.08.26-.06.25-.1.26,0,.25.11.25-.05.26,0h.25l.25-.1.26-.15.25-.32.26-.29.25-.35.25-.09.26.39.25.8.25.25.26-.68.25-1,.26-.66.25-.8.25.65.26,1.85.25,1.29.25.28.26-.76.25-.7.26-.3.25,0,.25.24.26-.35.25-.06.25,2,.26,1.88.25-.31.26-1.88.25-1.63.25-.4.26.51.25.86.25.84.26.47.25.07.26-.21.25-.45.25-.45.26-.22.25,0,.25,0h.26l.25,0h.26l.25,0,.25.05.26.12h.25l.25-.09.26.27.25.39.26,0,.25-.06.25-.08" transform="translate(0.02)"/></g></g><g id="line2d_3-3" data-name="line2d 3"><g class="cls-10"><path class="cls-7" d="M131.15,193.1l.25,0,.26.06.25,0,.26-.09.25-.22.25-.12h.26l.25.27.25.29.26.42.25.24.26.55.25.57.25.55.26.79.25.53.25.12.26,0,.25-.75.26-1,.25-1.33.25-2.2.26-1.62.25-2.23.25-2.14.26-1.73.25-1,.26.12.25.86.25,2,.26,2.22.25,2,.25,1.21.26.66.25-.07.26-.58.25-.75.25-.7.26-.41.25-.58.26-.59.25-.39.25.14.26.46.25.5.25.24.26,0,.25,0,.26.22.25.33.25.28.26.2.25-.07.25-.3.26-.5.25-.74.26-.79.25-1.12.25-1.29.26-.95.25-.34.25.28.26.77.25.2.26-.37.25-1.73.25-1.5.26.16.25,2.35.25,4.28.26,4.59.25,2.63.26,1.26.25-.74.25-2.56.26-2.44.25-1,.25.85.26,2.07.25,2.61.26,1.89.25.7.25-.58.26-1.41.25-1.33.25-.93.26-.39.25-.05.26.26.25.24.25-.06.26-.57.25-.65.25-.49.26-.15.25.08.26.24.25,0,.25-.1.26,0,.25.28.25.26.26.27.25.28.26.11.25,0,.25-.47" transform="translate(0.02)"/></g></g><g id="patch_3-3" data-name="patch 3"><path class="cls-8" d="M131.15,206.94V161" transform="translate(0.02)"/></g><g id="patch_4-3" data-name="patch 4"><path class="cls-8" d="M158.3,206.94V161" transform="translate(0.02)"/></g><g id="patch_5-3" data-name="patch 5"><path class="cls-8" d="M131.15,206.94H158.3" transform="translate(0.02)"/></g><g id="patch_6-3" data-name="patch 6"><path class="cls-8" d="M131.15,161H158.3" transform="translate(0.02)"/></g></g></g><g id="figure_1-4" data-name="figure 1"><g id="patch_1-4" data-name="patch 1"><path class="cls-3" d="M165,206.94h27.4V161H165Z" transform="translate(0.02)"/></g><g id="axes_1-4" data-name="axes 1"><g id="patch_2-4" data-name="patch 2"><path class="cls-3" d="M165,206.94h27.4V161H165Z" transform="translate(0.02)"/></g><g id="line2d_1-4" data-name="line2d 1"><g class="cls-11"><path class="cls-5" d="M165,190.6l.25,0h.25l.26-.09.25.08.26.08.25,0,.25,0,.26,0,.25,0,.25,0h.51l.26-.14.25.15.25-.05h.26l.25.06.25,0,.26,0,.25.06.25,0,.26-.07h.25l.26,0,.25,0,.25.07.26-.1h.25l.25.05h.26l.25,0,.26.05.25,0,.25-.06.26-.05.25,0,.25.05.26.05.25-.05h.26l.25,0,.25,0,.26,0h.25l.25-.06.26,0,.25.06h.26l.25-.06.25.12.26-.05h.25l.25,0,.26,0,.25-.05.26,0h.25l.25.1H180l.25,0,.25,0,.26-.1.25.05h.26l.25,0H182l.25.08.25-.06.26,0,.25.1.26,0,.25,0,.25,0h.26l.25-.06.25,0h.26l.25,0,.26,0,.25,0h.25l.26,0,.25,0,.25,0h.77l.25,0,.25,0,.26,0,.25.07.25-.09.26,0,.25,0h1l.25,0h.25l.26,0h.25l.26,0,.25,0,.25,0,.26,0h.25" transform="translate(0.02)"/></g></g><g id="line2d_2-4" data-name="line2d 2"><g class="cls-11"><path class="cls-6" d="M165,195.85h.25l.25-.17.26-.14.25.18.26.09.25-.07.25-.07.26-.07.25,0,.25.06.26.09.25-.08.26-.09.25,0,.25.1.26-.07.25-.11.25-.1.26-.12.25.05.25.05h.26l.25.12.26.22.25.07h.25l.26-.24.25-.16.25-.13.26.14.25.12.26.06.25,0,.25-.08.26-.06.25-.12h.25l.26,0h.25l.26-.09.25-.1.25.06.26.2.25.06.25.06h.26l.25,0,.26,0,.25.08.25-.11.26-.11.25,0,.25,0,.26-.08H179l.26,0,.25.13.25.13.26.15.25-.16.25-.22.26-.18.25,0,.26.2.25.1h.25l.26-.07.25-.06.25-.1.26,0,.25.06.26.15.25.08.25,0,.26-.06.25,0,.25,0,.26.06.25.09.26-.14.25,0,.25-.08.26-.05.25,0h.25l.26.08.25.13h.26l.25.05.25-.07.26-.06.25-.05.25-.07h.77l.25,0,.25-.07.26,0,.25.14.25.11h.51l.26-.07.25,0,.25,0,.26-.08h.25" transform="translate(0.02)"/></g></g><g id="line2d_3-4" data-name="line2d 3"><g class="cls-11"><path class="cls-7" d="M165,193l.25-.23.25.08.26.09.25.06.26.09.25.27.25.33.26.27.25.09.25-.12.26-.29.25-.38.26-.22.25,0,.25.27.26.24.25.06.25.05.26,0,.25-.06.25-.07.26-.18.25-.29.26-.37.25-.11.25.18.26.22.25.32.25.27.26.08.25-.06.26-.13.25,0,.25-.14.26-.12.25-.15.25-.1.26-.13.25.08.26.11.25.07.25.07.26.09.25,0,.25.1.26,0,.25-.07.26-.09.25-.1H178l.25.11.25-.08h.26l.25.06.26.12h.25l.25-.12L180,193l.25,0,.25.2.26.21.25.06.26-.2.25-.21.25,0,.26.09.25.17.25.09.26-.09H183l.26,0,.25,0,.25,0,.26,0,.25.08.25.06.26,0,.25-.07.26-.14.25-.11.25,0,.26.07.25.09.25.05h.26l.25-.2.26-.2.25,0,.25.08.26,0,.25.05.25,0,.26-.07.25-.08.26-.09.25-.11.25,0,.26.06.25.12.25.17.26,0,.25.07.26,0,.25,0,.25,0,.26-.18.25-.27" transform="translate(0.02)"/></g></g><g id="patch_3-4" data-name="patch 3"><path class="cls-8" d="M165,206.94V161" transform="translate(0.02)"/></g><g id="patch_4-4" data-name="patch 4"><path class="cls-8" d="M192.42,206.94V161" transform="translate(0.02)"/></g><g id="patch_5-4" data-name="patch 5"><path class="cls-8" d="M165,206.94h27.4" transform="translate(0.02)"/></g><g id="patch_6-4" data-name="patch 6"><path class="cls-8" d="M165,161h27.4" transform="translate(0.02)"/></g></g></g><g id="figure_1-5" data-name="figure 1"><g id="patch_1-5" data-name="patch 1"><path class="cls-3" d="M198.8,206.94h23.64V161H198.8Z" transform="translate(0.02)"/></g><g id="axes_1-5" data-name="axes 1"><g id="patch_2-5" data-name="patch 2"><path class="cls-3" d="M198.8,206.94h23.64V161H198.8Z" transform="translate(0.02)"/></g><g id="line2d_1-5" data-name="line2d 1"><g class="cls-12"><path class="cls-5" d="M198.8,190.61h.26l.25,0,.26.05.25,0,.25,0h.26l.25.09.26.23h.25l.25.26.26.2.25.78.26.36.25,1.09.26.3.25,1.34.25,1.43.26,2.17.25,1.26.26.45.25-.16.25-.33.26-1,.25-1.37.26-1.41.25-.47.25-.31.26-.4.25.81.26.56h.25l.26.22.25-.42.25-.14.26-.5.25.18.26.2.25.34.25.14.26,0,.25-.2.26-.69.25-.62.25-.65.26-.29.25.25.26.26.25,1.09.26.46.25.68.25-.74.26-.58.25-.89.26-1.1.25.35.25,1,.26.76h.25l.26-1.13.25-1,.25-.8.26-.28.25-.2.26-.29.25-.34.26,0,.25,0,.25,0,.26-.21.25-.07.26-.27.25-.24.25-.12.26-.1.25-.07.26.05.25.16h.26l.25.13.25-.12.26,0,.25,0h.26l.25-.07.25,0,.26,0,.25.29.26.34.25-.2.25-.22.26-.27.25-.12.26-.12" transform="translate(0.02)"/></g></g><g id="line2d_2-5" data-name="line2d 2"><g class="cls-12"><path class="cls-6" d="M198.8,195.27l.26.06.25.23.26.09.25-.05.25,0,.26.1.25.24.26.32.25.24.25.3.26.48.25,1.13.26,1.72.25,1.18.26-.07.25-1,.25-1,.26.15.25-1.45.26-2.42.25-2.57.25-2.1.26-1.12.25.2.26,1.36.25.85.25-.22.26-.56.25-.59.26-.16.25-.16.26.54.25.6.25.22.26.24.25.48.26,1,.25.92.25.52.26.26.25-.14.26-.76.25-.65.25-1,.26-.56.25.6.26,1.52.25,1.42.26.62.25-.74.25-1.32.26-1.42.25-1.38.26-1.11.25.58.25,3,.26,2.45.25.91.26-.85.25-.73.25-.54.26.1h.25l.26.07.25.12.26.22.25,0,.25,0,.26-.26.25-.5.26-.57.25-.26.25,0,.26,0h.25l.26.5.25.75.26.52.25-.11.25-.42.26-.48.25-.11.26-.13.25,0,.25-.18h.26l.25.28.26,1.19.25.69.25-.4.26-.62.25-.2.26-.07" transform="translate(0.02)"/></g></g><g id="line2d_3-5" data-name="line2d 3"><g class="cls-12"><path class="cls-7" d="M198.8,192.81l.26,0,.25.28.26.26.25.16.25.17.26,0,.25.12.26.26.25.38.25.25.26.5.25,1.08.26,1.58.25,2.49.26,2.07.25,1.55.25-.29.26-2.21.25-2.7.26-3.59.25-3.11.25-3.37.26-3.43.25-3.61.26-4.09.25-3.28.25-2.18.26.51.25,3.4.26,5.28.25,4.63.26,3,.25.8.25-1,.26-1.52L208,186l.26.26.25,1.27.25,2.1.26,1.66.25,1,.26-.73.25-2.14.25-3.32.26-3.06.25-1.24.26.13.25,1.3.26,1.33.25,2.74.25,3,.26,2.24.25,1.4.26-.33.25-1.31.25-.81.26,1.15.25,2.71.26,3,.25,1.84.25.06.26-.73.25-1.21.26-1.61.25-1.39.26-1.06.25-.62.25-.15.26.19.25.06.26-.48.25-.91.25-1.05.26-.61.25,0,.26.75.25,1,.26.87.25.35h.25l.26-.35.25-.17.26,0,.25-.07.25-.26.26-.17.25.29.26.65.25.29h.25l.26-.51.25-.58.26-.16" transform="translate(0.02)"/></g></g><g id="patch_3-5" data-name="patch 3"><path class="cls-8" d="M198.8,206.94V161" transform="translate(0.02)"/></g><g id="patch_4-5" data-name="patch 4"><path class="cls-8" d="M222.44,206.94V161" transform="translate(0.02)"/></g><g id="patch_5-5" data-name="patch 5"><path class="cls-8" d="M198.8,206.94h23.64" transform="translate(0.02)"/></g><g id="patch_6-5" data-name="patch 6"><path class="cls-8" d="M198.8,161h23.64" transform="translate(0.02)"/></g></g></g><g id="figure_1-6" data-name="figure 1"><g id="patch_1-6" data-name="patch 1"><path class="cls-3" d="M228.47,206.94h31.17V161H228.47Z" transform="translate(0.02)"/></g><g id="axes_1-6" data-name="axes 1"><g id="patch_2-6" data-name="patch 2"><path class="cls-3" d="M228.47,206.94h31.17V161H228.47Z" transform="translate(0.02)"/></g><g id="line2d_1-6" data-name="line2d 1"><g class="cls-13"><path class="cls-5" d="M228.47,190.53l.25-.13.26.19.25.09.25,0,.26-.07.25,0h.25l.26-.08.25-.05.25.1h.26l.25,0,.25,0,.26-.1.25,0,.25,0,.26,0H233l.25-.06h.26l.25,0,.25,0,.26.08.25-.12.25-.06.26,0,.25-.11.26.05.25.05.25-.09.26,0h.25l.25.08h.51l.25.08.26-.07.25-.07.25.1.26,0,.25,0,.25.07.26-.06h.25l.25-.07h1.27l.25,0h.26l.25.07.26,0,.25,0h.51l.25.11.25-.08.26,0,.25-.06h.25l.26,0,.25,0,.25-.1.26.06.25,0h.25l.26.06.25,0,.25,0,.26,0,.25,0,.25,0h.51l.25-.09.26,0,.25-.08.26,0,.25,0,.25.08.26,0,.25.09.25-.08h.76l.26,0,.25,0h.25l.26,0,.25,0,.25,0,.26,0,.25.1h.25l.26,0h.5l.26-.07.25,0h.25l.26,0,.25,0,.26,0,.25,0,.25,0,.26,0,.25,0,.25,0h.51l.25,0h.26l.25,0,.25-.08.26.07.25,0,.25,0,.26,0,.25,0h.25" transform="translate(0.02)"/></g></g><g id="line2d_2-6" data-name="line2d 2"><g class="cls-13"><path class="cls-6" d="M228.47,195.16l.25-.21H229l.25.31.25.19.26-.1.25-.21.25-.2.26-.17.25-.09H231l.26.2.25.2.25.23.26.13h.25l.25-.16.26-.13.25,0,.25-.06h.26l.25.17.25.34.26.18.25-.17.25-.36.26-.2.25,0,.26.21.25.16.25-.07.26-.19.25,0,.25.06h.26l.25,0h.25l.26-.1.25-.07.25.16.26.05.25,0h.25l.26,0h.25l.25-.08.26,0h.76l.25,0,.25.07.26,0,.25-.07h.26l.25-.07.25,0,.26.11.25.11h.25l.26-.08.25-.15.25-.07.26-.06h.25l.25,0,.26-.07.25,0,.25.12.26.06.25.06h.25l.26,0,.25,0,.25,0,.26,0,.25-.11.25-.13.26-.08.25-.1h.26l.25.08.25.1.26.13h.25l.25-.05.26-.1.25,0,.25.07.26,0,.25,0,.25,0,.26-.1.25-.06.25,0h.26l.25.09.25,0,.26.08.25,0,.25,0,.26,0,.25,0h.25l.26.1h.25l.26.1.25,0h.25l.26-.11.25-.14.25-.11h.76l.26.06.25.11.25,0,.26.08.25-.05.25-.06.26-.07.25,0,.25.14" transform="translate(0.02)"/></g></g><g id="line2d_3-6" data-name="line2d 3"><g class="cls-13"><path class="cls-7" d="M228.47,192.63l.25.23.26.3.25.3.25.15.26-.16.25-.35.25-.4.26-.15h.25l.25.36.26.48.25.5.25.19.26-.2.25-.15.25.07.26.12.25.1.25-.05.26-.23.25-.2.25-.1.26.09.25.28.25.22.26.17h.25l.26-.31.25-.26.25.06.26.24.25.24.25.23h.26l.25-.16.25-.3.26-.08.25.1.25.13.26.18h.5l.26-.21.25-.17.25-.13.26-.17h.25l.25.12.26.16.25.13h.25l.26-.13h.51l.25,0,.25.06.26,0,.25,0,.25-.08.26-.06.25-.11.25-.15h.26l.25.15.25.14.26.1.25.07h.25l.26,0,.25-.06h.25l.26-.1.25-.08.25,0,.26.13.25-.11.25-.26.26-.26.25-.13.26.14.25.28.25.16.26.08.25.06.25,0,.26-.08.25-.14.25-.07.26-.11.25-.19.25,0,.26.1.25.23.25.28.26.21h.5l.26-.19.25-.21.25-.17.26,0,.25.06.25.14.26.09.25.13.26.06.25-.11.25-.2.26-.12.25,0,.25.07h.26l.25,0,.25,0,.26,0,.25,0,.25.06.26-.08.25.06h.25l.26.15.25.09h.25" transform="translate(0.02)"/></g></g><g id="patch_3-6" data-name="patch 3"><path class="cls-8" d="M228.47,206.94V161" transform="translate(0.02)"/></g><g id="patch_4-6" data-name="patch 4"><path class="cls-8" d="M259.64,206.94V161" transform="translate(0.02)"/></g><g id="patch_5-6" data-name="patch 5"><path class="cls-8" d="M228.47,206.94h31.17" transform="translate(0.02)"/></g><g id="patch_6-6" data-name="patch 6"><path class="cls-8" d="M228.47,161h31.17" transform="translate(0.02)"/></g></g></g><g id="figure_1-7" data-name="figure 1"><g id="patch_1-7" data-name="patch 1"><path class="cls-3" d="M265.48,206.94h14.58V161H265.48Z" transform="translate(0.02)"/></g><g id="axes_1-7" data-name="axes 1"><g id="patch_2-7" data-name="patch 2"><path class="cls-3" d="M265.48,206.94h14.58V161H265.48Z" transform="translate(0.02)"/></g><g id="line2d_1-7" data-name="line2d 1"><g class="cls-14"><path class="cls-5" d="M265.48,190.53l.26,0,.25.08.26.1.26.29.25.57.26.23.25.22.26.34.25.58.26.69.26,1.48.25,1.64.26,2,.25,2.34.26,2.5.26,1.59.25-.88.26-1.69.25-4.06.26-2.18.25-1.28h.26l.26,1.83.25.86.26.13.25.09.26-.31.26-.57.25-1.46.26-.09.25-.14.26.89.25.85.26-.08.26-.53.25-1.24L275,195l.25-.5.26-.32.26.71.25.45.26.11.25.1.26-.6.25-1.08.26-.4.26-.17.25.35.26-.48.25-.35.26-.69.26-.44.25-.25.26-.23.25-.21h.26l.25-.42" transform="translate(0.02)"/></g></g><g id="line2d_2-7" data-name="line2d 2"><g class="cls-14"><path class="cls-6" d="M265.48,195.29l.26.16.25.08.26.11.26.34.25.83.26.54.25.66.26,1.52.25,1.07.26-1.21.26-.63.25.49.26,1.06.25,1.46.26-.28.26-2.59.25-4.65.26-5.47.25-3,.26,1.09.25,1.81.26,1.41.26.46.25-1.14.26-1.37.25-.12.26,1.21.26.62.25.24.26,1.14.25,1.52.26,1.54.25,1.4.26.27.26-.93.25-1.45.26-.6.25-.14.26.78.26,1.65.25,1.41.26-.07.25-.87.26-1,.25-.41.26,0,.26.72.25,1.77.26,1,.25-.47.26-1.48.26-1,.25-.17.26.32.25.55.26.29.25,0" transform="translate(0.02)"/></g></g><g id="line2d_3-7" data-name="line2d 3"><g class="cls-14"><path class="cls-7" d="M265.48,193.7l.26-.13.25.1.26.31.26.83.25,1.12.26,1.2.25.28.26.66.25,1.18.26,1.53.26,2.05.25,2.26.26.92.25-1.19.26-3.83.26-5.5.25-5.8.26-5.26.25-7,.26-5.69.25-5.77.26-3.88.26,1.1.25,6.11.26,9.27.25,6.66.26,4.51.26,1.38.25-1.88.26-3,.25-2.61.26-.42.25,2.1.26,3.17.26,2.76.25.8.26-.82.25-2.07.26-1.65.26-.06.25,1.89.26,3,.25,3.41.26,2.86L277,200l.26.06.26-1.08.25-1.59.26-1,.25-.51.26-.51.26-.49.25-.25.26-.22.25-.32.26-.72.25-1" transform="translate(0.02)"/></g></g><g id="patch_3-7" data-name="patch 3"><path class="cls-8" d="M265.48,206.94V161" transform="translate(0.02)"/></g><g id="patch_4-7" data-name="patch 4"><path class="cls-8" d="M280.06,206.94V161" transform="translate(0.02)"/></g><g id="patch_5-7" data-name="patch 5"><path class="cls-8" d="M265.48,206.94h14.58" transform="translate(0.02)"/></g><g id="patch_6-7" data-name="patch 6"><path class="cls-8" d="M265.48,161h14.58" transform="translate(0.02)"/></g></g></g><g id="figure_1-8" data-name="figure 1"><g id="patch_1-8" data-name="patch 1"><path class="cls-3" d="M295.21,206.94H414.88V161H295.21Z" transform="translate(0.02)"/></g><g id="axes_1-8" data-name="axes 1"><g id="patch_2-8" data-name="patch 2"><path class="cls-3" d="M295.21,206.94H414.88V161H295.21Z" transform="translate(0.02)"/></g><g id="line2d_1-8" data-name="line2d 1"><g class="cls-15"><path class="cls-5" d="M295.21,190.46l.25,0,.25-.14.25.08.76.48.5,0,.51-.07,1.26-.32.25.31.25.09.76-.28.25,0,.25-.14.5,0,.76.05h.5l.51.07,5.54,0,.5.12.76,0,.76,0,1.26.05,1.26-.08.75,0,4.29.06,1.25-.05.26.07.5,0h.76l7.55-.09H329l.5.05.51-.07.75.06.51.05.25-.09,3.27.11.76-.15.25,0,.51,0,1.26.13.25.07,1-.15.26.11.75-.12.25.29.26-.36.25.15,1.26-.05,1.26.11.75-.09.76,0,3.78,0,.25.07.76-.08.25.1h.5l.51,0,.25-.06.5.07,1-.1.25.1.76-.06,2,.07,3,0h.75l.51,0,.75,0,.51-.1.75,0,2,.16,1.26-.15,1.51.1.25,0,.76-.09.5.1.76-.11,1,0,.76.09h.76l.75,0,3-.07.25.05.25-.06.5,0,.76,0,3,0,.51.05.25-.1,1.26.12.5-.12,1,0,.25.13,1.26-.14.51.11.75-.16.76.09.75-.09h.51l.25,0,.5.12.76-.05.25,0,.25-.09.25.07.26,0,.25.06.25-.08.5,0h.51l.5.05.25-.05.51,0,1,0,1,0,.51-.06,1,.06,1.26-.06.51,0h.5l1.26.1.51-.05,1,0,1-.1.25.06.51-.07.75-.06,1.77.16,1-.11.26.1.5-.05.76.11.25-.13,1.26,0,.5.09.51,0,.75,0,.25-.09h.76l.76.05.25.07.75-.12h0" transform="translate(0.02)"/></g></g><g id="line2d_2-8" data-name="line2d 2"><g class="cls-15"><path class="cls-6" d="M295.21,195.81l.75-1.1h.26l.25.44.25.25h.76l.5-.06.5-.45.26-.46.25-.08.75,1.86.76-.41.5-.72.51-.18.25,0,.5-.25.25.22.51.69.25-.05.25-.21.25-.08.26.12.25,0,.5-.21.51.11.25,0,.75-.26.51.38h.25l.76-.26.5-.36.25,0,.5.32.51-.08.5-.2.51-.09.25.08.25.28.25.14,1,.14,1.26-.61.76.1.5-.07,1.26.32.25.11.51-.08h.25l.5-.25h.51l.75.36.25.06,1-.48h.25l.51.16.5,0,.5.08.51-.2.25.08.25.21.51,0,.5-.12.5.06.51-.18.5,0,.51.34.25.16h.25l.5-.52.26-.07.5.29.25.05.76-.23.75.36.51-.36.25-.08.75.47.26-.09.25-.34.25-.16.25.07.51.36.5-.11.5.23L334,195l.25-.09,1,.15.5-.12.25-.15.51,0,.5.17.51.32h.25l.5-.31.25-.16,1-.07h.25l.25-.14.26.1.25.23.5.16.25,0,1-.22.51.11,1.51-.08.5,0,1.51-.11.51,0,.5,0,.76-.16.5.26.5-.11.51-.12.75.3.51-.29,1.51.11.25.14,1.26-.16.51.14,1.51-.2.75.1.25-.15.26,0,.5.13,1-.05.5.08.25-.11,1.26.06.51-.1,1.26.26,1-.12,1-.28.76.19.5.29.51,0h.25l.5-.37.51-.06.5.32.76-.41,1.51.48,1-.28.5,0,.5,0,.26.05.5,0,1.51,0,.25-.1,4.79.17,1,.05.5-.29.25,0,.26.25.25.11.25,0,.76-.34.25,0,.25.35.25.14.76-.61.25.1.5.43.26.11.5-.38.25-.24.5.13.51.19.25.1,1.26,0,.25,0,1-.39.5,0,1,.43.76-.06.5-.18.76.19.25-.11,2-.12.26-.1.75.31.25-.1,1.26,0,.51,0,.75.09.76,0,1.51.09.76-.27.75.24h.51l.25.12.5-.19h.51l.25-.06.5.28.51-.26.5-.13.5.12.51,0,.5.12.25.2.26.07.25-.06.5-.29,1-.05.25-.12.51.11.25.16h.5l.25.21h.26l.5-.32.25,0,1,.24.5-.15h0" transform="translate(0.02)"/></g></g><g id="line2d_3-8" data-name="line2d 3"><g class="cls-15"><path class="cls-7" d="M295.21,191.57l.25-.29.25.59.51,2.17.25.67.25.26.25-.23.25-.49.51-1.43.25-.52.25-.29.25,0,.26.29.25.46.5,1.42.25.37.25,0,.76-1.4.5-.22.76.47h.25l.25-.12,1,.15.51.28.25-.06.5-.34.51-.11.5.07.5.38.26,0,.75-.66.25.2.51.74.25.07.25-.15.76-.87.25.12.5.43.25.11h.26l1.51-.48.5,0,.25.06,1-.34h.25l.51-.18.5.06.76.36h1l.5.23.5-.11,1.26-.21.51.23.5.15.76-.41,1,0,.76.51.5-.18.26-.16.75,0,.25-.05.51.26.5.23.51-.09.5-.26.25-.11,1,.16.25-.08.5.12.76-.22.25-.07,1,.39.25-.1.25-.22.51-.1.75.27.76.13h.25l.51-.22.25,0,.25.2.25,0,1-.52.5.22.26.14,1.51-.21,1,.49.26,0,.75-.33.25,0,.26.06.25-.44.25.12.25-.09.25.12h.26l.5.33.76.05.5-.09,3,0,.26.1,1.76-.28.5.07.25.16h.76l1.26,0,.5-.13.26,0,.25.06.25,0,.5-.28.26,0,.25.18.25.3.25.12.51-.17.25-.11.5.06.76.14,1.26-.23.5.14.76-.05.25.09,2.27-.18,1.26.21.5.14.5-.2,1.52,0,.25,0,.25.06.25-.07.76,0,1,0,.26.06.25-.41H368l.25-.16.25.15.51.14.25.07.76-.07,1,.29.76-.14.5-.13.51.06.25.22.25.05.76-.23.25-.1.5,0,.51,0,.25,0,.5.2.51-.1.75-.23,1.26.29,1,0,.76-.15.25-.15.5.29.25.17.51-.18.25-.19.25,0,.76.35.75-.41.26.07.5.33.5.07.76-.47.25,0,.76.37,1-.24.51.15,1.26-.22.5.19.51,0L392,193l1,.41.76-.32,1,.19.5.08.5-.09.51,0,.25,0,.76-.26h.5l.76.33.75-.28,1.26.3,1.51-.19.76.13.76-.24.25.07,1-.22,1,.31.25,0,.76.15.5,0,.26-.1,1.51.07h.5l.76-.42.5.24.25.28.51.05,1-.48.75.42h.25l.76-.21.5.12h0" transform="translate(0.02)"/></g></g><g id="patch_3-8" data-name="patch 3"><path class="cls-8" d="M295.21,206.94V161" transform="translate(0.02)"/></g><g id="patch_4-8" data-name="patch 4"><path class="cls-8" d="M414.88,206.94V161" transform="translate(0.02)"/></g><g id="patch_5-8" data-name="patch 5"><path class="cls-8" d="M295.21,206.94H414.88" transform="translate(0.02)"/></g><g id="patch_6-8" data-name="patch 6"><path class="cls-8" d="M295.21,161H414.88" transform="translate(0.02)"/></g></g></g><line class="cls-16" x1="128.3" y1="111.02" x2="128.3" y2="110.31"/><line class="cls-17" x1="128.3" y1="108.89" x2="128.3" y2="55.74"/><line class="cls-16" x1="128.3" y1="55.04" x2="128.3" y2="54.33"/><line class="cls-16" x1="161.83" y1="111.02" x2="161.83" y2="110.31"/><line class="cls-17" x1="161.83" y1="108.89" x2="161.83" y2="55.74"/><line class="cls-16" x1="161.83" y1="55.04" x2="161.83" y2="54.33"/><line class="cls-16" x1="195.66" y1="111.02" x2="195.66" y2="110.31"/><line class="cls-17" x1="195.66" y1="108.89" x2="195.66" y2="55.74"/><line class="cls-16" x1="195.66" y1="55.04" x2="195.66" y2="54.33"/><line class="cls-16" x1="224.84" y1="111.02" x2="224.84" y2="110.31"/><line class="cls-17" x1="224.84" y1="108.89" x2="224.84" y2="55.74"/><line class="cls-16" x1="224.84" y1="55.04" x2="224.84" y2="54.33"/><line class="cls-16" x1="263.33" y1="111.02" x2="263.33" y2="110.31"/><line class="cls-17" x1="263.33" y1="108.89" x2="263.33" y2="55.74"/><line class="cls-16" x1="263.33" y1="55.04" x2="263.33" y2="54.33"/><line class="cls-16" x1="281.33" y1="111.02" x2="281.33" y2="110.31"/><line class="cls-17" x1="281.33" y1="108.89" x2="281.33" y2="55.74"/><line class="cls-16" x1="281.33" y1="55.04" x2="281.33" y2="54.33"/><text class="cls-2" transform="translate(68.19 44.33) rotate(-90)">No strike</text><text class="cls-2" transform="translate(148.67 44.33) rotate(-90)">Strike</text><text class="cls-2" transform="translate(213.53 44.33) rotate(-90)">Strike</text><text class="cls-2" transform="translate(276.53 44.33) rotate(-90)">Strike</text><text class="cls-2" transform="translate(182.93 44.33) rotate(-90)">No strike</text><text class="cls-2" transform="translate(357.93 44.33) rotate(-90)">No strike</text><text class="cls-2" transform="translate(246.41 44.33) rotate(-90)">No strike</text><g id="figure_1-9" data-name="figure 1"><g id="patch_1-9" data-name="patch 1"><path class="cls-3" d="M84.17,302.86H115.6V256.94H84.17Z" transform="translate(0.02)"/></g><g id="axes_1-9" data-name="axes 1"><g id="patch_2-9" data-name="patch 2"><path class="cls-3" d="M84.17,302.86H115.6V256.94H84.17Z" transform="translate(0.02)"/></g><g id="line2d_1-9" data-name="line2d 1"><g class="cls-18"><path class="cls-5" d="M84.17,286.71l.26,0,.25.05h.25l.26,0,.25.05.25,0,.26,0,.25,0h.51l.25-.05.25-.06.26,0,.25,0,.26.07.25,0,.25.05.26-.06.25.07h.25l.26-.07h.25l.25,0,.26.05.25,0h.25l.26.05.25,0,.25-.06.26,0,.25-.11h.25l.26,0,.25,0,.25,0,.26.07.25,0h.25l.26,0h.5l.26-.06h.25l.26.06.25,0,.25.05h.26l.25,0,.25,0,.26,0,.25,0,.25,0,.26,0,.25.12.25-.12.26,0,.25,0h.25l.26,0h.25l.25,0h.51l.25.05h.26l.25-.08.25.19.26-.13.25,0,.25,0h.51l.26.1h.5l.26,0,.25,0,.25-.06.26.13h.25l.25,0,.26,0h.25l.25-.08.26,0,.25,0,.25,0,.26,0,.25,0H107l.26.05.25,0,.25-.05.26,0,.25.1.25-.06.26.06h.76l.25,0,.26,0,.25-.05h.25l.26,0,.25,0,.25,0,.26.06.25,0,.25,0,.26,0,.25,0h.25l.26,0,.25.07.25-.05h.26l.25,0h.25l.26,0h.25l.25,0h.26l.25,0" transform="translate(0.02)"/></g></g><g id="line2d_2-9" data-name="line2d 2"><g class="cls-18"><path class="cls-6" d="M84.17,290.94l.26,0,.25,0,.25,0,.26,0,.25,0,.25,0,.26,0,.25,0,.25.08.26-.06L87,291l.25-.09.26.09.25.15.26,0,.25,0,.25,0,.26,0,.25.11.25.15.26,0,.25,0,.25,0,.26,0,.25,0,.25-.09.26-.07.25,0,.25,0,.26.11.25.1.25.13.26.06h.25l.25.09.26.06.25,0,.25,0,.26-.06h.25l.25-.09.26-.06.25.11.26,0,.25,0,.25,0,.26-.1.25,0,.25.13.26-.09h.5l.26.18h.25l.25-.07.26-.23.25-.14h.25l.26.15.25.13.25,0,.26-.05h.25l.25,0,.26.06.25.22h.25l.26-.18.25-.18.25-.16.26-.08.25.16.26.26.25,0,.25-.09.26-.12h.25l.25.07.26.06.25,0,.25,0H105l.25.05.25,0,.26-.05.25,0h.25l.26.21.25,0,.25,0,.26-.05.25-.13.25-.07.26-.11.25,0,.25.06h.26l.25,0,.25-.06h.26l.25-.05.26.05.25,0,.25,0,.26.05.25,0,.25,0,.26-.07.25-.1.25,0,.26.08.25.12.25.13.26.16.25.11.25.07.26-.05.25-.05.25-.21.26-.19.25,0,.25.06.26.07.25.09" transform="translate(0.02)"/></g></g><g id="line2d_3-9" data-name="line2d 3"><g class="cls-18"><path class="cls-7" d="M84.17,288.62l.26,0,.25.09.25,0,.26-.19.25,0,.25,0,.26,0,.25-.05.25.06.26.11.25.08.25.09.26,0,.25-.05.26,0,.25,0,.25.05H89l.25.08.26,0,.25,0,.25,0,.26-.16.25-.06.25.24L91,289l.25.24.25.06.26-.1.25-.07.25-.15h.26l.25,0,.25.07.26,0,.25,0,.25,0,.26.05.25,0,.25,0h.26l.25,0,.26-.06.25-.12.25-.09h.76l.26,0,.25.07.25,0,.26-.21.25,0,.25.11.26.15.25.05h.25l.26-.17.25-.17.25,0,.26,0,.25.1.25,0h.26l.25-.1.25-.12h.26l.25,0,.25.09.26.12.25-.06.26-.14.25-.17.25,0,.26.21.25.26.25.19.26,0,.25-.1.25-.09.26,0,.25-.08.25,0,.26,0H106l.25,0,.26-.06.25-.07.25,0,.26.11.25.05.25-.05.26-.12.25-.13.25-.14h.26l.25.08.25.2.26.05.25.09.26,0,.25-.07.25-.06.26-.2.25-.1.25.06.26.16.25.15.25.17.26.06h.25l.25-.07.26-.09.25-.17.25,0h.26l.25-.14.25-.09.26,0,.25.23.25.13.26,0,.25-.06" transform="translate(0.02)"/></g></g><g id="patch_3-9" data-name="patch 3"><path class="cls-8" d="M84.17,302.86V256.94" transform="translate(0.02)"/></g><g id="patch_4-9" data-name="patch 4"><path class="cls-8" d="M115.6,302.86V256.94" transform="translate(0.02)"/></g><g id="patch_5-9" data-name="patch 5"><path class="cls-8" d="M84.17,302.86H115.6" transform="translate(0.02)"/></g><g id="patch_6-9" data-name="patch 6"><path class="cls-8" d="M84.17,256.94H115.6" transform="translate(0.02)"/></g></g></g><g id="figure_1-10" data-name="figure 1"><g id="patch_1-10" data-name="patch 1"><path class="cls-3" d="M131.15,302.86H158.3V256.94H131.15Z" transform="translate(0.02)"/></g><g id="axes_1-10" data-name="axes 1"><g id="patch_2-10" data-name="patch 2"><path class="cls-3" d="M131.15,302.86H158.3V256.94H131.15Z" transform="translate(0.02)"/></g><g id="line2d_1-10" data-name="line2d 1"><g class="cls-19"><path class="cls-5" d="M131.15,286.66h.25l.26,0,.25,0,.26.06.25-.05.25,0h.26l.25,0h.25l.26.09.25.07.26.11.25.27.25.38.26.38.25.29.26.61.25.77.25.29.26.51.25.19.25.07.26.2.25-.68.26-.46.25-.28.25-.35.26.11.25.11.25.32.26.11.25.18.26.17.25.17.25.2.26,0,.25.12.25.08.26.07.25-.25.26-.05.25.27.25.05.26.08.25,0,.25,0,.26.06.25.1.26,0,.25.1.25.12.26.06.25,0h.25l.26-.07.25-.16.26-.19.25-.21.25-.25.26-.05.25.38.25,0,.26.19.25-.55h.26l.25-.7.25.45.26,1.4.25.81.25.28.26-.91.25-1.44.26-.43.25-.77.25-.62.26-.07.25,0,.25,1.24.26.42.25-.29.26-1.09L152,288l.25-.36.26-.25.25.13.26.11.25-.17.25-.2h.26l.25-.16.25-.17.26-.17.25,0,.26-.05.25-.08.25-.12.26-.14.25,0h.25l.26,0,.25,0,.26,0,.25.13.25.07.26,0,.25.08.25-.12" transform="translate(0.02)"/></g></g><g id="line2d_2-10" data-name="line2d 2"><g class="cls-19"><path class="cls-6" d="M131.15,291.71l.25.15h.26l.25,0,.26-.08.25-.15.25-.14.26.15.25.08.25.22.26.17.25.1.26.08.25.41.25.5.26.47.25.57.26.43.25.13.25-.61.26-.86.25-1.09.25-.88.26-.81.25-1.14.26-.77.25-.32.25.59.26.42.25.48.25,0,.26-.23.25.2.26.25.25.1.25,0,.26-.13.25-.13.25-.08h.26l.25-.17.26.12.25.4.25.54.26.34h.25l.25-.08.26-.06.25-.1.26.06.25.1.25-.05.26,0h.25l.25-.1.26-.15.25-.32.26-.28.25-.36.25-.09.26.39.25.8.25.25.26-.68.25-1,.26-.66.25-.8.25.65.26,1.85.25,1.3.25.27.26-.76.25-.7.26-.3.25,0,.25.24.26-.35.25-.06.25,2,.26,1.87.25-.31.26-1.88.25-1.63.25-.4.26.52.25.85.26.84.25.47.25.07.26-.21.25-.45.25-.44.26-.22.25,0,.26,0h.25l.25,0h.26l.25,0,.25.05.26.13h.25l.26-.1.25.28.25.38.26,0,.25-.06.25-.08" transform="translate(0.02)"/></g></g><g id="line2d_3-10" data-name="line2d 3"><g class="cls-19"><path class="cls-7" d="M131.15,289l.25,0,.26.06.25-.05.26-.09.25-.22.25-.12h.26l.25.27.25.29.26.43.25.23.26.55.25.57.25.55.26.79.25.53.26.13.25,0,.25-.76.26-1,.25-1.33.25-2.2.26-1.62.25-2.23.26-2.14.25-1.73.25-1,.26.12.25.86.25,2,.26,2.22.25,2,.26,1.21.25.66L140,288l.26-.58.25-.75.25-.7.26-.41.25-.58.26-.58.25-.4.25.14.26.46.25.5.25.24.26,0,.25,0,.26.23.25.32.25.29.26.19.25-.07.25-.3.26-.5.25-.74.26-.79.25-1.12.25-1.29.26-.95.25-.34.25.28.26.77.25.21.26-.38.25-1.73.25-1.5.26.17.25,2.34.25,4.28.26,4.59.25,2.63.26,1.26.25-.74.25-2.56.26-2.44.25-1,.25.85.26,2.07.25,2.61.26,1.89.25.7.25-.58.26-1.4.25-1.34.26-.92.25-.4.25-.05.26.26.25.24.25,0,.26-.58.25-.65.26-.49.25-.15.25.08.26.24.25,0,.25-.11.26,0,.25.28.26.26.25.28.25.27.26.11.25,0,.25-.47" transform="translate(0.02)"/></g></g><g id="patch_3-10" data-name="patch 3"><path class="cls-8" d="M131.15,302.86V256.94" transform="translate(0.02)"/></g><g id="patch_4-10" data-name="patch 4"><path class="cls-8" d="M158.3,302.86V256.94" transform="translate(0.02)"/></g><g id="patch_5-10" data-name="patch 5"><path class="cls-8" d="M131.15,302.86H158.3" transform="translate(0.02)"/></g><g id="patch_6-10" data-name="patch 6"><path class="cls-8" d="M131.15,256.94H158.3" transform="translate(0.02)"/></g></g></g><g id="figure_1-11" data-name="figure 1"><g id="patch_1-11" data-name="patch 1"><path class="cls-3" d="M165,302.86h27.4V256.94H165Z" transform="translate(0.02)"/></g><g id="axes_1-11" data-name="axes 1"><g id="patch_2-11" data-name="patch 2"><path class="cls-3" d="M165,302.86h27.4V256.94H165Z" transform="translate(0.02)"/></g><g id="line2d_1-11" data-name="line2d 1"><g class="cls-20"><path class="cls-5" d="M165,286.52l.25,0h.25l.26-.08.25.07.26.08h.25l.25,0,.26,0,.25,0,.25,0h.51l.26-.14.25.15.25,0h.26l.25.06.25,0,.26,0,.25.06.26,0,.25-.07h.76l.25.07.26-.1h.25l.26.05.25,0,.25,0,.26.05.25,0,.25-.06.26,0,.25,0,.26.05.25.05.25-.05h.26l.25,0,.25,0,.26,0h.25l.26-.05.25,0,.25.07h.26l.25-.07.25.12.26-.05h.25l.26,0,.25,0,.25-.05.26,0,.25,0,.25.09H180l.25,0,.26,0,.25-.1.25.05h.26l.25,0H182l.25.08.26-.06.25,0,.25.1.26,0,.25,0,.25,0h.26l.25-.06.26,0h.25l.25,0,.26,0,.25,0h.25l.26,0,.25,0,.26,0h.76l.25,0,.25,0,.26,0,.25.08.26-.1.25,0,.25,0,.26,0h.76l.25,0h.26l.25,0h.25l.26,0,.25,0,.25,0,.26,0h.25" transform="translate(0.02)"/></g></g><g id="line2d_2-11" data-name="line2d 2"><g class="cls-20"><path class="cls-6" d="M165,291.78l.25,0,.25-.17.26-.14.25.18.26.09.25-.06.25-.08.26-.06.25,0,.25.07.26.08.25-.08.26-.09.25,0,.25.1.26-.06.25-.12.25-.1.26-.12.25.05.26,0h.25l.25.12.26.22.25.08h.25l.26-.24.25-.15.26-.13.25.13.25.12.26.06.25,0,.25-.08.26-.06.25-.12h.26l.25,0h.25l.26-.09.25-.1.25.06.26.2.25.07.26.05h.25l.25,0,.26,0,.25.09.25-.12.26-.11.25-.05.26,0,.25-.07.25,0,.26,0,.25.13.25.13.26.15.25-.16.26-.22.25-.18.25,0,.26.2.25.1h.25l.26-.08.25-.06.26-.1.25,0,.25.06.26.15.25.08.25,0,.26-.06.25.05.26,0,.25.07.25.09.26-.15.25,0,.25-.08.26,0,.25-.05h.26l.25.08.25.13h.26l.25.05.25-.07.26-.06.25-.05.26-.06h.76l.25,0,.25-.07.26,0,.25.14.26.12.25,0h.25l.26-.07.25,0,.25,0,.26-.08h.25" transform="translate(0.02)"/></g></g><g id="line2d_3-11" data-name="line2d 3"><g class="cls-20"><path class="cls-7" d="M165,288.9l.25-.23.25.08.26.09.25.06.26.09.25.27.25.33.26.27.25.1.25-.13.26-.29.25-.38.26-.22.25,0,.25.27.26.24.25.06.25.05.26,0,.25-.06.26-.07.25-.18.25-.29.26-.36.25-.12.25.18.26.22.25.32.26.27.25.08.25-.06.26-.13.25,0,.25-.15.26-.11.25-.16.26-.1.25-.13.25.08.26.11.25.07.25.07.26.09.25,0,.26.1.25,0,.25-.07.26-.09.25-.1H178l.25.1.26-.08h.25l.25.06.26.12h.25l.25-.12.26-.14.25,0,.26.2.25.21.25.06.26-.2.25-.2.25,0,.26.09.25.17.26.09.25-.09H183l.26,0,.25,0,.25,0,.26,0,.25.08.26.06.25,0,.25-.07.26-.14.25-.11.25,0,.26.07.25.09.26.06h.25l.25-.2.26-.2.25,0,.25.08.26.05.25,0,.26,0,.25-.07.25-.08.26-.09.25-.11.25,0,.26.06.25.12.26.17.25,0,.25.07.26,0,.25,0,.25,0,.26-.18.25-.27" transform="translate(0.02)"/></g></g><g id="patch_3-11" data-name="patch 3"><path class="cls-8" d="M165,302.86V256.94" transform="translate(0.02)"/></g><g id="patch_4-11" data-name="patch 4"><path class="cls-8" d="M192.42,302.86V256.94" transform="translate(0.02)"/></g><g id="patch_5-11" data-name="patch 5"><path class="cls-8" d="M165,302.86h27.4" transform="translate(0.02)"/></g><g id="patch_6-11" data-name="patch 6"><path class="cls-8" d="M165,256.94h27.4" transform="translate(0.02)"/></g></g></g><g id="figure_1-12" data-name="figure 1"><g id="patch_1-12" data-name="patch 1"><path class="cls-3" d="M198.8,302.86h23.64V256.94H198.8Z" transform="translate(0.02)"/></g><g id="axes_1-12" data-name="axes 1"><g id="patch_2-12" data-name="patch 2"><path class="cls-3" d="M198.8,302.86h23.64V256.94H198.8Z" transform="translate(0.02)"/></g><g id="line2d_1-12" data-name="line2d 1"><g class="cls-21"><path class="cls-5" d="M198.8,286.53h.26l.25,0,.26.05.25,0,.25,0h.26l.25.09.26.23h.25l.26.27.25.19.25.78.26.36.25,1.09.26.3.25,1.34.25,1.43.26,2.17.25,1.26.26.45.25-.16.25-.33.26-1,.25-1.36.26-1.42.25-.47.26-.31.25-.4.25.81.26.56h.25l.26.21.25-.42.25-.14.26-.5.25.18.26.2.25.34.25.14.26.05.25-.19.26-.7.25-.62.26-.65.25-.29.25.25.26.27.25,1.08.26.46.25.68.25-.74.26-.58.25-.89.26-1.1.25.35.25,1,.26.76h.25l.26-1.13.25-1,.26-.8.25-.28.25-.2.26-.29.25-.34.26,0,.25,0,.25,0,.26-.22.25-.07.26-.27.25-.24.25-.12.26-.1.25-.07.26.05.25.16h.26l.25.13.25-.12.26,0,.25,0h.26l.25-.07.25,0,.26,0,.25.29.26.34.25-.2.25-.22.26-.27.25-.12.26-.12" transform="translate(0.02)"/></g></g><g id="line2d_2-12" data-name="line2d 2"><g class="cls-21"><path class="cls-6" d="M198.8,291.19l.26.07.25.22.26.09.25,0,.25,0,.26.1.25.24.26.32.25.24.26.3.25.48.25,1.13.26,1.72.25,1.18.26-.07.25-1,.25-1,.26.15.25-1.45.26-2.42.25-2.57.25-2.1.26-1.11.25.19.26,1.36.25.85.26-.22.25-.56.25-.59.26-.16.25-.16.26.54.25.6.25.22.26.24.25.48.26,1,.25.92.25.52.26.26.25-.13.26-.77.25-.65.26-1,.25-.56.25.6.26,1.52.25,1.42.26.62.25-.74.25-1.32.26-1.41.25-1.39.26-1.11.25.58.25,3,.26,2.45.25.91.26-.85.25-.73.26-.54.25.11h.25l.26.07.25.12.26.22.25,0,.25,0,.26-.25.25-.51.26-.57.25-.26.25,0,.26,0h.25l.26.5.25.75.26.52.25-.11.25-.42.26-.48.25-.11.26-.13.25,0,.25-.19h.26l.25.28.26,1.19.25.69.25-.4.26-.62.25-.2.26-.07" transform="translate(0.02)"/></g></g><g id="line2d_3-12" data-name="line2d 3"><g class="cls-21"><path class="cls-7" d="M198.8,288.74h.26l.25.28.26.27.25.15.25.17.26,0,.25.12.26.25.25.38.26.25.25.5.25,1.08.26,1.59.25,2.48.26,2.07.25,1.55.25-.29.26-2.21.25-2.69.26-3.6.25-3.11.25-3.37.26-3.43.25-3.61.26-4.09.25-3.27.26-2.19.25.51.25,3.41.26,5.27.25,4.63.26,3,.25.8.25-1,.26-1.52.25-1.35.26.26.25,1.27.25,2.1.26,1.67.25,1,.26-.73.25-2.14L210,282l.25-3.06.25-1.24.26.13.25,1.3.26,1.33.25,2.74.25,3,.26,2.24.25,1.4.26-.33.25-1.31.25-.81.26,1.15.25,2.71.26,3,.25,1.83.26.06.25-.73.25-1.21.26-1.61.25-1.39.26-1.06.25-.62.25-.15.26.19.25.06.26-.48.25-.91.25-1.05.26-.61.25,0,.26.75.25,1,.26.87.25.35h.25l.26-.34.25-.17.26-.05.25-.07.25-.26.26-.17.25.29.26.65.25.3.25,0,.26-.51.25-.58.26-.16" transform="translate(0.02)"/></g></g><g id="patch_3-12" data-name="patch 3"><path class="cls-8" d="M198.8,302.86V256.94" transform="translate(0.02)"/></g><g id="patch_4-12" data-name="patch 4"><path class="cls-8" d="M222.44,302.86V256.94" transform="translate(0.02)"/></g><g id="patch_5-12" data-name="patch 5"><path class="cls-8" d="M198.8,302.86h23.64" transform="translate(0.02)"/></g><g id="patch_6-12" data-name="patch 6"><path class="cls-8" d="M198.8,256.94h23.64" transform="translate(0.02)"/></g></g></g><g id="figure_1-13" data-name="figure 1"><g id="patch_1-13" data-name="patch 1"><path class="cls-3" d="M228.47,302.86h31.17V256.94H228.47Z" transform="translate(0.02)"/></g><g id="axes_1-13" data-name="axes 1"><g id="patch_2-13" data-name="patch 2"><path class="cls-3" d="M228.47,302.86h31.17V256.94H228.47Z" transform="translate(0.02)"/></g><g id="line2d_1-13" data-name="line2d 1"><g class="cls-22"><path class="cls-5" d="M228.47,286.45l.25-.13.26.2.25.09.25,0,.26-.07.25,0h.25l.26-.08.25-.05.25.1h.26l.25,0,.25,0,.26-.1.25,0,.25,0,.26,0H233l.25-.05h.26l.25,0,.25,0,.26.09.25-.13.26-.06.25,0,.25-.11.26.05.25.05.25-.09.26,0h.25l.25.08h.51l.25.08.26-.07.25-.07.25.1.26,0,.25,0,.25.07.26-.06h.25l.25-.08h1.27l.26,0h.25l.25.07h.26l.25,0h.51l.25.11.25-.07.26,0,.25-.07h.25l.26,0,.25,0,.25-.1.26.06.25,0h.25l.26.06.25,0,.25,0,.26,0,.25,0,.25,0h.51l.26-.09.25,0,.25-.08.26,0,.25,0,.25.09.26,0,.25.09.25-.08h.76l.26,0,.25,0h.25l.26,0,.25,0,.25,0,.26,0,.25.1h1l.26-.08.25,0h.26l.25-.05.25,0,.26,0,.25,0,.25,0,.26,0,.25,0,.25,0h.51l.25,0h.26l.25,0,.25-.08.26.07.25,0,.25.05.26,0,.25,0h.25" transform="translate(0.02)"/></g></g><g id="line2d_2-13" data-name="line2d 2"><g class="cls-22"><path class="cls-6" d="M228.47,291.08l.25-.21H229l.25.31.25.19.26-.1.25-.21.25-.2.26-.17.25-.09H231l.26.2.25.2.25.23.26.13h.25l.25-.16.26-.13L233,291l.25-.06h.26l.25.17.25.35.26.17.25-.17.26-.36.25-.2.25,0,.26.2.25.16.25-.07.26-.19.25,0,.25.06h.26l.25,0h.25l.26-.1.25-.07.25.16.26.05.25,0h.25l.26,0h.25l.25-.08.26,0h.76l.25,0,.26.07.25,0,.25-.07h.26l.25-.07.25,0,.26.11.25.11h.25l.26-.08.25-.14.25-.08.26-.06h.25l.25,0,.26-.07.25,0,.25.12.26.06.25.06h.25l.26,0,.25,0,.25,0,.26,0,.25-.11.26-.13.25-.08.25-.1h.26l.25.08.25.1.26.13h.25l.25-.05.26-.1.25,0,.25.07.26,0,.25,0,.25,0,.26-.1.25-.06.25,0,.26,0,.25.09.25,0,.26.08.25,0,.25,0,.26,0,.25,0h.26l.25.09h.25l.26.1.25,0h.25l.26-.1.25-.15.25-.11h.76l.26.06.25.11.25,0,.26.08.25,0,.25-.07.26-.06.25,0,.25.14" transform="translate(0.02)"/></g></g><g id="line2d_3-13" data-name="line2d 3"><g class="cls-22"><path class="cls-7" d="M228.47,288.55l.25.24.26.29.25.3.25.15.26-.16L230,289l.25-.4.26-.15h.25l.25.36.26.48.25.5.25.19.26-.2.25-.14.25.06.26.12.25.1.25-.05.26-.23.25-.2.25-.1.26.09.25.28.26.22.25.17h.25l.26-.31.25-.26.25.07.26.23.25.25.25.22h.26l.25-.17.25-.3.26-.08.25.1.25.13.26.19.25,0h.25l.26-.21.25-.17.25-.13.26-.16.25,0,.25.12.26.16.25.13h.26l.25-.13h.51l.25,0,.25.06.26,0,.25,0,.25-.08.26-.06.25-.11.25-.15h.26l.25.15.25.14.26.1.25.07h.25l.26,0,.25-.06h.25l.26-.1.25-.08.25,0,.26.14.25-.12.26-.26.25-.26.25-.13.26.14.25.28.25.16.26.08.25.06.25,0,.26-.08.25-.14.25-.07.26-.11.25-.19.25,0,.26.1.25.23.25.28.26.21h.5l.26-.19.25-.21.25-.17.26,0,.25.06.26.14.25.09.25.13.26.06.25-.11.25-.2.26-.12.25,0,.25.07h.26l.25,0,.25,0,.26,0,.25,0,.25.07.26-.09.25.06h.25l.26.16.25.08h.25" transform="translate(0.02)"/></g></g><g id="patch_3-13" data-name="patch 3"><path class="cls-8" d="M228.47,302.86V256.94" transform="translate(0.02)"/></g><g id="patch_4-13" data-name="patch 4"><path class="cls-8" d="M259.64,302.86V256.94" transform="translate(0.02)"/></g><g id="patch_5-13" data-name="patch 5"><path class="cls-8" d="M228.47,302.86h31.17" transform="translate(0.02)"/></g><g id="patch_6-13" data-name="patch 6"><path class="cls-8" d="M228.47,256.94h31.17" transform="translate(0.02)"/></g></g></g><g id="figure_1-14" data-name="figure 1"><g id="patch_1-14" data-name="patch 1"><path class="cls-3" d="M265.48,302.86h14.58V256.94H265.48Z" transform="translate(0.02)"/></g><g id="axes_1-14" data-name="axes 1"><g id="patch_2-14" data-name="patch 2"><path class="cls-3" d="M265.48,302.86h14.58V256.94H265.48Z" transform="translate(0.02)"/></g><g id="line2d_1-14" data-name="line2d 1"><g class="cls-23"><path class="cls-5" d="M265.48,286.45l.26,0,.25.08.26.09.26.29.25.58.26.22.25.22.26.34.25.58.26.69.26,1.48.25,1.64.26,2,.25,2.35.26,2.49.26,1.59.25-.88.26-1.69.25-4.06.26-2.18.25-1.28h.26l.26,1.83.25.87.26.12.25.09.26-.3.26-.58.25-1.46.26-.09.25-.13.26.88.25.85.26-.08.26-.53.25-1.24L275,291l.25-.51.26-.32.26.71.25.45.26.11.25.1.26-.6.25-1.07.26-.41.26-.17.25.36.26-.48.25-.35.26-.7.26-.44.25-.25.26-.22.25-.22h.26l.25-.42" transform="translate(0.02)"/></g></g><g id="line2d_2-14" data-name="line2d 2"><g class="cls-23"><path class="cls-6" d="M265.48,291.21l.26.16.25.08.26.11.26.35.25.82.26.54.25.66.26,1.52.25,1.07.26-1.21.26-.63.25.5.26,1.05.25,1.47.26-.29.26-2.59.25-4.65.26-5.47.25-3,.26,1.09.25,1.81.26,1.41.26.46.25-1.14.26-1.37.25-.12.26,1.21.26.62.25.24.26,1.14.25,1.52.26,1.54.25,1.4.26.27.26-.93.25-1.45.26-.59.25-.14.26.77.26,1.65.25,1.41.26-.07.25-.87.26-1,.25-.42.26,0,.26.72.25,1.77.26,1,.25-.47.26-1.48.26-1,.25-.17.26.32.25.55.26.29.25,0" transform="translate(0.02)"/></g></g><g id="line2d_3-14" data-name="line2d 3"><g class="cls-23"><path class="cls-7" d="M265.48,289.62l.26-.13.25.1.26.31.26.84.25,1.11.26,1.2.25.28.26.66.25,1.19.26,1.52.26,2.05.25,2.26.26.92.25-1.19.26-3.83.26-5.5.25-5.8.26-5.26.25-7,.26-5.69.25-5.77.26-3.88.26,1.1.25,6.11.26,9.27.25,6.67.26,4.5.26,1.38.25-1.88.26-3,.25-2.61.26-.42.25,2.1.26,3.17.26,2.77.25.79.26-.82.25-2.06.26-1.66.26-.06.25,1.9.26,3,.25,3.41.26,2.86L277,296l.26.06.26-1.08.25-1.59.26-1,.25-.51.26-.51.26-.49.25-.24.26-.23.25-.32.26-.71.25-1" transform="translate(0.02)"/></g></g><g id="patch_3-14" data-name="patch 3"><path class="cls-8" d="M265.48,302.86V256.94" transform="translate(0.02)"/></g><g id="patch_4-14" data-name="patch 4"><path class="cls-8" d="M280.06,302.86V256.94" transform="translate(0.02)"/></g><g id="patch_5-14" data-name="patch 5"><path class="cls-8" d="M265.48,302.86h14.58" transform="translate(0.02)"/></g><g id="patch_6-14" data-name="patch 6"><path class="cls-8" d="M265.48,256.94h14.58" transform="translate(0.02)"/></g></g></g><g id="figure_1-15" data-name="figure 1"><g id="patch_1-15" data-name="patch 1"><path class="cls-3" d="M383.46,302.86h31.42V256.94H383.46Z" transform="translate(0.02)"/></g><g id="axes_1-15" data-name="axes 1"><g id="patch_2-15" data-name="patch 2"><path class="cls-3" d="M383.46,302.86h31.42V256.94H383.46Z" transform="translate(0.02)"/></g><g id="line2d_1-15" data-name="line2d 1"><g class="cls-24"><path class="cls-5" d="M383.46,286.78l.25,0,.25-.05.26-.11.25.07h.25l.26.09h.25l.25-.05.26-.09.25,0,.25,0,.26,0h.25l.25,0h.26l.25-.06.25,0,.26,0,.25,0,.25.08.26,0,.25-.05.26,0,.25,0,.25,0,.26-.09.25.07.25,0,.26.06.25-.07.25,0h.26l.25,0,.25,0,.26,0h.25l.25-.05.26.05.25,0,.25,0h.26l.25-.07.25.05.26,0,.25,0,.25,0h.26l.25,0h.25l.26,0h.25l.26,0h.25l.25,0h.26l.25,0,.25-.05.26,0,.25,0,.25,0,.26,0,.25,0,.25,0h.26l.25,0,.25,0,.26.06.25,0h.25l.26,0h.25l.25,0,.26,0,.25,0h.25l.26,0,.25-.05.25.06.26-.07h.25l.26,0,.25,0h.25l.26,0,.25,0h.25l.26,0,.25.06h.51l.25,0h.25l.26,0,.25,0,.25.1.26,0H408l.25,0,.26,0,.25.1.25-.13h.26l.25,0h.25l.26.07.25-.06.25.06.26,0,.25,0,.26,0,.25,0,.25,0,.26,0,.25-.09.25,0,.26-.05.25,0h.25l.26,0,.25,0,.25.07.26,0,.25,0,.25-.05" transform="translate(0.02)"/></g></g><g id="line2d_2-15" data-name="line2d 2"><g class="cls-24"><path class="cls-6" d="M383.46,291.12l.25-.21.25-.25.26-.15.25.1.25.25.26.19.25.1.25-.16.26-.22.25-.24.25,0,.26.1.25.06.25.13.26.11.25,0h.25l.26-.05.25-.05.25.1.26,0,.25-.12.26-.11.25-.14.25,0h.51l.25.11.26.14.25,0,.25.14h.26l.25,0,.25-.08.26-.13.25,0,.25,0,.26.08.25.06.25-.11h.26l.25,0h.25l.26-.07h.25l.25,0,.26,0,.25-.1.25-.1.26.13.25.15.26,0,.25-.1h.51l.25,0,.25,0,.26-.08.25,0,.25,0,.26.05h.25l.25.05.26,0,.25,0,.25,0,.26,0,.25,0h.25l.26.1.25,0h.25l.26-.13.25-.13.25,0,.26.08.25.1.25.06.26,0h.25l.26.12.25-.1.25-.09.26,0,.25,0,.25-.06.26.16.25.12.25-.09.26-.17.25-.11.25,0,.26.09.25,0,.25,0,.26,0,.25.08.25,0,.26.2.25.07.25-.06.26-.17.25-.12h.25l.26,0,.25,0,.25,0,.26-.12.25,0,.26.08.25.16.25,0,.26,0,.25.21h.25l.26-.19.25-.13.25,0,.26.08.25.1.25.07h.26l.25-.09.25-.07" transform="translate(0.02)"/></g></g><g id="line2d_3-15" data-name="line2d 3"><g class="cls-24"><path class="cls-7" d="M383.46,289l.25-.11.25.08.26.2.25.12.25.07H385l.25-.16.25-.25.26-.06.25,0,.25.14.26.15.25.08.25-.06.26-.14.25-.05h.25l.26.11.25,0,.25,0,.26,0,.25,0,.26-.05.25-.05.25.12.26.07.25,0h.25l.26-.07.25-.08.25-.14.26,0h.25l.25.11.26.18.25.16.25,0,.26-.12.25-.14.25-.06.26,0,.25,0,.25.06.26.07.25.09h.25l.26-.07h.25l.25,0,.26,0,.25,0,.26-.1.25-.07.25-.09h.51l.25.09.26.12.25.12.25-.09.26-.07.25-.12.25.08.26.05.25.16h.51l.25,0h.25l.26-.06.25-.05.25,0,.26,0,.25.05.25,0,.26,0,.25-.08.25-.09.26-.07.25.08L404,289l.25-.08.25-.11.26,0,.25.1.25.14.26.11.25,0,.25,0,.26.08.25.07H407l.25,0,.25-.1h1l.25,0,.25,0,.26,0,.25,0,.25-.15.26-.14.25-.13.25.09.26.15.25.28.26.06h.25l.25-.12.26-.11.25-.17.25-.07.26.15.25.11.25.15.26,0,.25-.09.25-.12h.26l.25,0,.25.09" transform="translate(0.02)"/></g></g><g id="patch_3-15" data-name="patch 3"><path class="cls-8" d="M383.46,302.86V256.94" transform="translate(0.02)"/></g><g id="patch_4-15" data-name="patch 4"><path class="cls-8" d="M414.88,302.86V256.94" transform="translate(0.02)"/></g><g id="patch_5-15" data-name="patch 5"><path class="cls-8" d="M383.46,302.86h31.42" transform="translate(0.02)"/></g><g id="patch_6-15" data-name="patch 6"><path class="cls-8" d="M383.46,256.94h31.42" transform="translate(0.02)"/></g></g></g><g id="figure_1-16" data-name="figure 1"><g id="patch_1-16" data-name="patch 1"><path class="cls-3" d="M101,419.8h27.15V373.88H101Z" transform="translate(0.02)"/></g><g id="axes_1-16" data-name="axes 1"><g id="patch_2-16" data-name="patch 2"><path class="cls-3" d="M101,419.8h27.15V373.88H101Z" transform="translate(0.02)"/></g><g id="line2d_1-16" data-name="line2d 1"><g class="cls-25"><path class="cls-5" d="M101,403.6h.25l.26,0,.25,0,.25.06.26-.05.25,0h.26l.25,0h.25l.26.09.25.07.25.11.26.27.25.38.26.38.25.29.25.61.26.77.25.29.25.51.26.18.25.08.26.2.25-.68.25-.46.26-.28.25-.35.25.11.26.11.25.32.26.11.25.18.25.17.26.17.25.2.25,0,.26.12.25.07.26.08.25-.25.25-.05.26.26.25.06.25.07.26,0,.25,0,.26.07.25.1.25,0,.26.1.25.12.26.05h.5l.26-.08.25-.15.25-.19.26-.22.25-.24.26-.05.25.38.25,0,.26.19.25-.55h.25l.26-.7.25.45.26,1.4.25.81.25.28.26-.91.25-1.44.25-.43.26-.77.25-.62.26-.08.25,0,.25,1.24.26.42.25-.29.25-1.09.26-.83.25-.36.26-.25.25.13.25.11.26-.17.25-.2h.25l.26-.17.25-.16.26-.17.25,0,.25,0,.26-.09.25-.11.25-.14.26,0h.25l.26,0,.25,0,.25,0,.26.13.25.07.25,0,.26.08.25-.13" transform="translate(0.02)"/></g></g><g id="line2d_2-16" data-name="line2d 2"><g class="cls-25"><path class="cls-6" d="M101,408.65l.25.15h.26l.25,0,.25-.08.26-.15.25-.14.26.15.25.08.25.21.26.17.25.11.25.08.26.41.25.49.26.48.25.57.25.43.26.13.25-.61.25-.86.26-1.1.25-.87.26-.82.25-1.13.25-.77.26-.32.25.59.25.42.26.48.25,0,.26-.23.25.2.25.25.26.1.25,0,.25-.13.26-.13.25-.08h.26l.25-.17.25.12.26.4.25.54.25.34h.26l.25-.08.26-.06.25-.1.25.06.26.1.25-.05.26,0h.25l.25-.1.26-.15.25-.32.25-.28.26-.36.25-.09.26.39.25.8.25.25.26-.68.25-1,.25-.66.26-.8.25.65.26,1.85.25,1.3.25.27.26-.76.25-.7.25-.3.26,0,.25.24.26-.35.25-.06.25,2,.26,1.88.25-.31.25-1.88.26-1.63.25-.4.26.51.25.86.25.84.26.47.25.07.25-.21.26-.45.25-.45.26-.21.25,0,.25,0h.26l.25,0h.25l.26,0,.25.05.26.12h.25l.25-.09.26.27.25.39.25,0,.26-.06.25-.08" transform="translate(0.02)"/></g></g><g id="line2d_3-16" data-name="line2d 3"><g class="cls-25"><path class="cls-7" d="M101,406l.25,0,.26.06.25-.05.25-.09.26-.22.25-.12h.26l.25.27.25.29.26.42.25.24.25.55.26.57.25.55.26.79.25.53.25.12.26,0,.25-.75.25-1,.26-1.33.25-2.2.26-1.62.25-2.23.25-2.14.26-1.73.25-1,.25.12.26.86.25,2,.26,2.22.25,2,.25,1.21.26.66.25-.07.25-.58.26-.75.25-.7.26-.41.25-.58.25-.58.26-.4.25.14.25.46.26.5.25.24.26,0,.25,0,.25.23.26.32.25.29.26.19.25-.07.25-.3.26-.5.25-.74.25-.79.26-1.12.25-1.29.26-.95.25-.34.25.28.26.77.25.2.25-.37.26-1.73.25-1.5.26.17.25,2.34.25,4.28.26,4.59.25,2.63.25,1.26.26-.74.25-2.56.26-2.44.25-1,.25.85.26,2.07.25,2.61.25,1.89.26.7.25-.58.26-1.4.25-1.34.25-.93.26-.39.25-.05.25.26.26.24.25-.06.26-.57.25-.65.25-.49.26-.15.25.08.25.24.26,0,.25-.1.26,0,.25.28.25.26.26.28.25.27.25.11.26,0,.25-.47" transform="translate(0.02)"/></g></g><g id="patch_3-16" data-name="patch 3"><path class="cls-8" d="M101,419.8V373.88" transform="translate(0.02)"/></g><g id="patch_4-16" data-name="patch 4"><path class="cls-8" d="M128.17,419.8V373.88" transform="translate(0.02)"/></g><g id="patch_5-16" data-name="patch 5"><path class="cls-8" d="M101,419.8h27.15" transform="translate(0.02)"/></g><g id="patch_6-16" data-name="patch 6"><path class="cls-8" d="M101,373.88h27.15" transform="translate(0.02)"/></g></g></g><g id="figure_1-17" data-name="figure 1"><g id="patch_1-17" data-name="patch 1"><path class="cls-3" d="M138.17,419.8h23.64V373.88H138.17Z" transform="translate(0.02)"/></g><g id="axes_1-17" data-name="axes 1"><g id="patch_2-17" data-name="patch 2"><path class="cls-3" d="M138.17,419.8h23.64V373.88H138.17Z" transform="translate(0.02)"/></g><g id="line2d_1-17" data-name="line2d 1"><g class="cls-26"><path class="cls-5" d="M138.17,403.47h.26l.25,0,.25.05.26,0,.25,0h.26l.25.09.26.23h.25l.25.26.26.2.25.78.26.36.25,1.09.25.3.26,1.34.25,1.43.26,2.17L143,413l.25.45.26-.16.25-.33.26-1,.25-1.36.26-1.42.25-.47.25-.31.26-.4.25.81.26.56h.25l.25.21.26-.42.25-.14.26-.5.25.18.25.2.26.34.25.14.26,0,.25-.19.26-.7.25-.62.25-.65.26-.29.25.25.26.27.25,1.08.25.46.26.68.25-.74.26-.58.25-.89.25-1.1.26.35.25,1,.26.76h.25l.26-1.13.25-1,.25-.8.26-.28.25-.2.26-.29.25-.34.25,0,.26,0,.25,0,.26-.21.25-.07.25-.27.26-.24.25-.12.26-.1.25-.07.26.05.25.16H158l.26.13.25-.12.26,0,.25,0h.25l.26-.07.25,0,.26,0,.25.29.26.34.25-.2.25-.22.26-.27.25-.12.26-.12" transform="translate(0.02)"/></g></g><g id="line2d_2-17" data-name="line2d 2"><g class="cls-26"><path class="cls-6" d="M138.17,408.13l.26.07.25.22.25.09.26-.05.25,0,.26.1.25.24.26.32.25.24.25.3.26.48.25,1.13.26,1.72.25,1.18.25-.07.26-1,.25-1,.26.15.25-1.45.25-2.42.26-2.57.25-2.1.26-1.12.25.2.26,1.36.25.85.25-.22.26-.56.25-.59.26-.16.25-.16.25.54.26.6.25.22.26.24.25.48.25,1,.26.92.25.52.26.26.25-.14.26-.76.25-.65.25-1,.26-.56.25.6.26,1.52.25,1.42.25.62.26-.74.25-1.32.26-1.41.25-1.39.25-1.11.26.58.25,3,.26,2.45.25.91.26-.85.25-.73.25-.54.26.1h.25l.26.07.25.12.25.22.26,0,.25,0,.26-.26.25-.5.25-.57.26-.26.25,0,.26,0h.25l.26.5.25.75.25.52.26-.11.25-.42.26-.48.25-.11.25-.13.26,0,.25-.19H160l.25.28.26,1.19.25.69.25-.4.26-.62.25-.2.26-.07" transform="translate(0.02)"/></g></g><g id="line2d_3-17" data-name="line2d 3"><g class="cls-26"><path class="cls-7" d="M138.17,405.68h.26l.25.28.25.27.26.15.25.17.26,0,.25.13.26.25.25.38.25.25.26.5.25,1.08.26,1.58.25,2.49.25,2.07.26,1.55.25-.29.26-2.21.25-2.69.25-3.6.26-3.11.25-3.37.26-3.43.25-3.61.26-4.09.25-3.28L145,385l.26.51.25,3.41.26,5.27.25,4.63.25,3,.26.8.25-1,.26-1.52.25-1.35.25.26.26,1.27.25,2.1.26,1.67.25,1,.26-.73.25-2.14.25-3.32.26-3.06.25-1.24.26.13.25,1.3.25,1.33.26,2.74.25,3,.26,2.24.25,1.4.25-.33.26-1.31.25-.81.26,1.15.25,2.71.26,2.95.25,1.84.25.06.26-.73.25-1.21.26-1.61.25-1.39.25-1.06.26-.62.25-.15.26.19.25.06.25-.48.26-.91.25-1.05.26-.61.25,0,.26.75.25,1,.25.87.26.35h.25l.26-.35L159,406l.25,0,.26-.07.25-.26.26-.17.25.29.26.65.25.3.25,0,.26-.51.25-.58.26-.16" transform="translate(0.02)"/></g></g><g id="patch_3-17" data-name="patch 3"><path class="cls-8" d="M138.17,419.8V373.88" transform="translate(0.02)"/></g><g id="patch_4-17" data-name="patch 4"><path class="cls-8" d="M161.81,419.8V373.88" transform="translate(0.02)"/></g><g id="patch_5-17" data-name="patch 5"><path class="cls-8" d="M138.17,419.8h23.64" transform="translate(0.02)"/></g><g id="patch_6-17" data-name="patch 6"><path class="cls-8" d="M138.17,373.88h23.64" transform="translate(0.02)"/></g></g></g><g id="figure_1-18" data-name="figure 1"><g id="patch_1-18" data-name="patch 1"><path class="cls-3" d="M171.81,419.8h14.58V373.88H171.81Z" transform="translate(0.02)"/></g><g id="axes_1-18" data-name="axes 1"><g id="patch_2-18" data-name="patch 2"><path class="cls-3" d="M171.81,419.8h14.58V373.88H171.81Z" transform="translate(0.02)"/></g><g id="line2d_1-18" data-name="line2d 1"><g class="cls-27"><path class="cls-5" d="M171.81,403.39l.25,0,.26.09.25.09.26.29.25.58.26.22.26.22.25.34.26.58.25.69.26,1.48.26,1.64.25,2,.26,2.35.25,2.49.26,1.59.25-.88.26-1.69.26-4.06.25-2.18.26-1.28h.25l.26,1.83.26.86.25.13.26.09.25-.3L179,410l.25-1.46.26-.09.26-.14.25.89.26.85.25-.08.26-.53.26-1.24.25-.28.26-.5.25-.32.26.71.25.45.26.11.26.1.25-.6.26-1.08.25-.4.26-.17.26.35.25-.47.26-.35.25-.7.26-.44.25-.25.26-.22.26-.22h.25l.26-.42" transform="translate(0.02)"/></g></g><g id="line2d_2-18" data-name="line2d 2"><g class="cls-27"><path class="cls-6" d="M171.81,408.15l.25.16.26.08.25.11.26.35.25.82.26.54.26.66.25,1.52.26,1.07.25-1.21.26-.63.26.49.25,1.06.26,1.47.25-.29.26-2.59.25-4.65.26-5.47.26-3,.25,1.09.26,1.81.25,1.41.26.46.26-1.14.25-1.37.26-.12.25,1.21.26.62.25.24.26,1.14.26,1.52L180,407l.26,1.4.25.27.26-.93.26-1.45.25-.6.26-.13.25.77L182,408l.25,1.41.26-.07.26-.87.25-1,.26-.41.25,0,.26.72.26,1.77.25,1,.26-.48.25-1.48.26-1,.25-.17.26.32.26.55.25.29.26,0" transform="translate(0.02)"/></g></g><g id="line2d_3-18" data-name="line2d 3"><g class="cls-27"><path class="cls-7" d="M171.81,406.56l.25-.13.26.1.25.31.26.84.25,1.11.26,1.2.26.28.25.66.26,1.18.25,1.53.26,2.05.26,2.26.25.92.26-1.19.25-3.83.26-5.5.25-5.8.26-5.26.26-7,.25-5.69.26-5.77.25-3.88.26,1.1.26,6.11.25,9.27.26,6.67.25,4.5L179,404l.25-1.88.26-3,.26-2.61.25-.42.26,2.1.25,3.17.26,2.76.26.8.25-.82.26-2.07.25-1.65.26-.06.25,1.89.26,3,.26,3.41.25,2.86.26,1.41.25.06.26-1.08.26-1.59.25-1,.26-.51.25-.51.26-.49.25-.24.26-.23.26-.32.25-.72.26-1" transform="translate(0.02)"/></g></g><g id="patch_3-18" data-name="patch 3"><path class="cls-8" d="M171.81,419.8V373.88" transform="translate(0.02)"/></g><g id="patch_4-18" data-name="patch 4"><path class="cls-8" d="M186.39,419.8V373.88" transform="translate(0.02)"/></g><g id="patch_5-18" data-name="patch 5"><path class="cls-8" d="M171.81,419.8h14.58" transform="translate(0.02)"/></g><g id="patch_6-18" data-name="patch 6"><path class="cls-8" d="M171.81,373.88h14.58" transform="translate(0.02)"/></g></g></g><g id="figure_1-19" data-name="figure 1"><g id="patch_1-19" data-name="patch 1"><path class="cls-3" d="M247.62,419.8H279V373.88H247.62Z" transform="translate(0.02)"/></g><g id="axes_1-19" data-name="axes 1"><g id="patch_2-19" data-name="patch 2"><path class="cls-3" d="M247.62,419.8H279V373.88H247.62Z" transform="translate(0.02)"/></g><g id="line2d_1-19" data-name="line2d 1"><g class="cls-28"><path class="cls-5" d="M247.62,403.65l.25,0,.25.05h.26l.25,0,.25.05.26,0,.25,0,.25,0h.51l.25-.05.26-.06.25,0,.25,0,.26.07.25,0,.25.05.26-.06.25.07h.25l.26-.07h.25l.25,0,.26.05.25,0h.26l.25.05.25,0,.26-.06.25,0,.25-.11h.26l.25,0,.25,0,.26,0,.25.07.25,0h.26l.25,0H258l.25-.06h.25l.26.06.25,0,.25.05h.26l.25,0,.25,0,.26,0h.25l.25,0,.26,0,.25.12.26-.12.25,0,.25,0h.26l.25,0h.25l.26,0,.25,0,.25,0,.26.05h.25l.25-.08.26.19.25-.13.25,0,.26,0h.5l.26.1h.5l.26,0,.25,0,.25-.06.26.13h.25l.25,0,.26,0h.25l.26-.08.25,0,.25,0,.26,0,.25,0,.25,0h.26l.25,0,.25,0,.26-.05.25,0,.25.09.26-.05.25.06H273l.25,0,.26,0,.25-.05H274l.26,0,.25,0,.25,0,.26.06.25,0,.25,0,.26,0,.25,0h.26l.25,0,.25.07.26-.05h.25l.25,0h.26l.25,0h.25l.26,0h.25l.25,0" transform="translate(0.02)"/></g></g><g id="line2d_2-19" data-name="line2d 2"><g class="cls-28"><path class="cls-6" d="M247.62,407.88l.25,0,.25,0,.26,0,.25,0,.25,0,.26,0,.25,0,.25,0,.26.09.25-.06.25-.15.26-.09.25.08.25.16.26,0,.25,0,.25,0,.26,0,.25.11.25.14.26,0,.25,0h.25l.26,0,.25,0,.26-.09.25-.07.25,0,.26.05.25.11.25.1.26.13.25.06h.25l.26.09.25.06H257l.26,0,.25,0h.25l.26-.09.25-.06.25.1.26.05.25,0,.25,0,.26-.1.25,0,.25.13.26-.09h.5l.26.17h.25l.26-.06.25-.23.25-.14h.26l.25.15.25.12.26.05.25-.05h.25l.26,0,.25.06.25.22h.26l.25-.19.25-.17.26-.16.25-.08.25.16.26.26.25,0,.25-.09.26-.12h.25l.25.07.26.06.25,0,.25,0h.26l.25.05.26,0,.25-.05.25,0h.26l.25.21.25,0,.26,0,.25-.05.25-.13.26-.07.25-.12.25,0,.26.06h.25l.25,0,.26-.06H273l.25-.06.26.06.25,0,.25,0,.26.05.25,0,.25,0,.26-.07.25-.1.25,0,.26.08.25.12.26.13.25.15.25.12.26.07.25-.05.25-.05.26-.21.25-.19.25,0,.26.07.25.06.25.1" transform="translate(0.02)"/></g></g><g id="line2d_3-19" data-name="line2d 3"><g class="cls-28"><path class="cls-7" d="M247.62,405.56l.25,0,.25.09.26,0,.25-.19.25-.05.26,0,.25,0,.25-.05.26.06.25.11.25.07.26.1.25,0,.25-.05.26,0,.25,0,.25.05h.51l.25.08.26,0,.25,0,.25,0,.26-.16.25-.06.26.24.25.17.25.23.26.07.25-.1.25-.07.26-.15H256l.25,0,.26.07.25,0,.25,0,.26,0,.25.05.25,0,.26,0h.25l.25,0,.26-.06.25-.12.25-.09H260l.26,0,.25.07.25,0,.26-.2.25,0,.26.11.25.15.25.05h.26l.25-.18.25-.16.26,0,.25,0,.25.1.26,0h.25l.25-.1.26-.12h.25l.25,0,.26.09.25.12.25-.06.26-.14.25-.17.25,0,.26.21.25.26.25.19.26,0,.25-.1.25-.09.26,0,.25-.08.26,0,.25,0h.25l.26,0,.25-.06.25-.07.26,0,.25.11.25,0,.26,0,.25-.12.25-.13.26-.14h.25l.25.08.26.2.25.05.25.09.26,0,.25-.07.25-.06.26-.2.25-.1.25.06.26.16.25.15.25.17.26.06H276l.26-.08.25-.08.25-.18h.51l.25-.14.26-.1.25.05.25.23.26.13.25,0,.25-.06" transform="translate(0.02)"/></g></g><g id="patch_3-19" data-name="patch 3"><path class="cls-8" d="M247.62,419.8V373.88" transform="translate(0.02)"/></g><g id="patch_4-19" data-name="patch 4"><path class="cls-8" d="M279,419.8V373.88" transform="translate(0.02)"/></g><g id="patch_5-19" data-name="patch 5"><path class="cls-8" d="M247.62,419.8H279" transform="translate(0.02)"/></g><g id="patch_6-19" data-name="patch 6"><path class="cls-8" d="M247.62,373.88H279" transform="translate(0.02)"/></g></g></g><g id="figure_1-20" data-name="figure 1"><g id="patch_1-20" data-name="patch 1"><path class="cls-3" d="M289,419.8h27.41V373.88H289Z" transform="translate(0.02)"/></g><g id="axes_1-20" data-name="axes 1"><g id="patch_2-20" data-name="patch 2"><path class="cls-3" d="M289,419.8h27.41V373.88H289Z" transform="translate(0.02)"/></g><g id="line2d_1-20" data-name="line2d 1"><g class="cls-29"><path class="cls-5" d="M289,403.46l.26,0h.25l.25-.08.26.07.25.08.26,0,.25,0,.25,0,.26,0,.25,0h.51l.25-.14.26.15.25-.05h.25l.26.06.25,0,.25,0,.26.06.25,0,.26-.07h.76l.25.07.25-.1h.26l.25.05.26,0,.25,0,.25.05.26,0,.25-.06.25-.05.26,0,.25.05.26.05.25-.05h.25l.26,0,.25,0,.25,0h.26l.25-.05.26,0,.25.07h.25l.26-.07.25.12.25-.05h.26l.25,0,.26,0,.25-.05.25,0,.26,0,.25.09H304l.26,0,.25,0,.26-.1.25.05h.25l.26,0h.5l.26.08.25-.06.26,0,.25.1.25,0,.26,0,.25,0h.25l.26-.06.25,0h.26l.25,0,.25,0,.26,0h.25l.25,0,.26,0,.25,0h.76l.26,0,.25,0,.25,0,.26.08.25-.1.26,0,.25,0h1l.26,0h.25l.26,0h.25l.25,0,.26,0,.25,0,.25,0h.26" transform="translate(0.02)"/></g></g><g id="line2d_2-20" data-name="line2d 2"><g class="cls-29"><path class="cls-6" d="M289,408.72l.26,0,.25-.17.25-.14.26.18.25.09.26-.07.25-.07.25-.06.26,0,.25.07.25.08.26-.08.25-.09.26,0,.25.1.25-.06.26-.12.25-.1.25-.12.26.05.25.05h.26l.25.12.25.22.26.07h.25l.25-.24.26-.16.25-.13.26.14.25.12.25.06.26,0,.25-.08.25-.06.26-.12h.25l.26,0h.25l.25-.09.26-.1.25.06.25.2.26.07.25.05h.26l.25,0,.25,0,.26.08.25-.11.25-.11.26-.05.25,0,.26-.08H303l.25,0,.26.13.25.13.25.15.26-.16.25-.22.26-.18.25,0,.25.2.26.1h.25l.25-.07.26-.06.25-.1.26,0,.25.06.25.15.26.08.25,0,.25-.06.26,0,.25,0,.26.06.25.09.25-.14.26,0,.25-.08.25-.05.26,0h.25l.26.08.25.13h.25l.26.05.25-.07.25-.06.26-.05.25-.07h.76l.26,0,.25-.07.25,0,.26.14.25.11h.51l.25-.07.26,0,.25,0,.25-.08h.26" transform="translate(0.02)"/></g></g><g id="line2d_3-20" data-name="line2d 3"><g class="cls-29"><path class="cls-7" d="M289,405.84l.26-.23.25.08.25.09.26.06.25.09.26.27.25.33.25.27.26.09.25-.12.25-.29.26-.38.25-.22.26,0,.25.27.25.24.26.06.25.05.25,0,.26-.06.25-.07.26-.18.25-.29.25-.37.26-.11.25.18.25.22.26.32.25.27.26.08.25-.06.25-.13.26,0,.25-.14.25-.12.26-.15.25-.1.26-.13.25.08.25.11.26.07.25.07.25.09.26,0,.25.1.26,0,.25-.07.25-.09.26-.1h.5l.26.1.25-.08h.26l.25.06.25.12h.26l.25-.12.25-.14.26,0,.25.2.26.21.25.06.25-.2.26-.21.25,0,.25.09.26.17.25.09.26-.09h.25l.25,0,.26,0,.25,0,.25,0,.26.08.25.06.26,0,.25-.07.25-.14.26-.11.25,0,.25.07.26.09.25.06h.26l.25-.2.25-.2.26,0,.25.08.25.05.26,0,.25,0,.26-.07.25-.08.25-.09.26-.11.25,0,.25.06.26.12.25.17.26,0,.25.07.25,0,.26,0,.25,0,.25-.18.26-.27" transform="translate(0.02)"/></g></g><g id="patch_3-20" data-name="patch 3"><path class="cls-8" d="M289,419.8V373.88" transform="translate(0.02)"/></g><g id="patch_4-20" data-name="patch 4"><path class="cls-8" d="M316.45,419.8V373.88" transform="translate(0.02)"/></g><g id="patch_5-20" data-name="patch 5"><path class="cls-8" d="M289,419.8h27.41" transform="translate(0.02)"/></g><g id="patch_6-20" data-name="patch 6"><path class="cls-8" d="M289,373.88h27.41" transform="translate(0.02)"/></g></g></g><g id="figure_1-21" data-name="figure 1"><g id="patch_1-21" data-name="patch 1"><path class="cls-3" d="M326.45,419.8h31.17V373.88H326.45Z" transform="translate(0.02)"/></g><g id="axes_1-21" data-name="axes 1"><g id="patch_2-21" data-name="patch 2"><path class="cls-3" d="M326.45,419.8h31.17V373.88H326.45Z" transform="translate(0.02)"/></g><g id="line2d_1-21" data-name="line2d 1"><g class="cls-30"><path class="cls-5" d="M326.45,403.39l.25-.13.25.2.26.08.25,0,.25-.07.26,0h.25l.26-.08.25-.05.25.1h.26l.25,0,.25,0,.26-.1.25,0,.25,0,.26,0H331l.25-.06h.26l.25,0,.25,0,.26.08.25-.12.25-.06.26,0,.25-.11.25.05.26.05.25-.09.25,0h.26l.25.08h.51l.25.08.26-.07.25-.07.25.1.26,0,.25,0,.25.07.26-.06h.25l.25-.08h1.27l.25,0h.26l.25.07h.25l.26,0h.5l.26.11.25-.08.26,0,.25-.06h.25l.26,0,.25,0,.25-.1.26.06.25,0h.25l.26.06.25,0,.25,0,.26,0,.25,0,.25,0h.51l.25-.09.26,0,.25-.08.25,0,.26,0,.25.09.25,0,.26.09.25-.08h.76l.26,0,.25,0h.25l.26,0,.25,0,.25,0,.26,0,.25.1H351l.26,0h.5l.26-.08.25,0h.25l.26-.05.25,0,.25,0,.26,0,.25,0,.25,0,.26,0,.25,0h.51l.25,0h.26l.25,0,.25-.08.26.07.25,0,.25.05.26,0,.25,0h.25" transform="translate(0.02)"/></g></g><g id="line2d_2-21" data-name="line2d 2"><g class="cls-30"><path class="cls-6" d="M326.45,408l.25-.21H327l.26.31.25.19.25-.1L328,408l.25-.2.26-.17.25-.09H329l.26.2.25.2.25.23.26.13h.25l.25-.16.26-.13L331,408l.25-.06h.26l.25.17.25.35.26.17.25-.17.25-.36.26-.2.25,0,.25.21.26.16.25-.07.25-.19.26,0,.25.06h.26l.25,0h.25l.26-.1.25-.07.25.16.26.05.25,0h.25l.26,0h.25l.25-.08.26,0h.76l.25,0,.25.07.26,0,.25-.07h.25l.26-.07.25,0,.25.11.26.11h.25l.26-.08.25-.15.25-.07.26-.06h.25l.25,0,.26-.07.25,0,.25.12.26.06.25.06h.25l.26,0,.25,0,.25,0,.26,0,.25-.11.25-.13.26-.08.25-.1h.25l.26.08.25.1.25.13h.26l.25-.05.26-.1.25,0,.25.07.26,0,.25,0,.25,0,.26-.1.25-.06.25,0h.26l.25.09.25,0,.26.08.25,0,.25,0,.26,0,.25-.05h.25l.26.1h.25l.25.1.26,0h.25l.25-.11.26-.14.25-.11h.76l.26.06.25.11.25,0,.26.08.25-.05.25-.06.26-.07.25.05.25.14" transform="translate(0.02)"/></g></g><g id="line2d_3-21" data-name="line2d 3"><g class="cls-30"><path class="cls-7" d="M326.45,405.49l.25.23.25.3.26.3.25.15.25-.16L328,406l.25-.4.26-.15h.25l.25.36.26.48.25.5.25.19.26-.2.25-.15.25.07.26.12.25.1.25-.05.26-.23.25-.2.25-.1.26.09.25.28.25.22.26.17h.25l.25-.31.26-.26.25.06.25.24.26.24.25.23h.26l.25-.16.25-.3.26-.08.25.1.25.13.26.18h.5l.26-.21.25-.17.25-.13.26-.17h.25l.25.12.26.16.25.13h.25l.26-.13h.5l.26,0,.25.06.25,0,.26,0,.25-.08.26-.06.25-.11.25-.15h.26l.25.15.25.14.26.1.25.07h.25l.26,0,.25-.06h.25l.26-.1.25-.08.25,0,.26.14.25-.12.25-.26.26-.26.25-.13.25.14.26.28.25.16.25.08.26.06.25,0,.26-.08.25-.14.25-.07.26-.11.25-.19.25,0,.26.1.25.23.25.28.26.21h.5l.26-.19.25-.21.25-.17.26,0,.25.06.25.14.26.09.25.13.25.06.26-.11.25-.2.25-.12.26,0,.25.07h.26l.25,0,.25,0,.26,0,.25,0,.25.07.26-.09.25.06h.25l.26.15.25.09h.25" transform="translate(0.02)"/></g></g><g id="patch_3-21" data-name="patch 3"><path class="cls-8" d="M326.45,419.8V373.88" transform="translate(0.02)"/></g><g id="patch_4-21" data-name="patch 4"><path class="cls-8" d="M357.62,419.8V373.88" transform="translate(0.02)"/></g><g id="patch_5-21" data-name="patch 5"><path class="cls-8" d="M326.45,419.8h31.17" transform="translate(0.02)"/></g><g id="patch_6-21" data-name="patch 6"><path class="cls-8" d="M326.45,373.88h31.17" transform="translate(0.02)"/></g></g></g><g id="figure_1-22" data-name="figure 1"><g id="patch_1-22" data-name="patch 1"><path class="cls-3" d="M367.62,419.8h31.43V373.88H367.62Z" transform="translate(0.02)"/></g><g id="axes_1-22" data-name="axes 1"><g id="patch_2-22" data-name="patch 2"><path class="cls-3" d="M367.62,419.8h31.43V373.88H367.62Z" transform="translate(0.02)"/></g><g id="line2d_1-22" data-name="line2d 1"><g class="cls-31"><path class="cls-5" d="M367.62,403.72l.26,0,.25-.05.25-.11.26.07h.25l.25.09h.26l.25-.05.25-.1h.26l.25,0,.25,0h.26l.25,0h.26l.25-.06.25,0,.26,0,.25,0,.25.08.26,0,.25-.05.25,0,.26,0,.25,0,.25-.09.26.07.25,0,.25.06.26-.08.25,0h.25l.26,0,.25,0,.25,0h.26l.25-.05.25.05.26,0,.25,0H378l.26-.07.25.05.26,0,.25,0,.25,0h.26l.25,0,.25,0,.26,0h.25l.25,0h.26l.25,0h.25l.26,0,.25-.05.25,0,.26,0,.25,0,.25,0,.26,0,.25,0h.25l.26,0,.25,0,.25.06.26,0h.25l.25,0h.26l.25,0,.25,0,.26,0h.25l.26,0,.25-.05.25.06.26-.07h.25l.25,0,.26,0h.25l.25,0,.26,0h.25l.25,0,.26.06h.5l.26,0h.25l.25,0,.26,0,.25.1.25,0h.26l.25,0,.25,0,.26.1.25-.13h.25l.26,0H394l.26.07.25-.06.25.06.26,0,.25,0,.25,0,.26,0,.25,0,.25,0,.26-.09.25,0,.25-.05.26,0h.25l.25,0,.26,0,.25.07.25,0,.26,0,.25-.05" transform="translate(0.02)"/></g></g><g id="line2d_2-22" data-name="line2d 2"><g class="cls-31"><path class="cls-6" d="M367.62,408.06l.26-.21.25-.25.25-.15.26.1.25.25.25.18.26.11.25-.16.25-.22.26-.24.25,0,.25.1.26.06.25.13.26.1.25,0h.25l.26-.05.25-.05.25.1.26,0,.25-.11.25-.11.26-.14.25,0h.51l.25.11.25.14.26,0,.25.15h.25l.26,0,.25-.08.25-.13.26-.05.25.05.25.08.26.06.25-.11H378l.26,0h.25l.26-.07H379l.25,0h.26l.25-.09.25-.1.26.13.25.15.25,0,.26-.1h.5l.26,0,.25,0,.25-.08.26,0,.25,0,.25.05h.26l.25.05.25,0,.26,0,.25,0,.25,0,.26,0h.25l.25.09.26,0,.25,0,.25-.12.26-.13.25,0,.26.08.25.1.25.06.26,0h.25l.25.12.26-.1.25-.09.25,0,.26,0,.25-.06.25.16.26.12.25-.09.25-.17.26-.11.25,0,.25.09.26,0,.25,0,.25,0,.26.07.25,0,.25.2.26.07.25-.06.25-.17.26-.12H394l.26,0,.25,0,.25,0,.26-.12.25,0,.25.08.26.16.25,0,.25,0,.26.21h.25l.25-.19.26-.13.25,0,.25.08.26.1.25.07h.25l.26-.08.25-.07" transform="translate(0.02)"/></g></g><g id="line2d_3-22" data-name="line2d 3"><g class="cls-31"><path class="cls-7" d="M367.62,406l.26-.11.25.08.25.2.26.12.25.07h.25l.26-.16.25-.25.25-.06.26,0,.25.14.25.15.26.08.25-.06.26-.14.25-.05h.25l.26.11.25,0,.25,0,.26,0,.25,0,.25-.05.26-.05.25.12.25.07.26,0h.25l.25-.07.26-.08.25-.14.25,0H376l.25.11.25.17.26.17.25,0,.25-.13.26-.13.25-.06.25,0,.26,0,.25.06.26.07.25.09h.25l.26-.07h.25l.25,0,.26,0,.25,0,.25-.1.26-.08.25-.08h.51l.25.09.25.12.26.12.25-.09.25-.07.26-.12.25.07.25.06.26.16h.5l.26,0h.25l.25-.06.26-.06.25,0,.25,0,.26.05.25,0,.26,0,.25-.08.25-.09.26-.07.25.07.25-.06.26-.08.25-.11.25,0,.26.1.25.14.25.11.26,0,.25,0,.25.08.26.07h.5l.26,0,.25-.1h1l.26,0,.25,0,.25,0,.26,0L394,406l.26-.14.25-.13.25.09.26.15.25.28.25.06h.26l.25-.12.25-.11.26-.17.25-.08.25.16.26.1.25.16h.25l.26-.08.25-.12h.25l.26,0,.25.09" transform="translate(0.02)"/></g></g><g id="patch_3-22" data-name="patch 3"><path class="cls-8" d="M367.62,419.8V373.88" transform="translate(0.02)"/></g><g id="patch_4-22" data-name="patch 4"><path class="cls-8" d="M399.05,419.8V373.88" transform="translate(0.02)"/></g><g id="patch_5-22" data-name="patch 5"><path class="cls-8" d="M367.62,419.8h31.43" transform="translate(0.02)"/></g><g id="patch_6-22" data-name="patch 6"><path class="cls-8" d="M367.62,373.88h31.43" transform="translate(0.02)"/></g></g></g><path class="cls-32" d="M144.65,366c.34.76,2.64,1.08,3.83,1.25,2.39.31,3.76.31,11.78.31h15.63c6.15,0,10.5,1.09,10.5,2.29,0,.12,0,.24-.94.24a2.45,2.45,0,0,1-.94-.11c-.34-.84-2.39-1.11-3.93-1.33-2.13-.29-4-.29-10.15-.29H155.06c-2.39,0-8.45,0-11.35-1.41-.94.47-3.17,1.23-8.8,1.39-.85,0-5.2,0-7.77,0h-12.8c-3,0-3.16,0-4.1,0-3.08.11-6.91.55-7.34,1.5-.09.12-.09.19-.94.19s-.94-.12-.94-.24c0-.38.77-1.15,3.25-1.67,3.15-.62,6.06-.62,11-.62h16.9c8.54,0,10.33-1,10.59-1.54.08-.12.08-.19.94-.19S144.65,366,144.65,366Z" transform="translate(0.02)"/><path class="cls-32" d="M325.06,366c.61.76,4.71,1.08,6.82,1.25,4.24.31,6.67.31,20.91.31h27.75c10.9,0,18.63,1.09,18.63,2.29,0,.12,0,.24-1.67.24a7.5,7.5,0,0,1-1.66-.11c-.61-.84-4.25-1.11-7-1.33-3.79-.29-7.13-.29-18-.29H343.55c-4.24,0-15,0-20.15-1.41-1.67.47-5.62,1.23-15.61,1.39-1.52,0-9.24,0-13.8,0H271.26c-5.31,0-5.6,0-7.28,0-5.46.11-12.27.55-13,1.5-.15.12-.15.19-1.67.19s-1.66-.12-1.66-.24c0-.38,1.37-1.15,5.76-1.67,5.6-.62,10.76-.62,19.55-.62h30c15.15,0,18.34-1,18.79-1.54.15-.12.15-.19,1.67-.19S325.06,366,325.06,366Z" transform="translate(0.02)"/><text class="cls-2" transform="translate(129.4 362.86)">Strike</text><text class="cls-2" transform="translate(301.25 362.86)">No strike</text></g></g></svg>