<svg xmlns="http://www.w3.org/2000/svg" viewBox="0 0 234.14 271.26"><defs><style>.cls-1,.cls-3{fill:none;stroke:#000;stroke-width:0.6px;}.cls-1{stroke-linecap:round;stroke-linejoin:round;}.cls-2{fill-rule:evenodd;}.cls-3{stroke-miterlimit:10;}</style></defs><title>Asset 1</title><g id="Layer_2" data-name="Layer 2"><g id="Layer_1-2" data-name="Layer 1"><line class="cls-1" x1="169.19" y1="83.63" x2="169.19" y2="87.41"/><rect x="169.19" y="87.41" width="0.04" height="0.04"/><line class="cls-1" x1="161.67" y1="79.89" x2="169.19" y2="83.63"/><rect x="169.19" y="83.63" width="0.04" height="0.04"/><line class="cls-1" x1="176.67" y1="72.37" x2="161.67" y2="79.89"/><rect x="161.67" y="79.89" width="0.04" height="0.04"/><line class="cls-1" x1="161.67" y1="64.9" x2="176.67" y2="72.37"/><rect x="176.67" y="72.37" width="0.04" height="0.04"/><line class="cls-1" x1="176.67" y1="57.38" x2="161.67" y2="64.9"/><rect x="161.67" y="64.9" width="0.04" height="0.04"/><line class="cls-1" x1="169.19" y1="49.86" x2="169.19" y2="53.64"/><rect x="169.19" y="53.64" width="0.04" height="0.04"/><line class="cls-1" x1="169.19" y1="53.64" x2="176.67" y2="57.38"/><rect x="176.67" y="57.38" width="0.04" height="0.04"/><line class="cls-1" x1="64.09" y1="83.63" x2="64.09" y2="87.41"/><rect x="64.09" y="87.41" width="0.04" height="0.04"/><rect x="64.09" y="83.63" width="0.04" height="0.04"/><line class="cls-1" x1="64.09" y1="49.86" x2="64.09" y2="53.64"/><rect x="64.09" y="53.64" width="0.04" height="0.04"/><line class="cls-1" x1="56.61" y1="79.89" x2="64.09" y2="83.63"/><line class="cls-1" x1="71.61" y1="72.37" x2="56.61" y2="79.89"/><rect x="56.61" y="79.89" width="0.04" height="0.04"/><line class="cls-1" x1="56.61" y1="64.9" x2="71.61" y2="72.37"/><rect x="71.61" y="72.37" width="0.04" height="0.04"/><line class="cls-1" x1="71.61" y1="57.38" x2="56.61" y2="64.9"/><rect x="56.61" y="64.9" width="0.04" height="0.04"/><line class="cls-1" x1="64.09" y1="53.64" x2="71.61" y2="57.38"/><rect x="71.61" y="57.38" width="0.04" height="0.04"/><line class="cls-1" x1="54.7" y1="160.57" x2="50.96" y2="164.35"/><rect x="50.96" y="164.35" width="0.04" height="0.04"/><line class="cls-1" x1="64.09" y1="169.96" x2="54.7" y2="160.57"/><rect x="54.7" y="160.57" width="0.04" height="0.04"/><line class="cls-1" x1="64.09" y1="169.96" x2="50.96" y2="164.35"/><rect x="50.96" y="164.35" width="0.04" height="0.04"/><line class="cls-1" x1="52.83" y1="162.44" x2="41.57" y2="154.96"/><rect x="41.57" y="154.96" width="0.04" height="0.04"/><line class="cls-1" x1="41.57" y1="162.44" x2="41.57" y2="132.45"/><rect x="41.57" y="132.45" width="0.04" height="0.04"/><line class="cls-1" x1="41.57" y1="139.92" x2="64.09" y2="124.93"/><rect x="64.09" y="124.93" width="0.04" height="0.04"/><line class="cls-1" x1="41.57" y1="147.44" x2="34.09" y2="147.44"/><rect x="34.09" y="147.44" width="0.04" height="0.04"/><line class="cls-1" x1="178.58" y1="160.57" x2="182.32" y2="164.35"/><rect x="182.32" y="164.35" width="0.04" height="0.04"/><line class="cls-1" x1="169.19" y1="169.96" x2="178.58" y2="160.57"/><rect x="178.58" y="160.57" width="0.04" height="0.04"/><line class="cls-1" x1="169.19" y1="169.96" x2="182.32" y2="164.35"/><rect x="182.32" y="164.35" width="0.04" height="0.04"/><line class="cls-1" x1="180.45" y1="162.44" x2="191.71" y2="154.96"/><rect x="191.71" y="154.96" width="0.04" height="0.04"/><line class="cls-1" x1="191.71" y1="162.44" x2="191.71" y2="132.45"/><rect x="191.71" y="132.45" width="0.04" height="0.04"/><line class="cls-1" x1="191.71" y1="139.92" x2="169.19" y2="124.93"/><rect x="169.19" y="124.93" width="0.04" height="0.04"/><line class="cls-1" x1="191.71" y1="147.44" x2="199.19" y2="147.44"/><rect x="199.19" y="147.44" width="0.04" height="0.04"/><line class="cls-1" x1="116.64" y1="226.25" x2="118.51" y2="220.64"/><rect x="118.51" y="220.64" width="0.04" height="0.04"/><line class="cls-1" x1="116.64" y1="226.25" x2="114.77" y2="220.64"/><rect x="114.77" y="220.64" width="0.04" height="0.04"/><line class="cls-1" x1="114.77" y1="220.64" x2="118.51" y2="220.64"/><rect x="118.51" y="220.64" width="0.04" height="0.04"/><line class="cls-1" x1="116.64" y1="211.26" x2="116.64" y2="220.64"/><rect x="116.64" y="220.64" width="0.04" height="0.04"/><line class="cls-1" x1="116.64" y1="237.51" x2="116.64" y2="233.77"/><rect x="116.64" y="233.77" width="0.04" height="0.04"/><line class="cls-1" x1="116.64" y1="200" x2="116.64" y2="203.74"/><rect x="116.64" y="203.74" width="0.04" height="0.04"/><ellipse class="cls-1" cx="116.62" cy="218.73" rx="14.98" ry="15"/><line class="cls-1" x1="116.64" y1="34.86" x2="116.64" y2="19.86"/><rect x="116.64" y="19.86" width="0.04" height="0.04"/><line class="cls-1" x1="116.64" y1="34.86" x2="64.09" y2="34.86"/><rect x="64.09" y="34.86" width="0.04" height="0.04"/><line class="cls-1" x1="169.19" y1="34.86" x2="116.64" y2="34.86"/><rect x="116.64" y="34.86" width="0.04" height="0.04"/><line class="cls-1" x1="64.09" y1="49.86" x2="64.09" y2="34.86"/><rect x="64.09" y="34.86" width="0.04" height="0.04"/><line class="cls-1" x1="169.19" y1="49.86" x2="169.19" y2="34.86"/><rect x="169.19" y="34.86" width="0.04" height="0.04"/><line class="cls-1" x1="64.09" y1="102.41" x2="64.09" y2="87.41"/><rect x="64.09" y="87.41" width="0.04" height="0.04"/><line class="cls-1" x1="86.6" y1="102.41" x2="64.09" y2="102.41"/><rect x="64.09" y="102.41" width="0.04" height="0.04"/><line class="cls-1" x1="169.19" y1="102.41" x2="169.19" y2="87.41"/><rect x="169.19" y="87.41" width="0.04" height="0.04"/><line class="cls-1" x1="169.19" y1="102.41" x2="146.68" y2="102.41"/><rect x="146.68" y="102.41" width="0.04" height="0.04"/><line class="cls-1" x1="64.09" y1="124.93" x2="64.09" y2="102.41"/><rect x="64.09" y="102.41" width="0.04" height="0.04"/><line class="cls-1" x1="169.19" y1="124.93" x2="169.19" y2="102.41"/><rect x="169.19" y="102.41" width="0.04" height="0.04"/><line class="cls-1" x1="34.09" y1="147.44" x2="19.05" y2="147.44"/><rect x="19.05" y="147.44" width="0.04" height="0.04"/><line class="cls-1" x1="214.23" y1="147.44" x2="199.19" y2="147.44"/><rect x="199.19" y="147.44" width="0.04" height="0.04"/><line class="cls-1" x1="64.09" y1="184.96" x2="64.09" y2="169.96"/><rect x="64.09" y="169.96" width="0.04" height="0.04"/><line class="cls-1" x1="116.64" y1="184.96" x2="64.09" y2="184.96"/><rect x="64.09" y="184.96" width="0.04" height="0.04"/><line class="cls-1" x1="169.19" y1="184.96" x2="169.19" y2="169.96"/><rect x="169.19" y="169.96" width="0.04" height="0.04"/><line class="cls-1" x1="169.19" y1="184.96" x2="116.64" y2="184.96"/><rect x="116.64" y="184.96" width="0.04" height="0.04"/><line class="cls-1" x1="116.64" y1="200" x2="116.64" y2="184.96"/><rect x="116.64" y="184.96" width="0.04" height="0.04"/><line class="cls-1" x1="116.64" y1="252.51" x2="116.64" y2="237.51"/><path class="cls-2" d="M167.78,102.64h3.78v3.79h-3.78Zm-52.55,82.55H119V189h-3.78Zm0-150.1H119v3.78h-3.78ZM62.67,102.64h3.78v3.79H62.67Zm54.43,137h0v0h0Z" transform="translate(-0.46 -2.1)"/><path d="M139.69,214.15c-1,.09-1.1.16-1.27,1l-1,5c-.18.91-.07,1,.94,1.07l-.06.33h-3.2l.07-.33c1-.09,1.08-.17,1.26-1.07l1-5c.17-.89.07-.94-.94-1l.07-.33h3.2Z" transform="translate(-0.46 -2.1)"/><path d="M141.72,221.06c.81,0,1.35.29,1.35,1a1.21,1.21,0,0,1-1.07,1.11,1.14,1.14,0,0,1,1,1.07c0,.86-.82,1.39-1.9,1.39h-1.86l0-.2c.55,0,.63-.08.74-.64l.57-2.92c.09-.5,0-.54-.56-.59l0-.2Zm-1.14,3.68c-.1.52.07.62.58.62a1.12,1.12,0,0,0,1.19-1.14c0-.71-.54-.94-1.14-.94h-.35Zm.74-1.7c.8,0,1.14-.43,1.14-1s-.44-.74-.83-.74-.4,0-.46.37l-.26,1.37Z" transform="translate(-0.46 -2.1)"/><path d="M145.94,221.26c-.59.05-.64.09-.74.6l-.56,2.93c-.1.53,0,.58.55.62l0,.2h-1.86l0-.2c.56,0,.63-.1.73-.62l.57-2.93c.1-.52,0-.55-.55-.6l0-.2H146Z" transform="translate(-0.46 -2.1)"/><path d="M149.89,225.61h-1.71l0-.2c.5,0,.55-.12.52-.42l-.15-1h-1.47c-.12.22-.36.63-.52.94s-.11.47.43.52l-.05.2h-1.59l0-.2c.45,0,.54-.1.88-.67l2.15-3.73.23,0c.31,2.06.46,3,.6,3.84.08.49.13.55.64.6Zm-1.61-3.76h0c-.35.65-.71,1.29-1,1.82h1.27Z" transform="translate(-0.46 -2.1)"/><path d="M150.67,224.36c.07.57.28,1.11,1,1.11a.81.81,0,0,0,.87-.9,1.17,1.17,0,0,0-.61-1l-.25-.18a1.5,1.5,0,0,1-.75-1.21,1.28,1.28,0,0,1,1.42-1.23,3.65,3.65,0,0,1,1.05.18c-.06.28-.09.69-.13,1h-.21c0-.54-.16-1-.79-1a.77.77,0,0,0-.81.84c0,.41.24.64.62.91l.25.19a1.56,1.56,0,0,1,.79,1.24,1.41,1.41,0,0,1-1.53,1.33,2.38,2.38,0,0,1-1.21-.33c0-.18,0-.67,0-1Z" transform="translate(-0.46 -2.1)"/><path d="M82,71.6h-.12A1.84,1.84,0,0,1,80,70.42c-.31-.6-.53-1.16-.8-1.76s-.35-.55-.78-.55h-.53L77.53,70c-.2,1-.11,1.1.92,1.2l-.07.33H75.2l.07-.33c1-.09,1.08-.15,1.27-1.19l.93-4.82c.19-1,.06-1-.92-1.12l.08-.33H79.4c1.33,0,2.41.53,2.41,1.88a2.41,2.41,0,0,1-1.9,2.29c.19.48.41,1,.64,1.44.71,1.46,1,1.77,1.57,2Zm-3.49-3.89a2,2,0,0,0,2.2-2,1.42,1.42,0,0,0-1.44-1.57c-.46,0-.63,0-.75.65l-.57,3Z" transform="translate(-0.46 -2.1)"/><path d="M86.24,74.46a6.37,6.37,0,0,1-.44,1,6.68,6.68,0,0,1-1.15.14,1.92,1.92,0,0,1-2.07-2,2.7,2.7,0,0,1,2.85-2.72,4.2,4.2,0,0,1,1.22.17,10.42,10.42,0,0,0-.14,1l-.22,0c0-.82-.35-1-1-1a2.26,2.26,0,0,0-2,2.47c0,1,.52,1.77,1.46,1.77.68,0,1-.41,1.34-1Z" transform="translate(-0.46 -2.1)"/><path d="M154.08,71.6H154a1.82,1.82,0,0,1-1.9-1.18c-.32-.6-.54-1.16-.81-1.76s-.35-.55-.78-.55h-.53L149.6,70c-.2,1-.11,1.1.92,1.2l-.07.33h-3.18l.07-.33c.95-.09,1.08-.15,1.27-1.19l.93-4.82c.19-1,.06-1-.91-1.12l.07-.33h2.77c1.33,0,2.41.53,2.41,1.88a2.41,2.41,0,0,1-1.9,2.29c.2.48.41,1,.64,1.44.71,1.46,1,1.77,1.57,2Zm-3.49-3.89a2,2,0,0,0,2.2-2,1.42,1.42,0,0,0-1.44-1.57c-.46,0-.63,0-.75.65l-.57,3Z" transform="translate(-0.46 -2.1)"/><path d="M158.31,74.46a6.37,6.37,0,0,1-.44,1,6.68,6.68,0,0,1-1.15.14,1.92,1.92,0,0,1-2.07-2,2.7,2.7,0,0,1,2.85-2.72,4.2,4.2,0,0,1,1.22.17,10.42,10.42,0,0,0-.14,1l-.22,0c0-.82-.35-1-1-1a2.26,2.26,0,0,0-2,2.47c0,1,.52,1.77,1.46,1.77.68,0,1-.41,1.35-1Z" transform="translate(-0.46 -2.1)"/><path d="M59.23,147.75c0,2.49-1.71,4.75-4.23,4.75a3,3,0,0,1-3.11-3.29c0-2.53,1.77-4.85,4.25-4.85C58.06,144.36,59.23,145.7,59.23,147.75ZM53,149.3c0,1.64.6,2.77,2.08,2.77,2,0,3-2.5,3-4.44,0-1.68-.51-2.84-2-2.84C54.22,144.79,53,147.16,53,149.3Zm2.57,2.49A18,18,0,0,0,59,154l-.1.28a6.13,6.13,0,0,1-1.38-.22,12.22,12.22,0,0,1-3-1.9Z" transform="translate(-0.46 -2.1)"/><path d="M183.42,147.75c0,2.5-1.71,4.75-4.23,4.75a3,3,0,0,1-3.11-3.29c0-2.53,1.77-4.85,4.25-4.85C182.25,144.36,183.42,145.7,183.42,147.75Zm-6.21,1.55c0,1.64.6,2.77,2.07,2.77,2,0,3-2.5,3-4.44,0-1.68-.5-2.84-2-2.84C178.41,144.79,177.21,147.16,177.21,149.3Zm2.57,2.49a17.46,17.46,0,0,0,3.37,2.17l-.1.28a6,6,0,0,1-1.38-.22,11.85,11.85,0,0,1-3-1.9Z" transform="translate(-0.46 -2.1)"/><circle class="cls-3" cx="88.85" cy="102.41" r="2.25"/><circle class="cls-3" cx="144.43" cy="102.45" r="2.25"/><circle class="cls-3" cx="216.48" cy="147.44" r="2.25"/><circle class="cls-3" cx="16.84" cy="147.49" r="2.25"/><circle class="cls-3" cx="116.7" cy="254.76" r="2.25"/><path d="M90,110.06c-.83.11-1,.19-1.67,1.28s-2.86,4.74-3.76,6.3h-.39c-.27-2.12-.72-5.13-1-6.54-.14-.91-.29-1-1.06-1l.08-.34h2.93l-.1.34-.31,0c-.47.07-.64.16-.59.6.09.82.46,3.23.76,5.35.86-1.42,2.42-4.06,3-5.11.36-.66.16-.78-.39-.85l-.3,0,.1-.34h2.72Z" transform="translate(-0.46 -2.1)"/><path d="M93.4,118.83a2.62,2.62,0,0,1-2.47,2.79,1.75,1.75,0,0,1-1.81-1.91,2.7,2.7,0,0,1,2.48-2.84A1.76,1.76,0,0,1,93.4,118.83Zm-3.62.92c0,1,.35,1.62,1.21,1.62,1.16,0,1.75-1.46,1.75-2.59s-.29-1.65-1.19-1.65C90.47,117.13,89.78,118.51,89.78,119.75Z" transform="translate(-0.46 -2.1)"/><path d="M95.4,120.67c-.08.39-.11.57.32.62l.35,0,0,.2H93.89l0-.2.31,0c.45-.06.51-.11.61-.63l.51-2.6c.08-.4,0-.43-.37-.43h-.27l0-.19a5.45,5.45,0,0,0,1.33-.36Z" transform="translate(-0.46 -2.1)"/><path d="M145.61,110.06c-.83.11-1,.19-1.67,1.28s-2.86,4.74-3.76,6.3h-.39c-.27-2.12-.72-5.13-.94-6.54-.15-.91-.3-1-1.07-1l.08-.34h2.93l-.1.34-.31,0c-.47.07-.63.16-.59.6.09.82.46,3.23.76,5.35.86-1.42,2.42-4.06,3-5.11.36-.66.17-.78-.39-.85l-.3,0,.1-.34h2.72Z" transform="translate(-0.46 -2.1)"/><path d="M149,118.83a2.62,2.62,0,0,1-2.47,2.79,1.75,1.75,0,0,1-1.81-1.91,2.7,2.7,0,0,1,2.48-2.84A1.75,1.75,0,0,1,149,118.83Zm-3.62.92c0,1,.36,1.62,1.21,1.62,1.17,0,1.75-1.46,1.75-2.59s-.29-1.65-1.19-1.65C146,117.13,145.35,118.51,145.35,119.75Z" transform="translate(-0.46 -2.1)"/><path d="M150.19,117.45a1.38,1.38,0,0,1,.93-.37,1,1,0,0,1,1.1,1.1c0,.71-.48,1.2-1.28,1.9l-1.08,1h1.27c.38,0,.49,0,.85-.57l.18.08c-.15.3-.33.69-.46,1h-2.61v-.15c1.58-1.39,2.52-2.18,2.52-3.09a.68.68,0,0,0-.74-.75,1.32,1.32,0,0,0-1,.63l-.16-.15Z" transform="translate(-0.46 -2.1)"/><path d="M119.49,97.83c-.82.11-1,.19-1.66,1.28s-2.87,4.74-3.77,6.3h-.38c-.28-2.12-.72-5.14-1-6.54-.14-.91-.3-1-1.07-1l.09-.34h2.92l-.09.34-.31,0c-.47.07-.64.16-.59.6.08.82.45,3.23.75,5.35.87-1.42,2.43-4.06,3-5.11.36-.66.17-.78-.38-.86l-.3,0,.09-.34h2.73Z" transform="translate(-0.46 -2.1)"/><path d="M122.85,106.6a2.63,2.63,0,0,1-2.46,2.79,1.75,1.75,0,0,1-1.81-1.92,2.69,2.69,0,0,1,2.47-2.83A1.75,1.75,0,0,1,122.85,106.6Zm-3.62.92c0,1,.36,1.62,1.21,1.62,1.17,0,1.76-1.46,1.76-2.6,0-1-.3-1.64-1.2-1.64C119.93,104.9,119.23,106.28,119.23,107.52Z" transform="translate(-0.46 -2.1)"/><path d="M98,104.52v2.77H97.3v-2.77H94.77v-.62H97.3v-2.51H98v2.51h2.53v.62Z" transform="translate(-0.46 -2.1)"/><path d="M139.17,104.9h-2.79l.2-.68h2.78Z" transform="translate(-0.46 -2.1)"/><path d="M8.29,142.86c-.83.11-1,.19-1.67,1.29s-2.87,4.73-3.77,6.29H2.47c-.28-2.12-.72-5.13-1-6.53-.14-.92-.3-1-1.06-1l.08-.33H3.47l-.1.33-.31,0c-.47.07-.64.17-.59.6.08.83.46,3.24.76,5.35.86-1.42,2.42-4.05,3-5.11.36-.66.17-.78-.38-.85l-.3,0,.1-.33H8.36Z" transform="translate(-0.46 -2.1)"/><path d="M9.59,150c-.59.05-.64.09-.74.6l-.56,2.93c-.1.53,0,.58.55.62l0,.2H6.94l0-.2c.56-.05.63-.1.73-.62l.57-2.93c.1-.51,0-.55-.55-.6l0-.19H9.63Z" transform="translate(-0.46 -2.1)"/><path d="M11.16,153.47c-.08.39-.1.58.33.62l.34,0-.05.2H9.65l0-.2.31,0c.46,0,.51-.1.62-.63l.51-2.6c.07-.4,0-.42-.37-.43h-.28l0-.19a5.11,5.11,0,0,0,1.34-.36Z" transform="translate(-0.46 -2.1)"/><path d="M230.47,142.86c-.83.11-1,.19-1.67,1.29s-2.86,4.73-3.76,6.29h-.39c-.27-2.12-.72-5.13-.94-6.53-.15-.92-.3-1-1.07-1l.08-.33h2.93l-.1.33-.31,0c-.47.07-.63.17-.59.6.09.83.46,3.24.76,5.35.86-1.42,2.42-4.05,3-5.11.36-.66.17-.78-.39-.85l-.3,0,.1-.33h2.72Z" transform="translate(-0.46 -2.1)"/><path d="M231.77,150c-.58.05-.64.09-.74.6l-.55,2.93c-.11.53,0,.58.54.62l0,.2h-1.87l0-.2c.57-.05.63-.1.74-.62l.56-2.93c.1-.51,0-.55-.54-.6l0-.19h1.86Z" transform="translate(-0.46 -2.1)"/><path d="M232.56,150.26a1.41,1.41,0,0,1,.94-.38,1,1,0,0,1,1.1,1.1c0,.71-.48,1.21-1.28,1.91l-1.08.94h1.26c.39,0,.49,0,.86-.57l.17.09c-.14.3-.33.68-.45,1h-2.62l0-.15c1.58-1.38,2.51-2.17,2.51-3.09a.67.67,0,0,0-.73-.75,1.36,1.36,0,0,0-1,.63l-.15-.14Z" transform="translate(-0.46 -2.1)"/><path d="M119.91,2.44c-.83.11-1,.19-1.67,1.28s-2.87,4.74-3.77,6.3h-.38c-.28-2.12-.72-5.13-1-6.54-.14-.91-.3-1-1.06-1l.08-.34h2.93l-.1.34-.31.05c-.47.07-.64.17-.59.6.08.83.46,3.24.76,5.35.86-1.42,2.42-4.06,3-5.11.36-.66.17-.78-.38-.85l-.3,0,.1-.34H120Z" transform="translate(-0.46 -2.1)"/><path d="M120.83,12.28V13.9h-.42V12.28h-1.48v-.35h1.48V10.46h.42v1.47h1.47v.35Z" transform="translate(-0.46 -2.1)"/><path d="M120.8,263.3c-.82.11-1,.2-1.66,1.29s-2.87,4.73-3.77,6.29H115c-.28-2.12-.72-5.13-.95-6.53-.15-.91-.3-1-1.07-1.05l.08-.33H116l-.1.33-.31.05c-.46.07-.63.17-.58.6.08.83.45,3.24.75,5.35.86-1.41,2.42-4.05,3-5.11.36-.66.17-.78-.38-.85l-.3,0,.09-.33h2.72Z" transform="translate(-0.46 -2.1)"/><path d="M121.34,273.37h-1.63l.12-.4h1.62Z" transform="translate(-0.46 -2.1)"/><circle class="cls-3" cx="116.62" cy="17.61" r="2.25"/></g></g></svg>