<svg xmlns="http://www.w3.org/2000/svg" xmlns:xlink="http://www.w3.org/1999/xlink" viewBox="0 0 428.78 455.61"><defs><style>.cls-1,.cls-10,.cls-11,.cls-15,.cls-5,.cls-8,.cls-9{fill:none;}.cls-2{isolation:isolate;}.cls-3{fill:#fff;}.cls-4{clip-path:url(#clip-path);}.cls-5{stroke:#b0b1b1;}.cls-10,.cls-11,.cls-5,.cls-8,.cls-9{stroke-linecap:square;}.cls-10,.cls-5,.cls-6,.cls-8,.cls-9{stroke-linejoin:round;}.cls-11,.cls-5,.cls-6{stroke-width:0.8px;}.cls-6,.cls-7{fill:#010101;}.cls-11,.cls-6{stroke:#010101;}.cls-8{stroke:#ed2224;}.cls-10,.cls-8,.cls-9{stroke-width:1.5px;}.cls-9{stroke:#0f8140;}.cls-10{stroke:#3a53a4;}.cls-12{clip-path:url(#clip-path-10);}.cls-13{clip-path:url(#clip-path-19);}.cls-14{clip-path:url(#clip-path-28);}.cls-15{stroke:#f99c1c;stroke-miterlimit:10;}.cls-16{fill:#fec20f;opacity:0.3;mix-blend-mode:multiply;}</style><clipPath id="clip-path"><rect class="cls-1" x="38.26" y="113.64" width="184.25" height="56.69"/></clipPath><clipPath id="clip-path-10"><rect class="cls-1" x="243.78" y="113.64" width="184.25" height="56.69"/></clipPath><clipPath id="clip-path-19"><rect class="cls-1" x="38.26" y="365.26" width="184.25" height="56.69"/></clipPath><clipPath id="clip-path-28"><rect class="cls-1" x="243.78" y="365.26" width="184.25" height="56.69"/></clipPath></defs><title>Asset 7</title><g class="cls-2"><g id="Layer_2" data-name="Layer 2"><g id="Layer_1-2" data-name="Layer 1"><g id="figure_1" data-name="figure 1"><g id="patch_1" data-name="patch 1"><path class="cls-3" d="M38.26,170.34H222.52v-56.7H38.26Z"/></g><g id="axes_1" data-name="axes 1"><g id="patch_2" data-name="patch 2"><path class="cls-3" d="M38.26,170.34H222.52v-56.7H38.26Z"/></g><g id="matplotlib.axis_1" data-name="matplotlib.axis 1"><g id="xtick_1" data-name="xtick 1"><g id="line2d_1" data-name="line2d 1"><g class="cls-4"><path class="cls-5" d="M38.26,170.34v-56.7"/></g></g><g id="line2d_2" data-name="line2d 2"><path id="mfe739bb0a1" class="cls-6" d="M38.26,170.34v3.5"/></g><g id="text_1" data-name="text 1"><path id="LMRoman12-Regular-48" class="cls-7" d="M36.13,181.83a6.56,6.56,0,0,0-.49-2.88,2.14,2.14,0,0,0-3.94.08,6.32,6.32,0,0,0-.46,2.8,6.08,6.08,0,0,0,.52,2.89,2.15,2.15,0,0,0,3.91-.12A6.78,6.78,0,0,0,36.13,181.83Zm-.91-.15a13.93,13.93,0,0,1-.14,2.45c-.22,1.32-1,1.55-1.4,1.55s-1.16-.22-1.39-1.52a15.11,15.11,0,0,1-.13-2.48,10.64,10.64,0,0,1,.19-2.58,1.43,1.43,0,0,1,1.33-1.17,1.45,1.45,0,0,1,1.38,1.31A11.87,11.87,0,0,1,35.22,181.68Z"/><path id="LMRoman12-Regular-46" class="cls-7" d="M38.84,185.08a.59.59,0,0,0-.58-.58.58.58,0,0,0-.58.58.59.59,0,0,0,.57.59A.58.58,0,0,0,38.84,185.08Z"/><path id="LMRoman12-Regular-48-2" data-name="LMRoman12-Regular-48" class="cls-7" d="M45.27,181.83a6.56,6.56,0,0,0-.49-2.88,2.14,2.14,0,0,0-1.94-1.26,2.17,2.17,0,0,0-2,1.34,6.49,6.49,0,0,0-.45,2.8,6.08,6.08,0,0,0,.51,2.89,2.16,2.16,0,0,0,3.92-.12A6.76,6.76,0,0,0,45.27,181.83Zm-.91-.15a15,15,0,0,1-.13,2.45c-.23,1.32-1,1.55-1.41,1.55s-1.16-.22-1.39-1.52a15.11,15.11,0,0,1-.13-2.48,10.64,10.64,0,0,1,.19-2.58,1.36,1.36,0,0,1,2.71.14A11.87,11.87,0,0,1,44.36,181.68Z"/></g></g><g id="xtick_2" data-name="xtick 2"><g id="line2d_3" data-name="line2d 3"><g class="cls-4"><path class="cls-5" d="M90.87,170.34v-56.7"/></g></g><g id="line2d_4" data-name="line2d 4"><path id="mfe739bb0a1-2" data-name="mfe739bb0a1" class="cls-6" d="M90.87,170.34v3.5"/></g><g id="text_2" data-name="text 2"><path id="LMRoman12-Regular-48-3" data-name="LMRoman12-Regular-48" class="cls-7" d="M88.74,181.83a6.56,6.56,0,0,0-.49-2.88,2.14,2.14,0,0,0-3.94.08,6.32,6.32,0,0,0-.46,2.8,6.08,6.08,0,0,0,.52,2.89,2.15,2.15,0,0,0,3.91-.12A6.78,6.78,0,0,0,88.74,181.83Zm-.91-.15a13.93,13.93,0,0,1-.14,2.45c-.22,1.32-1,1.55-1.4,1.55s-1.16-.22-1.39-1.52a15.11,15.11,0,0,1-.13-2.48A10.64,10.64,0,0,1,85,179.1a1.43,1.43,0,0,1,1.33-1.17,1.45,1.45,0,0,1,1.38,1.31A11.87,11.87,0,0,1,87.83,181.68Z"/><path id="LMRoman12-Regular-46-2" data-name="LMRoman12-Regular-46" class="cls-7" d="M91.45,185.08a.59.59,0,0,0-.58-.58.58.58,0,0,0-.58.58.59.59,0,0,0,.57.59A.58.58,0,0,0,91.45,185.08Z"/><path id="LMRoman12-Regular-53" class="cls-7" d="M97.79,183.26a2.43,2.43,0,0,0-2.22-2.62,2.06,2.06,0,0,0-1.53.64v-2.49a3.52,3.52,0,0,0,1.07.18,2.56,2.56,0,0,0,2.22-1.16.1.1,0,0,0-.1-.11.45.45,0,0,0-.15.05,3.89,3.89,0,0,1-1.56.32,4.13,4.13,0,0,1-1.59-.33.31.31,0,0,0-.12,0c-.09,0-.09.07-.09.26v3.57c0,.21,0,.29.14.29s.07,0,.19-.16a1.82,1.82,0,0,1,1.5-.78,1.25,1.25,0,0,1,1,.79,4,4,0,0,1,.21,1.51,3.21,3.21,0,0,1-.33,1.68,1.49,1.49,0,0,1-1.26.74,1.86,1.86,0,0,1-1.79-1.42.65.65,0,0,0,.19,0,.5.5,0,0,0,.53-.53.5.5,0,0,0-.53-.53.51.51,0,0,0-.53.58,2.19,2.19,0,0,0,2.15,2.18A2.61,2.61,0,0,0,97.79,183.26Z"/></g></g><g id="xtick_3" data-name="xtick 3"><g id="line2d_5" data-name="line2d 5"><g class="cls-4"><path class="cls-5" d="M143.48,170.34v-56.7"/></g></g><g id="line2d_6" data-name="line2d 6"><path id="mfe739bb0a1-3" data-name="mfe739bb0a1" class="cls-6" d="M143.48,170.34v3.5"/></g><g id="text_3" data-name="text 3"><path id="LMRoman12-Regular-49" class="cls-7" d="M140.89,185.67v-.35h-.37c-1.06,0-1.09-.14-1.09-.58V178c0-.28,0-.29-.24-.29a2.69,2.69,0,0,1-2.13.77v.34a3.49,3.49,0,0,0,1.54-.31v6.25c0,.44,0,.58-1.09.58h-.37v.35c.32,0,1.48,0,1.88,0S140.57,185.64,140.89,185.67Z"/><path id="LMRoman12-Regular-46-3" data-name="LMRoman12-Regular-46" class="cls-7" d="M144.06,185.08a.59.59,0,0,0-.58-.58.58.58,0,0,0-.58.58.59.59,0,0,0,.57.59A.58.58,0,0,0,144.06,185.08Z"/><path id="LMRoman12-Regular-48-4" data-name="LMRoman12-Regular-48" class="cls-7" d="M150.49,181.83A6.56,6.56,0,0,0,150,179a2.14,2.14,0,0,0-1.94-1.26,2.17,2.17,0,0,0-2,1.34,6.49,6.49,0,0,0-.45,2.8,6.08,6.08,0,0,0,.51,2.89,2.16,2.16,0,0,0,3.92-.12A6.76,6.76,0,0,0,150.49,181.83Zm-.91-.15a15,15,0,0,1-.13,2.45c-.23,1.32-1,1.55-1.41,1.55s-1.16-.22-1.39-1.52a15.11,15.11,0,0,1-.13-2.48,10.64,10.64,0,0,1,.19-2.58,1.36,1.36,0,0,1,2.71.14A11.87,11.87,0,0,1,149.58,181.68Z"/></g></g><g id="xtick_4" data-name="xtick 4"><g id="line2d_7" data-name="line2d 7"><g class="cls-4"><path class="cls-5" d="M196.09,170.34v-56.7"/></g></g><g id="line2d_8" data-name="line2d 8"><path id="mfe739bb0a1-4" data-name="mfe739bb0a1" class="cls-6" d="M196.09,170.34v3.5"/></g><g id="text_4" data-name="text 4"><path id="LMRoman12-Regular-49-2" data-name="LMRoman12-Regular-49" class="cls-7" d="M193.5,185.67v-.35h-.37c-1.06,0-1.09-.14-1.09-.58V178c0-.28,0-.29-.24-.29a2.69,2.69,0,0,1-2.13.77v.34a3.49,3.49,0,0,0,1.54-.31v6.25c0,.44,0,.58-1.09.58h-.37v.35c.32,0,1.48,0,1.88,0S193.18,185.64,193.5,185.67Z"/><path id="LMRoman12-Regular-46-4" data-name="LMRoman12-Regular-46" class="cls-7" d="M196.67,185.08a.59.59,0,0,0-.58-.58.58.58,0,0,0-.58.58.59.59,0,0,0,.57.59A.58.58,0,0,0,196.67,185.08Z"/><path id="LMRoman12-Regular-53-2" data-name="LMRoman12-Regular-53" class="cls-7" d="M203,183.26a2.43,2.43,0,0,0-2.22-2.62,2.06,2.06,0,0,0-1.53.64v-2.49a3.52,3.52,0,0,0,1.07.18,2.56,2.56,0,0,0,2.22-1.16.1.1,0,0,0-.1-.11.45.45,0,0,0-.15.05,3.89,3.89,0,0,1-1.56.32,4.13,4.13,0,0,1-1.59-.33.31.31,0,0,0-.12,0c-.09,0-.09.07-.09.26v3.57c0,.21,0,.29.14.29s.07,0,.19-.16a1.82,1.82,0,0,1,1.5-.78,1.25,1.25,0,0,1,1,.79,4,4,0,0,1,.21,1.51,3.21,3.21,0,0,1-.33,1.68,1.49,1.49,0,0,1-1.26.74,1.86,1.86,0,0,1-1.79-1.42.65.65,0,0,0,.19,0,.5.5,0,0,0,.53-.53.5.5,0,0,0-.53-.53.51.51,0,0,0-.53.58,2.19,2.19,0,0,0,2.15,2.18A2.61,2.61,0,0,0,203,183.26Z"/></g></g><g id="text_5" data-name="text 5"><path id="LMRoman12-Regular-84" class="cls-7" d="M117.53,195.54l-.22-2.68h-7.2l-.22,2.68h.27c.17-1.9.27-2.33,2.17-2.33a5.84,5.84,0,0,1,.65,0c.24,0,.25.18.25.46v6.38c0,.41,0,.58-1.18.58h-.43V201c.39,0,1.62,0,2.09,0s1.72,0,2.1,0v-.35h-.43c-1.18,0-1.18-.17-1.18-.58v-6.38c0-.3,0-.41.22-.46a6.05,6.05,0,0,1,.67,0c1.9,0,2,.43,2.17,2.33Z"/><path id="LMRoman12-Regular-105" class="cls-7" d="M120.85,201v-.35c-.78,0-.83-.06-.83-.53V195.7l-1.63.14v.34c.77,0,.88.08.88.66v3.27c0,.54-.14.54-.92.54V201c.34,0,.92,0,1.26,0C119.75,201,120.44,201,120.85,201Zm-.67-7.25a.59.59,0,1,0-.59.57A.57.57,0,0,0,120.18,193.75Z"/><path id="LMRoman12-Regular-109" class="cls-7" d="M130.74,201v-.35c-.6,0-.9,0-.91-.36v-2.21c0-1.12,0-1.45-.28-1.84a1.59,1.59,0,0,0-1.32-.54,1.81,1.81,0,0,0-1.69,1.19A1.4,1.4,0,0,0,125,195.7a1.88,1.88,0,0,0-1.72,1.24h0V195.7l-1.63.14v.34c.81,0,.91.09.91.68v3.25c0,.54-.13.54-.91.54V201c.31,0,1,0,1.29,0s1,0,1.31,0v-.35c-.77,0-.91,0-.91-.54v-2.23a1.75,1.75,0,0,1,1.57-1.94c.74,0,.91.62.91,1.35v2.82c0,.54-.13.54-.91.54V201c.31,0,1,0,1.3,0s1,0,1.3,0v-.35c-.76,0-.91,0-.91-.54v-2.23a1.75,1.75,0,0,1,1.57-1.94c.75,0,.92.62.92,1.35v2.82c0,.54-.14.54-.92.54V201c.32,0,1,0,1.3,0S130.43,201,130.74,201Z"/><path id="LMRoman12-Regular-101" class="cls-7" d="M135.9,199.57a.12.12,0,0,0-.13-.12c-.1,0-.12.06-.15.12a1.69,1.69,0,0,1-1.62,1.28c-.5,0-1.71-.33-1.71-2.41v-.23h3.32c.26,0,.29,0,.29-.23a2.1,2.1,0,0,0-2.1-2.34,2.59,2.59,0,0,0-2.43,2.73,2.68,2.68,0,0,0,2.56,2.75A2,2,0,0,0,135.9,199.57Zm-.75-1.59H132.3c.09-1.88,1.15-2.1,1.49-2.1C135.07,195.88,135.14,197.58,135.15,198Z"/><path id="LMRoman12-Regular-91" class="cls-7" d="M143.15,204v-.45H142V192.44h1.17V192h-1.61v12Z"/><path id="LMRoman12-Regular-115" class="cls-7" d="M147.64,199.47a1.57,1.57,0,0,0-.51-1.14,2.74,2.74,0,0,0-1.55-.59c-.36-.07-1.23-.24-1.23-1,0-.37.25-.92,1.33-.92a1.35,1.35,0,0,1,1.4,1.49.12.12,0,0,0,.14.09c.13,0,.13-.06.13-.27v-1.25c0-.22,0-.28-.12-.28s-.33.27-.41.38a1.68,1.68,0,0,0-1.13-.38c-1.45,0-1.88.8-1.88,1.46a1.26,1.26,0,0,0,.45,1,2.71,2.71,0,0,0,1.35.53,2,2,0,0,1,1.11.4,1,1,0,0,1,.38.78c0,.52-.3,1.1-1.36,1.1-.79,0-1.37-.46-1.63-1.66a2.24,2.24,0,0,0-.06-.24.11.11,0,0,0-.11,0c-.13,0-.13.06-.13.28v1.63c0,.22,0,.28.12.28s.07,0,.27-.27a1.78,1.78,0,0,1,.24-.3,1.61,1.61,0,0,0,1.31.57C147,201.12,147.64,200.42,147.64,199.47Z"/><path id="LMRoman12-Regular-93" class="cls-7" d="M149.9,204V192h-1.61v.44h1.17v11.11h-1.17V204Z"/></g></g><g id="matplotlib.axis_2" data-name="matplotlib.axis 2"><g id="ytick_1" data-name="ytick 1"><g id="line2d_9" data-name="line2d 9"><g class="cls-4"><path class="cls-5" d="M38.26,159H222.52"/></g></g><g id="line2d_10" data-name="line2d 10"><path id="m1d31f40466" class="cls-6" d="M38.26,159h-3.5"/></g><g id="text_6" data-name="text 6"><path id="LMRoman12-Regular-48-5" data-name="LMRoman12-Regular-48" class="cls-7" d="M21.62,159.32a6.45,6.45,0,0,0-.5-2.88,2.13,2.13,0,0,0-3.93.09,6.28,6.28,0,0,0-.46,2.79,6.06,6.06,0,0,0,.52,2.89,2.12,2.12,0,0,0,1.92,1.2,2.15,2.15,0,0,0,2-1.32A6.75,6.75,0,0,0,21.62,159.32Zm-.92-.14a15.11,15.11,0,0,1-.13,2.45c-.23,1.32-1,1.54-1.4,1.54S18,163,17.78,161.65a13.93,13.93,0,0,1-.14-2.47,10.08,10.08,0,0,1,.2-2.58,1.43,1.43,0,0,1,1.33-1.18,1.46,1.46,0,0,1,1.38,1.31A12.7,12.7,0,0,1,20.7,159.18Z"/><path id="LMRoman12-Regular-46-5" data-name="LMRoman12-Regular-46" class="cls-7" d="M24.33,162.57a.58.58,0,0,0-.58-.57.57.57,0,0,0-.59.57.59.59,0,1,0,1.17,0Z"/><path id="LMRoman12-Regular-48-6" data-name="LMRoman12-Regular-48" class="cls-7" d="M30.76,159.32a6.59,6.59,0,0,0-.49-2.88,2.14,2.14,0,0,0-3.94.09,6.44,6.44,0,0,0-.45,2.79,6.06,6.06,0,0,0,.51,2.89,2.15,2.15,0,0,0,3.91-.12A6.59,6.59,0,0,0,30.76,159.32Zm-.91-.14a15.11,15.11,0,0,1-.13,2.45c-.23,1.32-1,1.54-1.41,1.54s-1.16-.21-1.39-1.52a15,15,0,0,1-.13-2.47A10.6,10.6,0,0,1,27,156.6a1.43,1.43,0,0,1,1.33-1.18,1.46,1.46,0,0,1,1.38,1.31A11.92,11.92,0,0,1,29.85,159.18Z"/></g></g><g id="ytick_2" data-name="ytick 2"><g id="line2d_11" data-name="line2d 11"><g class="cls-4"><path class="cls-5" d="M38.26,130.65H222.52"/></g></g><g id="line2d_12" data-name="line2d 12"><path id="m1d31f40466-2" data-name="m1d31f40466" class="cls-6" d="M38.26,130.65h-3.5"/></g><g id="text_7" data-name="text 7"><path id="LMRoman12-Regular-50" class="cls-7" d="M21.52,132.8h-.26a4.83,4.83,0,0,1-.26,1.06,3,3,0,0,1-1.12.11H17.66c.32-.28,1.05-1.05,1.36-1.34,1.83-1.68,2.5-2.3,2.5-3.49a2.32,2.32,0,0,0-2.48-2.3,2.22,2.22,0,0,0-2.21,2.22.55.55,0,0,0,.56.61.56.56,0,0,0,.57-.56.54.54,0,0,0-.57-.57h-.17a1.76,1.76,0,0,1,1.66-1.36,1.73,1.73,0,0,1,1.64,1.95,4.15,4.15,0,0,1-1.27,2.68l-2.42,2.71v.29h4.38Z"/><path id="LMRoman12-Regular-46-6" data-name="LMRoman12-Regular-46" class="cls-7" d="M24.33,134.23a.59.59,0,0,0-.58-.58.58.58,0,0,0-.59.58.59.59,0,1,0,1.17,0Z"/><path id="LMRoman12-Regular-53-3" data-name="LMRoman12-Regular-53" class="cls-7" d="M30.66,132.41a2.43,2.43,0,0,0-2.22-2.62,2.05,2.05,0,0,0-1.52.64v-2.49a3.52,3.52,0,0,0,1.07.18A2.57,2.57,0,0,0,30.21,127a.1.1,0,0,0-.1-.11.39.39,0,0,0-.15.05,3.91,3.91,0,0,1-1.56.32,4.09,4.09,0,0,1-1.59-.33.31.31,0,0,0-.12,0c-.09,0-.09.07-.09.26v3.57c0,.21,0,.29.14.29s.07,0,.19-.16a1.82,1.82,0,0,1,1.5-.78,1.25,1.25,0,0,1,1.05.79,4,4,0,0,1,.21,1.51,3.21,3.21,0,0,1-.33,1.68,1.5,1.5,0,0,1-1.26.74,1.84,1.84,0,0,1-1.79-1.42.65.65,0,0,0,.19,0,.51.51,0,0,0,.53-.53.5.5,0,0,0-.53-.53.51.51,0,0,0-.53.58,2.19,2.19,0,0,0,2.15,2.18A2.6,2.6,0,0,0,30.66,132.41Z"/></g></g><g id="text_8" data-name="text 8"><path id="LMRoman12-Regular-65" class="cls-7" d="M9.21,161.11H8.86c0,.78,0,1-.49,1.16L.85,164.89c-.14.05-.21.07-.21.24s0,.19.23.25L8,167.89a1.17,1.17,0,0,1,.82,1.27h.35l0-1.15c0-.34,0-.91,0-1.23H8.86c0,.51-.27.81-.6.81a.52.52,0,0,1-.25-.06L6.41,167v-3l1.88-.66c.15-.06.17-.06.21-.06.36,0,.36.61.36.91h.35c0-.27,0-1.22,0-1.56S9.18,161.38,9.21,161.11Zm-3.15,3v2.79l-4-1.4Z"/><path id="LMRoman12-Regular-99" class="cls-7" d="M7.78,155.85c-.11,0-.11.08-.11.12s0,.12.18.16a1.59,1.59,0,0,1,1.21,1.56c0,.73-.63,1.7-2.46,1.7-2,0-2.48-1-2.48-1.62a1.65,1.65,0,0,1,.65-1.39c0,.14,0,.59.49.59a.5.5,0,1,0,0-1c-.8,0-1.38.84-1.38,1.81a2.65,2.65,0,0,0,2.76,2.52,2.61,2.61,0,0,0,2.72-2.51A1.93,1.93,0,0,0,7.78,155.85Z"/><path id="LMRoman12-Regular-99-2" data-name="LMRoman12-Regular-99" class="cls-7" d="M7.78,150.63c-.11,0-.11.08-.11.12s0,.12.18.16a1.59,1.59,0,0,1,1.21,1.56c0,.73-.63,1.7-2.46,1.7-2,0-2.48-1-2.48-1.62a1.65,1.65,0,0,1,.65-1.39c0,.14,0,.59.49.59a.5.5,0,1,0,0-1c-.8,0-1.38.84-1.38,1.81a2.65,2.65,0,0,0,2.76,2.52,2.61,2.61,0,0,0,2.72-2.51A1.93,1.93,0,0,0,7.78,150.63Z"/><path id="LMRoman12-Regular-91-2" data-name="LMRoman12-Regular-91" class="cls-7" d="M12.21,143.37h-.45v1.17H.65v-1.17H.21V145h12Z"/><path id="LMRoman12-Regular-109-2" data-name="LMRoman12-Regular-109" class="cls-7" d="M9.21,133.59H8.86c0,.6,0,.9-.36.91H6.29c-1.12,0-1.45,0-1.84.28a1.59,1.59,0,0,0-.54,1.32,1.81,1.81,0,0,0,1.19,1.69,1.4,1.4,0,0,0-1.19,1.57,1.88,1.88,0,0,0,1.24,1.72H3.91l.14,1.63h.34c0-.81.09-.91.68-.91H8.32c.54,0,.54.13.54.91h.35c0-.31,0-1,0-1.29s0-1,0-1.31H8.86c0,.77,0,.91-.54.91H6.09a1.75,1.75,0,0,1-1.94-1.57c0-.74.62-.91,1.35-.91H8.32c.54,0,.54.13.54.91h.35c0-.31,0-1,0-1.3s0-1,0-1.3H8.86c0,.76,0,.91-.54.91H6.09a1.75,1.75,0,0,1-1.94-1.57c0-.75.62-.92,1.35-.92H8.32c.54,0,.54.14.54.92h.35c0-.32,0-1,0-1.3S9.18,133.9,9.21,133.59Z"/><path id="LMRoman12-Regular-115-2" data-name="LMRoman12-Regular-115" class="cls-7" d="M7.68,129.09a1.57,1.57,0,0,0-1.14.51A2.74,2.74,0,0,0,6,131.14c-.07.36-.24,1.24-1,1.24-.37,0-.92-.25-.92-1.33a1.37,1.37,0,0,1,1.49-1.41c.09,0,.09-.09.09-.13s-.06-.13-.27-.13H4.13c-.22,0-.28,0-.28.12s.27.32.38.41A1.68,1.68,0,0,0,3.85,131c0,1.45.8,1.88,1.46,1.88a1.25,1.25,0,0,0,1-.46,2.64,2.64,0,0,0,.53-1.34,2.07,2.07,0,0,1,.4-1.12,1,1,0,0,1,.78-.37c.52,0,1.1.3,1.1,1.36,0,.79-.46,1.37-1.66,1.63l-.24.06c-.05,0-.05.07-.05.11s.06.13.28.13H9.05c.22,0,.28,0,.28-.12s0-.07-.27-.28a1.78,1.78,0,0,1-.3-.24,1.59,1.59,0,0,0,.57-1.3C9.33,129.72,8.63,129.09,7.68,129.09Z"/><path id="LMRoman12-Regular-8722" class="cls-7" d="M3.49,122.65c-.16,0-.16.15-.16.27v5c0,.12,0,.27.15.27s.16-.14.16-.27v-5C3.64,122.8,3.64,122.65,3.49,122.65Z"/><path id="LMRoman12-Regular-50-2" data-name="LMRoman12-Regular-50" class="cls-7" d="M4.18,118.5v.18a3.12,3.12,0,0,1,.73.18c.08.06.08.54.08.79v1.55c-.19-.23-.73-.74-.93-1C2.88,119,2.44,118.5,1.61,118.5A1.62,1.62,0,0,0,0,120.24a1.55,1.55,0,0,0,1.55,1.54.4.4,0,1,0,0-.79.38.38,0,0,0-.4.4.25.25,0,0,0,0,.11,1.17,1.17,0,0,1,.41-2.31,3,3,0,0,1,1.88.89l1.89,1.7h.21v-3.07Z"/><path id="LMRoman12-Regular-93-2" data-name="LMRoman12-Regular-93" class="cls-7" d="M12.21,116H.21v1.61H.65V116.4H11.76v1.17h.45Z"/></g></g><g id="line2d_13" data-name="line2d 13"><g class="cls-4"><path class="cls-8" d="M38.26,150.47l1.88-.35.94-.08.94-.29.94.13,1.88-.18,2.82.22,1.89,0,.94.12,4.7-.12,1.88.06,3.76.12,1.88-.06,9.4,0,.94-.11,3.76.28,2.82,0,4.7.12.94-.07.94-.19.94.11L89,150l4.7.28h1.88l3.76,0,4.7.22,8.46.2,3.76-.23,5.64-.11,1.88,0h1.88l8.46-.15.94.09,2.82-.06,1.88.1,1.88-.09h2.82l14.1-.06,9.4,0,2.82-.08.94.15.94-.15h2.82l3.76-.12H183l.94.23.94-.15h3.76l.94.13,4.7-.11.94.16,3.76-.05.94-.1,2.83,0h2.82l1.88,0,1.88-.13.94.12.94-.07,1.88.07h3.76l1.88-.08,3.76.17h0"/></g></g><g id="line2d_14" data-name="line2d 14"><g class="cls-4"><path class="cls-9" d="M38.26,158.51l.94-.4L41.08,157l.94-.14L43,157l3.76.93,5.65.15L55.19,157l.94-.12L59,157l2.82-.2.94.13,1.88.58.94.21.94,0,.94-.19,2.82-1,1.88-.2h4.7l1.88-.19,5.64.26,2.82-.56,2.82-.14,1.88.3h3.76l2.82-.52.94,0,2.82.37,7.52.1.94.29,1.88.31,1.88-.26,2.82.08,2.82-.75,8.46.19.94.1,1.88-.26.94-.11,2.82.34,2.82-.06,2.82.34,4.7-.23,1.88-.12,1.88.19,4.7.47,1.88.09,4.7-.29,1.88.18,7.52-.1.94.21,1.88-.08,1.88-.45.94,0,1.88.34.94.06,2.82-.12.94.08.94.28.94,0,2.82-.64.94-.1,2.82.56,2.82-.27,1.88.16,2.82-.07,1.88.11,1.88,0h.95l.94.25,1.88.11,1.88-.23,2.82-.18,2.82.11,2.82-.16,1.88.05,3.76,0,.94-.08h0"/></g></g><g id="line2d_15" data-name="line2d 15"><g class="cls-4"><path class="cls-10" d="M38.26,154.23l.94-.4L42,152.12l1.88-.38.94.32,1.88.94.94.24h1l2.82.47,1.88.63.94.1.94-.13,1.88-.69.94-.41L59,153h.94l3.76.5,1.88-.24.94-.26.94-.07.94.07.94.24.94.07,1.88-.2,1.88-.29.94-.1.94,0,1.88.41,3.76.32.94,0,1.88-.31,1.88-.2,1.88-.62,1.88-.26,2.82.31.94,0,1.88-.24.94.2,1.88.67.94.14,1.88-.35.94-.26.94,0L105,153l1.88.59.94.19,1.88-.21.94-.27.94-.12,2.82,0,1.88-.62.94-.12,5.64.53.94,0,.94-.24,3.76-.21,2.82.31,1.88.15,1.88-.09,6.58.23.94-.06.94-.2.94-.07,2.82.79.94.08,3.76-.38,6.58.31,2.82.11,4.7-.32h3.76l.94-.25.94-.07,2.82.39h.94l1.88-.43h1.88l1.88.18h.94l2.82-.27,1.88.16.94.15,1.88-.25.94-.21.94.05,2.82.81.94,0,2.82-.26,1.88-.15,2.83.07,2.82-.13,1.88.19,1.88-.2,1.88-.33,1.88.09.94.25,2.82.14,1.88-.17.94-.24.94-.12.94.07.94.2h0"/></g></g><g id="patch_3" data-name="patch 3"><path class="cls-11" d="M38.26,170.34v-56.7"/></g><g id="patch_4" data-name="patch 4"><path class="cls-11" d="M222.52,170.34v-56.7"/></g><g id="patch_5" data-name="patch 5"><path class="cls-11" d="M38.26,170.34H222.52"/></g><g id="patch_6" data-name="patch 6"><path class="cls-11" d="M38.26,113.64H222.52"/></g></g></g><g id="figure_1-2" data-name="figure 1"><g id="patch_1-2" data-name="patch 1"><path class="cls-3" d="M243.78,170.34H428v-56.7H243.78Z"/></g><g id="axes_1-2" data-name="axes 1"><g id="patch_2-2" data-name="patch 2"><path class="cls-3" d="M243.78,170.34H428v-56.7H243.78Z"/></g><g id="matplotlib.axis_1-2" data-name="matplotlib.axis 1"><g id="xtick_1-2" data-name="xtick 1"><g id="line2d_1-2" data-name="line2d 1"><g class="cls-12"><path class="cls-5" d="M243.78,170.34v-56.7"/></g></g><g id="line2d_2-2" data-name="line2d 2"><path id="m464b0f0517" class="cls-6" d="M243.78,170.34v3.5"/></g><g id="text_1-2" data-name="text 1"><path id="LMRoman12-Regular-48-7" data-name="LMRoman12-Regular-48" class="cls-7" d="M241.64,181.83a6.56,6.56,0,0,0-.49-2.88,2.14,2.14,0,0,0-3.93.08,6.32,6.32,0,0,0-.46,2.8,6,6,0,0,0,.52,2.89,2.12,2.12,0,0,0,1.92,1.2,2.15,2.15,0,0,0,2-1.32A6.76,6.76,0,0,0,241.64,181.83Zm-.91-.15a15,15,0,0,1-.13,2.45c-.23,1.32-1,1.55-1.4,1.55s-1.17-.22-1.4-1.52a15.11,15.11,0,0,1-.13-2.48,10.64,10.64,0,0,1,.19-2.58,1.37,1.37,0,0,1,2.72.14A12.64,12.64,0,0,1,240.73,181.68Z"/><path id="LMRoman12-Regular-46-7" data-name="LMRoman12-Regular-46" class="cls-7" d="M244.36,185.08a.59.59,0,0,0-.58-.58.58.58,0,0,0-.59.58.59.59,0,1,0,1.17,0Z"/><path id="LMRoman12-Regular-48-8" data-name="LMRoman12-Regular-48" class="cls-7" d="M250.79,181.83a6.56,6.56,0,0,0-.49-2.88,2.14,2.14,0,0,0-3.94.08,6.32,6.32,0,0,0-.46,2.8,6.08,6.08,0,0,0,.52,2.89,2.15,2.15,0,0,0,3.91-.12A6.78,6.78,0,0,0,250.79,181.83Zm-.91-.15a13.93,13.93,0,0,1-.14,2.45c-.22,1.32-1,1.55-1.4,1.55s-1.16-.22-1.39-1.52a15.11,15.11,0,0,1-.13-2.48,10.64,10.64,0,0,1,.19-2.58,1.43,1.43,0,0,1,1.33-1.17,1.45,1.45,0,0,1,1.38,1.31A11.87,11.87,0,0,1,249.88,181.68Z"/></g></g><g id="xtick_2-2" data-name="xtick 2"><g id="line2d_3-2" data-name="line2d 3"><g class="cls-12"><path class="cls-5" d="M296.39,170.34v-56.7"/></g></g><g id="line2d_4-2" data-name="line2d 4"><path id="m464b0f0517-2" data-name="m464b0f0517" class="cls-6" d="M296.39,170.34v3.5"/></g><g id="text_2-2" data-name="text 2"><path id="LMRoman12-Regular-48-9" data-name="LMRoman12-Regular-48" class="cls-7" d="M294.25,181.83a6.56,6.56,0,0,0-.49-2.88,2.14,2.14,0,0,0-3.93.08,6.32,6.32,0,0,0-.46,2.8,6,6,0,0,0,.52,2.89,2.12,2.12,0,0,0,1.92,1.2,2.15,2.15,0,0,0,2-1.32A6.76,6.76,0,0,0,294.25,181.83Zm-.91-.15a15,15,0,0,1-.13,2.45c-.23,1.32-1,1.55-1.4,1.55s-1.17-.22-1.4-1.52a15.11,15.11,0,0,1-.13-2.48,10.64,10.64,0,0,1,.19-2.58,1.37,1.37,0,0,1,2.72.14A12.64,12.64,0,0,1,293.34,181.68Z"/><path id="LMRoman12-Regular-46-8" data-name="LMRoman12-Regular-46" class="cls-7" d="M297,185.08a.59.59,0,0,0-.58-.58.58.58,0,0,0-.59.58.59.59,0,1,0,1.17,0Z"/><path id="LMRoman12-Regular-53-4" data-name="LMRoman12-Regular-53" class="cls-7" d="M303.3,183.26a2.43,2.43,0,0,0-2.22-2.62,2.05,2.05,0,0,0-1.52.64v-2.49a3.44,3.44,0,0,0,1.07.18,2.57,2.57,0,0,0,2.22-1.16.1.1,0,0,0-.1-.11.45.45,0,0,0-.16.05,3.86,3.86,0,0,1-1.56.32,4.07,4.07,0,0,1-1.58-.33.31.31,0,0,0-.12,0c-.1,0-.1.07-.1.26v3.57c0,.21,0,.29.15.29s.07,0,.19-.16a1.82,1.82,0,0,1,1.5-.78,1.22,1.22,0,0,1,1,.79,3.82,3.82,0,0,1,.22,1.51,3.13,3.13,0,0,1-.34,1.68,1.48,1.48,0,0,1-1.26.74,1.84,1.84,0,0,1-1.78-1.42.65.65,0,0,0,.19,0,.51.51,0,0,0,.53-.53.5.5,0,0,0-.53-.53.51.51,0,0,0-.53.58,2.19,2.19,0,0,0,2.15,2.18A2.6,2.6,0,0,0,303.3,183.26Z"/></g></g><g id="xtick_3-2" data-name="xtick 3"><g id="line2d_5-2" data-name="line2d 5"><g class="cls-12"><path class="cls-5" d="M349,170.34v-56.7"/></g></g><g id="line2d_6-2" data-name="line2d 6"><path id="m464b0f0517-3" data-name="m464b0f0517" class="cls-6" d="M349,170.34v3.5"/></g><g id="text_3-2" data-name="text 3"><path id="LMRoman12-Regular-49-3" data-name="LMRoman12-Regular-49" class="cls-7" d="M346.41,185.67v-.35H346c-1.06,0-1.1-.14-1.1-.58V178c0-.28,0-.29-.24-.29a2.65,2.65,0,0,1-2.12.77v.34a3.49,3.49,0,0,0,1.54-.31v6.25c0,.44,0,.58-1.1.58h-.37v.35c.33,0,1.49,0,1.89,0S346.08,185.64,346.41,185.67Z"/><path id="LMRoman12-Regular-46-9" data-name="LMRoman12-Regular-46" class="cls-7" d="M349.58,185.08a.59.59,0,0,0-.58-.58.58.58,0,0,0-.59.58.59.59,0,1,0,1.17,0Z"/><path id="LMRoman12-Regular-48-10" data-name="LMRoman12-Regular-48" class="cls-7" d="M356,181.83a6.56,6.56,0,0,0-.49-2.88,2.14,2.14,0,0,0-3.94.08,6.32,6.32,0,0,0-.46,2.8,6.08,6.08,0,0,0,.52,2.89,2.15,2.15,0,0,0,3.91-.12A6.78,6.78,0,0,0,356,181.83Zm-.91-.15a13.93,13.93,0,0,1-.14,2.45c-.22,1.32-1,1.55-1.4,1.55s-1.16-.22-1.39-1.52a15.11,15.11,0,0,1-.13-2.48,10.64,10.64,0,0,1,.19-2.58,1.43,1.43,0,0,1,1.33-1.17,1.45,1.45,0,0,1,1.38,1.31A11.87,11.87,0,0,1,355.1,181.68Z"/></g></g><g id="xtick_4-2" data-name="xtick 4"><g id="line2d_7-2" data-name="line2d 7"><g class="cls-12"><path class="cls-5" d="M401.61,170.34v-56.7"/></g></g><g id="line2d_8-2" data-name="line2d 8"><path id="m464b0f0517-4" data-name="m464b0f0517" class="cls-6" d="M401.61,170.34v3.5"/></g><g id="text_4-2" data-name="text 4"><path id="LMRoman12-Regular-49-4" data-name="LMRoman12-Regular-49" class="cls-7" d="M399,185.67v-.35h-.37c-1.06,0-1.1-.14-1.1-.58V178c0-.28,0-.29-.24-.29a2.65,2.65,0,0,1-2.12.77v.34a3.49,3.49,0,0,0,1.54-.31v6.25c0,.44,0,.58-1.1.58h-.37v.35c.33,0,1.49,0,1.89,0S398.69,185.64,399,185.67Z"/><path id="LMRoman12-Regular-46-10" data-name="LMRoman12-Regular-46" class="cls-7" d="M402.19,185.08a.59.59,0,0,0-.58-.58.58.58,0,0,0-.59.58.59.59,0,1,0,1.17,0Z"/><path id="LMRoman12-Regular-53-5" data-name="LMRoman12-Regular-53" class="cls-7" d="M408.52,183.26a2.43,2.43,0,0,0-2.22-2.62,2.05,2.05,0,0,0-1.52.64v-2.49a3.44,3.44,0,0,0,1.07.18,2.57,2.57,0,0,0,2.22-1.16.1.1,0,0,0-.1-.11.45.45,0,0,0-.16.05,3.86,3.86,0,0,1-1.56.32,4.07,4.07,0,0,1-1.58-.33.31.31,0,0,0-.12,0c-.1,0-.1.07-.1.26v3.57c0,.21,0,.29.15.29s.07,0,.19-.16a1.82,1.82,0,0,1,1.5-.78,1.22,1.22,0,0,1,1,.79,3.82,3.82,0,0,1,.22,1.51,3.13,3.13,0,0,1-.34,1.68,1.48,1.48,0,0,1-1.26.74,1.84,1.84,0,0,1-1.78-1.42.65.65,0,0,0,.19,0,.51.51,0,0,0,.53-.53.5.5,0,0,0-.53-.53.51.51,0,0,0-.53.58,2.19,2.19,0,0,0,2.15,2.18A2.6,2.6,0,0,0,408.52,183.26Z"/></g></g><g id="text_5-2" data-name="text 5"><path id="LMRoman12-Regular-84-2" data-name="LMRoman12-Regular-84" class="cls-7" d="M323,195.54l-.21-2.68h-7.2l-.22,2.68h.26c.17-1.9.28-2.33,2.18-2.33a5.65,5.65,0,0,1,.64,0c.24,0,.26.18.26.46v6.38c0,.41,0,.58-1.18.58h-.43V201c.38,0,1.62,0,2.09,0s1.71,0,2.1,0v-.35h-.44c-1.17,0-1.17-.17-1.17-.58v-6.38c0-.3,0-.41.21-.46a6.35,6.35,0,0,1,.68,0c1.89,0,2,.43,2.17,2.33Z"/><path id="LMRoman12-Regular-105-2" data-name="LMRoman12-Regular-105" class="cls-7" d="M326.37,201v-.35c-.78,0-.83-.06-.83-.53V195.7l-1.63.14v.34c.76,0,.87.08.87.66v3.27c0,.54-.13.54-.91.54V201c.34,0,.91,0,1.26,0C325.26,201,326,201,326.37,201Zm-.68-7.25a.58.58,0,1,0-.58.57A.57.57,0,0,0,325.69,193.75Z"/><path id="LMRoman12-Regular-109-3" data-name="LMRoman12-Regular-109" class="cls-7" d="M336.25,201v-.35c-.6,0-.9,0-.91-.36v-2.21c0-1.12,0-1.45-.27-1.84a1.6,1.6,0,0,0-1.32-.54,1.83,1.83,0,0,0-1.7,1.19,1.39,1.39,0,0,0-1.57-1.19,1.86,1.86,0,0,0-1.71,1.24h0V195.7l-1.63.14v.34c.82,0,.91.09.91.68v3.25c0,.54-.13.54-.91.54V201c.31,0,1,0,1.3,0s1,0,1.31,0v-.35c-.77,0-.92,0-.92-.54v-2.23a1.75,1.75,0,0,1,1.58-1.94c.74,0,.91.62.91,1.35v2.82c0,.54-.13.54-.91.54V201c.31,0,1,0,1.29,0s1,0,1.31,0v-.35c-.77,0-.91,0-.91-.54v-2.23a1.75,1.75,0,0,1,1.57-1.94c.74,0,.91.62.91,1.35v2.82c0,.54-.13.54-.91.54V201c.31,0,1,0,1.3,0S335.94,201,336.25,201Z"/><path id="LMRoman12-Regular-101-2" data-name="LMRoman12-Regular-101" class="cls-7" d="M341.41,199.57a.12.12,0,0,0-.13-.12c-.09,0-.12.06-.14.12a1.69,1.69,0,0,1-1.62,1.28c-.51,0-1.72-.33-1.72-2.41v-.23h3.33c.26,0,.28,0,.28-.23a2.09,2.09,0,0,0-2.1-2.34,2.58,2.58,0,0,0-2.42,2.73,2.67,2.67,0,0,0,2.56,2.75A2,2,0,0,0,341.41,199.57Zm-.74-1.59h-2.86c.1-1.88,1.16-2.1,1.49-2.1C340.59,195.88,340.66,197.58,340.67,198Z"/><path id="LMRoman12-Regular-91-3" data-name="LMRoman12-Regular-91" class="cls-7" d="M348.66,204v-.45H347.5V192.44h1.16V192h-1.61v12Z"/><path id="LMRoman12-Regular-115-3" data-name="LMRoman12-Regular-115" class="cls-7" d="M353.15,199.47a1.62,1.62,0,0,0-.5-1.14,2.81,2.81,0,0,0-1.55-.59c-.36-.07-1.24-.24-1.24-1,0-.37.25-.92,1.33-.92a1.37,1.37,0,0,1,1.41,1.49c0,.09.09.09.13.09s.13-.06.13-.27v-1.25c0-.22,0-.28-.12-.28s-.32.27-.41.38a1.67,1.67,0,0,0-1.12-.38c-1.46,0-1.89.8-1.89,1.46a1.25,1.25,0,0,0,.46,1,2.64,2.64,0,0,0,1.34.53,2.07,2.07,0,0,1,1.12.4,1,1,0,0,1,.37.78c0,.52-.3,1.1-1.36,1.1-.79,0-1.36-.46-1.63-1.66a2.24,2.24,0,0,0-.06-.24s-.07,0-.11,0-.13.06-.13.28v1.63c0,.22,0,.28.12.28s.07,0,.28-.27a1.78,1.78,0,0,1,.24-.3,1.59,1.59,0,0,0,1.31.57C352.53,201.12,353.15,200.42,353.15,199.47Z"/><path id="LMRoman12-Regular-93-3" data-name="LMRoman12-Regular-93" class="cls-7" d="M355.42,204V192h-1.61v.44H355v11.11h-1.16V204Z"/></g></g><g id="matplotlib.axis_2-2" data-name="matplotlib.axis 2"><g id="ytick_1-2" data-name="ytick 1"><g id="line2d_9-2" data-name="line2d 9"><g class="cls-12"><path class="cls-5" d="M243.78,159H428"/></g></g><g id="line2d_10-2" data-name="line2d 10"><path id="m3c009f0790" class="cls-6" d="M243.78,159h-3.5"/></g></g><g id="ytick_2-2" data-name="ytick 2"><g id="line2d_11-2" data-name="line2d 11"><g class="cls-12"><path class="cls-5" d="M243.78,130.65H428"/></g></g><g id="line2d_12-2" data-name="line2d 12"><path id="m3c009f0790-2" data-name="m3c009f0790" class="cls-6" d="M243.78,130.65h-3.5"/></g></g></g><g id="line2d_13-2" data-name="line2d 13"><g class="cls-12"><path class="cls-8" d="M243.78,150.26h1.88l4.7,0,9.4.05,8.46.21,1.88.22.94.33,2.82,1.29.94.76.94,1,.94.35.94.63.94.23.94.09.94.25.94-.85.94-.56,1.88-.78,1.88.28.94.39,1.88.35,2.82.68h.94l2.82.34.94-.3.94-.07.94.33,2.82.11,3.76.3,2.82.34,2.82-.11,2.82-.69.94-.31.94-.06.94.47.94,0,.94.24.94-.67h.94l.94-.87.94.56.94,1.73.94,1,.94.34.94-1.12.94-1.78.94-.54.95-.95.94-.76.94-.09.94,0,.94,1.53.94.52.94-.35L335,153l.94-1,.94-.45.94-.31,1.88.31,1.88-.46h.94l2.82-.61,1.88,0,1.88-.24L350,150l1.88,0,6.58.35.94-.15,1.88,0,7.52,0,3.76-.19.94.18,1.88-.06,1.88,0,1.88,0,8.46-.09,5.64,0h1.88l.94.07,2.82-.12,2.82,0,1.88-.1,1.88.09.94-.08.94.15,1.88-.06,4.7-.06.94.12,11.28-.11.94.11.94,0h0"/></g></g><g id="line2d_14-2" data-name="line2d 14"><g class="cls-12"><path class="cls-9" d="M243.78,156.1l.94,0,2.82.41,1.88.33.94.1,1.88-.13,1.88-.49.94-.05,6.58.5,1.88-.29.94-.16,5.64,1,1.88,1.12,2.82,1.82.94.16.94-.76.94-1,.94-1.36,1.88-2.08.94-1.41.94-.95.94-.39.94.73,1.88,1.11.94.06L288,154l2.82.68.94.06,2.82-.43h.94l.94-.21.94.15.94.49.94.67.94.42,1.88-.11,1.88-.2,2.82.14,1.88,0,1.88-.31,2.82-1.18.94-.11.94.47.94,1,.94.3L318,155l.94-1.24.94-.82.94-1,.94.8.94,2.28.94,1.6.94.34,1.88-1.8.94-.37.95-.06.94.31.94-.44.94-.07,1.88,4.74.94-.38.94-2.33.94-2,.94-.5.94.64,1.88,2.09.94.58.94.08.94-.26,1.88-1.1.94-.27h2.82l5.64.28.94-.12.94.34.94.48.94.05,4.7-.45.94-.17.94.22.94.11,3.76-.22,1.88.19,2.82-.26.94.12,2.82-.35.94-.14,3.76.27.94.27,1.88.1,1.88-.49.94-.16,2.82.39,1.88-.12,2.82-.24L397,156l1.88-.23.94.07.94.25,2.82.15,2.82.1,2.82-.34.94.05,1.88-.11.94,0,2.82.5,2.82-.69.94,0,.94.24.94.13,1.88-.1,2.82-.22.94.07.94.18h0"/></g></g><g id="line2d_15-2" data-name="line2d 15"><g class="cls-12"><path class="cls-10" d="M243.78,153.15l.94.21,1.88.06,1.88-.2.94-.21,1.88,0,1.88-.29.94.06.94.28,1.88.22.94-.07,2.82.12,1.88-.17.94-.28.94-.15h.94l1.88.7.94.52.94.29,2.82,2.06.94,1,.94.66,1.88.2.94-.93.94-1.2.94-1.65.94-2.71.94-2,1.88-5.4.94-2.13.94-1.21.94.14.94,1.07L288,147.3l.94,2.5.94,1.5.94.81.94-.08.94-.72,1.88-1.79.94-.51,1.88-1.43.94-.49.94.18,1.88,1.18.94.3,1.88-.05.94.27,1.88.76.94.24.94-.09.94-.38.94-.61L312.4,147l.94-1.39.94-1.6.94-1.17.94-.41.94.34.94,1,.94.24.94-.46.94-2.13.94-1.86.94.21.94,2.89,1.88,11,.94,3.25.94,1.55.95-.9,1.88-6.18.94-1.2.94,1.05.94,2.56.94,3.22.94,2.33.94.86.94-.71,1.88-3.38.94-1.14.94-.49.94-.07,1.88.62.94-.06,2.82-2.12.94-.19.94.1.94.3.94,0,1.88-.15,3.76,1.34.94.14.94,0,1.88-1.2.94-.28,3.76.39,2.82,1.07.94.12.94-.15,2.82-1.1.94,0,1.88.63,2.82.1,1.88-.16.94-.22,2.82-1,1.88.5,1.88.73.94.09,2.82-.26,4.7-.79,7.52.69,3.76-.33h.94l.94.13,1.88-.1,2.82.22,1.88-.32.94,0,1.88.51.94.07,1.88-.5,1.88.14,1.88.32,1.88-.11.94,0h0"/></g></g><g id="patch_3-2" data-name="patch 3"><path class="cls-11" d="M243.78,170.34v-56.7"/></g><g id="patch_4-2" data-name="patch 4"><path class="cls-11" d="M428,170.34v-56.7"/></g><g id="patch_5-2" data-name="patch 5"><path class="cls-11" d="M243.78,170.34H428"/></g><g id="patch_6-2" data-name="patch 6"><path class="cls-11" d="M243.78,113.64H428"/></g></g></g><g id="figure_1-3" data-name="figure 1"><g id="patch_1-3" data-name="patch 1"><path class="cls-3" d="M38.26,422H222.52V365.26H38.26Z"/></g><g id="axes_1-3" data-name="axes 1"><g id="patch_2-3" data-name="patch 2"><path class="cls-3" d="M38.26,422H222.52V365.26H38.26Z"/></g><g id="matplotlib.axis_1-3" data-name="matplotlib.axis 1"><g id="xtick_1-3" data-name="xtick 1"><g id="line2d_1-3" data-name="line2d 1"><g class="cls-13"><path class="cls-5" d="M38.26,422V365.26"/></g></g><g id="line2d_2-3" data-name="line2d 2"><path id="m91f9dfb2c9" class="cls-6" d="M38.26,422v3.5"/></g><g id="text_1-3" data-name="text 1"><path id="LMRoman12-Regular-48-11" data-name="LMRoman12-Regular-48" class="cls-7" d="M36.13,433.44a6.56,6.56,0,0,0-.49-2.88,2.14,2.14,0,0,0-3.94.08,6.32,6.32,0,0,0-.46,2.8,6.08,6.08,0,0,0,.52,2.89,2.15,2.15,0,0,0,3.91-.12A6.75,6.75,0,0,0,36.13,433.44Zm-.91-.14a13.87,13.87,0,0,1-.14,2.44c-.22,1.32-1,1.55-1.4,1.55s-1.16-.21-1.39-1.52a15,15,0,0,1-.13-2.47,10.56,10.56,0,0,1,.19-2.58,1.43,1.43,0,0,1,1.33-1.18,1.46,1.46,0,0,1,1.38,1.31A11.92,11.92,0,0,1,35.22,433.3Z"/><path id="LMRoman12-Regular-46-11" data-name="LMRoman12-Regular-46" class="cls-7" d="M38.84,436.69a.58.58,0,0,0-.58-.57.57.57,0,0,0-.58.57.59.59,0,0,0,.57.59A.58.58,0,0,0,38.84,436.69Z"/><path id="LMRoman12-Regular-48-12" data-name="LMRoman12-Regular-48" class="cls-7" d="M45.27,433.44a6.56,6.56,0,0,0-.49-2.88,2.14,2.14,0,0,0-1.94-1.26,2.17,2.17,0,0,0-2,1.34,6.49,6.49,0,0,0-.45,2.8,6.08,6.08,0,0,0,.51,2.89,2.16,2.16,0,0,0,3.92-.12A6.73,6.73,0,0,0,45.27,433.44Zm-.91-.14a14.92,14.92,0,0,1-.13,2.44c-.23,1.32-1,1.55-1.41,1.55s-1.16-.21-1.39-1.52a15,15,0,0,1-.13-2.47,10.56,10.56,0,0,1,.19-2.58,1.36,1.36,0,0,1,2.71.13A11.92,11.92,0,0,1,44.36,433.3Z"/></g></g><g id="xtick_2-3" data-name="xtick 2"><g id="line2d_3-3" data-name="line2d 3"><g class="cls-13"><path class="cls-5" d="M90.87,422V365.26"/></g></g><g id="line2d_4-3" data-name="line2d 4"><path id="m91f9dfb2c9-2" data-name="m91f9dfb2c9" class="cls-6" d="M90.87,422v3.5"/></g><g id="text_2-3" data-name="text 2"><path id="LMRoman12-Regular-48-13" data-name="LMRoman12-Regular-48" class="cls-7" d="M88.74,433.44a6.56,6.56,0,0,0-.49-2.88,2.14,2.14,0,0,0-3.94.08,6.32,6.32,0,0,0-.46,2.8,6.08,6.08,0,0,0,.52,2.89,2.15,2.15,0,0,0,3.91-.12A6.75,6.75,0,0,0,88.74,433.44Zm-.91-.14a13.87,13.87,0,0,1-.14,2.44c-.22,1.32-1,1.55-1.4,1.55s-1.16-.21-1.39-1.52a15,15,0,0,1-.13-2.47,10.56,10.56,0,0,1,.19-2.58,1.43,1.43,0,0,1,1.33-1.18,1.46,1.46,0,0,1,1.38,1.31A11.92,11.92,0,0,1,87.83,433.3Z"/><path id="LMRoman12-Regular-46-12" data-name="LMRoman12-Regular-46" class="cls-7" d="M91.45,436.69a.58.58,0,0,0-.58-.57.57.57,0,0,0-.58.57.59.59,0,0,0,.57.59A.58.58,0,0,0,91.45,436.69Z"/><path id="LMRoman12-Regular-53-6" data-name="LMRoman12-Regular-53" class="cls-7" d="M97.79,434.87a2.43,2.43,0,0,0-2.22-2.62,2.06,2.06,0,0,0-1.53.64V430.4a3.52,3.52,0,0,0,1.07.18,2.56,2.56,0,0,0,2.22-1.16.1.1,0,0,0-.1-.11.45.45,0,0,0-.15.05,3.89,3.89,0,0,1-1.56.32,4.13,4.13,0,0,1-1.59-.33.31.31,0,0,0-.12,0c-.09,0-.09.07-.09.27v3.56c0,.22,0,.29.14.29s.07,0,.19-.16a1.82,1.82,0,0,1,1.5-.78,1.25,1.25,0,0,1,1,.79,4,4,0,0,1,.21,1.52,3.23,3.23,0,0,1-.33,1.68,1.5,1.5,0,0,1-1.26.73,1.86,1.86,0,0,1-1.79-1.42.43.43,0,0,0,.19,0,.5.5,0,0,0,.53-.53.5.5,0,0,0-.53-.53.51.51,0,0,0-.53.58,2.19,2.19,0,0,0,2.15,2.18A2.61,2.61,0,0,0,97.79,434.87Z"/></g></g><g id="xtick_3-3" data-name="xtick 3"><g id="line2d_5-3" data-name="line2d 5"><g class="cls-13"><path class="cls-5" d="M143.48,422V365.26"/></g></g><g id="line2d_6-3" data-name="line2d 6"><path id="m91f9dfb2c9-3" data-name="m91f9dfb2c9" class="cls-6" d="M143.48,422v3.5"/></g><g id="text_3-3" data-name="text 3"><path id="LMRoman12-Regular-49-5" data-name="LMRoman12-Regular-49" class="cls-7" d="M140.89,437.28v-.35h-.37c-1.06,0-1.09-.14-1.09-.57v-6.77c0-.28,0-.29-.24-.29a2.69,2.69,0,0,1-2.13.77v.35a3.39,3.39,0,0,0,1.54-.32v6.26c0,.43,0,.57-1.09.57h-.37v.35c.32,0,1.48,0,1.88,0S140.57,437.26,140.89,437.28Z"/><path id="LMRoman12-Regular-46-13" data-name="LMRoman12-Regular-46" class="cls-7" d="M144.06,436.69a.58.58,0,0,0-.58-.57.57.57,0,0,0-.58.57.59.59,0,0,0,.57.59A.58.58,0,0,0,144.06,436.69Z"/><path id="LMRoman12-Regular-48-14" data-name="LMRoman12-Regular-48" class="cls-7" d="M150.49,433.44a6.56,6.56,0,0,0-.49-2.88,2.14,2.14,0,0,0-1.94-1.26,2.17,2.17,0,0,0-2,1.34,6.49,6.49,0,0,0-.45,2.8,6.08,6.08,0,0,0,.51,2.89,2.16,2.16,0,0,0,3.92-.12A6.73,6.73,0,0,0,150.49,433.44Zm-.91-.14a14.92,14.92,0,0,1-.13,2.44c-.23,1.32-1,1.55-1.41,1.55s-1.16-.21-1.39-1.52a15,15,0,0,1-.13-2.47,10.56,10.56,0,0,1,.19-2.58,1.36,1.36,0,0,1,2.71.13A11.92,11.92,0,0,1,149.58,433.3Z"/></g></g><g id="xtick_4-3" data-name="xtick 4"><g id="line2d_7-3" data-name="line2d 7"><g class="cls-13"><path class="cls-5" d="M196.09,422V365.26"/></g></g><g id="line2d_8-3" data-name="line2d 8"><path id="m91f9dfb2c9-4" data-name="m91f9dfb2c9" class="cls-6" d="M196.09,422v3.5"/></g><g id="text_4-3" data-name="text 4"><path id="LMRoman12-Regular-49-6" data-name="LMRoman12-Regular-49" class="cls-7" d="M193.5,437.28v-.35h-.37c-1.06,0-1.09-.14-1.09-.57v-6.77c0-.28,0-.29-.24-.29a2.69,2.69,0,0,1-2.13.77v.35a3.39,3.39,0,0,0,1.54-.32v6.26c0,.43,0,.57-1.09.57h-.37v.35c.32,0,1.48,0,1.88,0S193.18,437.26,193.5,437.28Z"/><path id="LMRoman12-Regular-46-14" data-name="LMRoman12-Regular-46" class="cls-7" d="M196.67,436.69a.58.58,0,0,0-.58-.57.57.57,0,0,0-.58.57.59.59,0,0,0,.57.59A.58.58,0,0,0,196.67,436.69Z"/><path id="LMRoman12-Regular-53-7" data-name="LMRoman12-Regular-53" class="cls-7" d="M203,434.87a2.43,2.43,0,0,0-2.22-2.62,2.06,2.06,0,0,0-1.53.64V430.4a3.52,3.52,0,0,0,1.07.18,2.56,2.56,0,0,0,2.22-1.16.1.1,0,0,0-.1-.11.45.45,0,0,0-.15.05,3.89,3.89,0,0,1-1.56.32,4.13,4.13,0,0,1-1.59-.33.31.31,0,0,0-.12,0c-.09,0-.09.07-.09.27v3.56c0,.22,0,.29.14.29s.07,0,.19-.16a1.82,1.82,0,0,1,1.5-.78,1.25,1.25,0,0,1,1,.79,4,4,0,0,1,.21,1.52,3.23,3.23,0,0,1-.33,1.68,1.5,1.5,0,0,1-1.26.73,1.86,1.86,0,0,1-1.79-1.42.43.43,0,0,0,.19,0,.5.5,0,0,0,.53-.53.5.5,0,0,0-.53-.53.51.51,0,0,0-.53.58,2.19,2.19,0,0,0,2.15,2.18A2.61,2.61,0,0,0,203,434.87Z"/></g></g><g id="text_5-3" data-name="text 5"><path id="LMRoman12-Regular-84-3" data-name="LMRoman12-Regular-84" class="cls-7" d="M117.53,447.15l-.22-2.68h-7.2l-.22,2.68h.27c.17-1.9.27-2.33,2.17-2.33a5.84,5.84,0,0,1,.65,0c.24,0,.25.18.25.46v6.38c0,.41,0,.58-1.18.58h-.43v.35c.39,0,1.62,0,2.09,0s1.72,0,2.1,0v-.35h-.43c-1.18,0-1.18-.17-1.18-.58V445.3c0-.3,0-.41.22-.46a6.05,6.05,0,0,1,.67,0c1.9,0,2,.43,2.17,2.33Z"/><path id="LMRoman12-Regular-105-3" data-name="LMRoman12-Regular-105" class="cls-7" d="M120.85,452.61v-.35c-.78,0-.83-.06-.83-.53v-4.41l-1.63.13v.35c.77,0,.88.07.88.66v3.26c0,.54-.14.54-.92.54v.35c.34,0,.92,0,1.26,0C119.75,452.58,120.44,452.58,120.85,452.61Zm-.67-7.25a.58.58,0,0,0-.58-.59.59.59,0,0,0,0,1.17A.58.58,0,0,0,120.18,445.36Z"/><path id="LMRoman12-Regular-109-4" data-name="LMRoman12-Regular-109" class="cls-7" d="M130.74,452.61v-.35c-.6,0-.9,0-.91-.36v-2.21c0-1.11,0-1.45-.28-1.83a1.56,1.56,0,0,0-1.32-.54,1.81,1.81,0,0,0-1.69,1.18,1.39,1.39,0,0,0-1.57-1.18,1.87,1.87,0,0,0-1.72,1.23h0v-1.23l-1.63.13v.35c.81,0,.91.08.91.67v3.25c0,.54-.13.54-.91.54v.35c.31,0,1,0,1.29,0s1,0,1.31,0v-.35c-.77,0-.91,0-.91-.54v-2.23a1.74,1.74,0,0,1,1.57-1.93c.74,0,.91.61.91,1.34v2.82c0,.54-.13.54-.91.54v.35c.31,0,1,0,1.3,0s1,0,1.3,0v-.35c-.76,0-.91,0-.91-.54v-2.23a1.74,1.74,0,0,1,1.57-1.93c.75,0,.92.61.92,1.34v2.82c0,.54-.14.54-.92.54v.35c.32,0,1,0,1.3,0S130.43,452.58,130.74,452.61Z"/><path id="LMRoman12-Regular-101-3" data-name="LMRoman12-Regular-101" class="cls-7" d="M135.9,451.18a.12.12,0,0,0-.13-.12c-.1,0-.12.06-.15.12a1.69,1.69,0,0,1-1.62,1.28c-.5,0-1.71-.33-1.71-2.41v-.23h3.32c.26,0,.29,0,.29-.22a2.09,2.09,0,0,0-2.1-2.34,2.58,2.58,0,0,0-2.43,2.72,2.68,2.68,0,0,0,2.56,2.75A2,2,0,0,0,135.9,451.18Zm-.75-1.58H132.3c.09-1.89,1.15-2.1,1.49-2.1C135.07,447.5,135.14,449.19,135.15,449.6Z"/><path id="LMRoman12-Regular-91-4" data-name="LMRoman12-Regular-91" class="cls-7" d="M143.15,455.61v-.45H142V444.05h1.17v-.44h-1.61v12Z"/><path id="LMRoman12-Regular-115-4" data-name="LMRoman12-Regular-115" class="cls-7" d="M147.64,451.08a1.59,1.59,0,0,0-.51-1.14,2.67,2.67,0,0,0-1.55-.58c-.36-.08-1.23-.24-1.23-1,0-.38.25-.93,1.33-.93a1.35,1.35,0,0,1,1.4,1.49.12.12,0,0,0,.14.1c.13,0,.13-.06.13-.28v-1.25c0-.21,0-.27-.12-.27s-.33.26-.41.37a1.67,1.67,0,0,0-1.13-.37c-1.45,0-1.88.79-1.88,1.45a1.26,1.26,0,0,0,.45,1,2.62,2.62,0,0,0,1.35.53,2,2,0,0,1,1.11.41,1,1,0,0,1,.38.78c0,.51-.3,1.09-1.36,1.09-.79,0-1.37-.46-1.63-1.66l-.06-.24a.11.11,0,0,0-.11,0c-.13,0-.13.06-.13.28v1.63c0,.22,0,.28.12.28s.07,0,.27-.27a2.35,2.35,0,0,1,.24-.3,1.61,1.61,0,0,0,1.31.57C147,452.73,147.64,452,147.64,451.08Z"/><path id="LMRoman12-Regular-93-4" data-name="LMRoman12-Regular-93" class="cls-7" d="M149.9,455.61v-12h-1.61v.44h1.17v11.11h-1.17v.45Z"/></g></g><g id="matplotlib.axis_2-3" data-name="matplotlib.axis 2"><g id="ytick_1-3" data-name="ytick 1"><g id="line2d_9-3" data-name="line2d 9"><g class="cls-13"><path class="cls-5" d="M38.26,410.61H222.52"/></g></g><g id="line2d_10-3" data-name="line2d 10"><path id="mdb160e1f40" class="cls-6" d="M38.26,410.61h-3.5"/></g><g id="text_6-2" data-name="text 6"><path id="LMRoman12-Regular-48-15" data-name="LMRoman12-Regular-48" class="cls-7" d="M21.62,410.94a6.43,6.43,0,0,0-.5-2.88,2.14,2.14,0,0,0-3.93.08,6.32,6.32,0,0,0-.46,2.8,6.08,6.08,0,0,0,.52,2.89,2.15,2.15,0,0,0,3.91-.12A6.78,6.78,0,0,0,21.62,410.94Zm-.92-.15a15,15,0,0,1-.13,2.45c-.23,1.32-1,1.55-1.4,1.55s-1.17-.22-1.39-1.52a14,14,0,0,1-.14-2.48,10.12,10.12,0,0,1,.2-2.58A1.43,1.43,0,0,1,19.17,407a1.45,1.45,0,0,1,1.38,1.31A12.64,12.64,0,0,1,20.7,410.79Z"/><path id="LMRoman12-Regular-46-15" data-name="LMRoman12-Regular-46" class="cls-7" d="M24.33,414.19a.59.59,0,0,0-.58-.58.58.58,0,0,0-.59.58.59.59,0,1,0,1.17,0Z"/><path id="LMRoman12-Regular-48-16" data-name="LMRoman12-Regular-48" class="cls-7" d="M30.76,410.94a6.56,6.56,0,0,0-.49-2.88,2.14,2.14,0,0,0-1.95-1.26,2.17,2.17,0,0,0-2,1.34,6.49,6.49,0,0,0-.45,2.8,6.08,6.08,0,0,0,.51,2.89,2.15,2.15,0,0,0,3.91-.12A6.62,6.62,0,0,0,30.76,410.94Zm-.91-.15a15,15,0,0,1-.13,2.45c-.23,1.32-1,1.55-1.41,1.55s-1.16-.22-1.39-1.52a15.11,15.11,0,0,1-.13-2.48,10.64,10.64,0,0,1,.19-2.58,1.36,1.36,0,0,1,2.71.14A11.87,11.87,0,0,1,29.85,410.79Z"/></g></g><g id="ytick_2-3" data-name="ytick 2"><g id="line2d_11-3" data-name="line2d 11"><g class="cls-13"><path class="cls-5" d="M38.26,382.27H222.52"/></g></g><g id="line2d_12-3" data-name="line2d 12"><path id="mdb160e1f40-2" data-name="mdb160e1f40" class="cls-6" d="M38.26,382.27h-3.5"/></g><g id="text_7-2" data-name="text 7"><path id="LMRoman12-Regular-50-3" data-name="LMRoman12-Regular-50" class="cls-7" d="M21.52,384.41h-.26a4.83,4.83,0,0,1-.26,1.06,3,3,0,0,1-1.12.11H17.66c.32-.28,1.05-1.05,1.36-1.33,1.83-1.68,2.5-2.31,2.5-3.5a2.32,2.32,0,0,0-2.48-2.3,2.22,2.22,0,0,0-2.21,2.22.55.55,0,0,0,.56.61.56.56,0,0,0,.57-.56.54.54,0,0,0-.57-.57c-.11,0-.13,0-.17,0a1.75,1.75,0,0,1,1.66-1.37,1.73,1.73,0,0,1,1.64,1.95,4.15,4.15,0,0,1-1.27,2.68l-2.42,2.71v.29h4.38Z"/><path id="LMRoman12-Regular-46-16" data-name="LMRoman12-Regular-46" class="cls-7" d="M24.33,385.84a.58.58,0,0,0-.58-.57.57.57,0,0,0-.59.57.59.59,0,1,0,1.17,0Z"/><path id="LMRoman12-Regular-53-8" data-name="LMRoman12-Regular-53" class="cls-7" d="M30.66,384a2.43,2.43,0,0,0-2.22-2.62,2.05,2.05,0,0,0-1.52.64v-2.49a3.52,3.52,0,0,0,1.07.18,2.57,2.57,0,0,0,2.22-1.16.1.1,0,0,0-.1-.11.39.39,0,0,0-.15.05,3.91,3.91,0,0,1-1.56.32,4.09,4.09,0,0,1-1.59-.33.31.31,0,0,0-.12,0c-.09,0-.09.07-.09.27v3.56c0,.22,0,.29.14.29s.07,0,.19-.16a1.82,1.82,0,0,1,1.5-.78,1.25,1.25,0,0,1,1.05.79,4,4,0,0,1,.21,1.52,3.23,3.23,0,0,1-.33,1.68,1.51,1.51,0,0,1-1.26.73,1.84,1.84,0,0,1-1.79-1.42.43.43,0,0,0,.19,0,.51.51,0,0,0,.53-.53.5.5,0,0,0-.53-.53.51.51,0,0,0-.53.58,2.19,2.19,0,0,0,2.15,2.18A2.6,2.6,0,0,0,30.66,384Z"/></g></g><g id="text_8-2" data-name="text 8"><path id="LMRoman12-Regular-65-2" data-name="LMRoman12-Regular-65" class="cls-7" d="M9.21,412.72H8.86c0,.78,0,1-.49,1.16L.85,416.5c-.14.05-.21.07-.21.24s0,.19.23.25L8,419.5a1.17,1.17,0,0,1,.82,1.27h.35l0-1.15c0-.34,0-.91,0-1.22H8.86c0,.5-.27.8-.6.8a.52.52,0,0,1-.25-.06l-1.6-.55v-3l1.88-.66c.15-.06.17-.06.21-.06.36,0,.36.62.36.92h.35c0-.28,0-1.23,0-1.56S9.18,413,9.21,412.72Zm-3.15,3v2.79l-4-1.39Z"/><path id="LMRoman12-Regular-99-3" data-name="LMRoman12-Regular-99" class="cls-7" d="M7.78,407.47c-.11,0-.11.08-.11.12s0,.12.18.15a1.6,1.6,0,0,1,1.21,1.56c0,.73-.63,1.71-2.46,1.71-2,0-2.48-1-2.48-1.62a1.68,1.68,0,0,1,.65-1.4c0,.15,0,.59.49.59a.47.47,0,0,0,.49-.49.47.47,0,0,0-.52-.5c-.8,0-1.38.84-1.38,1.81a2.65,2.65,0,0,0,2.76,2.52,2.61,2.61,0,0,0,2.72-2.51A1.93,1.93,0,0,0,7.78,407.47Z"/><path id="LMRoman12-Regular-99-4" data-name="LMRoman12-Regular-99" class="cls-7" d="M7.78,402.25c-.11,0-.11.08-.11.12s0,.12.18.15a1.6,1.6,0,0,1,1.21,1.56c0,.73-.63,1.71-2.46,1.71-2,0-2.48-1-2.48-1.62a1.68,1.68,0,0,1,.65-1.4c0,.15,0,.59.49.59a.47.47,0,0,0,.49-.49.47.47,0,0,0-.52-.5c-.8,0-1.38.84-1.38,1.81a2.65,2.65,0,0,0,2.76,2.52,2.61,2.61,0,0,0,2.72-2.51A1.93,1.93,0,0,0,7.78,402.25Z"/><path id="LMRoman12-Regular-91-5" data-name="LMRoman12-Regular-91" class="cls-7" d="M12.21,395h-.45v1.17H.65V395H.21v1.61h12Z"/><path id="LMRoman12-Regular-109-5" data-name="LMRoman12-Regular-109" class="cls-7" d="M9.21,385.21H8.86c0,.6,0,.9-.36.91H6.29c-1.12,0-1.45,0-1.84.27a1.6,1.6,0,0,0-.54,1.32,1.83,1.83,0,0,0,1.19,1.7A1.39,1.39,0,0,0,3.91,391a1.86,1.86,0,0,0,1.24,1.71v0H3.91l.14,1.63h.34c0-.82.09-.91.68-.91H8.32c.54,0,.54.13.54.91h.35c0-.31,0-1,0-1.3s0-1,0-1.31H8.86c0,.77,0,.92-.54.92H6.09a1.75,1.75,0,0,1-1.94-1.58c0-.74.62-.91,1.35-.91H8.32c.54,0,.54.13.54.91h.35c0-.31,0-1,0-1.29s0-1,0-1.31H8.86c0,.77,0,.91-.54.91H6.09a1.75,1.75,0,0,1-1.94-1.57c0-.74.62-.91,1.35-.91H8.32c.54,0,.54.13.54.91h.35c0-.31,0-1,0-1.3S9.18,385.52,9.21,385.21Z"/><path id="LMRoman12-Regular-115-5" data-name="LMRoman12-Regular-115" class="cls-7" d="M7.68,380.7a1.57,1.57,0,0,0-1.14.51A2.74,2.74,0,0,0,6,382.76c-.07.36-.24,1.23-1,1.23-.37,0-.92-.25-.92-1.33a1.35,1.35,0,0,1,1.49-1.4.12.12,0,0,0,.09-.14c0-.13-.06-.13-.27-.13H4.13c-.22,0-.28,0-.28.12s.27.33.38.41a1.68,1.68,0,0,0-.38,1.13c0,1.45.8,1.88,1.46,1.88a1.26,1.26,0,0,0,1-.45,2.71,2.71,0,0,0,.53-1.35,2,2,0,0,1,.4-1.11,1,1,0,0,1,.78-.38c.52,0,1.1.3,1.1,1.36,0,.79-.46,1.37-1.66,1.63l-.24.06a.11.11,0,0,0-.05.11c0,.13.06.13.28.13H9.05c.22,0,.28,0,.28-.12s0-.07-.27-.27a1.78,1.78,0,0,1-.3-.24,1.61,1.61,0,0,0,.57-1.31C9.33,381.33,8.63,380.7,7.68,380.7Z"/><path id="LMRoman12-Regular-8722-2" data-name="LMRoman12-Regular-8722" class="cls-7" d="M3.49,374.27c-.16,0-.16.14-.16.27v4.94c0,.12,0,.27.15.27s.16-.14.16-.27v-4.94C3.64,374.42,3.64,374.27,3.49,374.27Z"/><path id="LMRoman12-Regular-50-4" data-name="LMRoman12-Regular-50" class="cls-7" d="M4.18,370.11v.18a3.71,3.71,0,0,1,.73.18c.08.06.08.54.08.79v1.55c-.19-.22-.73-.73-.93-.95-1.18-1.28-1.62-1.75-2.45-1.75A1.62,1.62,0,0,0,0,371.85a1.55,1.55,0,0,0,1.55,1.54.4.4,0,1,0,0-.79.38.38,0,0,0-.4.4.35.35,0,0,0,0,.12,1.24,1.24,0,0,1-1-1.16,1.21,1.21,0,0,1,1.37-1.15,2.92,2.92,0,0,1,1.88.89l1.89,1.69h.21v-3.06Z"/><path id="LMRoman12-Regular-93-5" data-name="LMRoman12-Regular-93" class="cls-7" d="M12.21,367.57H.21v1.61H.65V368H11.76v1.16h.45Z"/></g></g><g id="line2d_13-3" data-name="line2d 13"><g class="cls-13"><path class="cls-8" d="M38.26,401.78,42,401.7l14.11.07,1.88-.14,1.88,0,4.7,0,5.64,0,3.76.11.94.06,1.88,0,1.88.1.94.29h.94l1.88.56.94,1,.94.44.94,1.34.94.38,1.88,3.42.94,2.68L90,413.6l.94.56.94-.2.94-.4.94-1.19,1.88-3.43.94-.59,1.88-.87.94,1,.94.69h.94l.94.26.94-.51.94-.18.94-.62,1.88.48.94.41,1.88.24.94-.24,1.88-1.62.94-.81.94-.35,1.88.63.94,1.33.94.58.94.84.94-.92L121,408l.94-1.1.94-1.36.94.43.94,1.3.94.93h.94l.94-1.39.94-1.18.94-1,3.76-1.37h1.88l.94,0L137,403l.94-.08,1.88-.64,2.82-.35.94.06.94.19.94,0,.94.16,1.88-.19,1.88,0,1.88-.11.94.05,1.88.77,1.88-.51.94-.34,3.76-.5.94.24.94.11,7.52-.18,1.88.07.94-.13h1.88l3.76-.11,2.82.2,1.88-.23.94,0,.94-.14,1.88.12.94-.11,6.58.13.94-.09,1.88.18.94-.06.94.09,2.83-.17,11.28.06.94.13.94-.09.94.05,1.88-.09,1.88.07.94-.12.94.07h0"/></g></g><g id="line2d_14-3" data-name="line2d 14"><g class="cls-13"><path class="cls-9" d="M38.26,407.78l3.76,0,1.88.2.94-.18,4.71-.28,3.76.32,4.7-.3,5.64.18.94.14,6.58-.24.94-.05.94.07.94.28.94.12,1.88-.1.94.13,2.82,1,.94.38.94.59.94,1.39.94,2.13.94,1.46.94-.09,1.88-2.51.94.19.94-1.8L92.79,402l.94-1.37.94.24.94,1.67.94,1.06.94-.27,1.88-1.43,1.88-.39,1.88,1.41,1.88.56.94.6,1.88,2.31.94.64.94.32.94-.17,3.76-3.64.94.73,1.88,3.64.94.76.94-.91,3.76-6.46.94.72.94,3.67.94,3,.94,1.13,1.88-1.94.94-.67.94.12,1.88.1.94.15.94.27H136l.94-.31,1.88-1.33.94-.32,2.82,0,.94.62.94.93.94.64.94-.14,1.88-1.11,3.76-.57H153l.94.34.94,1.48.94.85.94-.5.94-.76.94-.25,3.76-.32.94.38.94.24.94-.13,2.82-.72,1.88-.12,3.76.94h.94l1.88-.36,2.82-.12.94.21.94.42.94.22.94-.21.94-.45.94-.24.94,0,1.88.45.94-.08.94-.24h4.7l1.88-.21.94.2H199l3.77-.06,4.7,0,1.88.1,2.82-.18,1.88.17.94.14h.94l5.64-.48.94-.09h0"/></g></g><g id="line2d_15-3" data-name="line2d 15"><g class="cls-13"><path class="cls-10" d="M38.26,405.17l1.88,0,2.82.22,1.88-.26.94-.13,1.88.1,1.89.18h.94l1.88-.49,2.82.18,1.88,0,4.7-.49,1.88.23.94.2,4.7.27.94-.23.94-.33.94-.16.94,0,1.88.67,1.88.4,1.88.2.94.31.94.47.94.31.94.61.94,1.34.94,2,.94,3.06.94,2.56.94,1.91.94-.35.94-2.73.94-3.33.94-4.44,1.88-8,1.88-8.69.94-5.05.94-4,.94-2.7.94.63.94,4.2.94,6.51.94,5.72.94,3.76.94,1,.94-1.22L106,396l.94.32.94,1.57.94,2.58.94,2.06.94,1.29.94-.9.94-2.65,1.88-7.87.94-1.53.94.16,1.88,3.25,2.82,9.9.94,1.73.94-.41.94-1.62.94-1,.94,1.42,1.88,7,.94,2.27.94.06.94-.89.94-1.5.94-2,.94-1.72.94-1.31.94-.77.94-.18.94.23.94.07.94-.58.94-1.13.94-1.3.94-.74.94,0,.94.92,1.88,2.3.94.43.94,0,.94-.42.94-.21,1.88-.13.94-.33.94-.21.94.36.94.8.94.37.94,0,1.88-1.35.94-.2.94.1,1.88.65.94.37.94.19.94-.2,1.88-.92.94-.19h.94l.94.45,1.88,1.21.94.23,1.88-.42,1.88.23.94.12.94-.06,1.88-.54.94-.11.94.1L184,406l.94.21h.94l1.88-.71.94.09,2.82.86h.94l.94-.21.94-.37.94-.09,1.88.28.94.23,1.88,0,1.88-.48,2.83-.38,3.76.52.94-.16,3.76.11,1.88,0,2.82-.31.94-.18h.94l2.82.48h0"/></g></g><g id="patch_3-3" data-name="patch 3"><path class="cls-11" d="M38.26,422V365.26"/></g><g id="patch_4-3" data-name="patch 4"><path class="cls-11" d="M222.52,422V365.26"/></g><g id="patch_5-3" data-name="patch 5"><path class="cls-11" d="M38.26,422H222.52"/></g><g id="patch_6-3" data-name="patch 6"><path class="cls-11" d="M38.26,365.26H222.52"/></g></g></g><image width="1280" height="720" transform="translate(243.77 251.61) scale(0.14)" xlink:href="../../../../../../../university/2018-2019/comp3200_individual_project/strike_labeler/strike_labeler/Assets/Sprites/curvy_path_3.png"/><g id="figure_1-4" data-name="figure 1"><g id="patch_1-4" data-name="patch 1"><path class="cls-3" d="M243.78,422H428V365.26H243.78Z"/></g><g id="axes_1-4" data-name="axes 1"><g id="patch_2-4" data-name="patch 2"><path class="cls-3" d="M243.78,422H428V365.26H243.78Z"/></g><g id="matplotlib.axis_1-4" data-name="matplotlib.axis 1"><g id="xtick_1-4" data-name="xtick 1"><g id="line2d_1-4" data-name="line2d 1"><g class="cls-14"><path class="cls-5" d="M243.78,422V365.26"/></g></g><g id="line2d_2-4" data-name="line2d 2"><path id="m027ea034d0" class="cls-6" d="M243.78,422v3.5"/></g><g id="text_1-4" data-name="text 1"><path id="LMRoman12-Regular-48-17" data-name="LMRoman12-Regular-48" class="cls-7" d="M241.64,433.44a6.56,6.56,0,0,0-.49-2.88,2.14,2.14,0,0,0-3.93.08,6.32,6.32,0,0,0-.46,2.8,6,6,0,0,0,.52,2.89,2.12,2.12,0,0,0,1.92,1.2,2.15,2.15,0,0,0,2-1.32A6.73,6.73,0,0,0,241.64,433.44Zm-.91-.14a14.92,14.92,0,0,1-.13,2.44c-.23,1.32-1,1.55-1.4,1.55s-1.17-.21-1.4-1.52a15,15,0,0,1-.13-2.47,10.56,10.56,0,0,1,.19-2.58,1.44,1.44,0,0,1,1.34-1.18,1.46,1.46,0,0,1,1.38,1.31A12.7,12.7,0,0,1,240.73,433.3Z"/><path id="LMRoman12-Regular-46-17" data-name="LMRoman12-Regular-46" class="cls-7" d="M244.36,436.69a.58.58,0,0,0-.58-.57.57.57,0,0,0-.59.57.59.59,0,1,0,1.17,0Z"/><path id="LMRoman12-Regular-48-18" data-name="LMRoman12-Regular-48" class="cls-7" d="M250.79,433.44a6.56,6.56,0,0,0-.49-2.88,2.14,2.14,0,0,0-3.94.08,6.32,6.32,0,0,0-.46,2.8,6.08,6.08,0,0,0,.52,2.89,2.15,2.15,0,0,0,3.91-.12A6.75,6.75,0,0,0,250.79,433.44Zm-.91-.14a13.87,13.87,0,0,1-.14,2.44c-.22,1.32-1,1.55-1.4,1.55s-1.16-.21-1.39-1.52a15,15,0,0,1-.13-2.47,10.56,10.56,0,0,1,.19-2.58,1.43,1.43,0,0,1,1.33-1.18,1.46,1.46,0,0,1,1.38,1.31A11.92,11.92,0,0,1,249.88,433.3Z"/></g></g><g id="xtick_2-4" data-name="xtick 2"><g id="line2d_3-4" data-name="line2d 3"><g class="cls-14"><path class="cls-5" d="M296.39,422V365.26"/></g></g><g id="line2d_4-4" data-name="line2d 4"><path id="m027ea034d0-2" data-name="m027ea034d0" class="cls-6" d="M296.39,422v3.5"/></g><g id="text_2-4" data-name="text 2"><path id="LMRoman12-Regular-48-19" data-name="LMRoman12-Regular-48" class="cls-7" d="M294.25,433.44a6.56,6.56,0,0,0-.49-2.88,2.14,2.14,0,0,0-3.93.08,6.32,6.32,0,0,0-.46,2.8,6,6,0,0,0,.52,2.89,2.12,2.12,0,0,0,1.92,1.2,2.15,2.15,0,0,0,2-1.32A6.73,6.73,0,0,0,294.25,433.44Zm-.91-.14a14.92,14.92,0,0,1-.13,2.44c-.23,1.32-1,1.55-1.4,1.55s-1.17-.21-1.4-1.52a15,15,0,0,1-.13-2.47,10.56,10.56,0,0,1,.19-2.58,1.44,1.44,0,0,1,1.34-1.18,1.46,1.46,0,0,1,1.38,1.31A12.7,12.7,0,0,1,293.34,433.3Z"/><path id="LMRoman12-Regular-46-18" data-name="LMRoman12-Regular-46" class="cls-7" d="M297,436.69a.58.58,0,0,0-.58-.57.57.57,0,0,0-.59.57.59.59,0,1,0,1.17,0Z"/><path id="LMRoman12-Regular-53-9" data-name="LMRoman12-Regular-53" class="cls-7" d="M303.3,434.87a2.43,2.43,0,0,0-2.22-2.62,2.05,2.05,0,0,0-1.52.64V430.4a3.44,3.44,0,0,0,1.07.18,2.57,2.57,0,0,0,2.22-1.16.1.1,0,0,0-.1-.11.45.45,0,0,0-.16.05,3.86,3.86,0,0,1-1.56.32,4.07,4.07,0,0,1-1.58-.33.31.31,0,0,0-.12,0c-.1,0-.1.07-.1.27v3.56c0,.22,0,.29.15.29s.07,0,.19-.16a1.82,1.82,0,0,1,1.5-.78,1.22,1.22,0,0,1,1,.79,3.85,3.85,0,0,1,.22,1.52,3.15,3.15,0,0,1-.34,1.68,1.49,1.49,0,0,1-1.26.73,1.84,1.84,0,0,1-1.78-1.42.43.43,0,0,0,.19,0,.51.51,0,0,0,.53-.53.5.5,0,0,0-.53-.53.51.51,0,0,0-.53.58,2.19,2.19,0,0,0,2.15,2.18A2.6,2.6,0,0,0,303.3,434.87Z"/></g></g><g id="xtick_3-4" data-name="xtick 3"><g id="line2d_5-4" data-name="line2d 5"><g class="cls-14"><path class="cls-5" d="M349,422V365.26"/></g></g><g id="line2d_6-4" data-name="line2d 6"><path id="m027ea034d0-3" data-name="m027ea034d0" class="cls-6" d="M349,422v3.5"/></g><g id="text_3-4" data-name="text 3"><path id="LMRoman12-Regular-49-7" data-name="LMRoman12-Regular-49" class="cls-7" d="M346.41,437.28v-.35H346c-1.06,0-1.1-.14-1.1-.57v-6.77c0-.28,0-.29-.24-.29a2.65,2.65,0,0,1-2.12.77v.35a3.39,3.39,0,0,0,1.54-.32v6.26c0,.43,0,.57-1.1.57h-.37v.35c.33,0,1.49,0,1.89,0S346.08,437.26,346.41,437.28Z"/><path id="LMRoman12-Regular-46-19" data-name="LMRoman12-Regular-46" class="cls-7" d="M349.58,436.69a.58.58,0,0,0-.58-.57.57.57,0,0,0-.59.57.59.59,0,1,0,1.17,0Z"/><path id="LMRoman12-Regular-48-20" data-name="LMRoman12-Regular-48" class="cls-7" d="M356,433.44a6.56,6.56,0,0,0-.49-2.88,2.14,2.14,0,0,0-3.94.08,6.32,6.32,0,0,0-.46,2.8,6.08,6.08,0,0,0,.52,2.89,2.15,2.15,0,0,0,3.91-.12A6.75,6.75,0,0,0,356,433.44Zm-.91-.14a13.87,13.87,0,0,1-.14,2.44c-.22,1.32-1,1.55-1.4,1.55s-1.16-.21-1.39-1.52a15,15,0,0,1-.13-2.47,10.56,10.56,0,0,1,.19-2.58,1.43,1.43,0,0,1,1.33-1.18,1.46,1.46,0,0,1,1.38,1.31A11.92,11.92,0,0,1,355.1,433.3Z"/></g></g><g id="xtick_4-4" data-name="xtick 4"><g id="line2d_7-4" data-name="line2d 7"><g class="cls-14"><path class="cls-5" d="M401.61,422V365.26"/></g></g><g id="line2d_8-4" data-name="line2d 8"><path id="m027ea034d0-4" data-name="m027ea034d0" class="cls-6" d="M401.61,422v3.5"/></g><g id="text_4-4" data-name="text 4"><path id="LMRoman12-Regular-49-8" data-name="LMRoman12-Regular-49" class="cls-7" d="M399,437.28v-.35h-.37c-1.06,0-1.1-.14-1.1-.57v-6.77c0-.28,0-.29-.24-.29a2.65,2.65,0,0,1-2.12.77v.35a3.39,3.39,0,0,0,1.54-.32v6.26c0,.43,0,.57-1.1.57h-.37v.35c.33,0,1.49,0,1.89,0S398.69,437.26,399,437.28Z"/><path id="LMRoman12-Regular-46-20" data-name="LMRoman12-Regular-46" class="cls-7" d="M402.19,436.69a.58.58,0,0,0-.58-.57.57.57,0,0,0-.59.57.59.59,0,1,0,1.17,0Z"/><path id="LMRoman12-Regular-53-10" data-name="LMRoman12-Regular-53" class="cls-7" d="M408.52,434.87a2.43,2.43,0,0,0-2.22-2.62,2.05,2.05,0,0,0-1.52.64V430.4a3.44,3.44,0,0,0,1.07.18,2.57,2.57,0,0,0,2.22-1.16.1.1,0,0,0-.1-.11.45.45,0,0,0-.16.05,3.86,3.86,0,0,1-1.56.32,4.07,4.07,0,0,1-1.58-.33.31.31,0,0,0-.12,0c-.1,0-.1.07-.1.27v3.56c0,.22,0,.29.15.29s.07,0,.19-.16a1.82,1.82,0,0,1,1.5-.78,1.22,1.22,0,0,1,1,.79,3.85,3.85,0,0,1,.22,1.52,3.15,3.15,0,0,1-.34,1.68,1.49,1.49,0,0,1-1.26.73,1.84,1.84,0,0,1-1.78-1.42.43.43,0,0,0,.19,0,.51.51,0,0,0,.53-.53.5.5,0,0,0-.53-.53.51.51,0,0,0-.53.58,2.19,2.19,0,0,0,2.15,2.18A2.6,2.6,0,0,0,408.52,434.87Z"/></g></g><g id="text_5-4" data-name="text 5"><path id="LMRoman12-Regular-84-4" data-name="LMRoman12-Regular-84" class="cls-7" d="M323,447.15l-.21-2.68h-7.2l-.22,2.68h.26c.17-1.9.28-2.33,2.18-2.33a5.65,5.65,0,0,1,.64,0c.24,0,.26.18.26.46v6.38c0,.41,0,.58-1.18.58h-.43v.35c.38,0,1.62,0,2.09,0s1.71,0,2.1,0v-.35h-.44c-1.17,0-1.17-.17-1.17-.58V445.3c0-.3,0-.41.21-.46a6.35,6.35,0,0,1,.68,0c1.89,0,2,.43,2.17,2.33Z"/><path id="LMRoman12-Regular-105-4" data-name="LMRoman12-Regular-105" class="cls-7" d="M326.37,452.61v-.35c-.78,0-.83-.06-.83-.53v-4.41l-1.63.13v.35c.76,0,.87.07.87.66v3.26c0,.54-.13.54-.91.54v.35c.34,0,.91,0,1.26,0C325.26,452.58,326,452.58,326.37,452.61Zm-.68-7.25a.57.57,0,0,0-.57-.59.59.59,0,1,0,0,1.17A.57.57,0,0,0,325.69,445.36Z"/><path id="LMRoman12-Regular-109-6" data-name="LMRoman12-Regular-109" class="cls-7" d="M336.25,452.61v-.35c-.6,0-.9,0-.91-.36v-2.21c0-1.11,0-1.45-.27-1.83a1.57,1.57,0,0,0-1.32-.54,1.84,1.84,0,0,0-1.7,1.18,1.38,1.38,0,0,0-1.57-1.18,1.86,1.86,0,0,0-1.71,1.23h0v-1.23l-1.63.13v.35c.82,0,.91.08.91.67v3.25c0,.54-.13.54-.91.54v.35c.31,0,1,0,1.3,0s1,0,1.31,0v-.35c-.77,0-.92,0-.92-.54v-2.23a1.74,1.74,0,0,1,1.58-1.93c.74,0,.91.61.91,1.34v2.82c0,.54-.13.54-.91.54v.35c.31,0,1,0,1.29,0s1,0,1.31,0v-.35c-.77,0-.91,0-.91-.54v-2.23a1.74,1.74,0,0,1,1.57-1.93c.74,0,.91.61.91,1.34v2.82c0,.54-.13.54-.91.54v.35c.31,0,1,0,1.3,0S335.94,452.58,336.25,452.61Z"/><path id="LMRoman12-Regular-101-4" data-name="LMRoman12-Regular-101" class="cls-7" d="M341.41,451.18a.12.12,0,0,0-.13-.12c-.09,0-.12.06-.14.12a1.69,1.69,0,0,1-1.62,1.28c-.51,0-1.72-.33-1.72-2.41v-.23h3.33c.26,0,.28,0,.28-.22a2.09,2.09,0,0,0-2.1-2.34,2.58,2.58,0,0,0-2.42,2.72,2.67,2.67,0,0,0,2.56,2.75A2,2,0,0,0,341.41,451.18Zm-.74-1.58h-2.86c.1-1.89,1.16-2.1,1.49-2.1C340.59,447.5,340.66,449.19,340.67,449.6Z"/><path id="LMRoman12-Regular-91-6" data-name="LMRoman12-Regular-91" class="cls-7" d="M348.66,455.61v-.45H347.5V444.05h1.16v-.44h-1.61v12Z"/><path id="LMRoman12-Regular-115-6" data-name="LMRoman12-Regular-115" class="cls-7" d="M353.15,451.08a1.64,1.64,0,0,0-.5-1.14,2.73,2.73,0,0,0-1.55-.58c-.36-.08-1.24-.24-1.24-1,0-.38.25-.93,1.33-.93A1.37,1.37,0,0,1,352.6,449c0,.1.09.1.13.1s.13-.06.13-.28v-1.25c0-.21,0-.27-.12-.27s-.32.26-.41.37a1.66,1.66,0,0,0-1.12-.37c-1.46,0-1.89.79-1.89,1.45a1.25,1.25,0,0,0,.46,1,2.55,2.55,0,0,0,1.34.53,2.06,2.06,0,0,1,1.12.41,1,1,0,0,1,.37.78c0,.51-.3,1.09-1.36,1.09-.79,0-1.36-.46-1.63-1.66l-.06-.24s-.07,0-.11,0-.13.06-.13.28v1.63c0,.22,0,.28.12.28s.07,0,.28-.27a2.35,2.35,0,0,1,.24-.3,1.59,1.59,0,0,0,1.31.57C352.53,452.73,353.15,452,353.15,451.08Z"/><path id="LMRoman12-Regular-93-6" data-name="LMRoman12-Regular-93" class="cls-7" d="M355.42,455.61v-12h-1.61v.44H355v11.11h-1.16v.45Z"/></g></g><g id="matplotlib.axis_2-4" data-name="matplotlib.axis 2"><g id="ytick_1-4" data-name="ytick 1"><g id="line2d_9-4" data-name="line2d 9"><g class="cls-14"><path class="cls-5" d="M243.78,410.61H428"/></g></g><g id="line2d_10-4" data-name="line2d 10"><path id="m078ee79c28" class="cls-6" d="M243.78,410.61h-3.5"/></g></g><g id="ytick_2-4" data-name="ytick 2"><g id="line2d_11-4" data-name="line2d 11"><g class="cls-14"><path class="cls-5" d="M243.78,382.27H428"/></g></g><g id="line2d_12-4" data-name="line2d 12"><path id="m078ee79c28-2" data-name="m078ee79c28" class="cls-6" d="M243.78,382.27h-3.5"/></g></g></g><g id="line2d_13-4" data-name="line2d 13"><g class="cls-14"><path class="cls-8" d="M243.78,401.47h11.28l1.88-.07,2.82.26,1.88-.1,8.46,0,.94.12,3.76,0,.94-.09,4.7.05H288l3.76,0,3.76.09h2.82l1.88.22.94.35.94.72,1.88.55.94.41.94.72.94.86,1.88,3.84.94,2.42,1.88,6,.94,2,.94-1.08.94-2.09.94-5,.94-2.69.94-1.58H318l.94,2.26.94,1.06,1.88.27.94-.38.94-.7.94-1.8,1.88-.29,1.89,2.14.94-.09.94-.66.94-1.52.94-.35.94-.62.94-.4.94.88.94.55,1.88.27.94-.75.94-1.32.94-.5.94-.22.94.45.94-.6.94-.43.94-.86.94-.54,2.82-.85.94,0,.94-.51.94-.18.94,0,.94-.17.94.1.94.24.94.37,7.52-.25,1.88-.23.94.38.94.12,2.82-.35.94,0,.94-.18,1.88,0,2.82.06h1.88l1.88.08,20.68-.05,1.88.15,2.82,0,2.82,0,4.7.06,4.7-.1,2.82.06,6.58,0h0"/></g></g><g id="line2d_14-4" data-name="line2d 14"><g class="cls-14"><path class="cls-9" d="M243.78,407l1.88.22,1.88.09h3.76l3.76-.52,1.88.1,2.82.27,2.82-.13.94.08,1.88,0,.94,0,1.88-.2,1.88-.06,2.82.26h1.88l2.82-.08.94.12h.94l1.88.17h.94l3.76-.44,2.82.1,1.88.17.94.1,3.76-.16,1.88.42,1.88.29.94.14.94.43.94,1,.94.67.94.82.94,1.87.94,1.32.94-1.49.94-.78.94.61.94,1.31.94,1.8.94-.35.94-3.2.94-5.74.94-6.75.94-3.73.94,1.34.94,2.24.94,1.74.94.57.94-1.41.94-1.69.94-.15.94,1.49.94.78.94.29.94,1.4,2.83,5.52.94.33.94-1.15.94-1.79.94-.74.94-.17.94,1,.94,2,.94,1.74.94-.09,1.88-2.28.94-.51.94,0,.94.89.94,2.19.94,1.26.94-.58.94-1.82.94-1.21.94-.21.94.4.94.67.94.37,1.88,0,.94-.43.94-.55.94-.39h.94l.94.54.94.31h2.82l1.88-.07,1.88-.56.94-.57.94-.1.94.84.94,1.11.94.36,2.82-.51,1.88-.9,1.88-.22.94.05,1.88-.3.94.27,1.88.85.94-.06.94-.26.94-.11.94.16.94,0,1.88-.26,1.88.13.94.06,2.82-.32,1.88.47h.94l2.82-.32,1.88-.45.94-.05,1.88.4,1.88-.1,1.88-.25,1.88-.11.94.1.94.35.94.17,3.76.17,4.7-.75,2.82.12,1.88-.09,2.82.09h0"/></g></g><g id="line2d_15-4" data-name="line2d 15"><g class="cls-14"><path class="cls-10" d="M243.78,405.91l3.76-.13,1.88-.22.94,0,.94.17.94-.15,1.88-.63.94-.17.94.17.94.35,1.88.3,1.88,0,3.76-.48.94-.24.94,0,.94.12,2.82.89,1.88,0,2.82-.7.94,0,1.88.26,2.82.34.94-.13,1.88-.4,3.76.1h1.88l1.88.12.94-.1,4.7.37,1.88-.3.94.12.94.39.94,1,1.88,2.86.94.35.94.8.94,1.47.94,1.88,1.88,5.33.94,1.14.94-1.48.94-4.73,2.82-20.44.94-8.63,1.88-14.15.94-4.79L319,368l.94,7.55.94,11.44.94,8.23.94,5.56.94,1.7.94-2.32,1.88-6.88.94-.51.95,2.59.94,3.91.94,3.41.94,1,.94-1,.94-2.55.94-2,.94-.07.94,2.34.94,3.66.94,4.21.94,3.53.94,1.73.94.08.94-1.33.94-2,.94-1.21,2.82-1.86,2.82-1,.94-.89,1.88-2.29.94-.36.94.73,1.88,2.69.94.82.94.32.94-.28.94-.61,1.88-1.76.94-.65.94-.35.94,0,.94.36.94.57,1.88,1.75.94.46.94,0,1.88-1.23.94-.5,1.88-.28,2.82.59h.94l.94-.15,3.76.19,1.88.34.94-.07,1.88-.42,1.88-.15,1.88.09,1.88.47.94,0,.94-.29.94-.4.94-.13.94.24,1.88.93.94.07.94-.18.94-.32.94-.47.94-.28.94.15,1.88.52.94.14.94,0,5.64-.6,1.88,0,.94.07,3.76-.42h.94l1.88-.22,1.88.08,1.88.31h0"/></g></g><g id="patch_3-4" data-name="patch 3"><path class="cls-11" d="M243.78,422V365.26"/></g><g id="patch_4-4" data-name="patch 4"><path class="cls-11" d="M428,422V365.26"/></g><g id="patch_5-4" data-name="patch 5"><path class="cls-11" d="M243.78,422H428"/></g><g id="patch_6-4" data-name="patch 6"><path class="cls-11" d="M243.78,365.26H428"/></g></g></g><line class="cls-15" x1="293.3" y1="251.61" x2="293.3" y2="421.95"/><line class="cls-15" x1="346.89" y1="251.61" x2="346.89" y2="421.95"/><rect class="cls-16" x="293.3" y="251.61" width="53.58" height="170.34"/><image width="1280" height="720" transform="translate(38.26 0) scale(0.14)" xlink:href="../../../../../../../university/2018-2019/comp3200_individual_project/strike_labeler/strike_labeler/Assets/Sprites/straight_path.png"/><image width="1280" height="720" transform="translate(243.78 0) scale(0.14)" xlink:href="../../../../../../../university/2018-2019/comp3200_individual_project/strike_labeler/strike_labeler/Assets/Sprites/curvy_path.png"/><image width="1280" height="720" transform="translate(38.26 251.62) scale(0.14)" xlink:href="../../../../../../../university/2018-2019/comp3200_individual_project/strike_labeler/strike_labeler/Assets/Sprites/curvy_path_2.png"/><line class="cls-15" x1="73.59" y1="251.61" x2="73.59" y2="421.95"/><line class="cls-15" x1="159.17" y1="251.61" x2="159.17" y2="421.95"/><rect class="cls-16" x="73.59" y="251.61" width="85.58" height="170.34"/><line class="cls-15" x1="269.57" x2="269.57" y2="170.34"/><line class="cls-15" x1="363.15" x2="363.15" y2="170.34"/><rect class="cls-16" x="269.57" width="93.58" height="170.34"/></g></g></g></svg>