<svg xmlns="http://www.w3.org/2000/svg" viewBox="0 0 283.2 116.17"><defs><style>.cls-1{fill:#fff;}.cls-1,.cls-5{stroke:#231f20;}.cls-1,.cls-2,.cls-5{stroke-miterlimit:10;}.cls-2,.cls-5{fill:none;}.cls-2{stroke:#444445;stroke-width:0.71px;}.cls-3{fill:#444445;}.cls-4{font-size:12px;fill:#231f20;font-family:TimesNewRomanPSMT, Times New Roman;}</style></defs><title>Asset 3</title><g id="Layer_2" data-name="Layer 2"><g id="Layer_1-2" data-name="Layer 1"><circle class="cls-1" cx="60.87" cy="19.97" r="14.17"/><circle class="cls-1" cx="60.87" cy="68.32" r="14.17"/><circle class="cls-1" cx="129.22" cy="19.97" r="14.17"/><circle class="cls-1" cx="129.22" cy="68.32" r="14.17"/><circle class="cls-1" cx="197.57" cy="44.15" r="14.17"/><line class="cls-2" x1="18.36" y1="19.97" x2="42.47" y2="19.97"/><polygon class="cls-3" points="40.48 22.6 41.6 19.97 40.48 17.35 46.7 19.97 40.48 22.6"/><line class="cls-2" x1="18.22" y1="68.32" x2="42.33" y2="68.32"/><polygon class="cls-3" points="40.34 70.94 41.46 68.32 40.34 65.69 46.56 68.32 40.34 70.94"/><line class="cls-2" x1="211.61" y1="44.15" x2="235.72" y2="44.15"/><polygon class="cls-3" points="233.73 46.77 234.85 44.15 233.73 41.52 239.96 44.15 233.73 46.77"/><text class="cls-4" transform="translate(3.05 9.97)">Strike</text><text class="cls-4" transform="translate(31.72 13.97) scale(0.58)">t</text><text class="cls-4" transform="translate(220.81 34.14)">MIDI trigger</text><line class="cls-5" x1="53.79" y1="27.77" x2="67.96" y2="13.6"/><line class="cls-5" x1="53.72" y1="75.41" x2="67.89" y2="61.23"/><polyline class="cls-5" points="135.8 12.89 129.74 27.06 122.65 27.06"/><polyline class="cls-5" points="135.8 61.23 129.74 75.41 122.65 75.41"/><path class="cls-5" d="M204.66,37.06c-4.1,0-5.28,4-7.09,7.09s-3,7.08-7.08,7.08"/><text class="cls-4" transform="translate(48.21 112.49)">Input</text><text class="cls-4" transform="translate(114.23 112.49)">Dense</text><text class="cls-4" transform="translate(180.91 112.49)">Output</text><text class="cls-4" transform="translate(0 58.32)">Strike</text><text class="cls-4" transform="translate(28.66 62.32) scale(0.58)">t-1</text><line class="cls-2" x1="75.05" y1="19.97" x2="110.82" y2="19.97"/><polygon class="cls-3" points="108.83 22.6 109.94 19.97 108.83 17.35 115.05 19.97 108.83 22.6"/><line class="cls-2" x1="75.05" y1="19.97" x2="112.35" y2="65.06"/><polygon class="cls-3" points="109.06 65.2 111.8 64.39 113.11 61.85 115.05 68.32 109.06 65.2"/><line class="cls-2" x1="75.05" y1="68.32" x2="112.35" y2="23.23"/><polygon class="cls-3" points="113.11 26.44 111.8 23.91 109.06 23.09 115.05 19.97 113.11 26.44"/><line class="cls-2" x1="75.05" y1="68.32" x2="110.82" y2="68.32"/><polygon class="cls-3" points="108.83 70.94 109.94 68.32 108.83 65.69 115.05 68.32 108.83 70.94"/><line class="cls-2" x1="143.4" y1="19.97" x2="179.78" y2="41.96"/><polygon class="cls-3" points="176.72 43.17 179.03 41.51 179.43 38.68 183.4 44.15 176.72 43.17"/><line class="cls-2" x1="143.4" y1="68.32" x2="179.78" y2="46.33"/><polygon class="cls-3" points="179.43 49.61 179.03 46.79 176.72 45.12 183.4 44.15 179.43 49.61"/></g></g></svg>