<svg xmlns="http://www.w3.org/2000/svg" viewBox="0 0 403.62 206.81"><defs><style>.cls-1,.cls-2{fill:#fff;}.cls-1,.cls-7{stroke:#231f20;}.cls-1,.cls-2,.cls-4,.cls-7{stroke-miterlimit:10;}.cls-2{stroke:#3853a3;}.cls-3,.cls-6{font-size:12px;fill:#231f20;font-family:TimesNewRomanPSMT, Times New Roman;}.cls-4,.cls-7{fill:none;}.cls-4{stroke:#444445;stroke-width:0.71px;}.cls-5{fill:#444445;}.cls-6{letter-spacing:-0.04em;}</style></defs><title>Asset 2</title><g id="Layer_2" data-name="Layer 2"><g id="Layer_1-2" data-name="Layer 1"><circle class="cls-1" cx="42.66" cy="38.85" r="14.17"/><circle class="cls-1" cx="42.66" cy="87.19" r="14.17"/><circle class="cls-1" cx="42.66" cy="135.54" r="14.17"/><rect class="cls-2" x="96.83" y="4.04" width="38.71" height="21.26"/><text class="cls-3" transform="translate(99.63 18.04)">LSTM</text><rect class="cls-2" x="96.83" y="52.39" width="38.71" height="21.26"/><text class="cls-3" transform="translate(99.63 66.39)">LSTM</text><rect class="cls-2" x="96.83" y="149.08" width="38.71" height="21.26"/><text class="cls-3" transform="translate(99.63 163.08)">LSTM</text><text class="cls-3" transform="translate(116.19 108.84)">.<tspan x="0" y="5.9">.</tspan><tspan x="0" y="11.79">.</tspan></text><rect class="cls-2" x="175.54" y="4.04" width="38.71" height="21.26"/><text class="cls-3" transform="translate(178.34 18.04)">LSTM</text><rect class="cls-2" x="175.54" y="52.39" width="38.71" height="21.26"/><text class="cls-3" transform="translate(178.34 66.39)">LSTM</text><rect class="cls-2" x="175.54" y="149.08" width="38.71" height="21.26"/><text class="cls-3" transform="translate(178.34 163.08)">LSTM</text><text class="cls-3" transform="translate(194.9 108.84)">.<tspan x="0" y="5.9">.</tspan><tspan x="0" y="11.79">.</tspan></text><circle class="cls-1" cx="268.43" cy="14.67" r="14.17"/><circle class="cls-1" cx="268.43" cy="63.02" r="14.17"/><circle class="cls-1" cx="268.43" cy="159.71" r="14.17"/><text class="cls-3" transform="translate(268.43 108.84)">.<tspan x="0" y="5.9">.</tspan><tspan x="0" y="11.79">.</tspan></text><circle class="cls-1" cx="336.78" cy="63.02" r="14.17"/><circle class="cls-1" cx="336.78" cy="111.37" r="14.17"/><line class="cls-4" x1="56.83" y1="38.85" x2="93.21" y2="16.86"/><polygon class="cls-5" points="92.86 20.14 92.46 17.31 90.15 15.64 96.83 14.67 92.86 20.14"/><line class="cls-4" x1="56.83" y1="38.85" x2="93.21" y2="60.83"/><polygon class="cls-5" points="90.15 62.05 92.46 60.38 92.86 57.56 96.83 63.02 90.15 62.05"/><line class="cls-4" x1="56.83" y1="38.85" x2="95.5" y2="155.7"/><polygon class="cls-5" points="92.39 154.63 95.23 154.87 97.37 152.98 96.83 159.71 92.39 154.63"/><line class="cls-4" x1="56.83" y1="87.19" x2="94.79" y2="18.38"/><polygon class="cls-5" points="96.12 21.39 94.36 19.14 91.53 18.85 96.83 14.67 96.12 21.39"/><line class="cls-4" x1="56.83" y1="87.19" x2="93.21" y2="65.21"/><polygon class="cls-5" points="92.86 68.48 92.46 65.66 90.15 63.99 96.83 63.02 92.86 68.48"/><line class="cls-4" x1="56.83" y1="87.19" x2="94.79" y2="156.01"/><polygon class="cls-5" points="91.53 155.53 94.36 155.24 96.12 153 96.83 159.71 91.53 155.53"/><line class="cls-4" x1="56.83" y1="135.54" x2="95.5" y2="18.69"/><polygon class="cls-5" points="97.37 21.4 95.23 19.52 92.39 19.75 96.83 14.67 97.37 21.4"/><line class="cls-4" x1="56.83" y1="135.54" x2="94.79" y2="66.72"/><polygon class="cls-5" points="96.12 69.73 94.36 67.49 91.53 67.2 96.83 63.02 96.12 69.73"/><line class="cls-4" x1="56.83" y1="135.54" x2="93.21" y2="157.52"/><polygon class="cls-5" points="90.15 158.74 92.46 157.07 92.86 154.25 96.83 159.71 90.15 158.74"/><line class="cls-4" x1="135.54" y1="14.67" x2="171.31" y2="14.67"/><polygon class="cls-5" points="169.32 17.3 170.44 14.67 169.32 12.05 175.54 14.67 169.32 17.3"/><line class="cls-4" x1="135.54" y1="14.67" x2="172.85" y2="59.76"/><polygon class="cls-5" points="169.56 59.9 172.29 59.09 173.6 56.55 175.54 63.02 169.56 59.9"/><line class="cls-4" x1="135.54" y1="14.67" x2="174.42" y2="155.63"/><polygon class="cls-5" points="171.36 154.41 174.19 154.79 176.42 153.02 175.54 159.71 171.36 154.41"/><line class="cls-4" x1="135.54" y1="63.02" x2="172.85" y2="17.93"/><polygon class="cls-5" points="173.6 21.14 172.29 18.61 169.56 17.79 175.54 14.67 173.6 21.14"/><line class="cls-4" x1="135.54" y1="63.02" x2="171.31" y2="63.02"/><polygon class="cls-5" points="169.32 65.64 170.44 63.02 169.32 60.4 175.54 63.02 169.32 65.64"/><line class="cls-4" x1="135.54" y1="63.02" x2="173.93" y2="155.8"/><polygon class="cls-5" points="170.74 154.97 173.59 154.99 175.59 152.96 175.54 159.71 170.74 154.97"/><line class="cls-4" x1="135.54" y1="159.71" x2="174.42" y2="18.75"/><polygon class="cls-5" points="176.42 21.37 174.19 19.59 171.36 19.97 175.54 14.67 176.42 21.37"/><line class="cls-4" x1="135.54" y1="159.71" x2="173.93" y2="66.93"/><polygon class="cls-5" points="175.59 69.77 173.59 67.74 170.74 67.77 175.54 63.02 175.59 69.77"/><line class="cls-4" x1="135.54" y1="159.71" x2="171.31" y2="159.71"/><polygon class="cls-5" points="169.32 162.34 170.44 159.71 169.32 157.09 175.54 159.71 169.32 162.34"/><line class="cls-4" x1="214.26" y1="14.67" x2="250.03" y2="14.67"/><polygon class="cls-5" points="248.03 17.3 249.15 14.67 248.03 12.05 254.26 14.67 248.03 17.3"/><line class="cls-4" x1="214.26" y1="14.67" x2="251.56" y2="59.76"/><polygon class="cls-5" points="248.27 59.9 251 59.09 252.31 56.55 254.26 63.02 248.27 59.9"/><line class="cls-4" x1="214.26" y1="14.67" x2="253.13" y2="155.63"/><polygon class="cls-5" points="250.07 154.41 252.9 154.79 255.13 153.02 254.26 159.71 250.07 154.41"/><line class="cls-4" x1="214.26" y1="63.02" x2="251.56" y2="17.93"/><polygon class="cls-5" points="252.31 21.14 251 18.61 248.27 17.79 254.26 14.67 252.31 21.14"/><line class="cls-4" x1="214.26" y1="63.02" x2="250.03" y2="63.02"/><polygon class="cls-5" points="248.03 65.64 249.15 63.02 248.03 60.4 254.26 63.02 248.03 65.64"/><line class="cls-4" x1="214.26" y1="63.02" x2="252.64" y2="155.8"/><polygon class="cls-5" points="249.45 154.97 252.3 154.99 254.3 152.96 254.26 159.71 249.45 154.97"/><line class="cls-4" x1="214.26" y1="159.71" x2="253.13" y2="18.75"/><polygon class="cls-5" points="255.13 21.37 252.9 19.59 250.07 19.97 254.26 14.67 255.13 21.37"/><line class="cls-4" x1="214.26" y1="159.71" x2="252.64" y2="66.93"/><polygon class="cls-5" points="254.3 69.77 252.3 67.74 249.45 67.77 254.26 63.02 254.3 69.77"/><line class="cls-4" x1="214.26" y1="159.71" x2="250.03" y2="159.71"/><polygon class="cls-5" points="248.03 162.34 249.15 159.71 248.03 157.09 254.26 159.71 248.03 162.34"/><line class="cls-4" x1="282.6" y1="14.67" x2="319.91" y2="59.76"/><polygon class="cls-5" points="316.62 59.9 319.35 59.09 320.66 56.55 322.6 63.02 316.62 59.9"/><line class="cls-4" x1="282.6" y1="14.67" x2="320.99" y2="107.46"/><polygon class="cls-5" points="317.8 106.62 320.65 106.65 322.65 104.61 322.6 111.37 317.8 106.62"/><line class="cls-4" x1="282.6" y1="63.02" x2="318.37" y2="63.02"/><polygon class="cls-5" points="316.38 65.64 317.5 63.02 316.38 60.4 322.6 63.02 316.38 65.64"/><line class="cls-4" x1="282.6" y1="63.02" x2="319.91" y2="108.11"/><polygon class="cls-5" points="316.62 108.25 319.35 107.43 320.66 104.9 322.6 111.37 316.62 108.25"/><line class="cls-4" x1="282.6" y1="159.71" x2="320.99" y2="66.93"/><polygon class="cls-5" points="322.65 69.77 320.65 67.74 317.8 67.77 322.6 63.02 322.65 69.77"/><line class="cls-4" x1="282.6" y1="159.71" x2="319.91" y2="114.63"/><polygon class="cls-5" points="320.66 117.83 319.35 115.3 316.62 114.49 322.6 111.37 320.66 117.83"/><line class="cls-4" x1="0.14" y1="38.85" x2="24.25" y2="38.85"/><polygon class="cls-5" points="22.26 41.47 23.38 38.85 22.26 36.22 28.48 38.85 22.26 41.47"/><line class="cls-4" y1="87.19" x2="24.12" y2="87.19"/><polygon class="cls-5" points="22.13 89.82 23.24 87.19 22.13 84.57 28.35 87.19 22.13 89.82"/><line class="cls-4" y1="135.54" x2="24.12" y2="135.54"/><polygon class="cls-5" points="22.13 138.16 23.24 135.54 22.13 132.91 28.35 135.54 22.13 138.16"/><line class="cls-4" x1="350.95" y1="63.02" x2="375.07" y2="63.02"/><polygon class="cls-5" points="373.07 65.64 374.19 63.02 373.07 60.4 379.3 63.02 373.07 65.64"/><line class="cls-4" x1="350.81" y1="111.37" x2="374.93" y2="111.37"/><polygon class="cls-5" points="372.94 113.99 374.05 111.37 372.94 108.74 379.16 111.37 372.94 113.99"/><text class="cls-3" transform="translate(0.14 28.85)">A</text><text class="cls-3" transform="translate(8.8 32.84) scale(0.58)">X</text><text class="cls-3" transform="translate(0 77.19)">A</text><text class="cls-6" transform="translate(8.67 81.19) scale(0.58)">Y</text><text class="cls-3" transform="translate(0 125.54)">A</text><text class="cls-3" transform="translate(8.67 129.54) scale(0.58)">Z</text><text class="cls-3" transform="translate(359.16 101.37)">Strike</text><text class="cls-3" transform="translate(359.3 53.02)">No strike</text><line class="cls-7" x1="35.57" y1="46.64" x2="49.74" y2="32.47"/><line class="cls-7" x1="35.5" y1="94.28" x2="49.68" y2="80.11"/><line class="cls-7" x1="35.57" y1="142.63" x2="49.74" y2="128.45"/><polyline class="cls-7" points="275 7.59 268.94 21.76 261.86 21.76"/><polyline class="cls-7" points="275 55.93 268.94 70.11 261.86 70.11"/><polyline class="cls-7" points="275 152.63 268.94 166.8 261.86 166.8"/><path class="cls-7" d="M343.86,104.28c-4.09,0-5.28,4-7.08,7.09s-3,7.08-7.09,7.08"/><path class="cls-7" d="M343.86,55.93c-4.09,0-5.28,4-7.08,7.09s-3,7.09-7.09,7.09"/><text class="cls-3" transform="translate(29.99 203.13)">Input</text><text class="cls-3" transform="translate(95.69 203.13)">LSTM 1</text><text class="cls-3" transform="translate(174.4 203.13)">LSTM 2</text><text class="cls-3" transform="translate(253.44 203.13)">Dense</text><text class="cls-3" transform="translate(320.11 203.13)">Output</text></g></g></svg>