<svg xmlns="http://www.w3.org/2000/svg" viewBox="0 0 411.75 117.38"><defs><style>.cls-1{fill:#fff;stroke:#03060c;}.cls-1,.cls-3{stroke-miterlimit:10;stroke-width:0.71px;}.cls-2,.cls-4,.cls-5,.cls-7{font-size:9.92px;}.cls-2,.cls-4,.cls-5,.cls-6,.cls-7{fill:#231f20;}.cls-2{font-family:TimesNewRomanPSMT, Times New Roman;}.cls-3{fill:none;stroke:#231f20;}.cls-4,.cls-5,.cls-7{font-family:CambriaMath, Cambria Math;}.cls-5{letter-spacing:0em;}.cls-7{letter-spacing:0em;}</style></defs><title>Asset 1</title><g id="Layer_2" data-name="Layer 2"><g id="Layer_1-2" data-name="Layer 1"><rect class="cls-1" x="0.35" y="9.55" width="70.87" height="34.02"/><text class="cls-2" transform="translate(19.73 22.67)">Acquire<tspan x="-11.42" y="11.91">acceleration a</tspan></text><rect class="cls-1" x="81.22" y="9.55" width="70.87" height="34.02"/><rect class="cls-1" x="81.22" y="9.55" width="70.87" height="34.02"/><text class="cls-2" transform="translate(93.16 22.67)"><tspan xml:space="preserve">Calculate  ȧ</tspan><tspan x="12.81" y="11.91">and ä</tspan></text><rect class="cls-3" x="169.72" y="8.13" width="36.85" height="36.85" transform="translate(36.33 140.82) rotate(-45)"/><text class="cls-4" transform="translate(174.63 21.74)">ȧ</text><text class="cls-4" transform="translate(179.47 25.04) scale(0.58)">t-1</text><text class="cls-4" transform="translate(186.55 21.74)"><tspan xml:space="preserve"> &gt;0</tspan><tspan x="-8.27" y="17.57">ȧ</tspan></text><text class="cls-4" transform="translate(183.13 42.62) scale(0.58)">t</text><text class="cls-5" transform="translate(185.08 39.31)">&lt;0</text><line class="cls-3" x1="71.22" y1="26.56" x2="76.99" y2="26.56"/><polygon class="cls-6" points="75 29.18 76.11 26.56 75 23.93 81.22 26.56 75 29.18"/><line class="cls-3" x1="152.09" y1="26.56" x2="157.86" y2="26.56"/><polygon class="cls-6" points="155.87 29.18 156.98 26.56 155.87 23.93 162.09 26.56 155.87 29.18"/><rect class="cls-3" x="88.31" y="67.03" width="56.69" height="20" rx="10"/><text class="cls-2" transform="translate(98.33 79.81)">No strike</text><rect class="cls-3" x="88.31" y="97.03" width="56.69" height="20" rx="10"/><text class="cls-2" transform="translate(104.8 109.81)">Strike</text><polyline class="cls-3" points="188.14 52.62 188.14 77.03 149.23 77.03"/><polygon class="cls-6" points="151.22 74.41 150.11 77.03 151.22 79.65 145 77.03 151.22 74.41"/><polyline class="cls-3" points="88.31 77.03 35.79 77.03 35.79 47.8"/><polygon class="cls-6" points="38.41 49.79 35.79 48.67 33.16 49.79 35.79 43.57 38.41 49.79"/><polyline class="cls-3" points="88.31 107.03 35.79 107.03 35.79 81.26"/><polygon class="cls-6" points="38.41 83.25 35.79 82.14 33.16 83.25 35.79 77.03 38.41 83.25"/><line class="cls-3" x1="219.12" y1="26.56" x2="214.2" y2="26.56"/><polygon class="cls-6" points="217.13 23.93 218.25 26.56 217.13 29.18 223.35 26.56 217.13 23.93"/><rect class="cls-3" x="230.98" y="8.13" width="36.85" height="36.85" transform="translate(54.27 184.14) rotate(-45)"/><text class="cls-4" transform="translate(238.28 27.69)">a&gt;a</text><text class="cls-4" transform="translate(255.4 31) scale(0.58)">th</text><rect class="cls-3" x="293.1" y="8.13" width="36.85" height="36.85" transform="translate(72.46 228.06) rotate(-45)"/><text class="cls-4" transform="translate(300.39 27.69)">ä&gt;ä</text><text class="cls-4" transform="translate(317.51 31) scale(0.58)">th</text><rect class="cls-3" x="355.21" y="8.13" width="36.85" height="36.85" transform="translate(90.66 271.98) rotate(-45)"/><text class="cls-4" transform="translate(360.78 27.69)">t</text><text class="cls-4" transform="translate(364.14 31) scale(0.58)">d</text><text class="cls-4" transform="translate(367.35 27.69)">&gt;t</text><text class="cls-7" transform="translate(378.14 31) scale(0.58)">dth</text><text class="cls-2" transform="translate(192.18 58.62)">no</text><text class="cls-2" transform="translate(213.59 20.56)">yes</text><line class="cls-3" x1="275.47" y1="26.56" x2="281.24" y2="26.56"/><polygon class="cls-6" points="279.25 29.18 280.36 26.56 279.25 23.93 285.47 26.56 279.25 29.18"/><line class="cls-3" x1="337.58" y1="26.56" x2="343.35" y2="26.56"/><polygon class="cls-6" points="341.36 29.18 342.48 26.56 341.36 23.93 347.58 26.56 341.36 29.18"/><polyline class="cls-3" points="399.7 26.56 411.4 26.56 411.4 107.03 149.23 107.03"/><polygon class="cls-6" points="151.22 104.41 150.11 107.03 151.22 109.65 145 107.03 151.22 104.41"/><polyline class="cls-3" points="249.41 52.62 249.41 77.03 192.38 77.03"/><polygon class="cls-6" points="194.37 74.41 193.25 77.03 194.37 79.65 188.14 77.03 194.37 74.41"/><polyline class="cls-3" points="311.52 52.62 311.52 77.03 253.64 77.03"/><polygon class="cls-6" points="255.63 74.41 254.52 77.03 255.63 79.65 249.41 77.03 255.63 74.41"/><polyline class="cls-3" points="373.64 52.62 373.64 77.03 315.75 77.03"/><polygon class="cls-6" points="317.75 74.41 316.63 77.03 317.75 79.65 311.52 77.03 317.75 74.41"/><text class="cls-2" transform="translate(253.67 58.62)">no</text><text class="cls-2" transform="translate(275.08 20.56)">yes</text><text class="cls-2" transform="translate(315.56 58.82)">no</text><text class="cls-2" transform="translate(336.97 20.77)">yes</text><text class="cls-2" transform="translate(376.97 59.61)">no</text><text class="cls-2" transform="translate(398.38 21.55)">yes</text></g></g></svg>