<svg xmlns="http://www.w3.org/2000/svg" viewBox="0 0 273.62 145.93"><defs><style>.cls-1,.cls-2{fill:none;stroke:#000;stroke-width:0.6px;}.cls-1{stroke-linecap:round;stroke-linejoin:round;}.cls-2{stroke-miterlimit:10;}</style></defs><title>Asset 4</title><g id="Layer_2" data-name="Layer 2"><g id="Layer_1-2" data-name="Layer 1"><line class="cls-1" x1="70.25" y1="7.8" x2="74" y2="7.8"/><line class="cls-1" x1="36.97" y1="7.8" x2="40.72" y2="7.8"/><line class="cls-1" x1="66.5" y1="15.3" x2="70.25" y2="7.8"/><line class="cls-1" x1="59" y1="0.3" x2="66.5" y2="15.3"/><line class="cls-1" x1="51.5" y1="15.3" x2="59" y2="0.3"/><line class="cls-1" x1="44.47" y1="0.3" x2="51.5" y2="15.3"/><line class="cls-1" x1="40.72" y1="7.8" x2="44.47" y2="0.3"/><line class="cls-1" x1="144.31" y1="7.8" x2="141.03" y2="7.8"/><line class="cls-1" x1="178.05" y1="7.8" x2="174.3" y2="7.8"/><line class="cls-1" x1="148.06" y1="0.3" x2="144.31" y2="7.8"/><line class="cls-1" x1="155.56" y1="15.3" x2="148.06" y2="0.3"/><line class="cls-1" x1="163.06" y1="0.3" x2="155.56" y2="15.3"/><line class="cls-1" x1="170.55" y1="15.3" x2="163.06" y2="0.3"/><line class="cls-1" x1="174.3" y1="7.8" x2="170.55" y2="15.3"/><line class="cls-1" x1="118.53" y1="52.33" x2="148.06" y2="67.33"/><line class="cls-1" x1="118.53" y1="82.33" x2="148.06" y2="67.33"/><line class="cls-1" x1="118.53" y1="52.33" x2="118.53" y2="82.33"/><line class="cls-1" x1="120.4" y1="59.83" x2="124.15" y2="59.83"/><line class="cls-1" x1="120.4" y1="74.83" x2="124.15" y2="74.83"/><line class="cls-1" x1="122.28" y1="76.7" x2="122.28" y2="72.95"/><rect x="133.53" y="59.83" width="0.47" height="0.47"/><line class="cls-1" x1="144.31" y1="126.85" x2="141.03" y2="126.85"/><line class="cls-1" x1="178.05" y1="126.85" x2="174.3" y2="126.85"/><line class="cls-1" x1="148.06" y1="119.35" x2="144.31" y2="126.85"/><line class="cls-1" x1="155.56" y1="134.35" x2="148.06" y2="119.35"/><line class="cls-1" x1="163.06" y1="119.35" x2="155.56" y2="134.35"/><line class="cls-1" x1="170.55" y1="134.35" x2="163.06" y2="119.35"/><line class="cls-1" x1="174.3" y1="126.85" x2="170.55" y2="134.35"/><line class="cls-1" x1="222.58" y1="43.42" x2="237.11" y2="43.42"/><line class="cls-1" x1="222.58" y1="32.17" x2="237.11" y2="32.17"/><line class="cls-1" x1="237.11" y1="32.17" x2="230.08" y2="43.42"/><line class="cls-1" x1="222.58" y1="32.17" x2="230.08" y2="43.42"/><line class="cls-1" x1="230.08" y1="22.8" x2="230.08" y2="32.17"/><line class="cls-1" x1="230.08" y1="43.42" x2="230.08" y2="52.33"/><line class="cls-1" x1="222.58" y1="102.48" x2="237.11" y2="102.48"/><line class="cls-1" x1="222.58" y1="91.7" x2="237.11" y2="91.7"/><line class="cls-1" x1="237.11" y1="91.7" x2="230.08" y2="102.48"/><line class="cls-1" x1="222.58" y1="91.7" x2="230.08" y2="102.48"/><line class="cls-1" x1="230.08" y1="82.33" x2="230.08" y2="91.7"/><line class="cls-1" x1="230.08" y1="102.48" x2="230.08" y2="111.86"/><line class="cls-1" x1="95.09" y1="89.83" x2="111.96" y2="89.83"/><line class="cls-1" x1="111.96" y1="89.83" x2="103.53" y2="97.79"/><line class="cls-1" x1="103.53" y1="97.79" x2="95.09" y2="89.83"/><rect x="95.09" y="89.83" width="0.47" height="0.47"/><line class="cls-1" x1="36.97" y1="7.8" x2="21.97" y2="7.8"/><line class="cls-1" x1="89" y1="7.8" x2="74" y2="7.8"/><line class="cls-1" x1="141.03" y1="7.8" x2="89" y2="7.8"/><rect x="89" y="7.8" width="0.47" height="0.47"/><line class="cls-1" x1="230.08" y1="7.8" x2="178.05" y2="7.8"/><line class="cls-1" x1="244.61" y1="7.8" x2="230.08" y2="7.8"/><rect x="230.08" y="7.8" width="0.47" height="0.47"/><line class="cls-1" x1="230.08" y1="22.8" x2="230.08" y2="7.8"/><rect x="230.08" y="7.8" width="0.47" height="0.47"/><line class="cls-1" x1="89" y1="59.83" x2="89" y2="7.8"/><rect x="89" y="7.8" width="0.47" height="0.47"/><line class="cls-1" x1="118.53" y1="59.83" x2="89" y2="59.83"/><rect x="89" y="59.83" width="0.47" height="0.47"/><line class="cls-1" x1="230.08" y1="67.33" x2="230.08" y2="52.33"/><line class="cls-1" x1="230.08" y1="67.33" x2="148.06" y2="67.33"/><line class="cls-1" x1="118.53" y1="74.83" x2="103.53" y2="74.83"/><rect x="103.53" y="74.83" width="0.47" height="0.47"/><line class="cls-1" x1="230.08" y1="82.33" x2="230.08" y2="67.33"/><rect x="230.08" y="67.33" width="0.47" height="0.47"/><line class="cls-1" x1="103.53" y1="89.83" x2="103.53" y2="74.83"/><line class="cls-1" x1="89" y1="126.85" x2="89" y2="59.83"/><rect x="89" y="59.83" width="0.47" height="0.47"/><line class="cls-1" x1="141.03" y1="126.85" x2="89" y2="126.85"/><rect x="89" y="126.85" width="0.47" height="0.47"/><line class="cls-1" x1="230.08" y1="126.85" x2="230.08" y2="111.86"/><line class="cls-1" x1="230.08" y1="126.85" x2="178.05" y2="126.85"/><rect x="228.21" y="65.45" width="4.22" height="4.22"/><rect x="228.21" y="5.92" width="4.22" height="4.22"/><rect x="87.12" y="57.95" width="4.22" height="4.22"/><rect x="87.12" y="5.92" width="4.22" height="4.22"/><path d="M59.34,27.21h-.12A1.82,1.82,0,0,1,57.31,26c-.31-.6-.54-1.16-.8-1.76s-.35-.55-.78-.55H55.2l-.35,1.87c-.19,1.06-.11,1.1.93,1.2l-.08.34H52.53l.07-.34c.94-.08,1.08-.14,1.27-1.19l.92-4.82c.19-1,.06-1-.91-1.11l.07-.34h2.77c1.33,0,2.41.53,2.41,1.88a2.39,2.39,0,0,1-1.89,2.29c.19.48.41,1,.64,1.44.7,1.47,1,1.78,1.57,2Zm-3.49-3.89a2,2,0,0,0,2.19-2,1.42,1.42,0,0,0-1.44-1.57c-.45,0-.62,0-.74.65l-.58,3Z" transform="translate(-0.46 -1.33)"/><path d="M163.16,28.21H163A1.83,1.83,0,0,1,161.13,27c-.31-.59-.54-1.16-.8-1.76-.2-.45-.35-.55-.78-.55H159l-.35,1.87c-.19,1.06-.1,1.1.93,1.2l-.07.34h-3.18l.07-.34c1-.08,1.08-.14,1.27-1.19l.92-4.82c.2-1,.06-1-.91-1.11l.08-.34h2.77c1.33,0,2.41.53,2.41,1.88a2.4,2.4,0,0,1-1.9,2.29c.19.48.41,1,.64,1.44.7,1.47,1,1.78,1.57,2Zm-3.49-3.89a2,2,0,0,0,2.2-2,1.42,1.42,0,0,0-1.44-1.58c-.46,0-.63,0-.75.65l-.57,3Z" transform="translate(-0.46 -1.33)"/><path d="M163.16,147.26H163a1.84,1.84,0,0,1-1.91-1.17c-.31-.6-.54-1.17-.8-1.77-.2-.45-.35-.55-.78-.55H159l-.35,1.87c-.19,1.06-.1,1.11.93,1.2l-.07.34h-3.18l.07-.34c1-.08,1.08-.14,1.27-1.19l.92-4.82c.2-1,.06-1-.91-1.11l.08-.34h2.77c1.33,0,2.41.53,2.41,1.88a2.41,2.41,0,0,1-1.9,2.3c.19.47.41,1,.64,1.43.7,1.47,1,1.78,1.57,2Zm-3.49-3.88a2,2,0,0,0,2.2-2,1.42,1.42,0,0,0-1.44-1.57c-.46,0-.63,0-.75.64l-.57,3Z" transform="translate(-0.46 -1.33)"/><path d="M245.15,34.1c2.3,0,3.75,1.15,3.75,3.3A4.16,4.16,0,0,1,247,41a5.44,5.44,0,0,1-3.33.87h-3l.08-.34c1-.08,1.08-.19,1.25-1.11l.94-4.89c.18-.94.15-1-.92-1.12l.08-.34ZM243,40.34c-.2,1,.43,1.11,1.12,1.11,2.46,0,3.65-1.93,3.65-4.11a2.49,2.49,0,0,0-2.74-2.82c-.7,0-.93.06-1.05.71Z" transform="translate(-0.46 -1.33)"/><path d="M245.15,93.39c2.3,0,3.75,1.16,3.75,3.3a4.17,4.17,0,0,1-1.91,3.64,5.5,5.5,0,0,1-3.33.86h-3l.08-.34c1-.08,1.08-.19,1.25-1.11l.94-4.88c.18-1,.15-1-.92-1.13l.08-.34ZM243,99.63c-.2,1,.43,1.12,1.12,1.12,2.46,0,3.65-1.94,3.65-4.12a2.49,2.49,0,0,0-2.74-2.82c-.7,0-.93.06-1.05.71Z" transform="translate(-0.46 -1.33)"/><path d="M146,79.19c-.82,0-1,.3-1.1.75s-.3,1.18-.74,3.42-1.27,3.49-3.4,3.47c-1.63,0-2.93-.81-2.44-3.34l.64-3.24c.17-.91.06-1-.92-1.06l.07-.33h3.15l-.06.33c-1,.1-1.06.12-1.24,1.06l-.63,3.2c-.39,2,.43,2.75,1.7,2.75,1.47,0,2.19-.75,2.6-2.82.44-2.29.57-3,.61-3.5s-.18-.63-1.08-.69l.08-.33h2.84Z" transform="translate(-0.46 -1.33)"/><circle class="cls-2" cx="246.86" cy="7.8" r="2.25"/><path d="M260.87,2.44c-.83.11-1,.19-1.67,1.28s-2.87,4.74-3.77,6.3h-.38c-.28-2.12-.72-5.13-1-6.54-.14-.91-.3-1-1.07-1l.09-.34H256l-.09.34-.31.05c-.47.07-.64.17-.59.6.08.83.45,3.24.75,5.35.87-1.42,2.43-4.06,3-5.11.36-.66.17-.78-.38-.85l-.3,0,.09-.34h2.73Z" transform="translate(-0.46 -1.33)"/><path d="M264.22,11.21A2.62,2.62,0,0,1,261.76,14,1.74,1.74,0,0,1,260,12.09a2.69,2.69,0,0,1,2.47-2.83A1.74,1.74,0,0,1,264.22,11.21Zm-3.62.92c0,1,.36,1.62,1.21,1.62,1.17,0,1.76-1.45,1.76-2.59,0-1-.3-1.65-1.2-1.65C261.3,9.51,260.6,10.89,260.6,12.13Z" transform="translate(-0.46 -1.33)"/><path d="M269.73,9.55c-.47,0-.58.18-.64.43s-.18.7-.43,2-.74,2-2,2c-.95,0-1.71-.47-1.42-1.95l.37-1.88c.1-.54,0-.56-.54-.62l0-.2H267l0,.2c-.56.06-.63.07-.73.62L265.84,12c-.23,1.17.26,1.6,1,1.6s1.27-.43,1.51-1.64.33-1.78.35-2-.1-.36-.63-.4l.05-.2h1.66Z" transform="translate(-0.46 -1.33)"/><path d="M274.08,9.2c-.08.32-.16.83-.23,1.21h-.21a1.67,1.67,0,0,0,0-.38c0-.31-.12-.42-.76-.42h-.42l-.66,3.43c-.1.57,0,.6.59.65l-.05.2h-1.92l.05-.2c.6,0,.64-.09.75-.65l.66-3.43h-.42c-.56,0-.68.09-.81.27a3.11,3.11,0,0,0-.31.54l-.23,0a9.62,9.62,0,0,0,.29-1.21h.16c.07.16.15.15.34.15h2.68a.42.42,0,0,0,.37-.15Z" transform="translate(-0.46 -1.33)"/><circle class="cls-2" cx="19.72" cy="7.8" r="2.25"/><path d="M8.29,2.44c-.83.11-1,.19-1.67,1.28S3.75,8.46,2.85,10H2.47c-.28-2.12-.72-5.13-1-6.54-.14-.91-.3-1-1.06-1L.54,2.1H3.47l-.1.34-.31.05c-.47.07-.64.17-.59.6.08.83.46,3.24.76,5.35.86-1.42,2.42-4.06,3-5.11.36-.66.17-.78-.38-.85l-.3,0,.1-.34H8.36Z" transform="translate(-0.46 -1.33)"/><path d="M9.59,9.55c-.59,0-.64.09-.74.6l-.56,2.93c-.1.53,0,.58.55.62l0,.2H6.94l0-.2c.56,0,.63-.1.73-.62l.57-2.93c.1-.52,0-.55-.55-.6l0-.2H9.63Z" transform="translate(-0.46 -1.33)"/><path d="M14.79,9.55c-.46,0-.58.15-.66.44s-.14.54-.26,1.17L13.34,14H13.1L11,10.26l-.35,1.85a10.8,10.8,0,0,0-.19,1.17c0,.32.12.38.62.42l0,.2H9.36l0-.2c.38,0,.56-.11.66-.43a8.45,8.45,0,0,0,.27-1.17l.38-1.94a.44.44,0,0,0-.09-.4c-.09-.11-.24-.18-.58-.21l0-.2h1L13.22,13l.35-1.82A10.86,10.86,0,0,0,13.76,10c0-.31-.08-.4-.61-.43l0-.2h1.63Z" transform="translate(-0.46 -1.33)"/></g></g></svg>