<?xml version="1.0" encoding="utf-8" standalone="no"?>
<!DOCTYPE svg PUBLIC "-//W3C//DTD SVG 1.1//EN"
  "http://www.w3.org/Graphics/SVG/1.1/DTD/svg11.dtd">
<!-- Created with matplotlib (https://matplotlib.org/) -->
<svg height="216pt" version="1.1" viewBox="0 0 216 216" width="216pt" xmlns="http://www.w3.org/2000/svg" xmlns:xlink="http://www.w3.org/1999/xlink">
 <defs>
  <style type="text/css">
*{stroke-linecap:butt;stroke-linejoin:round;}
  </style>
 </defs>
 <g id="figure_1">
  <g id="patch_1">
   <path d="M 0 216 
L 216 216 
L 216 0 
L 0 0 
z
" style="fill:#ffffff;"/>
  </g>
  <g id="axes_1">
   <g id="patch_2">
    <path d="M 27 189 
L 194.4 189 
L 194.4 25.92 
L 27 25.92 
z
" style="fill:#ffffff;"/>
   </g>
   <g id="matplotlib.axis_1">
    <g id="xtick_1">
     <g id="line2d_1">
      <path clip-path="url(#p3419cd701a)" d="M 54.9 189 
L 54.9 25.92 
" style="fill:none;stroke:#b0b0b0;stroke-linecap:square;stroke-width:0.8;"/>
     </g>
     <g id="line2d_2">
      <defs>
       <path d="M 0 0 
L 0 3.5 
" id="maee06e8a59" style="stroke:#000000;stroke-width:0.8;"/>
      </defs>
      <g>
       <use style="stroke:#000000;stroke-width:0.8;" x="54.9" xlink:href="#maee06e8a59" y="107.46"/>
      </g>
     </g>
     <g id="text_1">
      <!-- −1 -->
      <defs>
       <path d="M 1.953125 36.328125 
L 55.328125 36.328125 
L 55.328125 29.890625 
L 1.953125 29.890625 
z
" id="TimesNewRomanPS-BoldMT-8722"/>
       <path d="M 32.5625 67.578125 
L 32.5625 13.421875 
Q 32.5625 7.328125 33.09375 5.640625 
Q 33.640625 3.953125 35.34375 2.875 
Q 37.0625 1.8125 40.828125 1.8125 
L 42.328125 1.8125 
L 42.328125 0 
L 7.46875 0 
L 7.46875 1.8125 
L 9.234375 1.8125 
Q 13.484375 1.8125 15.28125 2.78125 
Q 17.09375 3.765625 17.71875 5.46875 
Q 18.359375 7.171875 18.359375 13.421875 
L 18.359375 47.75 
Q 18.359375 52.34375 17.921875 53.484375 
Q 17.484375 54.640625 16.28125 55.4375 
Q 15.09375 56.25 13.53125 56.25 
Q 11.03125 56.25 7.46875 54.6875 
L 6.59375 56.453125 
L 30.953125 67.578125 
z
" id="TimesNewRomanPS-BoldMT-49"/>
      </defs>
      <g transform="translate(48.480938 122.40625)scale(0.12 -0.12)">
       <use xlink:href="#TimesNewRomanPS-BoldMT-8722"/>
       <use x="56.982422" xlink:href="#TimesNewRomanPS-BoldMT-49"/>
      </g>
     </g>
    </g>
    <g id="xtick_2">
     <g id="line2d_3">
      <path clip-path="url(#p3419cd701a)" d="M 166.5 189 
L 166.5 25.92 
" style="fill:none;stroke:#b0b0b0;stroke-linecap:square;stroke-width:0.8;"/>
     </g>
     <g id="line2d_4">
      <g>
       <use style="stroke:#000000;stroke-width:0.8;" x="166.5" xlink:href="#maee06e8a59" y="107.46"/>
      </g>
     </g>
     <g id="text_2">
      <!-- 1 -->
      <g transform="translate(163.5 122.40625)scale(0.12 -0.12)">
       <use xlink:href="#TimesNewRomanPS-BoldMT-49"/>
      </g>
     </g>
    </g>
    <g id="text_3">
     <!-- $\mathregular{X_1}$ -->
     <defs>
      <path d="M 42.234375 38.8125 
L 60.5 11.71875 
Q 65.046875 4.984375 66.96875 3.53125 
Q 68.890625 2.09375 71.53125 1.8125 
L 71.53125 0 
L 39.265625 0 
L 39.265625 1.8125 
Q 43.109375 2.09375 44.234375 2.96875 
Q 45.359375 3.859375 45.359375 5.125 
Q 45.359375 6 45.015625 6.6875 
Q 44.34375 8.15625 41.609375 12.15625 
L 31.9375 26.46875 
L 21.828125 14.109375 
Q 17.28125 8.5 17.28125 6.5 
Q 17.28125 5.078125 18.453125 3.859375 
Q 19.625 2.640625 21.921875 2.09375 
Q 22.953125 1.8125 26.125 1.8125 
L 26.125 0 
L 0.6875 0 
L 0.6875 1.8125 
Q 5.03125 2.4375 7.515625 4.15625 
Q 10.796875 6.390625 16.65625 13.53125 
L 29.78125 29.546875 
L 12.9375 54.296875 
Q 8.796875 60.40625 8.203125 61.078125 
Q 6.890625 62.703125 5.609375 63.375 
Q 4.34375 64.0625 2.09375 64.40625 
L 2.09375 66.21875 
L 34.96875 66.21875 
L 34.96875 64.40625 
L 33.296875 64.40625 
Q 30.46875 64.40625 29.34375 63.5 
Q 28.21875 62.59375 28.21875 61.234375 
Q 28.21875 60.15625 28.5625 59.375 
L 31.9375 54.296875 
L 40.140625 41.796875 
L 47.125 50.34375 
Q 52.484375 56.9375 52.484375 59.578125 
Q 52.484375 60.890625 51.734375 62.015625 
Q 50.984375 63.140625 49.5625 63.765625 
Q 48.140625 64.40625 45.171875 64.40625 
L 45.171875 66.21875 
L 69.53125 66.21875 
L 69.53125 64.40625 
Q 66.65625 64.359375 64.890625 63.6875 
Q 63.140625 63.03125 61.140625 61.234375 
Q 59.859375 60.0625 54.78125 53.953125 
z
" id="TimesNewRomanPS-BoldMT-88"/>
     </defs>
     <g transform="translate(103.86 21.92)scale(0.12 -0.12)">
      <use transform="translate(0 0.78125)" xlink:href="#TimesNewRomanPS-BoldMT-88"/>
      <use transform="translate(73.750781 -25.515625)scale(0.7)" xlink:href="#TimesNewRomanPS-BoldMT-49"/>
     </g>
    </g>
   </g>
   <g id="matplotlib.axis_2">
    <g id="ytick_1">
     <g id="line2d_5">
      <path clip-path="url(#p3419cd701a)" d="M 27 161.82 
L 194.4 161.82 
" style="fill:none;stroke:#b0b0b0;stroke-linecap:square;stroke-width:0.8;"/>
     </g>
     <g id="line2d_6">
      <defs>
       <path d="M 0 0 
L -3.5 0 
" id="m693c1abe06" style="stroke:#000000;stroke-width:0.8;"/>
      </defs>
      <g>
       <use style="stroke:#000000;stroke-width:0.8;" x="110.7" xlink:href="#m693c1abe06" y="161.82"/>
      </g>
     </g>
     <g id="text_4">
      <!-- −1 -->
      <g transform="translate(90.861875 165.793125)scale(0.12 -0.12)">
       <use xlink:href="#TimesNewRomanPS-BoldMT-8722"/>
       <use x="56.982422" xlink:href="#TimesNewRomanPS-BoldMT-49"/>
      </g>
     </g>
    </g>
    <g id="ytick_2">
     <g id="line2d_7">
      <path clip-path="url(#p3419cd701a)" d="M 27 53.1 
L 194.4 53.1 
" style="fill:none;stroke:#b0b0b0;stroke-linecap:square;stroke-width:0.8;"/>
     </g>
     <g id="line2d_8">
      <g>
       <use style="stroke:#000000;stroke-width:0.8;" x="110.7" xlink:href="#m693c1abe06" y="53.1"/>
      </g>
     </g>
     <g id="text_5">
      <!-- 1 -->
      <g transform="translate(97.7 57.073125)scale(0.12 -0.12)">
       <use xlink:href="#TimesNewRomanPS-BoldMT-49"/>
      </g>
     </g>
    </g>
    <g id="text_6">
     <!-- $\mathregular{X_0}$ -->
     <defs>
      <path d="M 46.34375 33.109375 
Q 46.34375 23.1875 43.5625 14.59375 
Q 41.890625 9.328125 39.078125 5.953125 
Q 36.28125 2.59375 32.71875 0.609375 
Q 29.15625 -1.375 24.953125 -1.375 
Q 20.171875 -1.375 16.3125 1.0625 
Q 12.453125 3.515625 9.46875 8.0625 
Q 7.328125 11.375 5.71875 16.890625 
Q 3.609375 24.359375 3.609375 32.328125 
Q 3.609375 43.109375 6.640625 52.15625 
Q 9.125 59.625 14.203125 63.59375 
Q 19.28125 67.578125 24.953125 67.578125 
Q 30.71875 67.578125 35.71875 63.640625 
Q 40.71875 59.71875 43.0625 53.078125 
Q 46.34375 43.953125 46.34375 33.109375 
z
M 31.296875 33.203125 
Q 31.296875 50.59375 31.109375 53.46875 
Q 30.609375 60.25 28.765625 62.640625 
Q 27.546875 64.203125 24.8125 64.203125 
Q 22.703125 64.203125 21.484375 63.03125 
Q 19.671875 61.328125 19.03125 57 
Q 18.40625 52.6875 18.40625 26.859375 
Q 18.40625 12.796875 19.390625 8.015625 
Q 20.125 4.546875 21.484375 3.375 
Q 22.859375 2.203125 25.09375 2.203125 
Q 27.546875 2.203125 28.765625 3.765625 
Q 30.8125 6.5 31.109375 12.203125 
z
" id="TimesNewRomanPS-BoldMT-48"/>
     </defs>
     <g transform="translate(206.44 114.3)rotate(-90)scale(0.12 -0.12)">
      <use transform="translate(0 0.78125)" xlink:href="#TimesNewRomanPS-BoldMT-88"/>
      <use transform="translate(73.750781 -25.515625)scale(0.7)" xlink:href="#TimesNewRomanPS-BoldMT-48"/>
     </g>
    </g>
   </g>
   <g id="patch_3">
    <path d="M 110.7 189 
L 110.7 25.92 
" style="fill:none;stroke:#000000;stroke-linecap:square;stroke-linejoin:miter;stroke-width:0.8;"/>
   </g>
   <g id="patch_4">
    <path d="M 194.4 189 
L 194.4 25.92 
" style="fill:none;"/>
   </g>
   <g id="patch_5">
    <path d="M 27 107.46 
L 194.4 107.46 
" style="fill:none;stroke:#000000;stroke-linecap:square;stroke-linejoin:miter;stroke-width:0.8;"/>
   </g>
   <g id="patch_6">
    <path d="M 27 25.92 
L 194.4 25.92 
" style="fill:none;"/>
   </g>
   <g id="PathCollection_1">
    <defs>
     <path d="M 0 11.18034 
C 2.965061 11.18034 5.80908 10.002309 7.905694 7.905694 
C 10.002309 5.80908 11.18034 2.965061 11.18034 0 
C 11.18034 -2.965061 10.002309 -5.80908 7.905694 -7.905694 
C 5.80908 -10.002309 2.965061 -11.18034 0 -11.18034 
C -2.965061 -11.18034 -5.80908 -10.002309 -7.905694 -7.905694 
C -10.002309 -5.80908 -11.18034 -2.965061 -11.18034 0 
C -11.18034 2.965061 -10.002309 5.80908 -7.905694 7.905694 
C -5.80908 10.002309 -2.965061 11.18034 0 11.18034 
z
" id="C0_0_6e3220e850"/>
    </defs>
    <g clip-path="url(#p3419cd701a)">
     <use style="fill:#0000ff;stroke:#0000ff;" x="54.9" xlink:href="#C0_0_6e3220e850" y="161.82"/>
    </g>
    <g clip-path="url(#p3419cd701a)">
     <use style="fill:#ff0000;stroke:#ff0000;" x="54.9" xlink:href="#C0_0_6e3220e850" y="53.1"/>
    </g>
    <g clip-path="url(#p3419cd701a)">
     <use style="fill:#ff0000;stroke:#ff0000;" x="166.5" xlink:href="#C0_0_6e3220e850" y="161.82"/>
    </g>
    <g clip-path="url(#p3419cd701a)">
     <use style="fill:#0000ff;stroke:#0000ff;" x="166.5" xlink:href="#C0_0_6e3220e850" y="53.1"/>
    </g>
   </g>
   <g id="text_7">
    <!-- -1 -->
    <defs>
     <path d="M 30.90625 17.921875 
L 2.4375 17.921875 
L 2.4375 28.03125 
L 30.90625 28.03125 
z
" id="TimesNewRomanPS-BoldMT-45"/>
    </defs>
    <g style="fill:#ffffff;" transform="translate(49.902188 164.509687)scale(0.12 -0.12)">
     <use xlink:href="#TimesNewRomanPS-BoldMT-45"/>
     <use x="33.300781" xlink:href="#TimesNewRomanPS-BoldMT-49"/>
    </g>
   </g>
   <g id="text_8">
    <!-- 1 -->
    <g style="fill:#ffffff;" transform="translate(51.9 55.789687)scale(0.12 -0.12)">
     <use xlink:href="#TimesNewRomanPS-BoldMT-49"/>
    </g>
   </g>
   <g id="text_9">
    <!-- 1 -->
    <g style="fill:#ffffff;" transform="translate(163.5 164.509687)scale(0.12 -0.12)">
     <use xlink:href="#TimesNewRomanPS-BoldMT-49"/>
    </g>
   </g>
   <g id="text_10">
    <!-- -1 -->
    <g style="fill:#ffffff;" transform="translate(161.502187 55.789687)scale(0.12 -0.12)">
     <use xlink:href="#TimesNewRomanPS-BoldMT-45"/>
     <use x="33.300781" xlink:href="#TimesNewRomanPS-BoldMT-49"/>
    </g>
   </g>
  </g>
 </g>
 <defs>
  <clipPath id="p3419cd701a">
   <rect height="163.08" width="167.4" x="27" y="25.92"/>
  </clipPath>
 </defs>
</svg>
