<?xml version="1.0" encoding="utf-8" standalone="no"?>
<!DOCTYPE svg PUBLIC "-//W3C//DTD SVG 1.1//EN"
  "http://www.w3.org/Graphics/SVG/1.1/DTD/svg11.dtd">
<!-- Created with matplotlib (https://matplotlib.org/) -->
<svg height="142.677165pt" version="1.1" viewBox="0 0 142.677165 142.677165" width="142.677165pt" xmlns="http://www.w3.org/2000/svg" xmlns:xlink="http://www.w3.org/1999/xlink">
 <defs>
  <style type="text/css">
*{stroke-linecap:butt;stroke-linejoin:round;}
  </style>
 </defs>
 <g id="figure_1">
  <g id="patch_1">
   <path d="M 0 142.677165 
L 142.677165 142.677165 
L 142.677165 0 
L 0 0 
z
" style="fill:#ffffff;"/>
  </g>
  <g id="axes_1">
   <g id="patch_2">
    <path d="M 34.99 112.138415 
L 128.863293 112.138415 
L 128.863293 13.8 
L 34.99 13.8 
z
" style="fill:#ffffff;"/>
   </g>
   <g id="matplotlib.axis_1">
    <g id="xtick_1">
     <g id="line2d_1">
      <path clip-path="url(#p3b4635d0fb)" d="M 39.256968 112.138415 
L 39.256968 13.8 
" style="fill:none;stroke:#b0b0b0;stroke-linecap:square;stroke-width:0.8;"/>
     </g>
     <g id="line2d_2">
      <defs>
       <path d="M 0 0 
L 0 3.5 
" id="m7cc8ab819a" style="stroke:#000000;stroke-width:0.8;"/>
      </defs>
      <g>
       <use style="stroke:#000000;stroke-width:0.8;" x="39.256968" xlink:href="#m7cc8ab819a" y="112.138415"/>
      </g>
     </g>
     <g id="text_1">
      <!-- −10 -->
      <defs>
       <path d="M 70.703125 25 
C 70.703125 26.90625 69 26.90625 67.5 26.90625 
L 8.59375 26.90625 
C 7.203125 26.90625 5.40625 26.90625 5.40625 25.09375 
C 5.40625 23.203125 7.09375 23.203125 8.59375 23.203125 
L 67.5 23.203125 
C 68.90625 23.203125 70.703125 23.203125 70.703125 25 
z
" id="LMRoman12-Regular-8722"/>
       <path d="M 41 0 
L 41 2.90625 
L 37.90625 2.90625 
C 29.09375 2.90625 28.796875 4.09375 28.796875 7.703125 
L 28.796875 64.09375 
C 28.796875 66.40625 28.796875 66.5 26.796875 66.5 
C 24.40625 63.796875 19.40625 60.09375 9.09375 60.09375 
L 9.09375 57.203125 
C 11.40625 57.203125 16.40625 57.203125 21.90625 59.796875 
L 21.90625 7.703125 
C 21.90625 4.09375 21.59375 2.90625 12.796875 2.90625 
L 9.703125 2.90625 
L 9.703125 0 
C 12.40625 0.203125 22.09375 0.203125 25.40625 0.203125 
C 28.703125 0.203125 38.296875 0.203125 41 0 
z
" id="LMRoman12-Regular-49"/>
       <path d="M 44.796875 32 
C 44.796875 40.296875 44.296875 48.40625 40.703125 56 
C 36.59375 64.296875 29.40625 66.5 24.5 66.5 
C 18.703125 66.5 11.59375 63.59375 7.90625 55.296875 
C 5.09375 49 4.09375 42.796875 4.09375 32 
C 4.09375 22.296875 4.796875 15 8.40625 7.90625 
C 12.296875 0.296875 19.203125 -2.09375 24.40625 -2.09375 
C 33.09375 -2.09375 38.09375 3.09375 41 8.90625 
C 44.59375 16.40625 44.796875 26.203125 44.796875 32 
z
M 37.203125 33.203125 
C 37.203125 26.5 37.203125 18.90625 36.09375 12.796875 
C 34.203125 1.796875 27.90625 -0.09375 24.40625 -0.09375 
C 21.203125 -0.09375 14.703125 1.703125 12.796875 12.59375 
C 11.703125 18.59375 11.703125 26.203125 11.703125 33.203125 
C 11.703125 41.40625 11.703125 48.796875 13.296875 54.703125 
C 15 61.40625 20.09375 64.5 24.40625 64.5 
C 28.203125 64.5 34 62.203125 35.90625 53.59375 
C 37.203125 47.90625 37.203125 40 37.203125 33.203125 
z
" id="LMRoman12-Regular-48"/>
      </defs>
      <g transform="translate(28.80478 127.467165)scale(0.12 -0.12)">
       <use xlink:href="#LMRoman12-Regular-8722"/>
       <use x="76.199982" xlink:href="#LMRoman12-Regular-49"/>
       <use x="125.199966" xlink:href="#LMRoman12-Regular-48"/>
      </g>
     </g>
    </g>
    <g id="xtick_2">
     <g id="line2d_3">
      <path clip-path="url(#p3b4635d0fb)" d="M 81.926646 112.138415 
L 81.926646 13.8 
" style="fill:none;stroke:#b0b0b0;stroke-linecap:square;stroke-width:0.8;"/>
     </g>
     <g id="line2d_4">
      <g>
       <use style="stroke:#000000;stroke-width:0.8;" x="81.926646" xlink:href="#m7cc8ab819a" y="112.138415"/>
      </g>
     </g>
     <g id="text_2">
      <!-- 0 -->
      <g transform="translate(78.986646 127.467165)scale(0.12 -0.12)">
       <use xlink:href="#LMRoman12-Regular-48"/>
      </g>
     </g>
    </g>
    <g id="xtick_3">
     <g id="line2d_5">
      <path clip-path="url(#p3b4635d0fb)" d="M 124.596325 112.138415 
L 124.596325 13.8 
" style="fill:none;stroke:#b0b0b0;stroke-linecap:square;stroke-width:0.8;"/>
     </g>
     <g id="line2d_6">
      <g>
       <use style="stroke:#000000;stroke-width:0.8;" x="124.596325" xlink:href="#m7cc8ab819a" y="112.138415"/>
      </g>
     </g>
     <g id="text_3">
      <!-- 10 -->
      <g transform="translate(118.716325 127.467165)scale(0.12 -0.12)">
       <use xlink:href="#LMRoman12-Regular-49"/>
       <use x="48.999985" xlink:href="#LMRoman12-Regular-48"/>
      </g>
     </g>
    </g>
   </g>
   <g id="matplotlib.axis_2">
    <g id="ytick_1">
     <g id="line2d_7">
      <path clip-path="url(#p3b4635d0fb)" d="M 34.99 107.672546 
L 128.863293 107.672546 
" style="fill:none;stroke:#b0b0b0;stroke-linecap:square;stroke-width:0.8;"/>
     </g>
     <g id="line2d_8">
      <defs>
       <path d="M 0 0 
L -3.5 0 
" id="ma9494b8f2a" style="stroke:#000000;stroke-width:0.8;"/>
      </defs>
      <g>
       <use style="stroke:#000000;stroke-width:0.8;" x="34.99" xlink:href="#ma9494b8f2a" y="107.672546"/>
      </g>
     </g>
     <g id="text_4">
      <!-- 0.0 -->
      <defs>
       <path d="M 18.40625 4.90625 
C 18.40625 7.59375 16.09375 9.703125 13.59375 9.703125 
C 10.703125 9.703125 8.703125 7.40625 8.703125 4.90625 
C 8.703125 1.90625 11.203125 0 13.5 0 
C 16.203125 0 18.40625 2.09375 18.40625 4.90625 
z
" id="LMRoman12-Regular-46"/>
      </defs>
      <g transform="translate(12.965625 111.836921)scale(0.12 -0.12)">
       <use xlink:href="#LMRoman12-Regular-48"/>
       <use x="48.999985" xlink:href="#LMRoman12-Regular-46"/>
       <use x="76.199982" xlink:href="#LMRoman12-Regular-48"/>
      </g>
     </g>
    </g>
    <g id="ytick_2">
     <g id="line2d_9">
      <path clip-path="url(#p3b4635d0fb)" d="M 34.99 62.969208 
L 128.863293 62.969208 
" style="fill:none;stroke:#b0b0b0;stroke-linecap:square;stroke-width:0.8;"/>
     </g>
     <g id="line2d_10">
      <g>
       <use style="stroke:#000000;stroke-width:0.8;" x="34.99" xlink:href="#ma9494b8f2a" y="62.969208"/>
      </g>
     </g>
     <g id="text_5">
      <!-- 0.5 -->
      <defs>
       <path d="M 44 20.09375 
C 44 32 36 41.90625 25.5 41.90625 
C 19.796875 41.90625 15.40625 39.40625 12.796875 36.59375 
L 12.796875 57.296875 
C 17.09375 55.90625 20.59375 55.796875 21.703125 55.796875 
C 33 55.796875 40.203125 64.09375 40.203125 65.5 
C 40.203125 65.90625 40 66.40625 39.40625 66.40625 
C 39.40625 66.40625 39 66.40625 38.09375 66 
C 32.5 63.59375 27.703125 63.296875 25.09375 63.296875 
C 18.5 63.296875 13.796875 65.296875 11.90625 66.09375 
C 11.203125 66.40625 10.90625 66.40625 10.90625 66.40625 
C 10.09375 66.40625 10.09375 65.796875 10.09375 64.203125 
L 10.09375 34.5 
C 10.09375 32.703125 10.09375 32.09375 11.296875 32.09375 
C 11.796875 32.09375 11.90625 32.203125 12.90625 33.40625 
C 15.703125 37.5 20.40625 39.90625 25.40625 39.90625 
C 30.703125 39.90625 33.296875 35 34.09375 33.296875 
C 35.796875 29.40625 35.90625 24.5 35.90625 20.703125 
C 35.90625 16.90625 35.90625 11.203125 33.09375 6.703125 
C 30.90625 3.09375 27 0.59375 22.59375 0.59375 
C 16 0.59375 9.5 5.09375 7.703125 12.40625 
C 8.203125 12.203125 8.796875 12.09375 9.296875 12.09375 
C 11 12.09375 13.703125 13.09375 13.703125 16.5 
C 13.703125 19.296875 11.796875 20.90625 9.296875 20.90625 
C 7.5 20.90625 4.90625 20 4.90625 16.09375 
C 4.90625 7.59375 11.703125 -2.09375 22.796875 -2.09375 
C 34.09375 -2.09375 44 7.40625 44 20.09375 
z
" id="LMRoman12-Regular-53"/>
      </defs>
      <g transform="translate(12.965625 67.133583)scale(0.12 -0.12)">
       <use xlink:href="#LMRoman12-Regular-48"/>
       <use x="48.999985" xlink:href="#LMRoman12-Regular-46"/>
       <use x="76.199982" xlink:href="#LMRoman12-Regular-53"/>
      </g>
     </g>
    </g>
    <g id="ytick_3">
     <g id="line2d_11">
      <path clip-path="url(#p3b4635d0fb)" d="M 34.99 18.265869 
L 128.863293 18.265869 
" style="fill:none;stroke:#b0b0b0;stroke-linecap:square;stroke-width:0.8;"/>
     </g>
     <g id="line2d_12">
      <g>
       <use style="stroke:#000000;stroke-width:0.8;" x="34.99" xlink:href="#ma9494b8f2a" y="18.265869"/>
      </g>
     </g>
     <g id="text_6">
      <!-- 1.0 -->
      <g transform="translate(12.965625 22.430244)scale(0.12 -0.12)">
       <use xlink:href="#LMRoman12-Regular-49"/>
       <use x="48.999985" xlink:href="#LMRoman12-Regular-46"/>
       <use x="76.199982" xlink:href="#LMRoman12-Regular-48"/>
      </g>
     </g>
    </g>
   </g>
   <g id="line2d_13">
    <path clip-path="url(#p3b4635d0fb)" d="M 39.256968 107.668487 
L 53.837562 107.548995 
L 58.554812 107.300361 
L 61.556699 106.923599 
L 63.700904 106.441367 
L 65.416268 105.844603 
L 66.702791 105.21901 
L 67.989314 104.387347 
L 69.275837 103.287994 
L 70.56236 101.845647 
L 71.848883 99.971798 
L 73.135406 97.568197 
L 74.421929 94.534999 
L 75.708452 90.785171 
L 76.994975 86.265447 
L 78.281498 80.98129 
L 79.996862 72.909151 
L 86.000636 43.114289 
L 87.287159 38.079702 
L 88.573682 33.819426 
L 89.860205 30.316555 
L 91.146728 27.503898 
L 92.433251 25.288127 
L 93.719774 23.568662 
L 95.006297 22.249864 
L 96.29282 21.247422 
L 97.579343 20.490643 
L 99.294706 19.766546 
L 101.01007 19.275392 
L 103.154275 18.879375 
L 106.156162 18.570514 
L 110.444572 18.377621 
L 118.592551 18.282443 
L 124.596325 18.269928 
L 124.596325 18.269928 
" style="fill:none;stroke:#000000;stroke-linecap:square;stroke-width:1.5;"/>
   </g>
   <g id="patch_3">
    <path d="M 34.99 112.138415 
L 34.99 13.8 
" style="fill:none;stroke:#000000;stroke-linecap:square;stroke-linejoin:miter;stroke-width:0.8;"/>
   </g>
   <g id="patch_4">
    <path d="M 128.863293 112.138415 
L 128.863293 13.8 
" style="fill:none;stroke:#000000;stroke-linecap:square;stroke-linejoin:miter;stroke-width:0.8;"/>
   </g>
   <g id="patch_5">
    <path d="M 34.99 112.138415 
L 128.863293 112.138415 
" style="fill:none;stroke:#000000;stroke-linecap:square;stroke-linejoin:miter;stroke-width:0.8;"/>
   </g>
   <g id="patch_6">
    <path d="M 34.99 13.8 
L 128.863293 13.8 
" style="fill:none;stroke:#000000;stroke-linecap:square;stroke-linejoin:miter;stroke-width:0.8;"/>
   </g>
  </g>
 </g>
 <defs>
  <clipPath id="p3b4635d0fb">
   <rect height="98.338415" width="93.873293" x="34.99" y="13.8"/>
  </clipPath>
 </defs>
</svg>
