<?xml version="1.0" encoding="utf-8"?>
<!-- Generator: Adobe Illustrator 14.0.0, SVG Export Plug-In . SVG Version: 6.00 Build 43363)  -->
<!DOCTYPE svg PUBLIC "-//W3C//DTD SVG 1.1//EN" "http://www.w3.org/Graphics/SVG/1.1/DTD/svg11.dtd">
<svg version="1.1" id="Layer_1" xmlns="http://www.w3.org/2000/svg" xmlns:xlink="http://www.w3.org/1999/xlink" x="0px" y="0px"
	 width="612px" height="792px" viewBox="0 0 612 792" enable-background="new 0 0 612 792" xml:space="preserve">
<g>
	<polygon fill-rule="evenodd" clip-rule="evenodd" fill="#FFFFFF" points="209,300 401.756,300 401.756,492.756 209,492.756 
		209,300 	"/>
	<path fill-rule="evenodd" clip-rule="evenodd" fill="#ED1C24" d="M348.441,431.334c-0.335,1.65,1.006,2.939,0,4.59
		c0.645,1.365,0.31,3.352,0.31,5c-1.314,0-0.645,3.971-2.655,2.656c-2.964-1.986-2.655-7.297-3.299-10.596
		c3.299-1.006,3.299-4.666,3.995-4.977C348.106,428.008,348.751,429.684,348.441,431.334L348.441,431.334z M345.787,340.257
		c-0.336,2.604-2.99,2.604-5.002,3.609c-3.3,0-4.588-3.944-7.888-4.305c0.283-1.649,2.629-3.635,4.588-3.635
		C340.785,336.261,343.44,337.911,345.787,340.257L345.787,340.257z M257.7,373.048c-0.361,1.289,0.979,2.939-0.67,3.3l-9.28,0.335
		c-0.98-0.696-0.98-1.649-0.98-3.351c1.65-1.934,3.97-2.294,6.625-2.939C255.044,370.728,257.029,371.037,257.7,373.048
		L257.7,373.048z M285.154,368.743c0.361,0.979-0.645,2.294-1.289,2.655c-1.366,0.283-3.299,0.283-3.97-1.366
		c-0.335-1.289,0.67-1.959,0.954-2.656C282.216,366.087,285.154,366.732,285.154,368.743L285.154,368.743z M309.361,350.182
		c2.655,1.65,2.319,5.285,4.975,5.955c0.335,1.985,1.65,4.306-0.361,6.291c-1.288,2.32,2.991,3.97,1.65,7.295
		c0,1.959,1.649,3.97-0.645,5.62c-1.649,0.335-2.964,0.645-4.305,1.006h-7.296c-0.954-0.361-1.65-0.361-2.32-0.67
		c-0.284-2.629,1.65-6.29,0.67-8.584c-1.65-2.656-6.96-2.346-6.264-6.651c-1.34-0.671-3.016-2.32-3.016-4.306
		c1.676-3.299,7.63-2.964,7.63-7.604c0.98-2.011,3.3-0.67,4.279,0C305.726,350.182,308.021,349.512,309.361,350.182L309.361,350.182
		z M230.529,409.113c-0.645-4.307-1.315-8.25-1.315-12.916c0-4.588,0.67-9.899,1.65-14.9h148.693c1.006,5.001,1.65,10.312,1.65,14.9
		c0,4.305-0.645,8.609-1.289,12.605L230.529,409.113L230.529,409.113z M232.178,376.683c8.61-32.121,38.411-56.327,73.187-56.327
		c34.775,0,63.932,23.871,72.851,55.992h-9.614c2.371-3.3,1.7-4.305,4.665-4.95c1.985-1.366,1.006-5.672-1.649-6.651
		c-1.006-0.67-1.006-2.32-2.655-1.315c-0.645,1.315-2.295,0.645-3.66,0.645c-0.98-1.289,0-2.655,0-3.634
		c-1.65-1.651-3.301-2.656-2.295-4.976c-2.294-3.944-4.95-7.604-9.615-8.584c-1.985,0.98-4.641,3.3-6.6,1.985
		c-1.005-1.005-2.99-1.005-2.346-2.655c5.001-0.335,0.644-5.285,3.995-6.96c0.31-1.341-0.696-1.65-1.649-2.346
		c-2.346,0.696-2.346-3.583-4.64-3.3c-3.017-1.65-5.672,1.366-8.972,1.65c-3.944-1.65-2.295,4.305-6.29,3.996
		c-0.31,2.319-3.609,3.325-2.655,5.954c-0.645,1.676-2.604,1.315-4.305,1.006c-1.29-1.34-4.306-2.655-3.944-5.001
		c1.288-1.289,1.984-2.939,1.984-4.95c-1.649,0-2.346,1.65-3.635,1.34c-1.005,6.264-8.301,2.32-10.621,6.96
		c-1.985-0.696-3.635,1.65-4.95-0.335c-1.005-1.006-1.34-2.011-2.345-2.656c-0.954,0-1.65-0.644-2.604-1.314
		c-1.366,1.959-1.702,4.305-3.661,5.955c0.31,0.31-0.335,1.314-1.005,1.314c-2.294,0.335-5.646,0.645-8.584,0.335
		c-7.321,4.614-12.916-5.001-19.566,0.67c-3.97,4.64-10.26,4.64-13.921,9.59c0,1.314,2.011,1.314,1.341,3.016
		c-3.635,2.294-5.929,5.259-4.64,10.26c-0.335,0.283-1.005,2.294-1.289,4.95L232.178,376.683L232.178,376.683z M253.729,448.529
		c-1.701-2.656,3.3-1.984,1.959-4.641c1.65-2.965,4.641-4.613,8.301-4.949c0.645-1.006,3.661-1.65,2.294-3.016
		c0.361-0.285,0.671-0.955,1.367-0.955c0.954-4.305,5.594-4.641,7.244-7.654c-0.644-3.301-2.938-5.596-5.955-6.24
		c-0.645-3.016-4.641-3.352-3.945-6.65c0,0,0.31-0.67,0.645-0.67l24.825-0.645c2.99,1.004,4.305,4.949,6.651,6.959
		c4.305,1.959,10.905-1.65,13.894,2.965c-0.695,3.996,3.326,5.955,4.307,8.945c0.67,2.99-1.985,4.305-0.98,7.605
		c1.289,1.648,2.938,3.66,3.635,5.955c-1.005,2.654,1.96,3.66,2.655,6.289c-0.335,1.676,2.295,2.012,2.295,3.662
		c2.319,0.645,3.97-0.646,6.315-0.646c-0.645-2.01,3.944-2.01,1.959-3.658c3.635,0,1.985-4.951,5.002-6.602
		c0-1.34,0.283-3.352-0.671-4.666c0.671-0.334,0.671-1.984,1.314-2.629c-0.36-0.67,1.006-5.955,2.011-6.625
		c-0.36-1.676-1.366-2.99-2.654-3.35c-1.007,0,0-1.291-0.671-1.291c-1.341-2.99,1.65-4.666,2.32-6.6
		c1.005-2.01,1.289-3.996,2.294-6.006h39.082c-7.967,32.816-38.438,58.621-73.857,58.621c-20.52,0-39.364-8.945-53.337-22.84
		L253.729,448.529L253.729,448.529z M240.118,433.629c-3.635-5.955-6.6-12.916-8.249-20.211c-0.335-0.645,3.299,1.006,3.299,0
		C234.524,418.729,236.483,427.029,240.118,433.629L240.118,433.629z M354.706,321.361c9.615,6.29,17.556,14.565,23.872,23.845
		l-6.316,6.316c5.31,7.269,9.306,16.215,11.266,25.16l8.945-0.335c1.34,6.599,2.319,13.25,2.319,19.85
		c0,5.646-0.67,11.602-1.676,16.912l-8.894,0.645c-2.01,8.971-5.645,17.58-10.621,24.824l6.961,5.311
		c-6.651,10.285-14.9,18.896-24.852,25.855l-5.619-6.65c-7.939,5.646-18.2,9.951-28.15,12.271v8.584
		c-5.62,0.695-11.266,2.012-16.576,2.012c-6.291,0-12.245-1.006-18.2-2.012v-9.254c-9.616-1.986-18.561-6.6-26.836-12.246l-6.6,6.6
		c-8.945-6.6-17.246-14.875-23.201-24.154l6.65-5.619c-5.001-7.941-8.971-16.551-10.956-25.521l-8.945-0.645
		c-0.979-5.311-1.315-11.266-1.315-16.912c0-6.96,0.645-13.56,2.294-19.85l8.61,0.335c2.01-8.61,5.646-16.55,10.62-23.51
		l-6.625-6.651c6.625-8.92,14.565-17.221,24.18-23.511l5.646,5.955c8.25-5.259,16.859-9.254,26.166-11.575l0.31-8.945
		c5.646-1.006,12.245-1.65,18.2-1.65c5.311,0,11.601,0.645,16.576,1.315l0.335,8.945c9.615,1.985,18.226,5.955,26.165,10.956
		L354.706,321.361L354.706,321.361L354.706,321.361z"/>
	<path fill-rule="evenodd" clip-rule="evenodd" d="M294.46,415.068c-0.335,0-1.005,0.359-1.005-0.645
		C294.125,414.424,294.77,414.424,294.46,415.068L294.46,415.068z M246.434,405.504v-20.211h18.2v4.306h-11.24v3.3h10.26v4.305
		h-10.26v3.943h11.6v4.357H246.434L246.434,405.504z M290.155,405.504v-20.211h11.266l4.949,12.555l4.949-12.555h10.622v20.211
		h-6.316v-16.267l-6.961,16.267h-4.949l-7.295-16.267v16.267H290.155L290.155,405.504z M347.745,405.504v-20.211h18.252v4.306
		h-11.291v3.661h10.313v4.95h-10.313v7.295H347.745L347.745,405.504z M277.91,393.903c1.29,0,2.294,1.005,2.294,2.294
		c0,1.65-1.005,3.016-2.294,3.016c-1.366,0-2.346-1.365-2.346-3.016C275.564,394.908,276.544,393.903,277.91,393.903L277.91,393.903
		z M334.83,392.898c1.367,0,2.347,1.314,2.347,2.99c0,1.315-0.979,2.321-2.347,2.321c-1.649,0-2.938-1.006-2.938-2.321
		C331.892,394.212,333.181,392.898,334.83,392.898L334.83,392.898z"/>
</g>
</svg>
